<svg id="Layer_1" data-name="Layer 1" xmlns="http://www.w3.org/2000/svg" viewBox="0 0 307 231"><defs><style>.cls-1{fill:#6a4199;}.cls-2{isolation:isolate;}.cls-3{fill:#fff;}</style></defs><title>berkowitz_state</title><path class="cls-1" d="M287,203.17a1.48,1.48,0,0,1-.19-.35,2.94,2.94,0,0,0-.3-.62,2.79,2.79,0,0,1-1.94,1.2,2.63,2.63,0,0,1-1.68-.4c-.33.32-.67.64-1,1-1.9,1.92-4.07,4.09-7.9,3.85A126.45,126.45,0,0,0,248.89,209c-3.94.52-8,1.08-11.18,3.69a8.22,8.22,0,0,1-5.17,2.21,1.53,1.53,0,0,1-.67-.15,2.37,2.37,0,0,1-1.34-1.39,2.55,2.55,0,0,1,.33-2.08l.1-.19c1.76-3.1,3.82-6.28,7-8.28a4.71,4.71,0,0,1-1.86-2.8c-.56-2.42,1.09-3.5,2-4.09a.69.69,0,0,1,.2-.13,4.37,4.37,0,0,1,2.11-1.15,3.54,3.54,0,0,0,.64-.23l.12-.09c1.71-1.32,1.63-1.41,1.1-2.13l-.1-.15c-2-2.46-1.71-5.16-1-7.74.14-2.07.12-4.2.11-6.26,0-1.75,0-3.48.05-5.22a1.38,1.38,0,0,1,.08-.45,13,13,0,0,0,.54-3.64c0-.24,0-.47,0-.71l-.08-2.59a1.47,1.47,0,0,1,.67-1.28,31.56,31.56,0,0,0,.05-4.14,22.17,22.17,0,0,1,.61-7.42,1.48,1.48,0,0,1-.29-.67l-.1-.59c-.27-1.76-.62-3.92.67-6l6.59-22.51a1.66,1.66,0,0,1,.51-.76c.16-.13.2-.55.21-1.17a5.36,5.36,0,0,1,.58-2.54,1.22,1.22,0,0,1-.11-.34,58.23,58.23,0,0,1-.44-11.69c.05-1.55.1-3.1.08-4.67a1.45,1.45,0,0,1,.07-.45c2.2-7.45,1.41-15.16.46-21.83l-.59-1.63a1.9,1.9,0,0,0-.56.21,1.49,1.49,0,0,1-.42.54,2,2,0,0,1-1.51,1.2,2.06,2.06,0,0,1-1.89-.85c-1-1.16-1.91-3.11-.18-5.83,0,0,0,0,0,0a6.49,6.49,0,0,0,.27-4.21.05.05,0,0,0,0,.05,23.39,23.39,0,0,0-1.79,5.31,3.62,3.62,0,0,1-.13.35,10.86,10.86,0,0,1-1.07,1.6,5.39,5.39,0,0,0-.4.54,5.91,5.91,0,0,0-.61,1c-.34.7-.66,1.36-1,2a8.16,8.16,0,0,0-.53,1.07L240.41,82a6.73,6.73,0,0,1-.88,1.21,1.58,1.58,0,0,1-.51.38,1.93,1.93,0,0,1-1.36,0,1.15,1.15,0,0,1-.34-.09,1.57,1.57,0,0,1-.84-2.1,1.5,1.5,0,0,0,.94,1.6,1.53,1.53,0,0,1-.88-1.88,11.64,11.64,0,0,1,1-2.1l.6-.94c.34-.51.69-1,1-1.57a9.39,9.39,0,0,1,.84-1.42l.61-.72c.35-.4.67-.79,1-1.19a3.65,3.65,0,0,0,.38-1c.67-2.35,1.41-5,3.29-7.13.05-.07.07-.13.12-.19a15.41,15.41,0,0,1,0-2.45,5.58,5.58,0,0,0-.4-3.28,1.41,1.41,0,0,1-.2-.49,15.15,15.15,0,0,1,1.14-9.39c1.79-4.18,3.26-8.3,1.42-12.86a8.45,8.45,0,0,1-.35-3.79,5.8,5.8,0,0,0-.25-2.94c-1.7-1.55-1.44-3.49-1.28-4.78a8.83,8.83,0,0,0,.09-1.24,1.59,1.59,0,0,1,.5-1.21c.51-.47.59-1.12.67-2.26a7,7,0,0,1,.88-3.32,19.59,19.59,0,0,0,1-5.63,1.42,1.42,0,0,0-.48-.1Q219.83,11,191.54,11a5.94,5.94,0,0,0-3.07.69c-1.51.95-3.06,1.85-4.59,2.73a50.72,50.72,0,0,0-8.91,6c-1.25,1.11-2.54,2.19-3.87,3.26-4.61,3.77-9,7.32-10.7,13.13a4.26,4.26,0,0,1-2.85,2.92c-2.24.69-4,2.29-5.93,4-2.54,2.25-5.17,4.59-9.16,5.13a1.11,1.11,0,0,0-.66.53,4.66,4.66,0,0,0-.58,3.39,1.18,1.18,0,0,0,.13.38l.85-.13a7.27,7.27,0,0,1,1.58-.09,6.78,6.78,0,0,1,4.56,2.29c.88,1,1.79,2.17,1.36,3.37a1.88,1.88,0,0,1-1.5,1.22c-.82.12-1,.39-1.28,2-.26,1.34-.64,3.39-2.9,4a2,2,0,0,0-.86.39c0,.11.33.77.51,1.15l.24.5a18,18,0,0,0,.91,1.67,17.15,17.15,0,0,1,1.33,2.64c1,2.67.88,5-.24,6.82-.74,1.18-2.3,2.68-5.55,3-3.52.4-6.4,1.94-9.6,5.18-6.14,6.21-13.16,8.64-21.49,7.42-5.2-.75-9.53-.33-13.26,1.28a6.51,6.51,0,0,1-7.29-1.12c-6.68-5.69-15-5.5-23-5.31-1.19,0-2.38.07-3.56.07-4.45,0-8.85,1.23-13.52,2.51-2.43.67-5,1.34-7.46,1.85-1.91.39-2.37,1-2.26,3.17s.45,3.37,2.14,4.48c2.29,1.49,3.94,5.69,4.53,9.18.32,1.85.64,5.23-.82,7.13-.57.77-1.15,1.55-1.71,2.35-2.83,4-5.77,8.08-11.21,9.61a11.18,11.18,0,0,0-3.61,2c-3.86,2.83-7.73,5.63-11.61,8.45l-4.13,3a13.61,13.61,0,0,0-.75,1.47,9.64,9.64,0,0,1,.41,5.21,7.63,7.63,0,0,0,.05,3.36,10.53,10.53,0,0,0,4.26.29c.65-.05,1.32-.08,2-.08h0l62.3,0q43.88,0,87.77.07h0c.55,0,1.12-.07,1.7-.12,2.25-.2,5.29-.51,7.37,2.43a5.48,5.48,0,0,1,2.43,3.25,6.41,6.41,0,0,0,.42,1c.19.19.46.22,1.26.24a4.86,4.86,0,0,1,3,.76,1.54,1.54,0,0,1,.29.28,8.56,8.56,0,0,0,1,.94c1.19,1.09,3.43,3.09,1.55,6.33,1.26,2.16,1.23,3.95-.1,5.34a7.34,7.34,0,0,1,1.34,1.33,1.5,1.5,0,0,1,.32.87c1.08,2.54,3.39,3.42,6.07,4.43.75.28,1.51.57,2.23.91a1.55,1.55,0,0,1,.61.29,17.54,17.54,0,0,1,1.67,1.59,2.41,2.41,0,0,1,.3.48,2.49,2.49,0,0,1,.38,1.12,5.21,5.21,0,0,1,1.38.72,1.49,1.49,0,0,1,.27.15c.43.29.86.56,1.31.81a16.51,16.51,0,0,1,3.18,2.32,1.45,1.45,0,0,1,.26.35.54.54,0,0,0,.59.32,1.75,1.75,0,0,1,.32,0,5.67,5.67,0,0,1,2.93,1.83l0,0c.14.06.34.11.5.16a4,4,0,0,1,2,1.13,7.23,7.23,0,0,1,1,.87l.2.17a1.32,1.32,0,0,1,.41.37,2.74,2.74,0,0,0,.61.24,4.14,4.14,0,0,1,2,1.1c.4.26.8.5,1.2.75.93.56,1.87,1.16,2.79,1.84a1.89,1.89,0,0,1,.2.2c.15.06.34.11.51.16a4.17,4.17,0,0,1,2.05,1.12,9.27,9.27,0,0,1,1,.83l.23.22a1.73,1.73,0,0,1,.4.37,2.75,2.75,0,0,0,.62.24,4.16,4.16,0,0,1,2,1.09,5.32,5.32,0,0,1,2.47,3.37,5.11,5.11,0,0,1-1.09,3.93L225.79,220a1.79,1.79,0,0,1-.19.32c1.41,1.11,2.8.85,5.06.27a12.72,12.72,0,0,1,4.19-.56c4.38.36,8.86-.52,14.52-2.83a69,69,0,0,1,16.1-4.19c7.82-1.16,17.94-3.24,26.9-9l.38-.23c-.14.07-.32.13-.52.21C291,204.6,288.68,205.56,287,203.17Z"/><g class="cls-2"><path class="cls-3" d="M177.94,68.47c-1.91,0-3.11,1-3.11,3.77v4.09h-5.67V72.62c0-6.11,3.05-9.61,9-9.61s8.95,3.5,8.95,9.61c0,5.07-1.86,9.17-7.43,15.11-3.54,3.82-4.52,5.62-4.52,7.64a4.52,4.52,0,0,0,0,.82h11.35v5.46H169.16V97c0-4.25,1.53-7.47,6-12.16,4.58-4.86,5.89-7.86,5.89-12C181.05,69.4,179.85,68.47,177.94,68.47Z"/><path class="cls-3" d="M190.28,72.62c0-6.11,3.22-9.61,9.11-9.61s9.11,3.5,9.11,9.61V92.48c0,6.11-3.22,9.6-9.11,9.6s-9.11-3.49-9.11-9.6Zm6,20.24c0,2.73,1.2,3.77,3.11,3.77s3.11-1,3.11-3.77V72.24c0-2.73-1.2-3.77-3.11-3.77s-3.11,1-3.11,3.77Z"/></g><g class="cls-2"><path class="cls-3" d="M135.12,123.49h-.06v14.43h-2.82V118h3.93l3.16,11.93h.06V118h2.79v19.93H139Z"/><path class="cls-3" d="M147.56,126.39h4.3v2.85h-4.3v5.83H153v2.85h-8.54V118H153v2.85h-5.41Z"/><path class="cls-3" d="M161.88,127.3h0l-1.12,10.62h-4.29L154.19,118h3.05l1.65,15.72H159L160.43,118h3L165,133.82h0l1.6-15.83h2.73l-2.22,19.93H163Z"/><path class="cls-3" d="M178.28,131.32l-4-13.33h3.28l2.36,9.08H180l2.36-9.08h3l-4,13.33v6.6h-3.13Z"/><path class="cls-3" d="M185.94,122.77c0-3.19,1.68-5,4.75-5s4.76,1.82,4.76,5v10.37c0,3.19-1.68,5-4.76,5s-4.75-1.82-4.75-5Zm3.13,10.57c0,1.42.63,2,1.62,2s1.63-.54,1.63-2V122.57c0-1.42-.63-2-1.63-2s-1.62.54-1.62,2Z"/><path class="cls-3" d="M204,137.92a6.11,6.11,0,0,1-.29-2.45v-3.13c0-1.85-.62-2.53-2-2.53H200.6v8.11h-3.13V118h4.73c3.24,0,4.64,1.51,4.64,4.58v1.57c0,2-.66,3.36-2.05,4v.06c1.56.66,2.08,2.14,2.08,4.22v3.07a5.75,5.75,0,0,0,.34,2.42Zm-3.42-17.08V127h1.23c1.16,0,1.87-.51,1.87-2.11v-2c0-1.43-.48-2-1.59-2Z"/><path class="cls-3" d="M213,130l-1,1.82v6.12h-3.14V118h3.14v8.63h0l4.05-8.63h3.13l-4.36,8.88,4.36,11h-3.22Z"/></g></svg>