<svg id="Layer_1" data-name="Layer 1" xmlns="http://www.w3.org/2000/svg" viewBox="0 0 307 226"><defs><style>.cls-1{fill:#47bdc3;}.cls-2{isolation:isolate;}.cls-3{fill:#fff;}</style></defs><title>bundy_state</title><path class="cls-1" d="M224.62,51c-.59,0-1.18,0-1.76,0-6.59-.13-13.29-.07-19.78,0-10.09.08-20.53.16-30.83-.41a1.49,1.49,0,0,1-.53-.15c-.08,0-.16-.11-.24-.16H170A1.28,1.28,0,0,1,168.73,49l-.1-36.6a6.56,6.56,0,0,0-.38-.87s0,0,0-.06a1.28,1.28,0,0,0-.85-.26q-42.51,0-84.86,0c-.45,0-1,0-1.47-.08a6.1,6.1,0,0,0-2.74.18v.88l0,.88c0,1.81-.08,3.61-.08,5.42l-.09,85.42,0,13.14,0,2.07c0,1.56.07,3.15.07,4.72l.09,86a1.94,1.94,0,0,1,.34,0c.59,0,1.18.06,1.79.06H227c.77,0,1.54-.05,2.31-.1a1.46,1.46,0,0,0,.29,0h.16c0-.72.08-1.46.08-2.18q0-75.87,0-151.74c0-1-.07-2-.13-3,0-.3,0-.6-.05-.92C228.27,50.85,226.57,50.91,224.62,51Z"/><g class="cls-2"><path class="cls-3" d="M149.25,109.86c0,6.44-2.94,9.93-9.16,9.93-5.9,0-9-3.49-9-9.6v-1h5.67v1.36c0,2.73,1.2,3.77,3.11,3.77,2.13,0,3.33-1,3.33-4.69v-6.93h-.11a5.52,5.52,0,0,1-5.46,3.32c-4.42,0-6.65-3.11-6.65-8.73v-7c0-6.11,3.22-9.6,9.11-9.6s9.11,3.49,9.11,9.6Zm-6-13V90c0-2.73-1.2-3.71-3.11-3.71S137,87.22,137,90v6.87c0,2.73,1.2,3.77,3.11,3.77S143.25,99.55,143.25,96.82Z"/><path class="cls-3" d="M170.86,109.86c0,6.44-2.94,9.93-9.16,9.93-5.9,0-8.95-3.49-8.95-9.6v-1h5.67v1.36c0,2.73,1.2,3.77,3.11,3.77,2.13,0,3.33-1,3.33-4.69v-6.93h-.11a5.52,5.52,0,0,1-5.46,3.32c-4.42,0-6.65-3.11-6.65-8.73v-7c0-6.11,3.22-9.6,9.11-9.6s9.11,3.49,9.11,9.6Zm-6-13V90c0-2.73-1.2-3.71-3.11-3.71s-3.11,1-3.11,3.71v6.87c0,2.73,1.2,3.77,3.11,3.77S164.86,99.55,164.86,96.82Z"/></g><g class="cls-2"><path class="cls-3" d="M133.58,134.25v15.37c0,1.43.62,1.94,1.62,1.94s1.62-.51,1.62-1.94V134.25h3v15.17c0,3.19-1.59,5-4.67,5s-4.67-1.82-4.67-5V134.25Z"/><path class="cls-3" d="M141,134.25h9.69v2.84h-3.28v17.09h-3.13V137.09H141Z"/><path class="cls-3" d="M161.11,154.18H158l-.54-3.62h-3.85l-.54,3.62h-2.88l3.19-19.93h4.59ZM154,147.86h3l-1.48-10.08h-.06Z"/><path class="cls-3" d="M165.69,154.18h-3.13V134.25h3.13v8.54h3.56v-8.54h3.19v19.93h-3.19v-8.54h-3.56Z"/></g></svg>