<svg id="Layer_1" data-name="Layer 1" xmlns="http://www.w3.org/2000/svg" viewBox="0 0 307 226"><defs><style>.cls-1{fill:#ef3642;}.cls-2{isolation:isolate;}.cls-3{fill:#fff;}</style></defs><title>dahmer_state</title><path class="cls-1" d="M133.82,200a7.33,7.33,0,0,1-3.38-1.06c-9.78-5.13-18.24-8.3-26.59-10a10.14,10.14,0,0,1-1.07-.29,8.39,8.39,0,0,0-2.32-.49,1.69,1.69,0,0,0-1.42.59c-1.28,1.47-2.79,1.5-4.39,1.55-.62,0-1.18.06-1.71.13l-.21,0c-.11,0-.24,0-.35.06a1,1,0,0,1-.24,0,1,1,0,0,1-.41-.1,3.61,3.61,0,0,1-1.09-.8.94.94,0,0,1-.14-.19,9.55,9.55,0,0,0-1.22-1.62c-1.87-.8-1.9-2-1.74-3.82a11.61,11.61,0,0,0,.06-1.55,73.28,73.28,0,0,1,0-7.41A49.27,49.27,0,0,0,87,163.77a1.15,1.15,0,0,1,0-.18,2.4,2.4,0,0,1-.16-.27c-.32-.3-.64-.62-.94-.94a1.58,1.58,0,0,1-.12-.15,2.86,2.86,0,0,0-1.37-.72,6.73,6.73,0,0,1-.69-.24.8.8,0,0,1-.32-.25,3,3,0,0,0-1.36-.7,3.43,3.43,0,0,1-.8-.31.83.83,0,0,1-.21-.17c-.38-.36-.72-.69-1.05-1a.91.91,0,0,1-.13-.16,2.85,2.85,0,0,0-1.39-.73,4.53,4.53,0,0,1-.66-.23,1,1,0,0,1-.36-.29,2.87,2.87,0,0,0-1.35-.67,5.52,5.52,0,0,1-.75-.27,1.06,1.06,0,0,1-.29-.22,6.16,6.16,0,0,1-2.36-2.37,1.46,1.46,0,0,1-.4-.53,3.49,3.49,0,0,1-.16-1.09,2.58,2.58,0,0,0-.72-2c-.4-.36-.71-.67-1-1l.58-.91-.7.76a14.42,14.42,0,0,1-1.11-1.1,1.1,1.1,0,0,1-.11-.14,4.76,4.76,0,0,1-.59-3.67.94.94,0,0,1,.13-.32,7.25,7.25,0,0,1,2.43-2.19,6.69,6.69,0,0,0,2.91-3c0-.1,0-.07.06-.15.15-.25.34-.51.51-.77,1-1.37,1.67-2.57.55-4.17l-.27-.22c-.29-.28-.56-.56-.84-.85a12,12,0,0,1-.92-1.47,1.24,1.24,0,0,1-.1-.31,90,90,0,0,1-1.07-23.11,1.16,1.16,0,0,1,.08-.32,7.16,7.16,0,0,1,2.91-2.86.93.93,0,0,1,.18-.16q.49-.53,1-1s.18-.16.19-.18c.27-.29.61-.64,1-1,0,0,.08-.08.13-.11l.11-.15a4.22,4.22,0,0,1,2.11-1.76,12.47,12.47,0,0,0,1.35-.79,1,1,0,0,1,.46-.2,5.08,5.08,0,0,1,.7,0h.67c.23,0,.45,0,.69,0a3.44,3.44,0,0,0,2.15-.61,2.53,2.53,0,0,1,.22-.26c1.23-2.62,3.57-3.53,6-4.51a15.13,15.13,0,0,0,4.6-2.46l.16-.19c.26-.27.53-.53.8-.78l.2-.15a8.81,8.81,0,0,1,.94-.7,5.34,5.34,0,0,0,2-2,5.1,5.1,0,0,1,1.17-3.33,3.79,3.79,0,0,1,.59-1.1,2.2,2.2,0,0,1,1.14-.61,2.85,2.85,0,0,0,1.34-.7l.24-.26.94-.93.11-.12c.36-.37.72-.72,1.09-1.08s.69-.72,1-1l.87.62-.72-.74a8.45,8.45,0,0,1,3.5-1.75,9.11,9.11,0,0,0,3.68-1.86,1.6,1.6,0,0,1,.16-.19l.81-.82a.72.72,0,0,1,.15-.11,19,19,0,0,0,1.15-1.71,16.22,16.22,0,0,1,1.33-2,.44.44,0,0,1,.08-.09l.91-.91,1,.44-.85-.6s.06-.15.06-.16a25.45,25.45,0,0,0,.63-8.31,37.32,37.32,0,0,1,0-4.73,6,6,0,0,0,0-.93,4.5,4.5,0,0,0-.15-.73,1.05,1.05,0,0,1,.59-1.2l.32-.13.92-1.17c.43-2.41,1.76-4.06,3.63-5.82a.32.32,0,0,0,.09-.16,5.13,5.13,0,0,0-2.17-5.45,1,1,0,0,1-.29-.35,4.87,4.87,0,0,1,.38-5.46,4.42,4.42,0,0,0,.24-2.16,3.35,3.35,0,0,1,.34-2.14.73.73,0,0,1,.22-.24,3,3,0,0,0,.61-1.31,7.55,7.55,0,0,1,.24-.72,1,1,0,0,1,.34-.4,9.34,9.34,0,0,0,.68-2.33c.28-1.38.55-2.69,1.72-3.62a1.39,1.39,0,0,1,.41-.35,6,6,0,0,1,.66-.24,2.68,2.68,0,0,0,1.31-.66c.08-.11.09-.09.21-.17a3.13,3.13,0,0,1,1.68-.39c.25,0,.52,0,.84,0s.58,0,.87,0a3.47,3.47,0,0,0,2.32-.69,1.21,1.21,0,0,1,.54-.38c.16-.05.43-.12.59-.15a2.36,2.36,0,0,0,1.68-.88,9.49,9.49,0,0,0,1.36-3.85,1,1,0,0,1,.35-.61,5.67,5.67,0,0,1,.58-.42,1.19,1.19,0,0,1,.61-.19h0c2.14,0,4.28,0,6.42,0h65.37q6.45,0,12.9,0h0c.49,0,.85,0,1.21.06l.2,0c.44,0,.92.08,1.44.08a5.44,5.44,0,0,0,1.4-.16,1.17,1.17,0,0,1,.26,0,1,1,0,0,1,.57.18v0a1.13,1.13,0,0,1,.47.67c.09.54.21,1.09.32,1.63.89,4.33,1.81,8.83-1.17,13-4.62,6.53-3.34,13.84-1.69,19.48.51,1.76,1,3.51,1.59,5.25,2.36,7.5,4.55,14.52,4.15,22.29-.18,3.26,1.08,5.47,3.72,6.54a3.56,3.56,0,0,1,2.19,2,3.47,3.47,0,0,1-.48,2.86c-1.16,2-.7,3.55-.08,5.62,1.54,5,3,9.51,5.92,13.54,1.15,1.62.51,2.64-.67,4.13a9.47,9.47,0,0,0-.93,1.28,1.52,1.52,0,0,1-.59.65,1.19,1.19,0,0,1-.29.12l-.27,0a4.36,4.36,0,0,1-1.41-.37,6.12,6.12,0,0,0-.67-.24c-2.93-.93-4.8-2-5.68-4.8-1-3-3.34-5-5.64-6.87l-1-.8a3,3,0,0,0-2-.72,3.85,3.85,0,0,0-1.76.44,1.76,1.76,0,0,0-1,2.35,45.33,45.33,0,0,1,2.06,5.22c1.65,4.73,3.2,9.19,8.25,11.77,1.63.83,2.51,1.69,2.69,2.65a3.26,3.26,0,0,1-.87,2.53,1,1,0,0,1-.51.35,1.53,1.53,0,0,0-.81.61,5.43,5.43,0,0,0-.47,1.33,4.23,4.23,0,0,1-.51,1.37.93.93,0,0,1-.16.18,2,2,0,0,0-.05,2.83,8.79,8.79,0,0,1,1.67,2.85,1,1,0,0,1,0,.24,4.33,4.33,0,0,1,0,.72,1,1,0,0,1-.38.76,1.4,1.4,0,0,1-.43.24.86.86,0,0,1-.32.05,1.93,1.93,0,0,1-1-.38,2.29,2.29,0,0,1-.23-.21,5,5,0,0,0-1.79-.38,1.64,1.64,0,0,0-1.26.43c-.53.56-.48,1.56.12,3.16,1,1.73.95,3.51.88,5.41a15,15,0,0,0,.2,3.85,1,1,0,0,1-.08.71,3.31,3.31,0,0,1-.79,1s-.19.16-.19.17a3,3,0,0,1-1.26,1,1.06,1.06,0,0,1-.39.06h-.06a6.28,6.28,0,0,1-1.49.6,4.93,4.93,0,0,0-1.57.67,1.19,1.19,0,0,1-.6.46,3.86,3.86,0,0,1-1.2.13,4.37,4.37,0,0,0-1.54.21,1.84,1.84,0,0,0-.72,1.58l.27.5c.61.94,1.19,1.84.48,2.78a.69.69,0,0,1-.24.24,5.52,5.52,0,0,1-1.21,1.25,1.67,1.67,0,0,1-.46.38,2.93,2.93,0,0,1-1.27.19h-.75a3.39,3.39,0,0,0-2.27.58,1.42,1.42,0,0,1-.7.53,5.17,5.17,0,0,1-.92.09,2.83,2.83,0,0,0-2,.64,1.09,1.09,0,0,1-.62.43,1.54,1.54,0,0,1-.3,0,3.28,3.28,0,0,1-1.39-.48.53.53,0,0,0-.2-.07h-.25a.32.32,0,0,0-.18,0,5,5,0,0,1-2.72.63c-.27,0-.54,0-.83,0h-1.73a3.68,3.68,0,0,0-2.47.61,1.41,1.41,0,0,1-.5.41,3.06,3.06,0,0,1-1.18.2l-1,0a2.93,2.93,0,0,0-2.11.66,1.05,1.05,0,0,1-.36.3,4.69,4.69,0,0,1-.75.27,3.07,3.07,0,0,0-1.29.61,1.21,1.21,0,0,1-.43.35,3.82,3.82,0,0,1-.66.23,3,3,0,0,0-1.3.59,1.41,1.41,0,0,1-.54.43,3.44,3.44,0,0,1-1.06.14,2.8,2.8,0,0,0-2,.64,1.21,1.21,0,0,1-.4.34,2.73,2.73,0,0,1-1.15.21h-.93a3.46,3.46,0,0,0-2.27.61,1.41,1.41,0,0,1-.49.42l-.6.19a3.15,3.15,0,0,0-1.29.59,1.5,1.5,0,0,1-.45.38,5.24,5.24,0,0,1-.65.23,3.13,3.13,0,0,0-1.27.59,1.29,1.29,0,0,1-.45.38,3.14,3.14,0,0,1-1.16.19,2.68,2.68,0,0,0-1.95.64,1,1,0,0,1-.48.37,3.19,3.19,0,0,1-1.16.16h-.44l-.6,0a3.07,3.07,0,0,0-2.07.59,1.44,1.44,0,0,1-.71.53,6.14,6.14,0,0,1-.88.09,2.84,2.84,0,0,0-2,.64,1.08,1.08,0,0,1-.24.18,4.16,4.16,0,0,1-2,.43c-.36,0-.76,0-1.23-.06s-.83-.07-1.26-.07a8.4,8.4,0,0,0-.85.05l-.25,0a3.78,3.78,0,0,0-2.5.6,1.2,1.2,0,0,1-.38.29c-.24.11-.51.23-.8.34a4,4,0,0,0-2.26,1.57.78.78,0,0,1-.16.2,3.51,3.51,0,0,0-.56,1.25c-.08.27-.16.51-.22.69a1.12,1.12,0,0,1-.34.41,7.58,7.58,0,0,1-1.2,1.25,1,1,0,0,1-.17.23,12.18,12.18,0,0,1-1,.92,2.06,2.06,0,0,1-.29.37,2.89,2.89,0,0,1-1.18.75l-.21.05a4,4,0,0,0-2.41,1.12,1,1,0,0,1-.66.27,14.07,14.07,0,0,0-6.27,2.32,7,7,0,0,1-3.53,1.18,4.48,4.48,0,0,1-3.14-1.4,4.31,4.31,0,0,0-3-1.35,5.6,5.6,0,0,0-2.51.69.42.42,0,0,0-.16.19.33.33,0,0,0,0,.24,40.57,40.57,0,0,1,3.36,6.21,39.77,39.77,0,0,0,3.23,6,1,1,0,0,1-.26,1.44A3.86,3.86,0,0,1,133.82,200Z"/><path class="cls-1" d="M231.81,13.2h0c.12.56.24,1.1.33,1.65.88,4.31,1.73,8.38-1,12.21-4.88,6.9-3.55,14.51-1.85,20.36.51,1.79,1.07,3.57,1.63,5.34C233.23,60.1,235.4,67,235,74.63c-.24,4.67,2.23,6.68,4.36,7.54a2.63,2.63,0,0,1,1.6,1.35,2.73,2.73,0,0,1-.4,2c-1.39,2.45-.83,4.31-.16,6.45,1.57,5.12,3.1,9.69,6.06,13.85.71,1,.51,1.42-.64,2.86a13.49,13.49,0,0,0-1,1.42.83.83,0,0,1-.21.28h0a5.27,5.27,0,0,1-1-.31l-.73-.25c-2.72-.87-4.24-1.73-5-4.13-1-3.28-3.55-5.36-6-7.37l-.94-.79a4,4,0,0,0-2.61-1,5.18,5.18,0,0,0-2.24.56,2.81,2.81,0,0,0-1.49,3.75,46.29,46.29,0,0,1,2,5.1c1.63,4.72,3.33,9.59,8.76,12.36,1.28.66,2,1.31,2.15,1.92a2.49,2.49,0,0,1-.68,1.69,2.62,2.62,0,0,0-1.34,1,6.61,6.61,0,0,0-.62,1.67,3.37,3.37,0,0,1-.37,1,1.31,1.31,0,0,0-.11.12,3,3,0,0,0,0,4.12l0,.07a7.94,7.94,0,0,1,1.42,2.43,3.21,3.21,0,0,1,0,.62l-.1.07h0a1,1,0,0,1-.43-.21,1.33,1.33,0,0,0-.63-.42,6.93,6.93,0,0,0-2-.35,2.62,2.62,0,0,0-2,.77c-1.09,1.17-.56,3-.08,4.25l.09.21c.83,1.41.77,3,.7,4.78a15.21,15.21,0,0,0,.23,4.13,2.17,2.17,0,0,1-.53.64l-.13.09a1.43,1.43,0,0,0-.2.23,2.1,2.1,0,0,1-.84.68h-.08a1.4,1.4,0,0,0-.72.21,3.75,3.75,0,0,1-1.05.42,5.9,5.9,0,0,0-1.87.81,1.39,1.39,0,0,0-.32.32,3,3,0,0,1-.9.08,5,5,0,0,0-1.9.29,1.38,1.38,0,0,0-.4.26,2.89,2.89,0,0,0-1,2.35,1.58,1.58,0,0,0,.19.64l.23.37c.65,1,.75,1.31.52,1.61a1.05,1.05,0,0,0-.32.34,3.42,3.42,0,0,1-.91.91,1.5,1.5,0,0,0-.29.27,2,2,0,0,1-.83.1h-.88a4.23,4.23,0,0,0-2.76.79,1.26,1.26,0,0,0-.32.33,6.41,6.41,0,0,1-.72.07,3.72,3.72,0,0,0-2.67.92.84.84,0,0,0-.15.18h-.05a2.93,2.93,0,0,1-.91-.37,1.7,1.7,0,0,0-.57-.17l-.28,0h-.09a1.24,1.24,0,0,0-.72.21,4,4,0,0,1-2.16.46h-.8c-.29,0-.58,0-.86,0s-.48,0-.72,0h-.16a4.71,4.71,0,0,0-3.12.81,1.24,1.24,0,0,0-.27.29,2.17,2.17,0,0,1-.79.09h-.45l-.51,0a3.91,3.91,0,0,0-2.8.93l-.14.14a3.86,3.86,0,0,1-.56.2,3.79,3.79,0,0,0-1.69.83,1.57,1.57,0,0,0-.18.19c-.13.06-.32.11-.53.18a4.09,4.09,0,0,0-1.68.81,2.29,2.29,0,0,0-.21.23,4.51,4.51,0,0,1-.75.09,3.71,3.71,0,0,0-2.67,1l-.11.13a1.85,1.85,0,0,1-.7.09h-.37a5.82,5.82,0,0,0-.59,0,4.36,4.36,0,0,0-2.88.85,1.12,1.12,0,0,0-.24.25l-.48.16a4.08,4.08,0,0,0-1.7.82,1.31,1.31,0,0,0-.2.21,3.25,3.25,0,0,1-.52.16,4,4,0,0,0-1.66.8,1.47,1.47,0,0,0-.21.22,2.56,2.56,0,0,1-.78.1,3.57,3.57,0,0,0-2.66,1l-.11.12a2.15,2.15,0,0,1-.77.08h-.43a3.46,3.46,0,0,0-.45,0H174a4.23,4.23,0,0,0-2.72.8,1.21,1.21,0,0,0-.3.34,7,7,0,0,1-.71.06,3.72,3.72,0,0,0-2.67.93,3,3,0,0,1-1.52.3c-.33,0-.72,0-1.15-.06s-.88-.07-1.32-.07a6.92,6.92,0,0,0-1,.07h-.12a4.71,4.71,0,0,0-3.12.81,1.62,1.62,0,0,0-.19.18c-.21.1-.47.19-.72.3a5,5,0,0,0-2.79,2,.09.09,0,0,0,0,.05,3.88,3.88,0,0,0-.78,1.66,4,4,0,0,1-.18.53,1.28,1.28,0,0,0-.29.28,6.87,6.87,0,0,1-1,1,1.16,1.16,0,0,0-.24.29,8.74,8.74,0,0,1-.89.83,1.17,1.17,0,0,0-.37.43,2.32,2.32,0,0,1-.8.53,5.15,5.15,0,0,0-3,1.4,15.34,15.34,0,0,0-6.74,2.45,6.28,6.28,0,0,1-3,1,3.34,3.34,0,0,1-2.4-1.12,5.31,5.31,0,0,0-3.76-1.63,6.31,6.31,0,0,0-3,.82,1.33,1.33,0,0,0-.48,2,41.65,41.65,0,0,1,3.28,6.06,41.41,41.41,0,0,0,3.31,6.18,2.67,2.67,0,0,1-1.6.51,6.74,6.74,0,0,1-2.9-.93C121,192.86,112.42,189.66,104,188a10.74,10.74,0,0,1-1.1-.3,8.67,8.67,0,0,0-2.5-.5,2.78,2.78,0,0,0-2.2.95c-.93,1.07-1.94,1.15-3.62,1.18-.59,0-1.21.06-1.82.14-.23,0-.45.05-.67.1a2.56,2.56,0,0,1-.76-.58A10.58,10.58,0,0,0,90,187.18a1.32,1.32,0,0,0-.46-.32c-1.07-.44-1.15-.94-1-2.7a13.89,13.89,0,0,0,.06-1.71,70.91,70.91,0,0,1,0-7.29,51,51,0,0,0-.56-11.6,1.11,1.11,0,0,0-.16-.59,1.53,1.53,0,0,0-.34-.42c-.3-.28-.61-.59-.91-.89a1.66,1.66,0,0,0-.16-.21,3.71,3.71,0,0,0-1.79-.94,5.38,5.38,0,0,1-.53-.18s0-.05-.06-.08a4,4,0,0,0-1.78-.93,2.32,2.32,0,0,1-.57-.2s0-.07-.08-.08c-.34-.31-.66-.63-1-.95l-.14-.19a3.93,3.93,0,0,0-1.81-1,2.53,2.53,0,0,1-.51-.17l-.07-.08a3.85,3.85,0,0,0-1.79-.94,3.5,3.5,0,0,1-.54-.2,2.18,2.18,0,0,0-.27-.24l-.08,0a4.82,4.82,0,0,1-1.89-1.91,1.68,1.68,0,0,0-.33-.4,3.66,3.66,0,0,1-.1-.77A3.61,3.61,0,0,0,72,149.41l-.07,0c-.3-.29-.59-.58-.88-.88a.9.9,0,0,0-.16-.19,14.58,14.58,0,0,1-1-1,3.83,3.83,0,0,1-.46-2.91,6,6,0,0,1,2.11-1.84,7.66,7.66,0,0,0,3.3-3.44s0,0,0,0c.15-.25.34-.51.51-.76.79-1.11,2.12-2.95.5-5.28a1.28,1.28,0,0,0-.4-.37c-.27-.27-.54-.53-.8-.81a10.76,10.76,0,0,1-.77-1.25,88.81,88.81,0,0,1-1-22.84,6.35,6.35,0,0,1,2.56-2.43,1.25,1.25,0,0,0,.27-.24h0c.33-.35.69-.7,1-1.06l.15-.12v0c.32-.35.68-.69,1-1a1.82,1.82,0,0,0,.34-.34,1,1,0,0,0,.11-.21c.27-.56.8-.84,1.65-1.28a9.51,9.51,0,0,0,1.48-.89,3.2,3.2,0,0,1,.55,0h.62c.22,0,.48,0,.74,0a4.37,4.37,0,0,0,2.76-.82.62.62,0,0,0,.2-.16,1.76,1.76,0,0,0,.33-.49c1.06-2.26,3.1-3.06,5.47-4A15.88,15.88,0,0,0,97,92a1.38,1.38,0,0,0,.22-.26L98,91a.83.83,0,0,0,.18-.13,6.18,6.18,0,0,1,.88-.64,6.22,6.22,0,0,0,2.32-2.35,1.4,1.4,0,0,0,.12-.58,3.79,3.79,0,0,1,.9-2.54,1.4,1.4,0,0,0,.26-.46,1.73,1.73,0,0,1,.35-.64l0,0a1.58,1.58,0,0,1,.59-.22,3.65,3.65,0,0,0,1.82-1l.07-.08.13-.13c.3-.3.6-.6.92-.89l.15-.16,1-1,.15-.14c.28-.29.56-.58.86-.85A.91.91,0,0,0,109,79,7.53,7.53,0,0,1,112,77.44a9.82,9.82,0,0,0,4.08-2.09.88.88,0,0,0,.19-.24c.25-.26.51-.53.78-.77a1.29,1.29,0,0,0,.34-.32c.4-.56.76-1.14,1.12-1.73a19.19,19.19,0,0,1,1.24-1.85l0,0c.24-.26.5-.51.75-.75l.15-.15a1.8,1.8,0,0,0,.27-.28,2.23,2.23,0,0,0,.22-.47,25.67,25.67,0,0,0,.66-8.63,37.31,37.31,0,0,1,0-4.61,7,7,0,0,0,0-1.12,8.65,8.65,0,0,0-.16-.86l.35-.15a1.43,1.43,0,0,0,.48-.4l.8-1.07a1.5,1.5,0,0,0,.26-.59c.33-2,1.53-3.49,3.26-5.1a1.43,1.43,0,0,0,.4-.72A6.2,6.2,0,0,0,124.64,39a3.76,3.76,0,0,1,.29-4.36,2.69,2.69,0,0,0,.16-.29,5.68,5.68,0,0,0,.29-2.56,2.61,2.61,0,0,1,.16-1.54,1.7,1.7,0,0,0,.19-.19,4.58,4.58,0,0,0,.76-1.64c.07-.21.12-.42.18-.56a1.31,1.31,0,0,0,.42-.53,12.06,12.06,0,0,0,.68-2.46c.29-1.44.52-2.36,1.35-3a1.26,1.26,0,0,0,.22-.24,3,3,0,0,1,.51-.18,3.74,3.74,0,0,0,1.73-.91h0a2.29,2.29,0,0,1,1.15-.22l.8,0c.29,0,.61,0,.93,0a4.59,4.59,0,0,0,3-.89,1.58,1.58,0,0,0,.22-.23,3,3,0,0,1,.5-.11,3.31,3.31,0,0,0,2.32-1.33A10.59,10.59,0,0,0,142,13.6c.16-.13.33-.24.51-.37,2.09,0,4.2,0,6.3,0h65.46q6.47,0,12.93-.05h.12c.43,0,.81.05,1.21.08a14.79,14.79,0,0,0,1.54.08,5.93,5.93,0,0,0,1.76-.16m0-2.08a2.18,2.18,0,0,0-.52.06,4.8,4.8,0,0,1-1.15.13c-.44,0-.89-.05-1.34-.08h-.18a10.83,10.83,0,0,0-1.21-.07h-.15c-3.75,0-7.85,0-12.9,0H148.9c-2.09,0-4.19,0-6.28,0h0a2,2,0,0,0-1.12.34c-.27.18-.51.34-.72.51a2.22,2.22,0,0,0-.72,1.23,8.4,8.4,0,0,1-1.18,3.44c-.18.26-.4.34-1,.46a6.37,6.37,0,0,0-.75.2,2,2,0,0,0-.9.59,2.6,2.6,0,0,1-1.63.41q-.44,0-.81,0l-.92,0a4.08,4.08,0,0,0-2.2.53,2.41,2.41,0,0,0-.44.33,1.94,1.94,0,0,1-.83.37,6.63,6.63,0,0,0-.86.32,2,2,0,0,0-.66.53,6.69,6.69,0,0,0-2,4.17,11.35,11.35,0,0,1-.48,1.87,2.09,2.09,0,0,0-.46.64,5.5,5.5,0,0,0-.31.88,2.47,2.47,0,0,1-.33.85,1.66,1.66,0,0,0-.37.43,4.36,4.36,0,0,0-.5,2.77,3.77,3.77,0,0,1-.11,1.57,5.88,5.88,0,0,0-.42,6.46,2.18,2.18,0,0,0,.6.72,4.13,4.13,0,0,1,1.84,4.19,11.06,11.06,0,0,0-3.68,5.93l-.59.78-.13,0a2.08,2.08,0,0,0-1.2,2.39,4.21,4.21,0,0,1,.11.6,4.15,4.15,0,0,1,0,.79,45,45,0,0,0,0,4.79,24.09,24.09,0,0,1-.53,7.84h0l-.14.15c-.26.25-.51.51-.77.78a.75.75,0,0,0-.11.13l0,0h0a16.2,16.2,0,0,0-1.39,2.06c-.31.5-.63,1-1,1.49-.07.05-.11.1-.16.14-.29.28-.58.56-.85.85a1.81,1.81,0,0,0-.18.21,8.46,8.46,0,0,1-3.23,1.57,9.61,9.61,0,0,0-3.87,2l-.16.15c-.32.3-.62.6-.92.91l-.12.11c-.36.35-.72.7-1.07,1.06a.86.86,0,0,0-.13.14l-.92.91-.13.11L104,81a1.88,1.88,0,0,1-.85.38,3.13,3.13,0,0,0-1.52.82.63.63,0,0,0-.11.13,4,4,0,0,0-.67,1.2,5.92,5.92,0,0,0-1.28,3.56A4.34,4.34,0,0,1,98,88.52a12.23,12.23,0,0,0-1.05.77,1.37,1.37,0,0,0-.29.24l-.82.82a1.93,1.93,0,0,0-.17.21,14.34,14.34,0,0,1-4.24,2.22c-2.53,1-5.13,2-6.56,5a2.41,2.41,0,0,1-1.45.35l-.64,0H82.1a4.4,4.4,0,0,0-.86.06,2,2,0,0,0-.93.4,9,9,0,0,1-1.17.69,5.17,5.17,0,0,0-2.51,2.11.39.39,0,0,1-.1.08l-1,1-.09.1c-.34.32-.67.66-1,1a.4.4,0,0,0-.13.13,7.93,7.93,0,0,0-3.23,3.26,2.16,2.16,0,0,0-.18.66A90.74,90.74,0,0,0,71.94,131a2.52,2.52,0,0,0,.21.62,11.6,11.6,0,0,0,.91,1.49,1.66,1.66,0,0,1,.16.21l.87.88.2.19c.58.91.37,1.5-.54,2.77l-.08.11a9.59,9.59,0,0,0-.56.85l-.14.28a6,6,0,0,1-2.5,2.47,8.08,8.08,0,0,0-2.76,2.52,1.72,1.72,0,0,0-.24.63,5.82,5.82,0,0,0,.73,4.43,3.11,3.11,0,0,0,.23.28,15,15,0,0,0,1.13,1.14.57.57,0,0,0,.13.14c.3.32.62.63.94.93l.16.15c.24.2.31.54.34,1.26a4.74,4.74,0,0,0,.22,1.41,2,2,0,0,0,.53.78A6.82,6.82,0,0,0,74.41,157a1.89,1.89,0,0,0,.48.36,3.93,3.93,0,0,0,.94.36,2.26,2.26,0,0,1,.91.4,1.68,1.68,0,0,0,.66.49,6.12,6.12,0,0,0,.81.29,2.4,2.4,0,0,1,.87.37,1.71,1.71,0,0,0,.22.25c.37.37.7.71,1.06,1a1.62,1.62,0,0,0,.41.32,4.57,4.57,0,0,0,1,.41,2.35,2.35,0,0,1,.9.4,1.83,1.83,0,0,0,.64.48,4.83,4.83,0,0,0,.84.31,2.3,2.3,0,0,1,.85.36.91.91,0,0,0,.18.21c.27.29.57.58.86.87v0a50,50,0,0,1,.53,11.13c-.07,2.45-.14,5,0,7.5a11.35,11.35,0,0,1,0,1.39c-.12,1.54-.32,3.65,2.11,4.73a8.15,8.15,0,0,1,1,1.33,3.52,3.52,0,0,0,.27.37,4.69,4.69,0,0,0,1.42,1,2.25,2.25,0,0,0,.84.17,1.65,1.65,0,0,0,.49-.06,1,1,0,0,1,.24,0l.24,0a12.47,12.47,0,0,1,1.59-.13c1.66,0,3.55-.1,5.13-1.9a.7.7,0,0,1,.64-.24,6.89,6.89,0,0,1,1.89.4l.11,0c.38.11.78.24,1.2.32,8.25,1.63,16.61,4.76,26.31,9.87A8.21,8.21,0,0,0,133.9,201a4.81,4.81,0,0,0,2.78-.89,2.1,2.1,0,0,0,.53-2.9,40.11,40.11,0,0,1-3.13-5.85,46.85,46.85,0,0,0-3-5.65,3.69,3.69,0,0,1,1.26-.24,3.33,3.33,0,0,1,2.32,1.06,5.37,5.37,0,0,0,3.85,1.69,8.11,8.11,0,0,0,4.07-1.32,13.2,13.2,0,0,1,5.8-2.18,2.07,2.07,0,0,0,1.3-.56,3.06,3.06,0,0,1,1.82-.85,1.65,1.65,0,0,0,.43-.09,4.12,4.12,0,0,0,1.58-1,1.52,1.52,0,0,0,.32-.39,8,8,0,0,0,1-.91c.06-.08.14-.16.22-.25a9.55,9.55,0,0,0,1.17-1.2,2.1,2.1,0,0,0,.58-.74c.12-.29.2-.58.28-.83a2.4,2.4,0,0,1,.37-.88h0a2.27,2.27,0,0,0,.26-.35,3,3,0,0,1,1.73-1.12,8.55,8.55,0,0,0,.86-.37,2.19,2.19,0,0,0,.61-.45,2.91,2.91,0,0,1,1.8-.35h.15a1.06,1.06,0,0,0,.25,0,5.39,5.39,0,0,1,.72,0c.4,0,.8,0,1.19.06s.91.06,1.29.06a5.31,5.31,0,0,0,2.48-.54,2.12,2.12,0,0,0,.48-.35c.27-.27.62-.3,1.33-.35a8.79,8.79,0,0,0,1.07-.11,2.08,2.08,0,0,0,1.18-.77,2.24,2.24,0,0,1,1.38-.31h1a4,4,0,0,0,1.54-.24,1.93,1.93,0,0,0,.86-.64c.24-.24.58-.27,1.23-.3a3.86,3.86,0,0,0,1.55-.29,2.06,2.06,0,0,0,.76-.59,2.84,2.84,0,0,1,.81-.32,4.44,4.44,0,0,0,.8-.27,2.23,2.23,0,0,0,.75-.58,2.62,2.62,0,0,1,.87-.35c.25-.08.51-.14.7-.22a2,2,0,0,0,.83-.63,2.51,2.51,0,0,1,1.49-.33h1a3.52,3.52,0,0,0,1.62-.31,2.3,2.3,0,0,0,.74-.57c.2-.21.54-.26,1.24-.29a4.72,4.72,0,0,0,1.35-.21,2.17,2.17,0,0,0,.94-.67,2.47,2.47,0,0,1,.82-.33,5.11,5.11,0,0,0,.83-.29,2.07,2.07,0,0,0,.72-.56,2.39,2.39,0,0,1,.83-.34,5.12,5.12,0,0,0,.94-.35,2.59,2.59,0,0,0,.61-.48,1.94,1.94,0,0,1,1.37-.35h1a3.89,3.89,0,0,0,1.59-.27,2,2,0,0,0,.8-.61,3,3,0,0,1,1.77-.32h1.7c.29,0,.57,0,.86,0a6.34,6.34,0,0,0,3-.62,3.74,3.74,0,0,0,1.73.54,3.31,3.31,0,0,0,.54-.06,2.09,2.09,0,0,0,1.12-.72,2,2,0,0,1,1.29-.32,5.92,5.92,0,0,0,1.09-.13,2,2,0,0,0,1.17-.77,2.44,2.44,0,0,1,1.42-.3h.88a4,4,0,0,0,1.7-.27,2.13,2.13,0,0,0,.72-.55,5.87,5.87,0,0,0,1.26-1.28,1.72,1.72,0,0,0,.34-.37c1.1-1.51.17-3-.45-4l-.1-.16A.77.77,0,0,1,224,152a4.19,4.19,0,0,1,1-.1,4.67,4.67,0,0,0,1.52-.17,2,2,0,0,0,1-.68,5.39,5.39,0,0,1,1.16-.46,6,6,0,0,0,1.41-.54,2.27,2.27,0,0,0,.61-.15,4.12,4.12,0,0,0,1.66-1.29s0,0,.08-.07a4,4,0,0,0,1-1.29,2.07,2.07,0,0,0,.16-1.43,13.07,13.07,0,0,1-.17-3.56c.08-1.95.16-3.95-1-5.87-.64-1.67-.34-2-.32-2a.83.83,0,0,1,.49-.11,4.62,4.62,0,0,1,1.19.2,1.39,1.39,0,0,0,.27.21,2.86,2.86,0,0,0,1.6.56,2.18,2.18,0,0,0,.43-.05l.16,0a2.12,2.12,0,0,0,.81-.43,2,2,0,0,0,.77-1.55,7.48,7.48,0,0,0,0-.82,2.13,2.13,0,0,0-.1-.49,9.51,9.51,0,0,0-1.78-3.11.6.6,0,0,0-.11-.12,1,1,0,0,1,0-1.41,4.15,4.15,0,0,0,.27-.32,5.23,5.23,0,0,0,.67-1.71,4.61,4.61,0,0,1,.37-1.06.55.55,0,0,1,.22-.14,2.31,2.31,0,0,0,1-.71,4.14,4.14,0,0,0,1.07-3.37c-.26-1.3-1.31-2.4-3.25-3.37-4.68-2.39-6.17-6.66-7.74-11.18a47.5,47.5,0,0,0-2.11-5.35c-.17-.35.15-.75.58-1a2.92,2.92,0,0,1,1.29-.34,1.9,1.9,0,0,1,1.27.47l1,.8c2.3,1.92,4.47,3.71,5.32,6.41,1.14,3.55,3.76,4.65,6.37,5.47q.28.09.57.21a5.38,5.38,0,0,0,1.82.45,2.65,2.65,0,0,0,.5,0,2.49,2.49,0,0,0,.59-.23,2.67,2.67,0,0,0,1-1,11.36,11.36,0,0,1,.83-1.15c1-1.26,2.4-3,.7-5.37-2.78-3.9-4.25-8.3-5.77-13.24-.67-2.18-.93-3.22,0-4.82a4.05,4.05,0,0,0-2.22-6.31c-2.22-.9-3.23-2.71-3.09-5.52.42-8-1.8-15.07-4.15-22.58l0-.16c-.53-1.68-1.07-3.43-1.57-5.15-1.57-5.41-2.81-12.41,1.55-18.59,3.23-4.57,2.27-9.27,1.33-13.83-.11-.54-.22-1.07-.32-1.62a2.17,2.17,0,0,0-.86-1.32l-.26-.15a2.84,2.84,0,0,0-1-.22Z"/><g class="cls-2"><path class="cls-3" d="M139.07,65.57c4.64,0,5.67-2.24,6.6-4.8h4V99h-6V69.83h-4.64Z"/><path class="cls-3" d="M156.48,69.94c0-6.12,3.22-9.61,9.11-9.61s9.11,3.49,9.11,9.61V89.8c0,6.11-3.22,9.6-9.11,9.6s-9.11-3.49-9.11-9.6Zm6,20.24c0,2.73,1.2,3.76,3.11,3.76s3.11-1,3.11-3.76V69.55c0-2.73-1.2-3.76-3.11-3.76s-3.11,1-3.11,3.76Z"/><path class="cls-3" d="M178.09,69.94c0-6.12,3.22-9.61,9.11-9.61s9.11,3.49,9.11,9.61V89.8c0,6.11-3.22,9.6-9.11,9.6s-9.11-3.49-9.11-9.6Zm6,20.24c0,2.73,1.2,3.76,3.11,3.76s3.11-1,3.11-3.76V69.55c0-2.73-1.2-3.76-3.11-3.76s-3.11,1-3.11,3.76Z"/></g><g class="cls-2"><path class="cls-3" d="M113.33,124.54h-.06l-1.11,10.62h-4.3l-2.22-19.93h3L110.34,131h.06l1.48-15.72h3l1.54,15.83h.06l1.59-15.83h2.74l-2.22,19.93h-4.16Z"/><path class="cls-3" d="M122.38,115.23h3.13v19.93h-3.13Z"/><path class="cls-3" d="M132,115c3.05,0,4.62,1.82,4.62,5v.63h-3v-.83c0-1.42-.57-2-1.57-2s-1.57.54-1.57,2,.63,2.54,2.68,4.33c2.62,2.31,3.45,4,3.45,6.24,0,3.19-1.6,5-4.67,5s-4.67-1.82-4.67-5v-1.23h3v1.43c0,1.42.62,1.93,1.62,1.93s1.62-.51,1.62-1.93-.62-2.54-2.67-4.33c-2.62-2.31-3.45-4-3.45-6.24C127.39,116.82,129,115,132,115Z"/><path class="cls-3" d="M147.52,127.73v2.65c0,3.19-1.59,5-4.67,5s-4.67-1.82-4.67-5V120c0-3.19,1.6-5,4.67-5s4.67,1.82,4.67,5V122h-3v-2.14c0-1.42-.63-2-1.62-2s-1.63.54-1.63,2v10.77c0,1.42.63,1.93,1.63,1.93s1.62-.51,1.62-1.93v-2.85Z"/><path class="cls-3" d="M149.17,120c0-3.19,1.68-5,4.76-5s4.75,1.82,4.75,5v10.37c0,3.19-1.68,5-4.75,5s-4.76-1.82-4.76-5Zm3.13,10.57c0,1.42.63,2,1.63,2s1.62-.54,1.62-2V119.81c0-1.42-.63-2-1.62-2s-1.63.54-1.63,2Z"/><path class="cls-3" d="M163.55,120.72h-.06v14.44h-2.82V115.23h3.93l3.16,11.93h.06V115.23h2.79v19.93h-3.22Z"/><path class="cls-3" d="M177.07,115c3.05,0,4.61,1.82,4.61,5v.63h-3v-.83c0-1.42-.57-2-1.56-2s-1.57.54-1.57,2,.63,2.54,2.68,4.33c2.62,2.31,3.44,4,3.44,6.24,0,3.19-1.59,5-4.67,5s-4.67-1.82-4.67-5v-1.23h3v1.43c0,1.42.62,1.93,1.62,1.93s1.62-.51,1.62-1.93-.63-2.54-2.67-4.33c-2.62-2.31-3.45-4-3.45-6.24C172.46,116.82,174,115,177.07,115Z"/><path class="cls-3" d="M183.51,115.23h3.13v19.93h-3.13Z"/><path class="cls-3" d="M191.76,120.72h0v14.44h-2.82V115.23h3.93L196,127.16H196V115.23h2.79v19.93h-3.21Z"/></g></svg>