<svg xmlns="http://www.w3.org/2000/svg" xmlns:xlink="http://www.w3.org/1999/xlink" viewBox="0 0 1026.71 602.42"><defs><style>.cls-1,.cls-2,.cls-5,.cls-8,.cls-9{fill:none;}.cls-2{stroke:#e0e1e1;opacity:0.91;}.cls-3{isolation:isolate;}.cls-4{fill:gray;}.cls-5{stroke:#f23341;stroke-linecap:round;stroke-linejoin:round;stroke-width:2px;}.cls-6{fill:#fff;}.cls-7{fill:#f23341;}.cls-8,.cls-9{stroke:#f02c39;stroke-miterlimit:10;}.cls-9{stroke-dasharray:11.95 11.95;}</style><clipPath id="clip-path"><polygon class="cls-1" points="891.03 176.44 891.03 176.44 891.03 176.44 891.03 176.44 891.03 176.44"/></clipPath></defs><title>Artboard 1</title><g id="Numbers"><g id="index"><path class="cls-2" d="M877.26,559.11H54.9V66.93H877.26"/></g><g class="cls-3"><path class="cls-4" d="M49.11,36.48l-.2,3.44h-.68L48,36.48Z"/><path class="cls-4" d="M55,38a6,6,0,0,1,.56,2.84,6.85,6.85,0,0,1-.51,2.83,2.48,2.48,0,0,1-2.41,1.6A2.4,2.4,0,0,1,50.41,44a6,6,0,0,1-.62-2.94,7.49,7.49,0,0,1,.37-2.46,2.53,2.53,0,0,1,2.5-1.91A2.48,2.48,0,0,1,55,38ZM54,43.63a5.33,5.33,0,0,0,.49-2.71,6.52,6.52,0,0,0-.36-2.35,1.33,1.33,0,0,0-1.36-.93,1.44,1.44,0,0,0-1.37.88,6,6,0,0,0-.43,2.58,6.12,6.12,0,0,0,.28,2.06,1.49,1.49,0,0,0,1.44,1.19A1.51,1.51,0,0,0,54,43.63Z"/><path class="cls-4" d="M60.08,45.08V43H56.4V42l3.84-5.33h.89v5.44h1.24V43H61.13v2Zm0-3V38.3l-2.69,3.81Z"/></g><g class="cls-3"><path class="cls-4" d="M167,36.48l-.2,3.44h-.67l-.2-3.44Z"/><path class="cls-4" d="M172.9,38a5.92,5.92,0,0,1,.56,2.84,6.85,6.85,0,0,1-.51,2.83,2.48,2.48,0,0,1-2.41,1.6A2.4,2.4,0,0,1,168.29,44a6,6,0,0,1-.62-2.94A7.49,7.49,0,0,1,168,38.6a2.53,2.53,0,0,1,2.5-1.91A2.48,2.48,0,0,1,172.9,38Zm-1.06,5.59a5.33,5.33,0,0,0,.49-2.71,6.52,6.52,0,0,0-.36-2.35,1.33,1.33,0,0,0-1.36-.93,1.44,1.44,0,0,0-1.37.88,6,6,0,0,0-.43,2.58,6.12,6.12,0,0,0,.28,2.06,1.49,1.49,0,0,0,1.44,1.19A1.51,1.51,0,0,0,171.84,43.63Z"/><path class="cls-4" d="M179.44,37.39a2.45,2.45,0,0,1,.56,1.5H179a1.87,1.87,0,0,0-.3-.78,1.32,1.32,0,0,0-1.15-.53,1.62,1.62,0,0,0-1.41.82,4.83,4.83,0,0,0-.58,2.34,2.32,2.32,0,0,1,.92-.79,2.56,2.56,0,0,1,1.12-.24,2.72,2.72,0,0,1,1.84.68,2.46,2.46,0,0,1,.79,2,3,3,0,0,1-.75,2,2.6,2.6,0,0,1-2.12.88,2.74,2.74,0,0,1-2-.89,4.3,4.3,0,0,1-.86-3,8.27,8.27,0,0,1,.38-2.66,2.71,2.71,0,0,1,2.68-2.08A2.31,2.31,0,0,1,179.44,37.39Zm-.79,6.41a2.12,2.12,0,0,0,.41-1.32,2.25,2.25,0,0,0-.36-1.22,1.48,1.48,0,0,0-1.35-.59,1.75,1.75,0,0,0-1.19.45,1.73,1.73,0,0,0-.51,1.36,2,2,0,0,0,.46,1.34,1.63,1.63,0,0,0,1.3.54A1.42,1.42,0,0,0,178.65,43.8Z"/></g><g class="cls-3"><path class="cls-4" d="M284.87,36.48l-.19,3.44H284l-.2-3.44Z"/><path class="cls-4" d="M290.78,38a5.92,5.92,0,0,1,.56,2.84,6.85,6.85,0,0,1-.51,2.83,2.48,2.48,0,0,1-2.41,1.6A2.4,2.4,0,0,1,286.17,44a6,6,0,0,1-.62-2.94,7.49,7.49,0,0,1,.37-2.46,2.54,2.54,0,0,1,2.51-1.91A2.47,2.47,0,0,1,290.78,38Zm-1.06,5.59a5.33,5.33,0,0,0,.49-2.71,6.52,6.52,0,0,0-.36-2.35,1.33,1.33,0,0,0-1.36-.93,1.45,1.45,0,0,0-1.37.88,6,6,0,0,0-.43,2.58,6.12,6.12,0,0,0,.28,2.06,1.5,1.5,0,0,0,2.75.47Z"/><path class="cls-4" d="M293,40.17a1.64,1.64,0,0,1-.47-1.21,2.21,2.21,0,0,1,.68-1.62,3.11,3.11,0,0,1,3.82,0,2,2,0,0,1,.68,1.48,1.9,1.9,0,0,1-.4,1.27,2,2,0,0,1-.69.54,2.85,2.85,0,0,1,.83.55,2.13,2.13,0,0,1,.56,1.53,2.58,2.58,0,0,1-.75,1.87,2.76,2.76,0,0,1-2.1.78,3.25,3.25,0,0,1-2.07-.67,2.29,2.29,0,0,1-.85-1.93,2.27,2.27,0,0,1,.36-1.29,2.42,2.42,0,0,1,1.08-.83A2,2,0,0,1,293,40.17Zm3.4,3.8a1.45,1.45,0,0,0,.48-1.18,1.53,1.53,0,0,0-.5-1.24,1.91,1.91,0,0,0-1.27-.42,1.77,1.77,0,0,0-1.24.43,1.52,1.52,0,0,0-.48,1.19,1.65,1.65,0,0,0,.44,1.14,1.77,1.77,0,0,0,1.35.47A1.88,1.88,0,0,0,296.4,44Zm-.2-4.15a1.27,1.27,0,0,0,.39-.93,1.22,1.22,0,0,0-.37-.86,1.48,1.48,0,0,0-1.14-.4A1.28,1.28,0,0,0,293.64,39a1.1,1.1,0,0,0,.44.92,1.62,1.62,0,0,0,1,.34A1.47,1.47,0,0,0,296.2,39.82Z"/></g><g class="cls-3"><path class="cls-4" d="M401.75,36.48l-.19,3.44h-.68l-.2-3.44Z"/><path class="cls-4" d="M403.21,39.14v-.81A4.09,4.09,0,0,0,404.8,38a1.82,1.82,0,0,0,.68-1.23h.83v8.35h-1.13V39.14Z"/><path class="cls-4" d="M414.34,38a6,6,0,0,1,.56,2.84,6.85,6.85,0,0,1-.51,2.83,2.49,2.49,0,0,1-2.41,1.6A2.4,2.4,0,0,1,409.73,44a5.89,5.89,0,0,1-.62-2.94,7.24,7.24,0,0,1,.37-2.46,2.52,2.52,0,0,1,2.5-1.91A2.48,2.48,0,0,1,414.34,38Zm-1.07,5.59a5.22,5.22,0,0,0,.49-2.71,6.77,6.77,0,0,0-.35-2.35,1.34,1.34,0,0,0-1.37-.93,1.44,1.44,0,0,0-1.36.88,6,6,0,0,0-.43,2.58,6.42,6.42,0,0,0,.27,2.06,1.5,1.5,0,0,0,2.75.47Z"/></g><g class="cls-3"><path class="cls-4" d="M519.63,36.48l-.19,3.44h-.68l-.2-3.44Z"/><path class="cls-4" d="M521.09,39.14v-.81a4.09,4.09,0,0,0,1.59-.37,1.82,1.82,0,0,0,.68-1.23h.83v8.35h-1.13V39.14Z"/><path class="cls-4" d="M527.44,43.2A3.64,3.64,0,0,1,529,41.74l1.12-.65a5.21,5.21,0,0,0,1.07-.75,1.64,1.64,0,0,0,0-2.28,1.62,1.62,0,0,0-1.18-.43,1.53,1.53,0,0,0-1.5.82,3,3,0,0,0-.24,1.22H527.2a3.73,3.73,0,0,1,.4-1.79A2.54,2.54,0,0,1,530,36.66a2.48,2.48,0,0,1,2.77,2.52,2.33,2.33,0,0,1-.71,1.72,6.86,6.86,0,0,1-1.47,1l-.8.44a6,6,0,0,0-.9.61,2.17,2.17,0,0,0-.74,1.13h4.58v1H527A4.86,4.86,0,0,1,527.44,43.2Z"/></g><g class="cls-3"><path class="cls-4" d="M637.51,36.48l-.19,3.44h-.68l-.19-3.44Z"/><path class="cls-4" d="M639,39.14v-.81a4.09,4.09,0,0,0,1.59-.37,1.78,1.78,0,0,0,.68-1.23h.83v8.35H641V39.14Z"/><path class="cls-4" d="M648.48,45.08V43H644.8V42l3.85-5.33h.89v5.44h1.23V43h-1.23v2Zm0-3V38.3l-2.69,3.81Z"/></g><g class="cls-3"><path class="cls-4" d="M753.39,36.48l-.19,3.44h-.68l-.19-3.44Z"/><path class="cls-4" d="M754.85,39.14v-.81a4.15,4.15,0,0,0,1.6-.37,1.82,1.82,0,0,0,.67-1.23H758v8.35h-1.12V39.14Z"/><path class="cls-4" d="M765.85,37.39a2.44,2.44,0,0,1,.55,1.5h-1a1.87,1.87,0,0,0-.3-.78,1.33,1.33,0,0,0-1.15-.53,1.62,1.62,0,0,0-1.41.82,4.72,4.72,0,0,0-.58,2.34,2.3,2.3,0,0,1,.91-.79,2.6,2.6,0,0,1,1.13-.24,2.76,2.76,0,0,1,1.84.68,2.49,2.49,0,0,1,.78,2,3.07,3.07,0,0,1-.74,2,2.61,2.61,0,0,1-2.12.88,2.74,2.74,0,0,1-2-.89,4.3,4.3,0,0,1-.85-3,8.27,8.27,0,0,1,.38-2.66,2.7,2.7,0,0,1,2.68-2.08A2.31,2.31,0,0,1,765.85,37.39Zm-.79,6.41a2.26,2.26,0,0,0,0-2.54,1.46,1.46,0,0,0-1.34-.59,1.75,1.75,0,0,0-1.19.45,1.7,1.7,0,0,0-.52,1.36,2,2,0,0,0,.47,1.34,1.61,1.61,0,0,0,1.29.54A1.44,1.44,0,0,0,765.06,43.8Z"/></g><g class="cls-3"><path class="cls-4" d="M871.27,36.48l-.19,3.44h-.68l-.19-3.44Z"/><path class="cls-4" d="M872.73,39.14v-.81a4.1,4.1,0,0,0,1.6-.37,1.82,1.82,0,0,0,.67-1.23h.83v8.35h-1.12V39.14Z"/><path class="cls-4" d="M879.4,40.17a1.63,1.63,0,0,1-.46-1.21,2.21,2.21,0,0,1,.68-1.62,3.1,3.1,0,0,1,3.81,0,2,2,0,0,1,.69,1.48,1.9,1.9,0,0,1-.4,1.27,2.24,2.24,0,0,1-.69.54,2.79,2.79,0,0,1,.82.55,2.13,2.13,0,0,1,.56,1.53,2.61,2.61,0,0,1-.74,1.87,2.78,2.78,0,0,1-2.11.78,3.29,3.29,0,0,1-2.07-.67,2.32,2.32,0,0,1-.84-1.93,2.27,2.27,0,0,1,.36-1.29,2.31,2.31,0,0,1,1.08-.83A2,2,0,0,1,879.4,40.17Zm3.4,3.8a1.46,1.46,0,0,0,.49-1.18,1.53,1.53,0,0,0-.5-1.24,1.92,1.92,0,0,0-1.28-.42,1.76,1.76,0,0,0-1.23.43,1.52,1.52,0,0,0-.48,1.19,1.65,1.65,0,0,0,.44,1.14,1.77,1.77,0,0,0,1.35.47A1.85,1.85,0,0,0,882.8,44Zm-.19-4.15a1.27,1.27,0,0,0,.39-.93,1.23,1.23,0,0,0-.38-.86,1.45,1.45,0,0,0-1.14-.4A1.26,1.26,0,0,0,880.05,39a1.09,1.09,0,0,0,.43.92,1.64,1.64,0,0,0,1,.34A1.48,1.48,0,0,0,882.61,39.82Z"/></g><g class="cls-3"><path class="cls-4" d="M37.19,537.33v-.74a4,4,0,0,0,1.46-.34,1.69,1.69,0,0,0,.61-1.13H40v7.65H39v-5.44Z"/><path class="cls-4" d="M47.39,536.31a5.6,5.6,0,0,1,.51,2.61,6.12,6.12,0,0,1-.47,2.59A2.29,2.29,0,0,1,45.22,543a2.22,2.22,0,0,1-2.06-1.2,5.46,5.46,0,0,1-.57-2.69,6.74,6.74,0,0,1,.34-2.25,2.32,2.32,0,0,1,2.3-1.76A2.29,2.29,0,0,1,47.39,536.31Zm-1,5.13a4.79,4.79,0,0,0,.45-2.48,6.23,6.23,0,0,0-.32-2.16,1.25,1.25,0,0,0-1.26-.85,1.32,1.32,0,0,0-1.25.81,5.56,5.56,0,0,0-.39,2.36,5.72,5.72,0,0,0,.25,1.89,1.38,1.38,0,0,0,2.52.43Z"/></g><g class="cls-3"><path class="cls-4" d="M36.89,489.22a3.33,3.33,0,0,1,1.39-1.34l1-.6a4.74,4.74,0,0,0,1-.69,1.37,1.37,0,0,0,.45-1,1.44,1.44,0,0,0-.41-1.07,1.47,1.47,0,0,0-1.07-.39,1.42,1.42,0,0,0-1.38.75,2.77,2.77,0,0,0-.22,1.12h-1a3.55,3.55,0,0,1,.38-1.64,2.31,2.31,0,0,1,2.21-1.11,2.41,2.41,0,0,1,1.93.71,2.39,2.39,0,0,1,.61,1.59,2.14,2.14,0,0,1-.65,1.58,6.58,6.58,0,0,1-1.34.92l-.74.41a4.93,4.93,0,0,0-.83.56,2,2,0,0,0-.67,1h4.2V491H36.48A4.32,4.32,0,0,1,36.89,489.22Z"/><path class="cls-4" d="M47.39,484.48a5.6,5.6,0,0,1,.51,2.61,6.09,6.09,0,0,1-.47,2.59,2.29,2.29,0,0,1-2.21,1.47,2.22,2.22,0,0,1-2.06-1.2,5.46,5.46,0,0,1-.57-2.69,6.74,6.74,0,0,1,.34-2.25,2.32,2.32,0,0,1,2.3-1.76A2.29,2.29,0,0,1,47.39,484.48Zm-1,5.13a4.79,4.79,0,0,0,.45-2.48,6.23,6.23,0,0,0-.32-2.16,1.25,1.25,0,0,0-1.26-.85,1.32,1.32,0,0,0-1.25.81,5.56,5.56,0,0,0-.39,2.36,5.72,5.72,0,0,0,.25,1.89,1.38,1.38,0,0,0,2.52.43Z"/></g><g class="cls-3"><path class="cls-4" d="M37,437.58a2.79,2.79,0,0,1-.61-1.83h1a2.41,2.41,0,0,0,.28,1.09,1.46,1.46,0,0,0,1.35.6,1.8,1.8,0,0,0,1.23-.4,1.36,1.36,0,0,0,.46-1.06,1.21,1.21,0,0,0-.49-1.11,2.45,2.45,0,0,0-1.35-.31H38.5v-.85l.25,0H39a2.08,2.08,0,0,0,.89-.17,1.09,1.09,0,0,0,.61-1.08,1,1,0,0,0-.41-.88,1.49,1.49,0,0,0-1-.32,1.4,1.4,0,0,0-1.33.65,2.09,2.09,0,0,0-.23,1h-1a2.89,2.89,0,0,1,.34-1.46A2.17,2.17,0,0,1,39,430.41a2.8,2.8,0,0,1,1.82.53,1.83,1.83,0,0,1,.65,1.51,1.7,1.7,0,0,1-.38,1.15,1.54,1.54,0,0,1-.62.43,1.66,1.66,0,0,1,1,.65,1.9,1.9,0,0,1,.34,1.16,2.37,2.37,0,0,1-.72,1.79,2.88,2.88,0,0,1-2.06.69A2.41,2.41,0,0,1,37,437.58Z"/><path class="cls-4" d="M47.39,431.65a5.6,5.6,0,0,1,.51,2.61,6.09,6.09,0,0,1-.47,2.59,2.29,2.29,0,0,1-2.21,1.47,2.22,2.22,0,0,1-2.06-1.2,5.46,5.46,0,0,1-.57-2.69,6.74,6.74,0,0,1,.34-2.25,2.32,2.32,0,0,1,2.3-1.76A2.29,2.29,0,0,1,47.39,431.65Zm-1,5.13a4.79,4.79,0,0,0,.45-2.48,6.23,6.23,0,0,0-.32-2.16,1.25,1.25,0,0,0-1.26-.85,1.32,1.32,0,0,0-1.25.81,5.56,5.56,0,0,0-.39,2.36,5.72,5.72,0,0,0,.25,1.89,1.38,1.38,0,0,0,2.52.43Z"/></g><g class="cls-3"><path class="cls-4" d="M39.79,386.29v-1.88H36.41v-1l3.53-4.89h.81v5h1.14v.85H40.75v1.88Zm0-2.73v-3.49l-2.47,3.49Z"/><path class="cls-4" d="M47.39,379.82a5.6,5.6,0,0,1,.51,2.61,6.12,6.12,0,0,1-.47,2.59,2.29,2.29,0,0,1-2.21,1.47,2.22,2.22,0,0,1-2.06-1.2,5.46,5.46,0,0,1-.57-2.69,6.74,6.74,0,0,1,.34-2.25,2.32,2.32,0,0,1,2.3-1.76A2.29,2.29,0,0,1,47.39,379.82Zm-1,5.13a4.79,4.79,0,0,0,.45-2.48,6.23,6.23,0,0,0-.32-2.16,1.25,1.25,0,0,0-1.26-.85,1.32,1.32,0,0,0-1.25.81,5.56,5.56,0,0,0-.39,2.36,5.72,5.72,0,0,0,.25,1.89,1.38,1.38,0,0,0,2.52.43Z"/></g><g class="cls-3"><path class="cls-4" d="M37.49,331.5a1.34,1.34,0,0,0,.77,1.14,1.8,1.8,0,0,0,.79.16,1.49,1.49,0,0,0,1.28-.55,2,2,0,0,0,.41-1.21,1.59,1.59,0,0,0-.49-1.25,1.73,1.73,0,0,0-1.18-.44,1.79,1.79,0,0,0-.86.2,1.92,1.92,0,0,0-.61.53l-.83-.05.58-4.14h4v.94H38.08L37.75,329a2.4,2.4,0,0,1,.51-.31,2.57,2.57,0,0,1,1-.18,2.53,2.53,0,0,1,1.8.69,2.24,2.24,0,0,1,.73,1.72,3,3,0,0,1-.67,1.93,2.63,2.63,0,0,1-2.15.83,2.74,2.74,0,0,1-1.66-.53,2,2,0,0,1-.81-1.62Z"/><path class="cls-4" d="M47.39,327a5.53,5.53,0,0,1,.51,2.6,6.09,6.09,0,0,1-.47,2.59,2.28,2.28,0,0,1-2.21,1.48,2.22,2.22,0,0,1-2.06-1.21,5.46,5.46,0,0,1-.57-2.69,6.74,6.74,0,0,1,.34-2.25,2.32,2.32,0,0,1,2.3-1.76A2.29,2.29,0,0,1,47.39,327Zm-1,5.12a4.77,4.77,0,0,0,.45-2.48,6.27,6.27,0,0,0-.32-2.16,1.24,1.24,0,0,0-1.26-.84,1.31,1.31,0,0,0-1.25.8,5.56,5.56,0,0,0-.39,2.36,5.72,5.72,0,0,0,.25,1.89,1.38,1.38,0,0,0,2.52.43Z"/></g><g class="cls-3"><path class="cls-4" d="M41.15,274.57a2.26,2.26,0,0,1,.5,1.38H40.7a1.78,1.78,0,0,0-.28-.72,1.21,1.21,0,0,0-1.05-.48,1.47,1.47,0,0,0-1.29.75,4.27,4.27,0,0,0-.53,2.15,2.07,2.07,0,0,1,.83-.73,2.35,2.35,0,0,1,1-.22,2.52,2.52,0,0,1,1.69.62,2.3,2.3,0,0,1,.72,1.84,2.83,2.83,0,0,1-.68,1.86,2.41,2.41,0,0,1-2,.81,2.5,2.5,0,0,1-1.86-.82,4,4,0,0,1-.78-2.76,7.28,7.28,0,0,1,.35-2.44,2.47,2.47,0,0,1,2.45-1.91A2.15,2.15,0,0,1,41.15,274.57Zm-.73,5.88a2,2,0,0,0,.38-1.21,2,2,0,0,0-.34-1.12,1.32,1.32,0,0,0-1.23-.54,1.59,1.59,0,0,0-1.09.42,1.57,1.57,0,0,0-.47,1.24,1.79,1.79,0,0,0,.43,1.23,1.48,1.48,0,0,0,1.18.5A1.33,1.33,0,0,0,40.42,280.45Z"/><path class="cls-4" d="M47.39,275.17a5.53,5.53,0,0,1,.51,2.6,6.09,6.09,0,0,1-.47,2.59,2.28,2.28,0,0,1-2.21,1.48,2.22,2.22,0,0,1-2.06-1.21,5.46,5.46,0,0,1-.57-2.69,6.74,6.74,0,0,1,.34-2.25,2.32,2.32,0,0,1,2.3-1.76A2.29,2.29,0,0,1,47.39,275.17Zm-1,5.12a4.77,4.77,0,0,0,.45-2.48,6.27,6.27,0,0,0-.32-2.16,1.24,1.24,0,0,0-1.26-.84,1.31,1.31,0,0,0-1.25.8,5.56,5.56,0,0,0-.39,2.36,5.72,5.72,0,0,0,.25,1.89,1.38,1.38,0,0,0,2.52.43Z"/></g><g class="cls-3"><path class="cls-4" d="M41.89,221.23v.85a8.38,8.38,0,0,0-1,1.25,12.75,12.75,0,0,0-1.09,1.92,13.28,13.28,0,0,0-.71,1.83c-.1.36-.24.93-.4,1.72H37.63a13.39,13.39,0,0,1,1.61-4.39,13.93,13.93,0,0,1,1.55-2.2H36.54v-1Z"/><path class="cls-4" d="M47.39,222.34a5.53,5.53,0,0,1,.51,2.6,6.09,6.09,0,0,1-.47,2.59A2.28,2.28,0,0,1,45.22,229a2.21,2.21,0,0,1-2.06-1.21,5.46,5.46,0,0,1-.57-2.69,6.74,6.74,0,0,1,.34-2.25,2.31,2.31,0,0,1,2.3-1.75A2.29,2.29,0,0,1,47.39,222.34Zm-1,5.12a4.77,4.77,0,0,0,.45-2.48,6.27,6.27,0,0,0-.32-2.16,1.24,1.24,0,0,0-1.26-.84,1.31,1.31,0,0,0-1.25.8,5.56,5.56,0,0,0-.39,2.36,5.72,5.72,0,0,0,.25,1.89,1.38,1.38,0,0,0,2.52.43Z"/></g><g class="cls-3"><path class="cls-4" d="M37.18,171.47a1.54,1.54,0,0,1-.42-1.12,2,2,0,0,1,.62-1.48,2.39,2.39,0,0,1,1.76-.62,2.46,2.46,0,0,1,1.74.59,1.82,1.82,0,0,1,.62,1.36,1.77,1.77,0,0,1-.36,1.16,2.27,2.27,0,0,1-.63.5,2.28,2.28,0,0,1,.75.5,2,2,0,0,1,.51,1.4,2.39,2.39,0,0,1-.68,1.72,2.56,2.56,0,0,1-1.93.71,3,3,0,0,1-1.9-.61,2.14,2.14,0,0,1-.77-1.77,2.07,2.07,0,0,1,.33-1.18,2,2,0,0,1,1-.76A2.07,2.07,0,0,1,37.18,171.47Zm3.12,3.47a1.32,1.32,0,0,0,.44-1.08,1.38,1.38,0,0,0-.46-1.13,1.72,1.72,0,0,0-1.17-.39,1.59,1.59,0,0,0-1.13.4,1.38,1.38,0,0,0-.43,1.09,1.47,1.47,0,0,0,.4,1,1.58,1.58,0,0,0,1.23.44A1.68,1.68,0,0,0,40.3,174.94Zm-.18-3.8a1.14,1.14,0,0,0,0-1.65,1.35,1.35,0,0,0-1-.36,1.16,1.16,0,0,0-1.32,1.21,1,1,0,0,0,.4.85,1.51,1.51,0,0,0,.95.31A1.35,1.35,0,0,0,40.12,171.14Z"/><path class="cls-4" d="M47.39,169.51a5.53,5.53,0,0,1,.51,2.6,6.09,6.09,0,0,1-.47,2.59,2.28,2.28,0,0,1-2.21,1.48A2.21,2.21,0,0,1,43.16,175a5.46,5.46,0,0,1-.57-2.69,6.74,6.74,0,0,1,.34-2.25,2.31,2.31,0,0,1,2.3-1.75A2.29,2.29,0,0,1,47.39,169.51Zm-1,5.12a4.77,4.77,0,0,0,.45-2.48,6.27,6.27,0,0,0-.32-2.16,1.24,1.24,0,0,0-1.26-.84A1.31,1.31,0,0,0,44,170a5.56,5.56,0,0,0-.39,2.36,5.72,5.72,0,0,0,.25,1.89,1.38,1.38,0,0,0,2.52.43Z"/></g><g class="cls-3"><path class="cls-4" d="M37.59,122.27a1.23,1.23,0,0,0,.62,1.11,1.35,1.35,0,0,0,.67.16,1.49,1.49,0,0,0,1.18-.58,4.71,4.71,0,0,0,.69-2.34,1.78,1.78,0,0,1-.8.72,2.61,2.61,0,0,1-1,.2,2.3,2.3,0,0,1-1.76-.69,2.5,2.5,0,0,1-.65-1.78,2.88,2.88,0,0,1,.64-1.84,2.29,2.29,0,0,1,1.89-.8A2.33,2.33,0,0,1,41.37,118a5.25,5.25,0,0,1,.35,2.08,6.89,6.89,0,0,1-.42,2.5,2.46,2.46,0,0,1-2.38,1.82,2.33,2.33,0,0,1-1.72-.59,2,2,0,0,1-.58-1.49Zm2.52-2a1.62,1.62,0,0,0,.48-1.33,1.71,1.71,0,0,0-.43-1.26,1.49,1.49,0,0,0-1.09-.41,1.39,1.39,0,0,0-1.12.47,1.85,1.85,0,0,0-.42,1.27,1.82,1.82,0,0,0,.36,1.19,1.43,1.43,0,0,0,1.17.44A1.66,1.66,0,0,0,40.11,120.32Z"/><path class="cls-4" d="M47.39,117.68a5.53,5.53,0,0,1,.51,2.6,6.17,6.17,0,0,1-.47,2.6,2.29,2.29,0,0,1-2.21,1.47,2.21,2.21,0,0,1-2.06-1.21,5.46,5.46,0,0,1-.57-2.69,6.74,6.74,0,0,1,.34-2.25,2.31,2.31,0,0,1,2.3-1.75A2.29,2.29,0,0,1,47.39,117.68Zm-1,5.12a4.77,4.77,0,0,0,.45-2.48,6.27,6.27,0,0,0-.32-2.16,1.24,1.24,0,0,0-1.26-.84,1.31,1.31,0,0,0-1.25.8,5.56,5.56,0,0,0-.39,2.36,5.82,5.82,0,0,0,.25,1.9,1.37,1.37,0,0,0,2.52.42Z"/></g><g class="cls-3"><path class="cls-4" d="M31.07,66.86v-.74a4,4,0,0,0,1.46-.34,1.73,1.73,0,0,0,.62-1.13h.76v7.66h-1V66.86Z"/><path class="cls-4" d="M41.27,65.85a5.53,5.53,0,0,1,.51,2.6,6.34,6.34,0,0,1-.46,2.6,2.3,2.3,0,0,1-2.22,1.47A2.21,2.21,0,0,1,37,71.31a5.46,5.46,0,0,1-.56-2.69,6.76,6.76,0,0,1,.33-2.25,2.32,2.32,0,0,1,2.3-1.75A2.29,2.29,0,0,1,41.27,65.85Zm-1,5.12a4.77,4.77,0,0,0,.45-2.48,6.27,6.27,0,0,0-.32-2.16,1.23,1.23,0,0,0-1.25-.84,1.31,1.31,0,0,0-1.26.8,5.56,5.56,0,0,0-.39,2.36,5.82,5.82,0,0,0,.25,1.9,1.37,1.37,0,0,0,2.52.42Z"/><path class="cls-4" d="M47.39,65.85a5.53,5.53,0,0,1,.51,2.6,6.17,6.17,0,0,1-.47,2.6,2.29,2.29,0,0,1-2.21,1.47,2.21,2.21,0,0,1-2.06-1.21,5.46,5.46,0,0,1-.57-2.69,6.74,6.74,0,0,1,.34-2.25,2.31,2.31,0,0,1,2.3-1.75A2.29,2.29,0,0,1,47.39,65.85Zm-1,5.12a4.77,4.77,0,0,0,.45-2.48,6.27,6.27,0,0,0-.32-2.16,1.24,1.24,0,0,0-1.26-.84,1.31,1.31,0,0,0-1.25.8,5.56,5.56,0,0,0-.39,2.36,5.82,5.82,0,0,0,.25,1.9,1.37,1.37,0,0,0,2.52.42Z"/></g></g><g id="Trend_Lines" data-name="Trend Lines"><g id="Slopes"><path class="cls-5" d="M54.53,412.06C74.11,419.48,93.7,426.9,113.29,433s39.18,15.7,58.77,15.7,39.18-47.12,58.77-47.12S270,429.51,289.59,433a334.46,334.46,0,0,0,58.77,5.23,174.11,174.11,0,0,0,58.77-10.47c19.59-7,39.18-62.83,58.76-62.83s39.18,20.94,58.77,20.94h58.77c19.59,0,39.18-104.72,58.77-104.72S681.37,359.7,701,380.64s39.18,31.42,58.77,31.42,39.18-226.89,58.77-230.39,39.17-4.36,58.76-5.23"/></g><g id="Circles"><g id="Dahmer"><circle class="cls-6" cx="891.03" cy="176.44" r="13.33"/><circle class="cls-7" cx="891.03" cy="176.44" r="13.33"/><g class="cls-3"><path class="cls-6" d="M886,174.34v-1.25h4.58v1a7,7,0,0,0-1.15,1.6,9.75,9.75,0,0,0-.9,2.22,8.61,8.61,0,0,0-.3,2.1H887a8.87,8.87,0,0,1,.6-3,9.66,9.66,0,0,1,1.5-2.69Z"/><path class="cls-6" d="M891.47,178.37l1.3-.14a.9.9,0,0,0,.25.59.72.72,0,0,0,.53.19.87.87,0,0,0,.7-.38,3.2,3.2,0,0,0,.37-1.59,1.6,1.6,0,0,1-1.26.59,1.85,1.85,0,0,1-1.42-.64,2.3,2.3,0,0,1-.6-1.66,2.36,2.36,0,0,1,.63-1.71,2.13,2.13,0,0,1,1.61-.65,2.17,2.17,0,0,1,1.75.82,4.29,4.29,0,0,1,.68,2.71,4.34,4.34,0,0,1-.71,2.77,2.33,2.33,0,0,1-1.86.85,2,2,0,0,1-1.32-.44A2.13,2.13,0,0,1,891.47,178.37Zm3-2.93a1.51,1.51,0,0,0-.3-1,.88.88,0,0,0-.69-.36.78.78,0,0,0-.62.29,1.53,1.53,0,0,0-.25,1,1.51,1.51,0,0,0,.27,1,.85.85,0,0,0,.67.32.81.81,0,0,0,.65-.31A1.31,1.31,0,0,0,894.51,175.44Z"/></g></g><path class="cls-7" d="M909.9,177.87l1.11-.16a2.4,2.4,0,0,0,.4,1.46,1.25,1.25,0,0,0,1,.4,1.41,1.41,0,0,0,.8-.22,1.07,1.07,0,0,0,.46-.57,4,4,0,0,0,.13-1.17V171.2H915v6.34a4.8,4.8,0,0,1-.28,1.81,2,2,0,0,1-.9,1,3,3,0,0,1-1.44.34,2.42,2.42,0,0,1-1.87-.71A2.86,2.86,0,0,1,909.9,177.87Z"/><path class="cls-7" d="M921.5,178.34l1.18.14a2.88,2.88,0,0,1-1,1.61,3.5,3.5,0,0,1-4.27-.34,3.56,3.56,0,0,1-.87-2.56,3.71,3.71,0,0,1,.88-2.64,3,3,0,0,1,2.27-.94,2.9,2.9,0,0,1,2.21.92,3.68,3.68,0,0,1,.86,2.59c0,.07,0,.17,0,.31h-5a2.66,2.66,0,0,0,.63,1.7,1.89,1.89,0,0,0,1.41.59,1.73,1.73,0,0,0,1.07-.33A2.15,2.15,0,0,0,921.5,178.34Zm-3.75-1.85h3.76a2.28,2.28,0,0,0-.43-1.28,1.75,1.75,0,0,0-1.42-.66,1.83,1.83,0,0,0-1.32.53A2.08,2.08,0,0,0,917.75,176.49Z"/><path class="cls-7" d="M924.39,180.51v-5.86h-1v-.88h1v-.72a3.17,3.17,0,0,1,.12-1,1.41,1.41,0,0,1,.58-.72,2.11,2.11,0,0,1,1.16-.28,5.31,5.31,0,0,1,1.07.12l-.17,1a4.06,4.06,0,0,0-.67-.06,1,1,0,0,0-.74.22,1.23,1.23,0,0,0-.22.83v.63h1.32v.88h-1.32v5.86Z"/><path class="cls-7" d="M927.76,180.51v-5.86h-1v-.88h1v-.72a3.17,3.17,0,0,1,.12-1,1.48,1.48,0,0,1,.59-.72,2.09,2.09,0,0,1,1.16-.28,5.39,5.39,0,0,1,1.07.12l-.17,1a4.18,4.18,0,0,0-.68-.06,1,1,0,0,0-.73.22,1.18,1.18,0,0,0-.22.83v.63h1.31v.88H928.9v5.86Z"/><path class="cls-7" d="M931.09,180.51v-6.74h1v1a2.65,2.65,0,0,1,.73-.95,1.26,1.26,0,0,1,.73-.23,2.26,2.26,0,0,1,1.17.37l-.39,1.06a1.7,1.7,0,0,0-.84-.25,1.09,1.09,0,0,0-.67.23,1.27,1.27,0,0,0-.43.62,4.77,4.77,0,0,0-.19,1.34v3.53Z"/><path class="cls-7" d="M940.05,178.34l1.18.14a2.88,2.88,0,0,1-1,1.61,3.11,3.11,0,0,1-1.93.57,3.06,3.06,0,0,1-2.34-.91,3.56,3.56,0,0,1-.87-2.56,3.71,3.71,0,0,1,.88-2.64,3,3,0,0,1,2.27-.94,2.9,2.9,0,0,1,2.21.92,3.68,3.68,0,0,1,.85,2.59v.31h-5a2.55,2.55,0,0,0,.63,1.7,1.89,1.89,0,0,0,1.41.59,1.75,1.75,0,0,0,1.07-.33A2.22,2.22,0,0,0,940.05,178.34Zm-3.76-1.85h3.77a2.36,2.36,0,0,0-.43-1.28,1.77,1.77,0,0,0-1.42-.66,1.83,1.83,0,0,0-1.32.53A2.08,2.08,0,0,0,936.29,176.49Z"/><path class="cls-7" d="M942.61,183.1l-.13-1.07a2.46,2.46,0,0,0,.66.1,1.35,1.35,0,0,0,.61-.12,1.16,1.16,0,0,0,.37-.36,5.61,5.61,0,0,0,.35-.85l.1-.28L942,173.77h1.24l1.4,3.9c.18.5.34,1,.49,1.56a13.68,13.68,0,0,1,.47-1.54l1.44-3.92h1.14l-2.56,6.85a12.69,12.69,0,0,1-.65,1.53,2.25,2.25,0,0,1-.69.83,1.64,1.64,0,0,1-.94.26A2.13,2.13,0,0,1,942.61,183.1Z"/><path class="cls-7" d="M952.92,180.51V171.2h3.2a7.61,7.61,0,0,1,1.66.14,3.19,3.19,0,0,1,1.37.66,3.92,3.92,0,0,1,1.1,1.59,6.32,6.32,0,0,1,.36,2.21,6.65,6.65,0,0,1-.24,1.88,4.65,4.65,0,0,1-.64,1.36,3.38,3.38,0,0,1-.85.84,3.32,3.32,0,0,1-1.11.47,6.6,6.6,0,0,1-1.49.16Zm1.23-1.1h2a5,5,0,0,0,1.44-.17,2.26,2.26,0,0,0,.84-.48,3,3,0,0,0,.68-1.18,5.9,5.9,0,0,0,.24-1.8,4.31,4.31,0,0,0-.48-2.24,2.42,2.42,0,0,0-1.16-1,4.72,4.72,0,0,0-1.59-.19h-2Z"/><path class="cls-7" d="M966.56,179.68a4.25,4.25,0,0,1-1.22.76,3.48,3.48,0,0,1-1.26.22,2.47,2.47,0,0,1-1.71-.54,1.79,1.79,0,0,1-.6-1.39,1.83,1.83,0,0,1,.23-.9,1.8,1.8,0,0,1,.59-.66,2.8,2.8,0,0,1,.82-.38,9.18,9.18,0,0,1,1-.17,10.52,10.52,0,0,0,2-.39c0-.16,0-.26,0-.3a1.28,1.28,0,0,0-.32-1,1.91,1.91,0,0,0-1.3-.39,2,2,0,0,0-1.19.28,1.69,1.69,0,0,0-.57,1l-1.12-.15a2.76,2.76,0,0,1,.5-1.16,2.28,2.28,0,0,1,1-.68,4.47,4.47,0,0,1,1.53-.24,3.89,3.89,0,0,1,1.4.21,1.79,1.79,0,0,1,.8.51,1.66,1.66,0,0,1,.35.77,6.24,6.24,0,0,1,.06,1.06v1.52a16.23,16.23,0,0,0,.07,2,2.71,2.71,0,0,0,.29.81h-1.19A2.36,2.36,0,0,1,966.56,179.68Zm-.1-2.56a8.2,8.2,0,0,1-1.86.44,4.36,4.36,0,0,0-1,.22,1,1,0,0,0-.45.38,1,1,0,0,0-.16.54,1,1,0,0,0,.35.76,1.5,1.5,0,0,0,1,.3,2.42,2.42,0,0,0,1.18-.28,1.81,1.81,0,0,0,.75-.8,2.76,2.76,0,0,0,.18-1.14Z"/><path class="cls-7" d="M969.39,180.51V171.2h1.15v3.34a2.53,2.53,0,0,1,2-.93,2.66,2.66,0,0,1,1.3.3,1.72,1.72,0,0,1,.79.81,3.79,3.79,0,0,1,.24,1.52v4.27h-1.14v-4.27a1.75,1.75,0,0,0-.37-1.25,1.39,1.39,0,0,0-1-.39,1.82,1.82,0,0,0-1,.26,1.49,1.49,0,0,0-.64.72,3.42,3.42,0,0,0-.18,1.24v3.69Z"/><path class="cls-7" d="M976.62,180.51v-6.74h1v.94a2.48,2.48,0,0,1,.85-.79,2.28,2.28,0,0,1,1.2-.31,2.2,2.2,0,0,1,1.23.32,1.6,1.6,0,0,1,.67.86,2.45,2.45,0,0,1,2.08-1.18,2.07,2.07,0,0,1,1.55.56,2.37,2.37,0,0,1,.54,1.71v4.63h-1.14v-4.25a3.26,3.26,0,0,0-.11-1,.93.93,0,0,0-.4-.48,1.32,1.32,0,0,0-.69-.19,1.58,1.58,0,0,0-1.18.48,2.08,2.08,0,0,0-.47,1.51v3.92h-1.14v-4.38a1.93,1.93,0,0,0-.28-1.15,1.08,1.08,0,0,0-.92-.38,1.68,1.68,0,0,0-.89.26,1.42,1.42,0,0,0-.59.74,4.31,4.31,0,0,0-.18,1.41v3.5Z"/><path class="cls-7" d="M992.07,178.34l1.18.14a2.93,2.93,0,0,1-1,1.61,3.11,3.11,0,0,1-1.93.57,3.06,3.06,0,0,1-2.34-.91,3.56,3.56,0,0,1-.87-2.56,3.71,3.71,0,0,1,.88-2.64,3,3,0,0,1,2.27-.94,2.9,2.9,0,0,1,2.21.92,3.68,3.68,0,0,1,.85,2.59v.31h-5a2.55,2.55,0,0,0,.63,1.7,1.89,1.89,0,0,0,1.41.59,1.75,1.75,0,0,0,1.07-.33A2.22,2.22,0,0,0,992.07,178.34Zm-3.76-1.85h3.77a2.36,2.36,0,0,0-.43-1.28,1.77,1.77,0,0,0-1.42-.66,1.81,1.81,0,0,0-1.32.53A2.08,2.08,0,0,0,988.31,176.49Z"/><path class="cls-7" d="M994.67,180.51v-6.74h1v1a2.77,2.77,0,0,1,.72-.95,1.32,1.32,0,0,1,.74-.23,2.29,2.29,0,0,1,1.17.37l-.39,1.06a1.7,1.7,0,0,0-.84-.25,1.09,1.09,0,0,0-.67.23,1.27,1.27,0,0,0-.43.62,4.77,4.77,0,0,0-.19,1.34v3.53Z"/></g><g id="Peak_lines" data-name="Peak lines"><line class="cls-8" x1="230.71" y1="67.16" x2="230.71" y2="73.34"/><line class="cls-9" x1="230.71" y1="85.63" x2="230.71" y2="546.8"/><line class="cls-8" x1="230.71" y1="552.94" x2="230.71" y2="559.11"/></g><g id="Peak_lines-2" data-name="Peak lines"><line class="cls-8" x1="462.46" y1="67.04" x2="462.46" y2="73.22"/><line class="cls-9" x1="462.46" y1="85.52" x2="462.46" y2="546.68"/><line class="cls-8" x1="462.46" y1="552.82" x2="462.46" y2="559"/></g><g id="Peak_lines-3" data-name="Peak lines"><line class="cls-8" x1="641.14" y1="67.04" x2="641.14" y2="73.22"/><line class="cls-9" x1="641.14" y1="85.52" x2="641.14" y2="546.68"/><line class="cls-8" x1="641.14" y1="552.82" x2="641.14" y2="559"/></g><g id="Peak_lines-4" data-name="Peak lines"><line class="cls-8" x1="815.32" y1="67.04" x2="815.32" y2="73.22"/><line class="cls-9" x1="815.32" y1="85.52" x2="815.32" y2="546.68"/><line class="cls-8" x1="815.32" y1="552.82" x2="815.32" y2="559"/></g><path class="cls-7" d="M222.41,574.6v1.91h-7.22a5,5,0,0,1,.71-2,13.59,13.59,0,0,1,2.31-2.58,14,14,0,0,0,1.71-1.76,2.26,2.26,0,0,0,.42-1.26,1.4,1.4,0,0,0-.37-1.05,1.35,1.35,0,0,0-1-.37,1.38,1.38,0,0,0-1,.38,2,2,0,0,0-.44,1.29l-2.05-.2a3.34,3.34,0,0,1,1.15-2.44,3.86,3.86,0,0,1,2.41-.74,3.45,3.45,0,0,1,2.5.86,2.79,2.79,0,0,1,.91,2.13,3.8,3.8,0,0,1-.26,1.38,5.63,5.63,0,0,1-.82,1.37,12.5,12.5,0,0,1-1.35,1.37c-.65.6-1.06,1-1.24,1.19a3.46,3.46,0,0,0-.42.57Z"/><path class="cls-7" d="M227.28,565.73a2.94,2.94,0,0,1,2.44,1.11,9.62,9.62,0,0,1,0,8.76,2.92,2.92,0,0,1-2.43,1.09,3.08,3.08,0,0,1-2.53-1.2c-.64-.8-1-2.24-1-4.3a7,7,0,0,1,1.06-4.36A2.93,2.93,0,0,1,227.28,565.73Zm0,1.71a1.09,1.09,0,0,0-.67.23,1.68,1.68,0,0,0-.45.86,11.91,11.91,0,0,0-.21,2.69,11.43,11.43,0,0,0,.19,2.59,1.7,1.7,0,0,0,.48.94,1,1,0,0,0,.66.24,1,1,0,0,0,.67-.24,1.65,1.65,0,0,0,.45-.85,11.8,11.8,0,0,0,.21-2.68,11.53,11.53,0,0,0-.19-2.6,1.93,1.93,0,0,0-.48-1A1,1,0,0,0,227.28,567.44Z"/><path class="cls-7" d="M235.62,565.73a2.94,2.94,0,0,1,2.44,1.11,9.62,9.62,0,0,1,0,8.76,2.92,2.92,0,0,1-2.43,1.09,3.09,3.09,0,0,1-2.53-1.2c-.64-.8-1-2.24-1-4.3a7.1,7.1,0,0,1,1.06-4.36A2.93,2.93,0,0,1,235.62,565.73Zm0,1.71a1.09,1.09,0,0,0-.67.23,1.68,1.68,0,0,0-.45.86,11.91,11.91,0,0,0-.21,2.69,11.43,11.43,0,0,0,.19,2.59,1.84,1.84,0,0,0,.48.94,1,1,0,0,0,.66.24,1,1,0,0,0,.67-.24,1.65,1.65,0,0,0,.45-.85,11.8,11.8,0,0,0,.21-2.68,11.53,11.53,0,0,0-.19-2.6,1.78,1.78,0,0,0-.48-1A1,1,0,0,0,235.62,567.44Z"/><path class="cls-7" d="M240.48,567.83v-1.91h7v1.49a11.37,11.37,0,0,0-1.77,2.47,14,14,0,0,0-1.37,3.4,12.71,12.71,0,0,0-.47,3.23h-2a13.66,13.66,0,0,1,.92-4.54,15.18,15.18,0,0,1,2.31-4.14Z"/><path class="cls-7" d="M455,574.6v1.91h-7.22a5,5,0,0,1,.71-2,13.59,13.59,0,0,1,2.31-2.58,14,14,0,0,0,1.71-1.76,2.26,2.26,0,0,0,.42-1.26,1.4,1.4,0,0,0-.37-1.05,1.35,1.35,0,0,0-1-.37,1.38,1.38,0,0,0-1,.38,2,2,0,0,0-.44,1.29l-2-.2a3.34,3.34,0,0,1,1.15-2.44,3.86,3.86,0,0,1,2.41-.74,3.45,3.45,0,0,1,2.5.86,2.79,2.79,0,0,1,.91,2.13,3.8,3.8,0,0,1-.26,1.38,5.63,5.63,0,0,1-.82,1.37,12.5,12.5,0,0,1-1.35,1.37c-.65.6-1.06,1-1.24,1.19a3.46,3.46,0,0,0-.42.57Z"/><path class="cls-7" d="M459.88,565.73a2.94,2.94,0,0,1,2.44,1.11,9.62,9.62,0,0,1,0,8.76,2.92,2.92,0,0,1-2.43,1.09,3.08,3.08,0,0,1-2.53-1.2c-.64-.8-1-2.24-1-4.3a7,7,0,0,1,1.06-4.36A2.93,2.93,0,0,1,459.88,565.73Zm0,1.71a1.09,1.09,0,0,0-.67.23,1.68,1.68,0,0,0-.45.86,11.91,11.91,0,0,0-.21,2.69,11.43,11.43,0,0,0,.19,2.59,1.7,1.7,0,0,0,.48.94,1,1,0,0,0,.66.24,1,1,0,0,0,.67-.24,1.65,1.65,0,0,0,.45-.85,11.8,11.8,0,0,0,.21-2.68,11.53,11.53,0,0,0-.19-2.6,1.85,1.85,0,0,0-.48-1A1,1,0,0,0,459.88,567.44Z"/><path class="cls-7" d="M470,576.51H468v-7.75a7,7,0,0,1-2.66,1.55v-1.86a6,6,0,0,0,1.75-1,3.87,3.87,0,0,0,1.3-1.72H470Z"/><path class="cls-7" d="M477.52,576.51h-2.06v-7.75a7,7,0,0,1-2.65,1.55v-1.86a6.16,6.16,0,0,0,1.75-1,3.78,3.78,0,0,0,1.29-1.72h1.67Z"/><path class="cls-7" d="M632.92,574.6v1.91h-7.21a5,5,0,0,1,.7-2,13.37,13.37,0,0,1,2.32-2.58,14.4,14.4,0,0,0,1.7-1.76,2.2,2.2,0,0,0,.43-1.26,1.44,1.44,0,0,0-.37-1.05,1.38,1.38,0,0,0-1-.37,1.41,1.41,0,0,0-1,.38,2,2,0,0,0-.44,1.29l-2-.2a3.37,3.37,0,0,1,1.15-2.44,3.89,3.89,0,0,1,2.42-.74,3.43,3.43,0,0,1,2.49.86,2.79,2.79,0,0,1,.91,2.13,3.6,3.6,0,0,1-.26,1.38,5.63,5.63,0,0,1-.82,1.37,12.5,12.5,0,0,1-1.35,1.37c-.65.6-1.06,1-1.23,1.19a2.6,2.6,0,0,0-.42.57Z"/><path class="cls-7" d="M637.79,565.73a2.93,2.93,0,0,1,2.44,1.11,9.62,9.62,0,0,1,0,8.76,2.92,2.92,0,0,1-2.43,1.09,3.07,3.07,0,0,1-2.52-1.2c-.64-.8-1-2.24-1-4.3a7.11,7.11,0,0,1,1.05-4.36A2.93,2.93,0,0,1,637.79,565.73Zm0,1.71a1,1,0,0,0-.66.23,1.62,1.62,0,0,0-.46.86,11.91,11.91,0,0,0-.21,2.69,11.43,11.43,0,0,0,.19,2.59,1.84,1.84,0,0,0,.48.94,1,1,0,0,0,.66.24,1,1,0,0,0,.67-.24,1.58,1.58,0,0,0,.45-.85,11.65,11.65,0,0,0,.22-2.68,12.17,12.17,0,0,0-.19-2.6,1.93,1.93,0,0,0-.48-1A1.09,1.09,0,0,0,637.79,567.44Z"/><path class="cls-7" d="M647.92,576.51h-2.06v-7.75a7,7,0,0,1-2.65,1.55v-1.86a6.16,6.16,0,0,0,1.75-1,3.85,3.85,0,0,0,1.29-1.72h1.67Z"/><path class="cls-7" d="M655,576.51v-2.16h-4.39v-1.8l4.66-6.82H657v6.81h1.33v1.81H657v2.16Zm0-4v-3.67l-2.46,3.67Z"/><path class="cls-7" d="M806.43,574.6v1.91h-7.22a5,5,0,0,1,.71-2,13.59,13.59,0,0,1,2.31-2.58,14,14,0,0,0,1.71-1.76,2.26,2.26,0,0,0,.42-1.26,1.4,1.4,0,0,0-.37-1.05,1.35,1.35,0,0,0-1-.37,1.38,1.38,0,0,0-1,.38,1.92,1.92,0,0,0-.44,1.29l-2-.2a3.34,3.34,0,0,1,1.15-2.44,3.84,3.84,0,0,1,2.41-.74,3.47,3.47,0,0,1,2.5.86,2.83,2.83,0,0,1,.91,2.13,3.8,3.8,0,0,1-.26,1.38,5.69,5.69,0,0,1-.83,1.37,12.19,12.19,0,0,1-1.34,1.37c-.65.6-1.06,1-1.24,1.19a3.46,3.46,0,0,0-.42.57Z"/><path class="cls-7" d="M811.3,565.73a2.94,2.94,0,0,1,2.44,1.11,9.7,9.7,0,0,1,0,8.76,2.92,2.92,0,0,1-2.43,1.09,3.08,3.08,0,0,1-2.53-1.2c-.64-.8-1-2.24-1-4.3a7,7,0,0,1,1.06-4.36A2.93,2.93,0,0,1,811.3,565.73Zm0,1.71a1.09,1.09,0,0,0-.67.23,1.61,1.61,0,0,0-.45.86,11.76,11.76,0,0,0-.22,2.69,11.26,11.26,0,0,0,.2,2.59,1.77,1.77,0,0,0,.47.94,1,1,0,0,0,.67.24,1,1,0,0,0,.66-.24,1.58,1.58,0,0,0,.46-.85,11.8,11.8,0,0,0,.21-2.68,11.53,11.53,0,0,0-.19-2.6,1.93,1.93,0,0,0-.48-1A1,1,0,0,0,811.3,567.44Z"/><path class="cls-7" d="M821.43,576.51h-2.06v-7.75a7,7,0,0,1-2.66,1.55v-1.86a6,6,0,0,0,1.75-1,3.87,3.87,0,0,0,1.3-1.72h1.67Z"/><path class="cls-7" d="M824.5,567.83v-1.91h7v1.49a11.37,11.37,0,0,0-1.77,2.47,14,14,0,0,0-1.37,3.4,12.28,12.28,0,0,0-.47,3.23h-2a13.89,13.89,0,0,1,.91-4.54,15.47,15.47,0,0,1,2.32-4.14Z"/></g></svg>