<svg id="Layer_1" data-name="Layer 1" xmlns="http://www.w3.org/2000/svg" viewBox="0 0 307 252"><defs><style>.cls-1{fill:#f7a3a3;}.cls-2{isolation:isolate;}.cls-3{fill:#fff;}</style></defs><title>gacy_state</title><path class="cls-1" d="M84.86,101.86a1.37,1.37,0,0,1-.32.16,4.09,4.09,0,0,1-.73.18l-.23.24a11.72,11.72,0,0,1-.68,3.31,1,1,0,0,0-.05.16h0a8.42,8.42,0,0,0,.14,7.26,5.34,5.34,0,0,1,.45,2.88c0,.83,0,1.25.19,1.57a1.11,1.11,0,0,1,.35.42.76.76,0,0,1,.13.33,25.32,25.32,0,0,1,.58,2.88,14.93,14.93,0,0,0,.81,3.41,1.3,1.3,0,0,1,.91.6l.82,1.3a1.36,1.36,0,0,1,0,1.39,1.48,1.48,0,0,1-.32.34c.55,2.19.83,2.88,2.85,2.64a1.31,1.31,0,0,1,.8.14,17.09,17.09,0,0,1,6.78,7.31,11.13,11.13,0,0,0,5.76,5.76l.16.09c2.92,1.91,4,4.78,5.15,7.57l.4,1a1.35,1.35,0,0,1,.09.56,22.63,22.63,0,0,0,1.12,8.3c.71,2,1,2.47,1.2,2.56a10.71,10.71,0,0,0,2.19-1.55c1.91-1.55,4-1.28,5.71-.8a13.2,13.2,0,0,1,1.41.5c1.23.48,2,.72,2.78.33a1.35,1.35,0,0,1,1.06,0,6.78,6.78,0,0,1,4.49,4.3,1.39,1.39,0,0,1-.26,1.31c-.19.24-.23.35,0,.7a1.38,1.38,0,0,1,.06,1.36l-2,3.87a1.42,1.42,0,0,1-.65.63c-.15.16-.13.54-.12.78a3.31,3.31,0,0,1-.8,2.8,4.76,4.76,0,0,0-.46,1.5,9.28,9.28,0,0,1-.45,1.6,4.53,4.53,0,0,1-1.79,3.94,1.22,1.22,0,0,1-.45.2,2,2,0,0,1-.06.23c0,.14-.08.27-.13.41a3.13,3.13,0,0,1-1.29,2.8c-1,1-1.07,1.73-.16,2.83.62.79,1.18,1.6,1.74,2.4a19.2,19.2,0,0,0,4,4.67,1.37,1.37,0,0,1,.52.82,2.61,2.61,0,0,1,.76.43,1.16,1.16,0,0,1,.42.54,3.05,3.05,0,0,0,.48.47,1.35,1.35,0,0,1,.56.48,1.19,1.19,0,0,1,.22.62,2.85,2.85,0,0,0,1.22,1.89,1.24,1.24,0,0,1,.8-.42,3.2,3.2,0,0,1,3.69,1.92,1.24,1.24,0,0,1-.46,1.6l.08.1a11.34,11.34,0,0,0,2.13.65,8.71,8.71,0,0,1,4.19,1.86c.06,0,.11.11.17.16s.08.11.13.16c.38.57.7,1.18,1,1.79.85,1.55,1.57,2.89,3.12,3.68,2.8,1.4,2.73,4,2.67,5.82a4.88,4.88,0,0,0,.37,2.72,3.9,3.9,0,0,1,.73,1.91,2.77,2.77,0,0,0,.18.69,1.27,1.27,0,0,1,.41.45.61.61,0,0,1,.07.14,7.06,7.06,0,0,1-.1,6.31,1.2,1.2,0,0,1-.19.27l-.91,1c-.75,1-.63,1.15.64,2.28a5.58,5.58,0,0,1,1.85,2.42c0,.09.05.21.07.3A5.94,5.94,0,0,0,153.5,244a6.55,6.55,0,0,0,3.47.32,1.4,1.4,0,0,1,.79-.52h0a1.79,1.79,0,0,0,.05-.19,1.38,1.38,0,0,1,1.09-1,2.42,2.42,0,0,1,.27-.5c2.35-4.51,6.52-4.67,9.88-4.33a1.32,1.32,0,0,1,.86.43,7.45,7.45,0,0,0,1.08.93,64.42,64.42,0,0,1,6.47,3.31c1.78,1,2.61,1.07,3.49.29s1.09-1.88.62-3.68a9.8,9.8,0,0,0-.48-1.38,9.42,9.42,0,0,1-.76-3.07,16.27,16.27,0,0,1-.53-2.48,1.37,1.37,0,0,1,.27-1,1.31,1.31,0,0,1,.93-.51l.67,0a8.7,8.7,0,0,0,.91-.11,9.46,9.46,0,0,1,.86-.55s0,0,0,0a1.34,1.34,0,0,1,1-.72,1.48,1.48,0,0,1,1.15-1.13s.07,0,.1-.18a1.37,1.37,0,0,1,1.31-1.07l4.57-.07a4.08,4.08,0,0,0,1.07-.44c.68-.56.92-1.22.05-3a6.86,6.86,0,0,1-.81-3.72,10,10,0,0,1,1.23-4.16,1.32,1.32,0,0,1,.89-.72.48.48,0,0,0,.18-.07,1.42,1.42,0,0,1,.73-1,4.94,4.94,0,0,0,0-.77,3.74,3.74,0,0,1-1.13-1.82,3.79,3.79,0,0,1,.57-3,10.47,10.47,0,0,0,.85-3.43,11.18,11.18,0,0,1,1.62-5.13.13.13,0,0,1,0-.05l0,0a0,0,0,0,1,0,0h0l.23-.23c.64-.55.6-1.18.36-2.62a5.55,5.55,0,0,1,.5-4.27,1.14,1.14,0,0,1,.27-.35,1.67,1.67,0,0,1,.29-.21,11.13,11.13,0,0,0,4.25-4.2,3,3,0,0,1,.15-.26.53.53,0,0,1,.09-.11,26.21,26.21,0,0,0,3.75-6,27.6,27.6,0,0,1,4.27-6.64,25.71,25.71,0,0,0,.84-2.88,18.06,18.06,0,0,1-.46-5.64,19.7,19.7,0,0,0-.14-4c-.2-.21-.4-.41-.63-.61a1.66,1.66,0,0,1-.45-.43,1.36,1.36,0,0,1-.2-.54,8.24,8.24,0,0,0-.64-1.57c-.64-1.33-1.52-3.15-.52-5.28l0,0a7.74,7.74,0,0,0,.38-3.29c0-2.13-.08-4.74,2.36-6.61.3-17.24.27-34.77.23-51.72,0-13.18,0-26.8.1-40.2a6.9,6.9,0,0,0-.21-1.3c-.24-1.13-.65-3.12.55-4.56a25.43,25.43,0,0,0-.8-3.12,28.55,28.55,0,0,1-1.95-6c-.64-2.67-1.25-5.2-2.83-7.15-3.43-4.22-4.63-8.89-3.89-15.16a16.4,16.4,0,0,0,0-3c0-.19,0-.4-.05-.59s0-.19,0-.29a5.24,5.24,0,0,0-2.83-.21c-.55,0-1.09.1-1.62.1-6.92-.06-13.83-.05-20.76-.05h-55.4c-3.35,0-6.7,0-10.06,0,.16.16.31.32.47.46l.19.16h0a.24.24,0,0,1,.06.08,11,11,0,0,0,1,1l.11.09A16.51,16.51,0,0,0,116,13.41c.41.25.85.51,1.26.78a1.66,1.66,0,0,1,.43.3l0,0a4.45,4.45,0,0,1,.94,3.39,2.63,2.63,0,0,0,.16,1.38h0a39.58,39.58,0,0,0,6.65,4.46l.24.15a1.52,1.52,0,0,1,.5.35l0,.06a4.82,4.82,0,0,1,.91,3.28,9,9,0,0,0,0,.94,6.69,6.69,0,0,1,0,4.5,9.57,9.57,0,0,0,0,1.33,5.82,5.82,0,0,1-.72,3.67.67.67,0,0,1-.11.18s0,0,0,0l0,0h0a.91.91,0,0,1-.17.17,9.92,9.92,0,0,0-1,1l-.08.1a.35.35,0,0,1-.13.11,13.09,13.09,0,0,0-1,1,.52.52,0,0,0-.08.11l-.3.33a4,4,0,0,0-.4.48c-.88,6.35-4.74,10.5-12.09,13l-.15,0c-.4.16-.8.35-1.2.54a8.07,8.07,0,0,1-4.81,1.14c-4.67-.8-7.28.86-8.67,5.56a1.24,1.24,0,0,1-.19.58s-.05.08-.08.11c-.51.69-.46.94.48,2.18.26.33.5.65.72,1,4.77,4.62,5,6.86,1.42,13.51a.87.87,0,0,1-.14.27,1.07,1.07,0,0,1-.27.29,9,9,0,0,0-.88.86c-.19.58-.39,1.16-.56,1.75C95.42,86.4,94,91,88.08,92.15a4.64,4.64,0,0,1-1.33.56c-.19.07-.42.12-.54.18-.28.59-.07,1.36.3,2.51C87.1,97.18,87.92,99.86,84.86,101.86Z"/><g class="cls-2"><path class="cls-3" d="M141.4,101.74v3.54c0,2.73,1.2,3.71,3.11,3.71s3.11-1,3.11-3.71v-8.4c0-2.73-1.2-3.76-3.11-3.76s-3.11,1-3.11,3.76V98h-5.67l1.09-22.16h15.83v5.46H142.17l-.49,9.11h.11A5.63,5.63,0,0,1,147,87.66c4.42,0,6.66,3.11,6.66,8.73v8.51c0,6.11-3.06,9.6-8.95,9.6s-9-3.49-9-9.6v-3.16Z"/><path class="cls-3" d="M157.12,85c0-6.11,3.22-9.6,9.11-9.6s9.12,3.49,9.12,9.6V104.9c0,6.11-3.22,9.6-9.12,9.6s-9.11-3.49-9.11-9.6Zm6,20.24c0,2.73,1.2,3.77,3.11,3.77s3.11-1,3.11-3.77V84.66c0-2.73-1.2-3.77-3.11-3.77s-3.11,1-3.11,3.77Z"/></g><g class="cls-2"><path class="cls-3" d="M125,129.82h3.14v19.93H125Z"/><path class="cls-3" d="M130.4,129.82h3.14V146.9h5.15v2.85H130.4Z"/><path class="cls-3" d="M140.05,129.82h3.14V146.9h5.15v2.85h-8.29Z"/><path class="cls-3" d="M149.71,129.82h3.13v19.93h-3.13Z"/><path class="cls-3" d="M158,135.31h-.06v14.44h-2.81V129.82H159l3.16,11.93h0V129.82H165v19.93h-3.21Z"/><path class="cls-3" d="M167,134.6c0-3.19,1.68-5,4.76-5s4.75,1.82,4.75,5V145c0,3.19-1.68,5-4.75,5s-4.76-1.82-4.76-5Zm3.14,10.56c0,1.43.62,2,1.62,2s1.62-.54,1.62-2V134.4c0-1.42-.62-2-1.62-2s-1.62.54-1.62,2Z"/><path class="cls-3" d="M178.54,129.82h3.14v19.93h-3.14Z"/><path class="cls-3" d="M188.17,129.59c3,0,4.61,1.82,4.61,5v.63h-3v-.83c0-1.42-.57-2-1.57-2s-1.56.54-1.56,2,.62,2.53,2.67,4.33c2.62,2.3,3.45,4,3.45,6.23,0,3.19-1.6,5-4.67,5s-4.67-1.82-4.67-5v-1.22h3v1.42c0,1.43.63,1.94,1.62,1.94s1.63-.51,1.63-1.94-.63-2.53-2.68-4.33c-2.62-2.3-3.44-4-3.44-6.23C183.56,131.41,185.12,129.59,188.17,129.59Z"/></g></svg>