<svg id="Layer_1" data-name="Layer 1" xmlns="http://www.w3.org/2000/svg" viewBox="0 0 634 260"><defs><style>.cls-1{fill:#f7a3a3;}.cls-2{fill:#decc59;}.cls-3{isolation:isolate;}.cls-4{fill:#fff;}</style></defs><title>gacy_zodiac</title><path class="cls-1" d="M84.86,104.36a1.37,1.37,0,0,1-.32.16,4.09,4.09,0,0,1-.73.18l-.23.24a11.72,11.72,0,0,1-.68,3.31,1,1,0,0,0-.05.16h0a8.42,8.42,0,0,0,.14,7.26,5.34,5.34,0,0,1,.45,2.88c0,.83,0,1.25.19,1.57a1.11,1.11,0,0,1,.35.42.76.76,0,0,1,.13.33,25.32,25.32,0,0,1,.58,2.88,14.93,14.93,0,0,0,.81,3.41,1.3,1.3,0,0,1,.91.6l.82,1.3a1.36,1.36,0,0,1,0,1.39,1.48,1.48,0,0,1-.32.34c.55,2.19.83,2.88,2.85,2.64a1.31,1.31,0,0,1,.8.14,17.09,17.09,0,0,1,6.78,7.31,11.13,11.13,0,0,0,5.76,5.76l.16.09c2.92,1.91,4,4.78,5.15,7.57l.4,1a1.35,1.35,0,0,1,.09.56,22.63,22.63,0,0,0,1.12,8.3c.71,2,1,2.47,1.2,2.56a10.71,10.71,0,0,0,2.19-1.55c1.91-1.55,4-1.28,5.71-.8a13.2,13.2,0,0,1,1.41.5c1.23.48,2,.72,2.78.33a1.35,1.35,0,0,1,1.06,0,6.78,6.78,0,0,1,4.49,4.3,1.39,1.39,0,0,1-.26,1.31c-.19.24-.23.35,0,.7a1.38,1.38,0,0,1,.06,1.36l-2,3.87a1.42,1.42,0,0,1-.65.63c-.15.16-.13.54-.12.78a3.31,3.31,0,0,1-.8,2.8,4.76,4.76,0,0,0-.46,1.5,9.28,9.28,0,0,1-.45,1.6,4.53,4.53,0,0,1-1.79,3.94,1.22,1.22,0,0,1-.45.2,2,2,0,0,1-.06.23c0,.14-.08.27-.13.41a3.13,3.13,0,0,1-1.29,2.8c-1,1-1.07,1.73-.16,2.83.62.79,1.18,1.6,1.74,2.4a19.2,19.2,0,0,0,4,4.67,1.37,1.37,0,0,1,.52.82,2.61,2.61,0,0,1,.76.43,1.16,1.16,0,0,1,.42.54,3.05,3.05,0,0,0,.48.47,1.35,1.35,0,0,1,.56.48,1.19,1.19,0,0,1,.22.62,2.85,2.85,0,0,0,1.22,1.89,1.24,1.24,0,0,1,.8-.42,3.2,3.2,0,0,1,3.69,1.92,1.24,1.24,0,0,1-.46,1.6l.08.1a11.34,11.34,0,0,0,2.13.65,8.71,8.71,0,0,1,4.19,1.86c.06,0,.11.11.17.16s.08.11.13.16c.38.57.7,1.18,1,1.79.85,1.55,1.57,2.89,3.12,3.68,2.8,1.4,2.73,4,2.67,5.82a4.88,4.88,0,0,0,.37,2.72,3.9,3.9,0,0,1,.73,1.91,2.77,2.77,0,0,0,.18.69,1.27,1.27,0,0,1,.41.45.61.61,0,0,1,.07.14,7.06,7.06,0,0,1-.1,6.31,1.2,1.2,0,0,1-.19.27l-.91,1c-.75,1-.63,1.15.64,2.28a5.58,5.58,0,0,1,1.85,2.42c0,.09.05.21.07.3a5.94,5.94,0,0,0,2.52,3.86,6.55,6.55,0,0,0,3.47.32,1.4,1.4,0,0,1,.79-.52h0a1.79,1.79,0,0,0,.05-.19,1.38,1.38,0,0,1,1.09-1,2.42,2.42,0,0,1,.27-.5c2.35-4.51,6.52-4.67,9.88-4.33a1.32,1.32,0,0,1,.86.43,7.45,7.45,0,0,0,1.08.93,64.42,64.42,0,0,1,6.47,3.31c1.78,1,2.61,1.07,3.49.29s1.09-1.88.62-3.68a9.8,9.8,0,0,0-.48-1.38,9.42,9.42,0,0,1-.76-3.07,16.27,16.27,0,0,1-.53-2.48,1.37,1.37,0,0,1,.27-1A1.31,1.31,0,0,1,181,233l.67,0a8.7,8.7,0,0,0,.91-.11,9.46,9.46,0,0,1,.86-.55s0,0,0,0a1.34,1.34,0,0,1,1-.72,1.48,1.48,0,0,1,1.15-1.13s.07,0,.1-.18a1.37,1.37,0,0,1,1.31-1.07l4.57-.07a4.08,4.08,0,0,0,1.07-.44c.68-.56.92-1.22.05-3A6.86,6.86,0,0,1,192,222a10,10,0,0,1,1.23-4.16,1.32,1.32,0,0,1,.89-.72.48.48,0,0,0,.18-.07,1.42,1.42,0,0,1,.73-1,4.94,4.94,0,0,0,0-.77,3.74,3.74,0,0,1-1.13-1.82,3.79,3.79,0,0,1,.57-3,10.47,10.47,0,0,0,.85-3.43,11.18,11.18,0,0,1,1.62-5.13.13.13,0,0,1,0-.05l0,0a0,0,0,0,1,0,0h0l.23-.23c.64-.55.6-1.18.36-2.62a5.55,5.55,0,0,1,.5-4.27,1.14,1.14,0,0,1,.27-.35,1.67,1.67,0,0,1,.29-.21,11.13,11.13,0,0,0,4.25-4.2,3,3,0,0,1,.15-.26.53.53,0,0,1,.09-.11,26.21,26.21,0,0,0,3.75-6,27.6,27.6,0,0,1,4.27-6.64A25.71,25.71,0,0,0,212,174a18.06,18.06,0,0,1-.46-5.64,19.7,19.7,0,0,0-.14-4c-.2-.21-.4-.41-.63-.61a1.66,1.66,0,0,1-.45-.43,1.36,1.36,0,0,1-.2-.54,8.24,8.24,0,0,0-.64-1.57c-.64-1.33-1.52-3.15-.52-5.28l0,0a7.74,7.74,0,0,0,.38-3.29c0-2.13-.08-4.74,2.36-6.61.3-17.24.27-34.77.23-51.72,0-13.18,0-26.8.1-40.2a6.9,6.9,0,0,0-.21-1.3c-.24-1.13-.65-3.12.55-4.56a25.43,25.43,0,0,0-.8-3.12,28.55,28.55,0,0,1-1.95-6c-.64-2.67-1.25-5.2-2.83-7.15-3.43-4.22-4.63-8.89-3.89-15.16a16.4,16.4,0,0,0,0-3c0-.19,0-.4-.05-.59s0-.19,0-.29a5.24,5.24,0,0,0-2.83-.21c-.55,0-1.09.1-1.62.1-6.92-.06-13.83-.05-20.76-.05h-55.4c-3.35,0-6.7,0-10.06,0,.16.16.31.32.47.46l.19.16h0a.24.24,0,0,1,.06.08,11,11,0,0,0,1,1l.11.09A16.51,16.51,0,0,0,116,15.91c.41.25.85.51,1.26.78a1.66,1.66,0,0,1,.43.3l0,0a4.45,4.45,0,0,1,.94,3.39,2.63,2.63,0,0,0,.16,1.38h0a39.58,39.58,0,0,0,6.65,4.46l.24.15a1.52,1.52,0,0,1,.5.35l0,.06a4.82,4.82,0,0,1,.91,3.28,9,9,0,0,0,0,.94,6.69,6.69,0,0,1,0,4.5,9.57,9.57,0,0,0,0,1.33,5.82,5.82,0,0,1-.72,3.67.67.67,0,0,1-.11.18s0,0,0,0l0,0h0a.91.91,0,0,1-.17.17,9.92,9.92,0,0,0-1,1L125,42a.35.35,0,0,1-.13.11,13.09,13.09,0,0,0-1,1,.52.52,0,0,0-.08.11l-.3.33a4,4,0,0,0-.4.48c-.88,6.35-4.74,10.5-12.09,13l-.15,0c-.4.16-.8.35-1.2.54a8.07,8.07,0,0,1-4.81,1.14c-4.67-.8-7.28.86-8.67,5.56a1.24,1.24,0,0,1-.19.58s-.05.08-.08.11c-.51.69-.46.94.48,2.18.26.33.5.65.72,1,4.77,4.62,5,6.86,1.42,13.51a.87.87,0,0,1-.14.27,1.07,1.07,0,0,1-.27.29,9,9,0,0,0-.88.86c-.19.58-.39,1.16-.56,1.75-1.28,4.08-2.74,8.7-8.62,9.83a4.64,4.64,0,0,1-1.33.56c-.19.07-.42.12-.54.18-.28.59-.07,1.36.3,2.51C87.1,99.68,87.92,102.36,84.86,104.36Z"/><path class="cls-2" d="M467,56.67l0-4.62-.16-34.26s0,0,0,0a9.75,9.75,0,0,1-.61.77,4.45,4.45,0,0,1-.53.65A6.14,6.14,0,0,1,464,23a12.82,12.82,0,0,1-.27,2.28,17.14,17.14,0,0,1-1.23,3.62c-.15.3-.29.62-.43.93s0,.83,0,1.24v.37a9,9,0,0,1-1.25,5.28,5.67,5.67,0,0,1-.67.83,5.34,5.34,0,0,1-1.77,3.9,5.6,5.6,0,0,1-1.86,3.73,5.62,5.62,0,0,1-1.73,3.58,29.27,29.27,0,0,0,.28,3,26.88,26.88,0,0,1,.28,4v1.11c0,2.83-.08,7.11-4.5,9.45a22.45,22.45,0,0,0-3.53,2.41A58.31,58.31,0,0,0,441.84,74c-.74.79-1.48,1.56-2.23,2.32a5.15,5.15,0,0,1-4.11,2.61,5.53,5.53,0,0,1-3.8,1.89,5.63,5.63,0,0,1-.87.83,3.23,3.23,0,0,1-3.93.16,5.2,5.2,0,0,1-1.12-1l-3.25,0a4.75,4.75,0,0,1-2.6,1.6,7.58,7.58,0,0,1-.28,1.65,5.4,5.4,0,0,1-1.18,2.25,6.21,6.21,0,0,1-3.93,1.81,16.83,16.83,0,0,1-2.56.14c-.26.87-.45,1.79-.66,2.74-.05.19-.09.4-.13.59A25.81,25.81,0,0,1,410,95.6a13,13,0,0,1-1.12,2.28l-.09,1a8.69,8.69,0,0,0-.1,1.48,1.77,1.77,0,0,0,.08.55c1.07,2.75,1.15,5.16.24,7.21-1.28,2.88-4.19,4.38-6.69,5.36a4.49,4.49,0,0,1-6.17-.4,2,2,0,0,1-.62-1.25,6.14,6.14,0,0,1,.11-2.26l-.11-2.22-.1-2.08-.37-.35a4,4,0,0,1-1.85,1.2l-1,1.07c-.18.61-.32,1.22-.46,1.82l-.4,1.59a18.59,18.59,0,0,1-1,2.7,10.75,10.75,0,0,1-2,3.1,4.22,4.22,0,0,1-1.51,2l-.05,1.66a11.17,11.17,0,0,1,1.61,3,7.74,7.74,0,0,1,.48,3.66,6.27,6.27,0,0,1-2.83,4.41,8.34,8.34,0,0,0-2.61,3.6,18.4,18.4,0,0,1-1.5,2.58,8.22,8.22,0,0,1-.7,1,2.34,2.34,0,0,1-.13.4,5.35,5.35,0,0,1-5.45,4.38c-.66,0-1.3,0-1.83,0-.3,0-.6,0-.91,0a5.15,5.15,0,0,1-3.08,1.63c-.29.05-.56.1-.84.12.87,3,1.52,6.68-.75,9.9a9.94,9.94,0,0,1-2.17,2.25c-.93,1.81-.16,3.2,1.32,5.57.18.28.36.57.53.86.58.54,1.14,1.1,1.67,1.68a21.87,21.87,0,0,1,1.74,1.73,5.48,5.48,0,0,1,1.69,4.28,4.07,4.07,0,0,0,.18,1.25c.66.61,1.29,1.23,1.89,1.89a13.69,13.69,0,0,1,3.15,5.63c.27.75.54,1.5.88,2.22.64.94,1.24,1.92,1.84,2.89,1.74,2.83,3.39,5.52,6.14,7.1a2.21,2.21,0,0,1,.8.52,2.06,2.06,0,0,1,.46.73c.32.69,1,1,2.45,1.43a13,13,0,0,1,2.65,1.11,5.7,5.7,0,0,1,1.94,1.86,7.24,7.24,0,0,0,1.18.88,1.59,1.59,0,0,1,.27.18,4.35,4.35,0,0,1,1.33,1.82,7.55,7.55,0,0,1,.48,2.46,3.81,3.81,0,0,0,.16,1.17,7.13,7.13,0,0,1,1.54,3.49,5.23,5.23,0,0,0,.41,1.4,13.8,13.8,0,0,1,1.58,1.57,28.49,28.49,0,0,1,4.95,3.31c4,3.15,6.57,4.85,10.76,2.35a5.65,5.65,0,0,1,3.34-1.52,7.45,7.45,0,0,0,.83-.17,6.64,6.64,0,0,1,2.4-1.67,5.38,5.38,0,0,1,3.9.07,14.43,14.43,0,0,1,2.52,1.24c.39.24.78.47,1.18.68a9.52,9.52,0,0,0,3.37-.13c.39-.07.77-.11,1.15-.16a15.63,15.63,0,0,1,11.28-2.7c.4-.4.8-.79,1.21-1.16a3.21,3.21,0,0,0,.16-1.24,5.5,5.5,0,0,1,1.81-4.4l.13-.1a4.35,4.35,0,0,1,6.05.16,3.47,3.47,0,0,0,3.77-.24,2.27,2.27,0,0,1,1-.29h.56a11.9,11.9,0,0,0,1.55-.1c-.13-1.71,1.76-2.22,2.82-2.51a6.69,6.69,0,0,1,4.59.66c1,.45,1.5.61,1.93.43,2.13-.94,2.75-2.72,3.62-5.57.2-.68.41-1.37.65-2a1.91,1.91,0,0,1,.43-.95,7.34,7.34,0,0,1,1.27-1.15l.4-.32c-2.08-3.47-.52-6.33.64-8.43a14.65,14.65,0,0,0,1-2,1.88,1.88,0,0,1,.19-.61,1.48,1.48,0,0,1,.16-.27c.43-.64.83-1.3,1.23-1.95a25,25,0,0,1,2.51-3.68c.42-.61.8-1.25,1.2-1.89a27.79,27.79,0,0,1,2.33-3.44,11,11,0,0,1,3.91-4.06,26.22,26.22,0,0,0,1.2-2.77c.28-.76.59-1.52.92-2.27,1.2-3.52,3.36-6.63,5.46-9.66a41.83,41.83,0,0,0,4.75-8.09,2.29,2.29,0,0,1,.3-.66,1.49,1.49,0,0,1,.24-.28c1.42-1.51,1.76-3.49,2.14-5.79a21.22,21.22,0,0,1,1.25-4.91,6.88,6.88,0,0,1,2.59-3.17,1.28,1.28,0,0,1,.24-.11,4.36,4.36,0,0,1,1-.38,5.33,5.33,0,0,1,4.48,1.18,1.58,1.58,0,0,1,.18.13.65.65,0,0,1,.09.08h0a17.33,17.33,0,0,1,1.94,1.9,5.68,5.68,0,0,1,1.55,2.85,5.6,5.6,0,0,0,.29.83,10.45,10.45,0,0,0,8,2.06,23.88,23.88,0,0,0,5-9.8,1.94,1.94,0,0,1,.48-1.23,18.45,18.45,0,0,1,2-2,16.56,16.56,0,0,1,1.87-1.88,3.73,3.73,0,0,0,.17-1.24,5.49,5.49,0,0,1,1.63-4.24c.1-.19.18-.51.28-.78a5.5,5.5,0,0,1,1.72-3l.07,0a4.34,4.34,0,0,1,6.25.19l0,0c.19-.21.4-.39.59-.58q.6-.61,1.23-1.2a52.28,52.28,0,0,1,5.57-4.09c3-2,5.75-3.84,7.74-6.54a21.41,21.41,0,0,1,7.56-7.77,7.24,7.24,0,0,0,.32-3.49,16.63,16.63,0,0,1,0-3,17.29,17.29,0,0,1,1.88-5.79,17.05,17.05,0,0,0,1.39-3.73s0,0,0-.08a2,2,0,0,1,.35-.8,5.52,5.52,0,0,1,3.65-2.57,3.94,3.94,0,0,1,1.79.17,8.35,8.35,0,0,1,2.8,1.64,9.56,9.56,0,0,0,.91.67,2.31,2.31,0,0,1,.64.37,20,20,0,0,1,1.92,1.88,42.14,42.14,0,0,1,4.51,3.34c.75.61,1.5,1.24,2.27,1.81a2.48,2.48,0,0,1,.4.26,17.16,17.16,0,0,1,2,2c.54.37,1.12.7,1.68,1.06a29.84,29.84,0,0,1,3.21,2.14c1.18,0,1.55-.66,2.35-2.74A14.78,14.78,0,0,1,605.35,84c.06-.37.08-.74.12-1.12a13.07,13.07,0,0,0,.08-1.87,15.06,15.06,0,0,0-1-5.12,6.21,6.21,0,0,1-1-2.26,4.37,4.37,0,0,0-.28-.76,2.94,2.94,0,0,1-.3-.31,9.53,9.53,0,0,0-.75-.83c-.21-.22-.42-.45-.62-.69l-.13-.09a5.69,5.69,0,0,1-1.71-4.58,5.75,5.75,0,0,0-.12-1.24,6.7,6.7,0,0,0-1.9-.08,7.48,7.48,0,0,1-5.18-1.22,1.73,1.73,0,0,1-.38-.3l-.32-.32c-.39-.39-.77-.79-1.19-1.15a.76.76,0,0,1-.17-.13,10.49,10.49,0,0,0-2.29-1.49,2.81,2.81,0,0,0-2.37-.05l-.64.32c-.3.15-.62.27-.92.42a11.66,11.66,0,0,1,0,1.17,2.07,2.07,0,0,1-1.55,1.82l-.77.11a1.86,1.86,0,0,1-.9-.08l-.51-.16a1.43,1.43,0,0,1-.45-.21c-1.53-.94-2.38-.88-3.15-.33a3.33,3.33,0,0,1-.28.25,7.36,7.36,0,0,0-1.19,1.09c-2.92,7.61-9,6.14-13.09,5.18l-1.59-.37a1.91,1.91,0,0,1-1.31-.41,1.94,1.94,0,0,1-.26-.23l-.46-.46a9.59,9.59,0,0,0-1.25-1.13A1.72,1.72,0,0,1,557,67a.19.19,0,0,0-.11,0l-.1,0a2,2,0,0,1-.35.37,8.91,8.91,0,0,0-1.53,1.54,2.19,2.19,0,0,1-.64.54,17.14,17.14,0,0,0-1.25,1.34,1.93,1.93,0,0,1-.53.47,10.46,10.46,0,0,0-1.1,1.13l-.08.1-.05,0s0,0,0,0h0a1.22,1.22,0,0,1-.33.31A13.73,13.73,0,0,0,549.69,74l0,0a1.86,1.86,0,0,1-.6.77,5.06,5.06,0,0,1-6.24,0,1.92,1.92,0,0,1-.54-.56.91.91,0,0,0-.23.12,1.58,1.58,0,0,1-.22.23,8.35,8.35,0,0,0-1.57,1.6,2.08,2.08,0,0,1-.65.57,10.87,10.87,0,0,0-1,1,1.89,1.89,0,0,1-.56.64,10,10,0,0,0-1.27,1.17,2,2,0,0,1-.65.74c-.42.28-.87.54-1.3.8a9.64,9.64,0,0,0-1.82,1.24c-1.39,1.22-2.74,2.31-4.08,3.28l-.22.21a8.93,8.93,0,0,1-2.37,1.74,3.79,3.79,0,0,1-1.68.51h-.16a2.15,2.15,0,0,1-.93-.22,6.22,6.22,0,0,1-1.37-.93c-2.43-.41-3-2.73-3.14-3.55a1.41,1.41,0,0,1-.05-.35c-.19-4.91-.22-10.17-.09-15.62.08-3.22-.42-5.25-1.54-6.4s-2.78-1.5-5.34-1.62c-.4,0-.75,0-1.18,0s-1.09,0-1.63,0c-2.69.05-5.38.13-8.06.21-10.64.34-21.64.67-32.5-1A1.85,1.85,0,0,1,467,56.67Z"/><g class="cls-3"><path class="cls-4" d="M144.4,104.24v3.54c0,2.73,1.2,3.71,3.11,3.71s3.11-1,3.11-3.71v-8.4c0-2.73-1.2-3.76-3.11-3.76s-3.11,1-3.11,3.76v1.15h-5.67l1.09-22.16h15.83v5.46H145.17l-.49,9.11h.11A5.63,5.63,0,0,1,150,90.16c4.42,0,6.66,3.11,6.66,8.73v8.51c0,6.11-3.06,9.6-8.95,9.6s-9-3.49-9-9.6v-3.16Z"/><path class="cls-4" d="M160.12,87.54c0-6.11,3.22-9.6,9.11-9.6s9.12,3.49,9.12,9.6V107.4c0,6.11-3.22,9.6-9.12,9.6s-9.11-3.49-9.11-9.6Zm6,20.24c0,2.73,1.2,3.77,3.11,3.77s3.11-1,3.11-3.77V87.16c0-2.73-1.2-3.77-3.11-3.77s-3.11,1-3.11,3.77Z"/></g><g class="cls-3"><path class="cls-4" d="M128,132.32h3.14v19.93H128Z"/><path class="cls-4" d="M133.4,132.32h3.14V149.4h5.15v2.85H133.4Z"/><path class="cls-4" d="M143.05,132.32h3.14V149.4h5.15v2.85h-8.29Z"/><path class="cls-4" d="M152.71,132.32h3.13v19.93h-3.13Z"/><path class="cls-4" d="M161,137.81h-.06v14.44h-2.81V132.32H162l3.16,11.93h0V132.32H168v19.93h-3.21Z"/><path class="cls-4" d="M170,137.1c0-3.19,1.68-5,4.76-5s4.75,1.82,4.75,5v10.36c0,3.19-1.68,5-4.75,5s-4.76-1.82-4.76-5Zm3.14,10.56c0,1.43.62,2,1.62,2s1.62-.54,1.62-2V136.9c0-1.42-.62-2-1.62-2s-1.62.54-1.62,2Z"/><path class="cls-4" d="M181.54,132.32h3.14v19.93h-3.14Z"/><path class="cls-4" d="M191.17,132.09c3,0,4.61,1.82,4.61,5v.63h-3v-.83c0-1.42-.57-2-1.57-2s-1.56.54-1.56,2,.62,2.53,2.67,4.33c2.62,2.3,3.45,4,3.45,6.23,0,3.19-1.6,5-4.67,5s-4.67-1.82-4.67-5v-1.22h3v1.42c0,1.43.63,1.94,1.62,1.94s1.63-.51,1.63-1.94-.63-2.53-2.68-4.33c-2.62-2.3-3.44-4-3.44-6.23C186.56,133.91,188.12,132.09,191.17,132.09Z"/></g><g class="cls-3"><path class="cls-4" d="M442.24,115.33l10.91-25.81h6.55v25.81h2.84v5.45H459.7v6.93h-6v-6.93H442.24Zm11.46,0V101.2h-.11l-5.84,14.13Z"/><path class="cls-4" d="M469,94.32c4.64,0,5.68-2.24,6.6-4.8h4v38.19h-6V98.58H469Z"/></g><g class="cls-3"><g class="cls-3"><path class="cls-4" d="M414.23,149.82h-.06l-1.11,10.62h-4.3l-2.22-19.93h3l1.66,15.72h.05l1.48-15.72h3l1.54,15.83h.06L419,140.51h2.73l-2.22,19.93h-4.15Z"/><path class="cls-4" d="M426.41,148.91h4.3v2.85h-4.3v5.83h5.41v2.85h-8.54V140.51h8.54v2.85h-5.41Z"/><path class="cls-4" d="M438,140.28c3,0,4.61,1.83,4.61,5v.63h-3v-.82c0-1.43-.57-2-1.57-2s-1.56.54-1.56,2,.63,2.53,2.68,4.32c2.61,2.31,3.44,4,3.44,6.24,0,3.19-1.59,5-4.67,5s-4.67-1.82-4.67-5v-1.23h3v1.43c0,1.42.63,1.93,1.63,1.93s1.62-.51,1.62-1.93-.63-2.54-2.68-4.33c-2.62-2.31-3.44-4-3.44-6.24C433.36,142.11,434.92,140.28,438,140.28Z"/><path class="cls-4" d="M443.49,140.51h9.68v2.85H449.9v17.08h-3.13V143.36h-3.28Z"/></g><g class="cls-3"><path class="cls-4" d="M400.82,182.87h.05l2.37-16.26h2.87L403,186.54h-4.67l-3.08-19.93h3.16Z"/><path class="cls-4" d="M407.56,166.61h3.14v19.93h-3.14Z"/><path class="cls-4" d="M419.52,186.54a6.16,6.16,0,0,1-.28-2.45V181c0-1.85-.63-2.53-2.05-2.53H416.1v8.11H413V166.61h4.73c3.25,0,4.64,1.51,4.64,4.59v1.56c0,2.05-.65,3.36-2,4v.05c1.57.66,2.08,2.14,2.08,4.22v3.07a5.92,5.92,0,0,0,.34,2.42Zm-3.42-17.08v6.12h1.23c1.17,0,1.88-.51,1.88-2.11v-2c0-1.43-.49-2-1.6-2Z"/><path class="cls-4" d="M429.12,175.44h4.38v6.32c0,3.19-1.59,5-4.67,5s-4.67-1.82-4.67-5V171.39c0-3.18,1.6-5,4.67-5s4.67,1.83,4.67,5v1.94h-3V171.2c0-1.43-.63-2-1.62-2s-1.63.54-1.63,2V182c0,1.42.63,1.93,1.63,1.93s1.62-.51,1.62-1.93v-3.67h-1.42Z"/><path class="cls-4" d="M435.52,166.61h3.13v19.93h-3.13Z"/><path class="cls-4" d="M443.78,172.11h-.06v14.43H440.9V166.61h3.93L448,178.54h.06V166.61h2.79v19.93h-3.22Z"/><path class="cls-4" d="M453.09,166.61h3.13v19.93h-3.13Z"/><path class="cls-4" d="M468.63,186.54h-3.16l-.54-3.61h-3.84l-.54,3.61h-2.88l3.19-19.93h4.58Zm-7.14-6.32h3L463,170.14h0Z"/></g></g></svg>