<svg id="Layer_1" data-name="Layer 1" xmlns="http://www.w3.org/2000/svg" viewBox="0 0 307 209"><defs><style>.cls-1{fill:#f57f26;}.cls-2{isolation:isolate;}.cls-3{fill:#fff;}</style></defs><title>gein_state</title><path class="cls-1" d="M60.09,131.61c-.27-.27-.54-.53-.79-.81a9.55,9.55,0,0,1-.77-1.25,88.4,88.4,0,0,1-1.06-22.84A6.42,6.42,0,0,1,60,104.28a1.25,1.25,0,0,0,.27-.24h0c.34-.35.69-.7,1.06-1.06a1.49,1.49,0,0,0,.14-.12l0,0c.32-.35.67-.69,1-1a1.77,1.77,0,0,0,.33-.34.7.7,0,0,0,.11-.21c.28-.56.8-.84,1.65-1.28a10.07,10.07,0,0,0,1.49-.89,7.41,7.41,0,0,1,1.17,0,5.12,5.12,0,0,0,3.5-.78,1.46,1.46,0,0,0,.19-.16,1.85,1.85,0,0,0,.34-.5c1-2.25,3.1-3,5.47-4A15.81,15.81,0,0,0,81.68,91a1.94,1.94,0,0,0,.23-.26c.25-.26.51-.51.77-.77a.7.7,0,0,0,.17-.13,7.9,7.9,0,0,1,.88-.64,6,6,0,0,0,2.32-2.35,1.33,1.33,0,0,0,.13-.57,3.83,3.83,0,0,1,.89-2.55,1.17,1.17,0,0,0,.26-.46,1.81,1.81,0,0,1,.35-.64l0,0a1.72,1.72,0,0,1,.6-.22,3.73,3.73,0,0,0,1.82-1s.05,0,.06-.08l.13-.13c.3-.3.61-.61.93-.9a.76.76,0,0,0,.14-.16l1.06-1,.14-.14c.29-.29.56-.57.87-.85l.16-.12a7.55,7.55,0,0,1,3.08-1.52,9.9,9.9,0,0,0,4.08-2.1.65.65,0,0,0,.19-.24c.26-.25.51-.53.79-.77a1.25,1.25,0,0,0,.33-.32c.4-.56.77-1.13,1.12-1.72a18.23,18.23,0,0,1,1.25-1.86h0c.24-.26.5-.52.76-.76l.14-.14a1.5,1.5,0,0,0,.27-.29,1.65,1.65,0,0,0,.23-.46,25.7,25.7,0,0,0,.65-8.64,41.51,41.51,0,0,1,0-4.6,5.89,5.89,0,0,0,0-1.12,6.64,6.64,0,0,0-.16-.87l.36-.14a1.56,1.56,0,0,0,.48-.4l.79-1.07a1.57,1.57,0,0,0,.26-.59c.34-2,1.54-3.49,3.26-5.11a1.33,1.33,0,0,0,.4-.72A6.19,6.19,0,0,0,109.3,38a3.81,3.81,0,0,1,.29-4.37,1.15,1.15,0,0,0,.16-.29,5.52,5.52,0,0,0,.29-2.56,2.67,2.67,0,0,1,.16-1.53c.06-.06.14-.13.19-.19a4.49,4.49,0,0,0,.77-1.65,3.71,3.71,0,0,1,.18-.56,1.3,1.3,0,0,0,.41-.53,11.75,11.75,0,0,0,.69-2.46c.29-1.44.51-2.35,1.34-3a1.06,1.06,0,0,0,.23-.24,3.37,3.37,0,0,1,.51-.17,3.81,3.81,0,0,0,1.72-.91h0a3.41,3.41,0,0,1,2-.21,5.37,5.37,0,0,0,3.88-.87,1.58,1.58,0,0,0,.23-.22,2.16,2.16,0,0,1,.49-.11,3.27,3.27,0,0,0,2.32-1.33,10.44,10.44,0,0,0,1.52-4.25c.16-.13.34-.24.51-.37,3.38,0,6.77,0,10.14,0h54.22c6.78,0,13.56,0,20.36-.05a11.41,11.41,0,0,1,1.32.08,10,10,0,0,0,3.2-.1h0l.33,1.65c.88,4.32,1.73,8.38-1,12.22-4.88,6.89-3.55,14.5-1.85,20.36.51,1.79,1.07,3.56,1.63,5.34,2.3,7.34,4.48,14.26,4.08,21.86-.24,4.67,2.23,6.68,4.36,7.55a2.61,2.61,0,0,1,1.6,1.34,2.71,2.71,0,0,1-.4,2c-1.39,2.44-.83,4.3-.16,6.44,1.57,5.12,3.1,9.69,6.06,13.85.71,1,.51,1.42-.64,2.86a13.63,13.63,0,0,0-1,1.43.84.84,0,0,1-.21.27,4.22,4.22,0,0,1-1.09-.3c-.24-.1-.48-.18-.73-.26-2.72-.86-4.24-1.73-5-4.13-1-3.28-3.55-5.35-6-7.37l-.94-.78a4.29,4.29,0,0,0-4.85-.4,2.8,2.8,0,0,0-1.49,3.74,46.29,46.29,0,0,1,2,5.1c1.63,4.72,3.33,9.6,8.76,12.36,1.28.66,2,1.31,2.15,1.92a2.53,2.53,0,0,1-.68,1.7,2.52,2.52,0,0,0-1.34,1,6.42,6.42,0,0,0-.62,1.66,3.56,3.56,0,0,1-.37,1,.57.57,0,0,0-.11.11,3,3,0,0,0,0,4.13s0,0,0,.06a7.85,7.85,0,0,1,1.42,2.43,3.21,3.21,0,0,1,0,.62l-.09.07s-.12,0-.45-.21a1.31,1.31,0,0,0-.63-.41c-.7-.21-2.81-.87-4,.41s-.56,3-.08,4.26l.09.2c.83,1.41.77,3,.71,4.78a14.79,14.79,0,0,0,.22,4.13,2.17,2.17,0,0,1-.53.64l-.13.1a1,1,0,0,0-.2.22,2.14,2.14,0,0,1-.84.69,1.23,1.23,0,0,0-.78.21,4.19,4.19,0,0,1-1.06.41,6,6,0,0,0-1.87.82,1.22,1.22,0,0,0-.32.32,3.83,3.83,0,0,1-.89.08,4.79,4.79,0,0,0-1.9.29,1.18,1.18,0,0,0-.4.25,2.86,2.86,0,0,0-1,2.35,1.41,1.41,0,0,0,.19.64l.22.37c.66,1,.75,1.31.53,1.61a1.16,1.16,0,0,0-.32.34,3.42,3.42,0,0,1-.91.91,1.89,1.89,0,0,0-.29.27,2.68,2.68,0,0,1-1,.1c-.23,0-.43,0-.64,0a4.46,4.46,0,0,0-2.86.78,1.47,1.47,0,0,0-.32.34,7,7,0,0,1-.72.06,3.7,3.7,0,0,0-2.67.93.8.8,0,0,0-.15.17c-.13,0-.35,0-1-.36a2,2,0,0,0-.57-.18l-.28,0a1.44,1.44,0,0,0-.81.2,5.23,5.23,0,0,1-3,.44c-.53,0-1,0-1.58,0H190a4.67,4.67,0,0,0-3.12.82,1.07,1.07,0,0,0-.27.29,3.18,3.18,0,0,1-1.23.09,4.4,4.4,0,0,0-3.32.91l-.14.15a3.58,3.58,0,0,1-.56.19,3.84,3.84,0,0,0-1.69.83l-.18.19a3,3,0,0,1-.53.18,4.09,4.09,0,0,0-1.68.81,1.43,1.43,0,0,0-.2.23,3.85,3.85,0,0,1-.76.09,3.76,3.76,0,0,0-2.67,1l-.11.13a2.44,2.44,0,0,1-1,.1h-.69a4.36,4.36,0,0,0-2.88.85,1.48,1.48,0,0,0-.24.26c-.12.05-.3.09-.48.16a4,4,0,0,0-1.69.81c-.08.07-.15.15-.21.21a2.56,2.56,0,0,1-.51.16,4.08,4.08,0,0,0-1.66.8,1.1,1.1,0,0,0-.21.22,2.65,2.65,0,0,1-.79.1,3.56,3.56,0,0,0-2.65,1,.63.63,0,0,0-.11.13,2.9,2.9,0,0,1-1,.08h-.64a4.41,4.41,0,0,0-2.86.8,1.24,1.24,0,0,0-.31.34,4.77,4.77,0,0,1-.7.06,3.73,3.73,0,0,0-2.67.93,4.89,4.89,0,0,1-2.67.26,10.58,10.58,0,0,0-2.32,0h-.13a4.73,4.73,0,0,0-3.12.81,1.57,1.57,0,0,0-.19.18l-.72.3a5,5,0,0,0-2.78,2,.05.05,0,0,0,0,0,3.91,3.91,0,0,0-.79,1.66,4.19,4.19,0,0,1-.17.53,1.11,1.11,0,0,0-.29.28,6.87,6.87,0,0,1-1,1,.85.85,0,0,0-.24.29,7.9,7.9,0,0,1-.9.83,1.17,1.17,0,0,0-.37.43,2.37,2.37,0,0,1-.8.53,5.08,5.08,0,0,0-3,1.4,15.31,15.31,0,0,0-6.73,2.45c-2.43,1.41-3.9,1.39-5.42-.08a5.41,5.41,0,0,0-6.75-.83,1.39,1.39,0,0,0-.69.88,1.29,1.29,0,0,0,.21,1.09,41.14,41.14,0,0,1,3.28,6.06,40.41,40.41,0,0,0,3.31,6.17c-1.17.82-2.43.66-4.5-.41C105.53,191.82,97,188.62,88.53,187c-.35-.07-.72-.2-1.1-.31-1.44-.43-3.39-1-4.69.45-.93,1.07-1.93,1.15-3.61,1.18-.6,0-1.22.07-1.83.15-.22,0-.44,0-.67.09a2.36,2.36,0,0,1-.75-.57,10.19,10.19,0,0,0-1.34-1.79,1.07,1.07,0,0,0-.47-.32c-1.07-.45-1.15-1-1-2.71a10.78,10.78,0,0,0,.06-1.71c-.17-2.4-.09-4.89,0-7.29a50.5,50.5,0,0,0-.56-11.6,1.05,1.05,0,0,0-.16-.59,1.33,1.33,0,0,0-.33-.41c-.31-.29-.61-.59-.91-.9l-.16-.21a3.74,3.74,0,0,0-1.8-.94,3.1,3.1,0,0,1-.52-.18s0,0-.07-.08a3.78,3.78,0,0,0-1.77-.92,2.89,2.89,0,0,1-.58-.21s0-.07-.08-.08c-.33-.3-.65-.62-1-.94l-.15-.2a3.92,3.92,0,0,0-1.8-1,2.41,2.41,0,0,1-.52-.18s0-.05-.06-.08a3.94,3.94,0,0,0-1.79-.94,5.59,5.59,0,0,1-.55-.19,2.18,2.18,0,0,0-.27-.24l-.08,0a4.77,4.77,0,0,1-1.88-1.9,1.36,1.36,0,0,0-.34-.4,4.85,4.85,0,0,1-.1-.77,3.6,3.6,0,0,0-1.07-2.77l-.06-.05c-.31-.28-.59-.57-.88-.88l-.16-.19a11.34,11.34,0,0,1-1-1A3.78,3.78,0,0,1,54,143.3a6,6,0,0,1,2.11-1.84A7.64,7.64,0,0,0,59.39,138s0,0,0,0a8.53,8.53,0,0,1,.51-.77c.78-1.1,2.11-2.94.49-5.28A.66.66,0,0,0,60.09,131.61Z"/><g class="cls-2"><path class="cls-3" d="M134.85,85.59v3.54c0,2.73,1.2,3.71,3.11,3.71s3.11-1,3.11-3.71v-8.4c0-2.73-1.2-3.76-3.11-3.76s-3.11,1-3.11,3.76v1.15h-5.68l1.09-22.16h15.83v5.46H135.61l-.49,9.11h.11a5.63,5.63,0,0,1,5.18-2.78c4.42,0,6.66,3.11,6.66,8.73v8.51c0,6.11-3.06,9.61-8.95,9.61s-9-3.5-9-9.61V85.59Z"/><path class="cls-3" d="M149.64,85.53l10.91-25.81h6.55V85.53h2.83V91H167.1v6.93h-6V91H149.64Zm11.45,0V71.4H161l-5.84,14.13Z"/></g><g class="cls-2"><path class="cls-3" d="M97.93,123.49h-.06l-1.11,10.62h-4.3l-2.22-19.93h3.05l1.65,15.72h0l1.48-15.72h3L101,130h.06l1.59-15.83h2.74l-2.23,19.93H99Z"/><path class="cls-3" d="M107,114.18h3.13v19.93H107Z"/><path class="cls-3" d="M116.6,114c3.05,0,4.61,1.82,4.61,5v.62h-3v-.82c0-1.43-.57-2-1.56-2s-1.57.54-1.57,2,.63,2.53,2.68,4.33c2.62,2.3,3.44,4,3.44,6.23,0,3.19-1.59,5-4.67,5s-4.67-1.82-4.67-5v-1.22h3v1.42c0,1.42.62,1.94,1.62,1.94s1.62-.52,1.62-1.94-.63-2.53-2.68-4.33c-2.61-2.3-3.44-4-3.44-6.23C112,115.78,113.56,114,116.6,114Z"/><path class="cls-3" d="M132.12,126.68v2.65c0,3.19-1.6,5-4.67,5s-4.67-1.82-4.67-5V119c0-3.19,1.59-5,4.67-5s4.67,1.82,4.67,5v1.93h-3v-2.13c0-1.43-.63-2-1.63-2s-1.62.54-1.62,2v10.76c0,1.42.63,1.94,1.62,1.94s1.63-.52,1.63-1.94v-2.85Z"/><path class="cls-3" d="M133.77,119c0-3.19,1.68-5,4.75-5s4.76,1.82,4.76,5v10.36c0,3.19-1.68,5-4.76,5s-4.75-1.82-4.75-5Zm3.13,10.56c0,1.42.63,2,1.62,2s1.63-.55,1.63-2V118.77c0-1.43-.63-2-1.63-2s-1.62.54-1.62,2Z"/><path class="cls-3" d="M148.15,119.68h-.06v14.43h-2.82V114.18h3.93l3.16,11.93h.06V114.18h2.79v19.93H152Z"/><path class="cls-3" d="M161.67,114c3.05,0,4.61,1.82,4.61,5v.62h-3v-.82c0-1.43-.57-2-1.57-2s-1.56.54-1.56,2,.63,2.53,2.68,4.33c2.61,2.3,3.44,4,3.44,6.23,0,3.19-1.59,5-4.67,5s-4.67-1.82-4.67-5v-1.22h3v1.42c0,1.42.63,1.94,1.63,1.94s1.62-.52,1.62-1.94-.63-2.53-2.68-4.33c-2.62-2.3-3.44-4-3.44-6.23C157.06,115.78,158.62,114,161.67,114Z"/><path class="cls-3" d="M168.1,114.18h3.14v19.93H168.1Z"/><path class="cls-3" d="M176.36,119.68h-.06v14.43h-2.82V114.18h3.93l3.16,11.93h.06V114.18h2.79v19.93H180.2Z"/></g></svg>