<svg id="Layer_1" data-name="Layer 1" xmlns="http://www.w3.org/2000/svg" viewBox="0 0 307 209"><defs><style>.cls-1{fill:#c9b3d5;}.cls-2{isolation:isolate;}.cls-3{fill:#fff;}</style></defs><title>rader_state</title><path class="cls-1" d="M44.25,158.48a2.16,2.16,0,0,0,0,.27h.24l224.46,0v-.24l0-17.4c0-20.42,0-41.55.17-62.32a4.73,4.73,0,0,0-1.47-3.94,8.78,8.78,0,0,0-1.33-.93A4.39,4.39,0,0,1,264,71a6.5,6.5,0,0,0-.24-.61,4,4,0,0,1-2-3.3,2.31,2.31,0,0,0-.45-1.32l-.94-1a10.82,10.82,0,0,0-1.15-1.28l-.08-.08-1-1,0,0-1-1a1.72,1.72,0,0,1-.34-.37,1.28,1.28,0,0,1-.11-.24c-1.29-3.47-.46-6.57,2.46-9.23A7.87,7.87,0,0,1,260.57,50c1.26-1.09,1.52-1.37.8-2.46a1,1,0,0,1-.08-.11h0c-.81-1.32-1.41-1.46-2.17-1.28a7.46,7.46,0,0,1-6.51-1.75.35.35,0,0,1-.13-.11l-.07-.05-1.07-1.07-.06-.06-.3-.31-.74-.73a8,8,0,0,1-2.08-1.89l-.78.08c-.26,0-.51.07-.79.08a63.66,63.66,0,0,1-7.37.29q-94.87,0-189.77,0a15.17,15.17,0,0,1-1.61-.06,13.85,13.85,0,0,0-2.58,0,6,6,0,0,0-.93.21.71.71,0,0,0,0,.14,8.77,8.77,0,0,0-.1,1.67v.56q0,56.51,0,113.05c0,.29,0,.57,0,.85A6.43,6.43,0,0,0,44.25,158.48Z"/><g class="cls-2"><path class="cls-3" d="M147.72,67.24v5.23l-8.83,33h-6l8.79-32.74H129.72V67.24Z"/><path class="cls-3" d="M151.33,76.73c0-6.44,2.94-9.93,9.16-9.93,5.9,0,8.95,3.49,8.95,9.6v1h-5.67V76c0-2.73-1.2-3.76-3.11-3.76-2.13,0-3.33,1-3.33,4.69v6.93h.11a5.53,5.53,0,0,1,5.46-3.33c4.41,0,6.65,3.11,6.65,8.73v7c0,6.12-3.22,9.61-9.11,9.61s-9.11-3.49-9.11-9.61Zm6,13v6.88c0,2.72,1.2,3.71,3.11,3.71s3.11-1,3.11-3.71V89.77c0-2.73-1.2-3.76-3.11-3.76S157.33,87,157.33,89.77Z"/></g><g class="cls-2"><path class="cls-3" d="M123.09,132.11l-1,1.82v6.12H119V120.12h3.13v8.63h.06l4-8.63h3.13L125,129l4.35,11.05h-3.21Z"/><path class="cls-3" d="M140.91,140.05h-3.16l-.54-3.61h-3.84l-.54,3.61H130l3.19-19.93h4.58Zm-7.14-6.32h3l-1.48-10.08h-.05Z"/><path class="cls-3" d="M145.21,125.62h-.06v14.43h-2.82V120.12h3.93l3.16,11.93h.06V120.12h2.79v19.93h-3.22Z"/><path class="cls-3" d="M158.73,119.89c3.05,0,4.62,1.82,4.62,5v.63h-3v-.83c0-1.42-.56-2-1.56-2s-1.57.54-1.57,2,.63,2.54,2.68,4.33c2.62,2.31,3.44,4,3.44,6.24,0,3.19-1.59,5-4.67,5s-4.66-1.82-4.66-5V134h3v1.43c0,1.42.62,1.93,1.62,1.93s1.62-.51,1.62-1.93-.62-2.54-2.67-4.33c-2.62-2.31-3.45-4-3.45-6.24C154.12,121.71,155.69,119.89,158.73,119.89Z"/><path class="cls-3" d="M175.3,140.05h-3.16l-.54-3.61h-3.84l-.54,3.61h-2.88l3.19-19.93h4.58Zm-7.14-6.32h3l-1.48-10.08h-.05Z"/><path class="cls-3" d="M181,119.89c3.05,0,4.61,1.82,4.61,5v.63h-3v-.83c0-1.42-.57-2-1.57-2s-1.56.54-1.56,2,.62,2.54,2.67,4.33c2.62,2.31,3.45,4,3.45,6.24,0,3.19-1.59,5-4.67,5s-4.67-1.82-4.67-5V134h3v1.43c0,1.42.63,1.93,1.62,1.93s1.63-.51,1.63-1.93-.63-2.54-2.68-4.33c-2.62-2.31-3.44-4-3.44-6.24C176.36,121.71,177.92,119.89,181,119.89Z"/></g></svg>