<svg id="Layer_1" data-name="Layer 1" xmlns="http://www.w3.org/2000/svg" viewBox="0 0 307 247"><defs><style>.cls-1{fill:#a3bee3;}.cls-2{isolation:isolate;}.cls-3{fill:#fff;}</style></defs><title>ridgway_state</title><path class="cls-1" d="M19.56,113.5c0,1.89.08,3.2,1,4.27,3.14,3.73,4.16,8.19,5.14,12.53l.08.32c.06.32.12.65.19,1,.11.63.35,2,.65,2a15.9,15.9,0,0,1,5.14,2.57c1.8,1.22,3.5,2.37,5.79,2.44a1.57,1.57,0,0,1,.84,2.87,14,14,0,0,1-3.61,1.64c-2.27.76-3,1.15-3.18,2.62-.29,2.67.83,3.07,3.61,3.8,1.76.47,3.76,1,5,2.66a1.56,1.56,0,0,1,.24,1.42,1.6,1.6,0,0,1-1,1,12.81,12.81,0,0,0-2.38.91c0,.11-.05.73-.08,1.29l0,.34c-.19,4.59-.57,9-3.21,12.38-1,1.32-1,1.76-1,1.8s.24.48,1.47,1.3c2.22,1.49,4.09,2,6.07,1.63a30.6,30.6,0,0,1,8.7-.4,36.93,36.93,0,0,1,4,.59,1.58,1.58,0,0,1,1.07.34,0,0,0,0,1,0,0,12.42,12.42,0,0,1,1.66,1.61c.46.4.86.82,1.25,1.2.32.19.64.4,1,.62.77.55,1.07.71,1.39.64a4.65,4.65,0,0,1,3.21-.92h.69a4.62,4.62,0,0,1,3.55,1.11s.05,0,.07.06h0l0,0a2.21,2.21,0,0,0,1,.18,4.2,4.2,0,0,1,3.31,1.34,18.62,18.62,0,0,1,1.34,1.33s0,.05.06.06c.39.34.74.71,1.09,1.07a.86.86,0,0,1,.14.13,5.6,5.6,0,0,1,1.35,2.72,4.61,4.61,0,0,0,.37,1.09l.76,1.76a4.17,4.17,0,0,1,1.49,2.25,6,6,0,0,0,.22.58,1.18,1.18,0,0,1,.18.21,7.81,7.81,0,0,1,1,5.38,9.91,9.91,0,0,0,0,2.18,46.06,46.06,0,0,0,1.76,5l.06.18a.4.4,0,0,1,.08.16c.24.56.71.8,1.78,1.21a9.49,9.49,0,0,1,2,1,2.19,2.19,0,0,1,.22.2,5.09,5.09,0,0,0,2,.16,9.76,9.76,0,0,1,1.71,0,5.34,5.34,0,0,0,.8,0,4.92,4.92,0,0,1,3.63,1,10.34,10.34,0,0,0,6.55,0,4.36,4.36,0,0,1,3-1,3.72,3.72,0,0,0,.86-.1,4.33,4.33,0,0,1,2.24-1.25,3.6,3.6,0,0,0,.61-.21l0,0a6.24,6.24,0,0,1,1.32-.92,3.94,3.94,0,0,0,.61-.39,7.84,7.84,0,0,1,1.47-1,4.81,4.81,0,0,0,.9-.59l.06-.05c.31-.32.64-.67,1-1a2.25,2.25,0,0,1,.21-.24,3.46,3.46,0,0,1,5-.06,2,2,0,0,0,2,.08,1.31,1.31,0,0,1,.32-.22,9.07,9.07,0,0,1,8.49-.08,1.59,1.59,0,0,1,.55.41,4.67,4.67,0,0,0,1.31.11h.25c.43,0,.82,0,1.2,0,1.62,0,3.6-.08,5.3,1.41a5.63,5.63,0,0,1,2.3,1.81c.3.33.51.54.67.7.42.37.59.26,1.15-.16a2.4,2.4,0,0,1,.27-.16s0,0,.08,0l3-1.23a7.8,7.8,0,0,1,4.64-.91,5.91,5.91,0,0,0,2.64-.29,4.17,4.17,0,0,1,3.12-1.13,3.87,3.87,0,0,0,.91-.11,4.29,4.29,0,0,1,2.27-1.23,4.37,4.37,0,0,0,.65-.23h0c2.15-2,4.24-.88,5.36-.29a3.37,3.37,0,0,0,1.25.5,24,24,0,0,1,3.79,0,12,12,0,0,0,5.15-.45,4.93,4.93,0,0,1,1.93-.91,3.39,3.39,0,0,0,.64-.22,4.29,4.29,0,0,1,2.15-1.19,4.34,4.34,0,0,0,.54-.17h0a4.42,4.42,0,0,1,2.19-1.2,5,5,0,0,0,.56-.2,2.06,2.06,0,0,1,.26-.25,6.89,6.89,0,0,1,4.91-1,9.22,9.22,0,0,0,1.74,0,11.41,11.41,0,0,1,1.3,0,4.9,4.9,0,0,0,1.56-.12s0,0,0,0a4.39,4.39,0,0,1,3.28-1.25,4,4,0,0,0,.91-.11,1.2,1.2,0,0,1,.16-.16,6.21,6.21,0,0,1,4.82-1.12,7.9,7.9,0,0,0,1.61,0,17.3,17.3,0,0,0,1.81-.16,4.18,4.18,0,0,1,3.26-1.26,3.85,3.85,0,0,0,.9-.11,4.26,4.26,0,0,1,3.29-1.3,4,4,0,0,0,.84-.08,1.31,1.31,0,0,1,.2-.21,5.82,5.82,0,0,1,4.39-1.08,10.76,10.76,0,0,0,1.27,0l51,0H298.3c.94,0,1.15-.06,1.25-.21a2.62,2.62,0,0,0,0-.56s0,0,0,0a1.54,1.54,0,0,1-.64-1.12,1.58,1.58,0,0,1-1.08-1.23,5.17,5.17,0,0,1-.08-1.52,1.55,1.55,0,0,1,.41-.94l1.09-1.17a12,12,0,0,0,.19-1.3,16.3,16.3,0,0,0-2.29-6.66,10.54,10.54,0,0,0-1.53-1.43,1.57,1.57,0,0,1-.61-1.23v-2.57a1.61,1.61,0,0,1,.68-1.32c.07,0,.08-.06.13-.09s0-.16,0-.26l-.19-.16a1.55,1.55,0,0,1-.61-1.24L295,44.32a9,9,0,0,0-.72-2.32,1.23,1.23,0,0,0-1-.46q-75.34-.07-150.75,0l-56.69,0c-.43,0-1,0-1.54-.07a8.27,8.27,0,0,0-3.24.23c-1.24,4.86-.74,5.53,4,7A5.28,5.28,0,0,1,89,52c1.69,4.49,2.57,10.73-.1,14.76-1.28,1.92-1.25,1.95.32,3l.23.16c3.61,2.48,4.67,6.06,2.81,9.56a7.35,7.35,0,0,0-.53,1.17,15.5,15.5,0,0,0,1.62.59c3.08,1,5.18,3,5.74,5.58a7.18,7.18,0,0,1-2.45,6.78c-1.66,1.58-1.74,3.57-1.82,5.84a12.54,12.54,0,0,1-1.1,5.64c.14.13.27.28.38.37l.35.32c.77.69,2.58,2.27,1.23,3.92s-1,3-.25,5.34a15.65,15.65,0,0,1,.75,3.26,4.45,4.45,0,0,1-2.64,4.59,7,7,0,0,1-4,2.34c-1.4.43-2.06.69-2.32,1.36-2.12,5.39-6.65,6.25-10.63,7l-1.78.36c-.27.06-.56.14-.84.22-1.44.42-3.86,1.1-5.3-1.1-1.92-2.95.64-4.88,1.73-5.71a8.23,8.23,0,0,0,.75-.61,30,30,0,0,1,5.87-4.16c2.75-1.63,5.34-3.17,7-5.79l.08-.46a8.57,8.57,0,0,0,.24-1.89,4.28,4.28,0,0,0-1.53.21,1.54,1.54,0,0,1-1.33-.27c-1.71-1.28-1.84-3.14-2-4.48-.08-1.09-.14-1.73-.61-2.13a1.6,1.6,0,0,1-.4-1.9,6.64,6.64,0,0,0-1,.29,4.86,4.86,0,0,1-3.47.2,1.56,1.56,0,0,1-1-1.64c.33-2.87,2.32-4.34,3.92-5.5,1.45-1.09,2.36-1.81,2.49-3.09a1.8,1.8,0,0,1,.16-.56c1.09-2.11.13-3.49-1.66-5.74l-.5-.63a2.29,2.29,0,0,0-.41-.44,7.21,7.21,0,0,0-.71.67,10.25,10.25,0,0,1-.89.86,3.26,3.26,0,0,1-2.67.32,1.77,1.77,0,0,1-1.12-1.2c-.16-.69-.43-.86-2-1.2-1.25-.29-3-.67-3.89-2.4s-2.48-2.4-5.66-2.12a79.4,79.4,0,0,1-13.74-.45,82.91,82.91,0,0,0-12-.53,11.59,11.59,0,0,1-5.82-1.63l-.85-.42c-2.72-1.29-5.55-2.49-8.3-3.64-4-1.68-8.06-3.39-12-5.52a3.15,3.15,0,0,1-.22.7c-1.68,4-1.09,8-.45,12.25.26,1.73.53,3.51.64,5.28a4.07,4.07,0,0,0,1.94,3.39C16.27,97.22,19.5,103.67,19.56,113.5Z"/><g class="cls-2"><path class="cls-3" d="M154.57,97.28l10.91-25.81H172V97.28h2.83v5.46H172v6.93h-6v-6.93H154.57Zm11.45,0V83.15h-.1l-5.84,14.13Z"/><path class="cls-3" d="M177.1,80.64c0-6.12,3.22-9.61,9.11-9.61s9.12,3.49,9.12,9.61V100.5c0,6.11-3.22,9.6-9.12,9.6s-9.11-3.49-9.11-9.6Zm6,20.24c0,2.73,1.2,3.77,3.11,3.77s3.11-1,3.11-3.77V80.25c0-2.72-1.2-3.76-3.11-3.76s-3.11,1-3.11,3.76Z"/></g><g class="cls-2"><path class="cls-3" d="M129.93,137.3h-.06l-1.11,10.62h-4.3L122.24,128h3.05l1.65,15.71H127L128.48,128h3L133,143.82h.06l1.6-15.83h2.73l-2.22,19.93H131Z"/><path class="cls-3" d="M148.69,147.92h-3.16L145,144.3h-3.84l-.54,3.62h-2.88L140.92,128h4.58Zm-7.14-6.33h3l-1.48-10.07H143Z"/><path class="cls-3" d="M154.36,127.76c3,0,4.61,1.82,4.61,5v.62h-3v-.82c0-1.42-.57-2-1.57-2s-1.56.55-1.56,2,.62,2.53,2.67,4.33c2.62,2.3,3.45,3.95,3.45,6.23,0,3.19-1.6,5-4.67,5s-4.67-1.82-4.67-5v-1.22h3v1.42c0,1.43.63,1.94,1.62,1.94s1.63-.51,1.63-1.94-.63-2.53-2.68-4.33c-2.62-2.3-3.44-3.95-3.44-6.23C149.75,129.58,151.31,127.76,154.36,127.76Z"/><path class="cls-3" d="M163.92,147.92h-3.13V128h3.13v8.54h3.56V128h3.19v19.93h-3.19v-8.55h-3.56Z"/><path class="cls-3" d="M173,128h3.13v19.93H173Z"/><path class="cls-3" d="M181.2,133.48h0v14.44h-2.82V128h3.93l3.16,11.93h.06V128h2.79v19.93h-3.22Z"/><path class="cls-3" d="M195.21,136.81h4.39v6.32c0,3.19-1.6,5-4.67,5s-4.67-1.82-4.67-5V132.77c0-3.19,1.59-5,4.67-5s4.67,1.82,4.67,5v1.93h-3v-2.13c0-1.42-.63-2-1.63-2s-1.62.55-1.62,2v10.76c0,1.43.63,1.94,1.62,1.94s1.63-.51,1.63-1.94v-3.67h-1.43Z"/><path class="cls-3" d="M200.71,128h9.68v2.84h-3.28v17.09H204V130.83h-3.27Z"/><path class="cls-3" d="M211.5,132.77c0-3.19,1.68-5,4.75-5s4.76,1.82,4.76,5v10.36c0,3.19-1.68,5-4.76,5s-4.75-1.82-4.75-5Zm3.13,10.56c0,1.43.62,2,1.62,2s1.62-.54,1.62-2V132.57c0-1.42-.62-2-1.62-2s-1.62.55-1.62,2Z"/><path class="cls-3" d="M225.87,133.48h-.05v14.44H223V128h3.93l3.16,11.93h.06V128h2.79v19.93h-3.22Z"/></g></svg>