<svg id="Layer_1" data-name="Layer 1" xmlns="http://www.w3.org/2000/svg" viewBox="0 0 307 247"><defs><style>.cls-1{fill:#e19a70;}.cls-2{isolation:isolate;}.cls-3{fill:#fff;}</style></defs><title>zodiac_state_1</title><path class="cls-1" d="M136,62.62,136,58l-.16-34.25a0,0,0,0,1,0,0,8.21,8.21,0,0,1-.61.77,7.77,7.77,0,0,1-.51.66A6.26,6.26,0,0,1,133,28.9a13,13,0,0,1-.28,2.29,17,17,0,0,1-1.23,3.61l-.43.93c0,.42,0,.83,0,1.25v.37a9.05,9.05,0,0,1-1.24,5.27,8.37,8.37,0,0,1-.66.84,5.36,5.36,0,0,1-1.77,3.9,5.56,5.56,0,0,1-1.86,3.72,5.64,5.64,0,0,1-1.73,3.59,29.09,29.09,0,0,0,.28,3,26.92,26.92,0,0,1,.28,4v1.1c0,2.83-.08,7.12-4.5,9.45a21.85,21.85,0,0,0-3.53,2.42,58.31,58.31,0,0,0-5.45,5.26c-.74.78-1.48,1.55-2.23,2.32a5.17,5.17,0,0,1-4.11,2.61,5.55,5.55,0,0,1-3.8,1.88,5.19,5.19,0,0,1-.87.83,3.19,3.19,0,0,1-3.93.16,4.89,4.89,0,0,1-1.12-1l-3.25,0a4.69,4.69,0,0,1-2.6,1.6,7.47,7.47,0,0,1-.28,1.65,5.5,5.5,0,0,1-1.18,2.26A6.15,6.15,0,0,1,83.54,94a18.23,18.23,0,0,1-2.56.15c-.26.86-.45,1.79-.66,2.73,0,.19-.09.4-.13.59A25.51,25.51,0,0,1,79,101.54a13.1,13.1,0,0,1-1.12,2.29l-.09,1a8.8,8.8,0,0,0-.1,1.49,1.66,1.66,0,0,0,.08.54c1.07,2.75,1.15,5.17.24,7.21-1.28,2.88-4.19,4.39-6.69,5.36a4.48,4.48,0,0,1-6.17-.4,2,2,0,0,1-.62-1.25,6.08,6.08,0,0,1,.11-2.25l-.11-2.22-.1-2.08-.37-.35a3.91,3.91,0,0,1-1.85,1.19l-1,1.08c-.18.6-.32,1.21-.46,1.82s-.26,1-.4,1.58a18.29,18.29,0,0,1-1,2.71,10.89,10.89,0,0,1-2,3.1,4.15,4.15,0,0,1-1.51,2l0,1.67a11.12,11.12,0,0,1,1.61,3,7.79,7.79,0,0,1,.48,3.67,6.29,6.29,0,0,1-2.83,4.41,8.28,8.28,0,0,0-2.61,3.6,17.77,17.77,0,0,1-1.5,2.57,8.33,8.33,0,0,1-.7,1,2.67,2.67,0,0,1-.13.4A5.36,5.36,0,0,1,44.71,149c-.66,0-1.3,0-1.83,0-.3,0-.6,0-.91,0a5.15,5.15,0,0,1-3.08,1.63,6.24,6.24,0,0,1-.84.11c.87,3,1.52,6.69-.75,9.9a10.18,10.18,0,0,1-2.17,2.26c-.93,1.8-.16,3.19,1.32,5.56l.53.86c.58.55,1.14,1.11,1.67,1.68a23.7,23.7,0,0,1,1.74,1.73A5.5,5.5,0,0,1,42.08,177a4,4,0,0,0,.18,1.24q1,.91,1.89,1.89a13.82,13.82,0,0,1,3.15,5.63c.27.75.54,1.5.88,2.22.64,1,1.24,1.92,1.84,2.9,1.74,2.83,3.39,5.52,6.14,7.1a2.07,2.07,0,0,1,.8.51,2.1,2.1,0,0,1,.46.74c.32.68,1,1,2.45,1.42a12.56,12.56,0,0,1,2.65,1.12,5.67,5.67,0,0,1,1.94,1.85,6.71,6.71,0,0,0,1.18.88,2.53,2.53,0,0,1,.27.18,4.35,4.35,0,0,1,1.33,1.82,7.61,7.61,0,0,1,.48,2.47,3.79,3.79,0,0,0,.16,1.16,7.13,7.13,0,0,1,1.54,3.49,5.32,5.32,0,0,0,.41,1.41,14.61,14.61,0,0,1,1.58,1.56,29.12,29.12,0,0,1,5,3.32c4,3.15,6.57,4.84,10.76,2.35a5.65,5.65,0,0,1,3.34-1.52,7.21,7.21,0,0,0,.83-.18,6.47,6.47,0,0,1,2.4-1.66,5.34,5.34,0,0,1,3.9.06,14.43,14.43,0,0,1,2.52,1.25c.39.24.78.46,1.18.67a9.52,9.52,0,0,0,3.37-.13l1.15-.16a15.63,15.63,0,0,1,11.28-2.7c.4-.4.8-.78,1.21-1.15a3.31,3.31,0,0,0,.16-1.25,5.53,5.53,0,0,1,1.81-4.4l.13-.09a4.33,4.33,0,0,1,6,.16,3.47,3.47,0,0,0,3.77-.24,2.15,2.15,0,0,1,1-.29l.56,0a12.19,12.19,0,0,0,1.55-.09c-.13-1.71,1.76-2.23,2.82-2.51a6.69,6.69,0,0,1,4.59.65c1.05.45,1.5.61,1.93.43,2.13-.94,2.75-2.71,3.62-5.56.2-.69.41-1.38.65-2.05a1.91,1.91,0,0,1,.43-.94,6.61,6.61,0,0,1,1.27-1.15l.4-.32c-2.08-3.47-.52-6.34.64-8.43a14.74,14.74,0,0,0,1-2,2,2,0,0,1,.19-.61,2.71,2.71,0,0,1,.16-.27c.43-.64.83-1.29,1.23-1.95a26.09,26.09,0,0,1,2.51-3.68c.42-.61.8-1.24,1.2-1.88a27.06,27.06,0,0,1,2.33-3.44,11.07,11.07,0,0,1,3.91-4.07,26,26,0,0,0,1.2-2.76c.28-.77.59-1.52.92-2.27,1.2-3.52,3.36-6.64,5.46-9.66a42.13,42.13,0,0,0,4.75-8.09,2.17,2.17,0,0,1,.3-.66,1.53,1.53,0,0,1,.24-.29c1.42-1.5,1.76-3.48,2.14-5.79a21.35,21.35,0,0,1,1.25-4.91,6.8,6.8,0,0,1,2.59-3.16l.24-.13a4.4,4.4,0,0,1,1-.39,5.38,5.38,0,0,1,4.48,1.19,1.58,1.58,0,0,1,.18.13.65.65,0,0,1,.09.08h0a17.33,17.33,0,0,1,1.94,1.9,5.6,5.6,0,0,1,1.55,2.85,5.6,5.6,0,0,0,.29.83,10.49,10.49,0,0,0,8,2.06,23.94,23.94,0,0,0,5-9.8,1.92,1.92,0,0,1,.48-1.23,19.48,19.48,0,0,1,2-2,16.5,16.5,0,0,1,1.87-1.87,3.73,3.73,0,0,0,.17-1.24,5.48,5.48,0,0,1,1.63-4.24,7.75,7.75,0,0,0,.28-.79,5.45,5.45,0,0,1,1.72-3l.07,0a4.34,4.34,0,0,1,6.25.19l0,0c.19-.21.4-.39.59-.58.4-.41.81-.81,1.23-1.18a53.81,53.81,0,0,1,5.57-4.1c2.95-2,5.75-3.83,7.74-6.54a21.48,21.48,0,0,1,7.56-7.77,7.22,7.22,0,0,0,.32-3.49,16.63,16.63,0,0,1,0-3,17.37,17.37,0,0,1,1.88-5.79,17,17,0,0,0,1.39-3.72s0,0,0-.08a2,2,0,0,1,.35-.8,5.54,5.54,0,0,1,3.65-2.58,3.94,3.94,0,0,1,1.79.18,8.5,8.5,0,0,1,2.8,1.63,7,7,0,0,0,.91.67,2.31,2.31,0,0,1,.64.37,21.39,21.39,0,0,1,1.92,1.89,40.82,40.82,0,0,1,4.51,3.34c.75.61,1.5,1.23,2.27,1.81a2.42,2.42,0,0,1,.4.25,17.26,17.26,0,0,1,2,2c.54.36,1.12.7,1.68,1a31.41,31.41,0,0,1,3.21,2.14c1.18,0,1.55-.65,2.35-2.73A15.18,15.18,0,0,1,274.35,90c.06-.37.08-.73.12-1.12a12.94,12.94,0,0,0,.08-1.87,15.1,15.1,0,0,0-1-5.12,6.1,6.1,0,0,1-1.05-2.25,4.21,4.21,0,0,0-.28-.77,2.83,2.83,0,0,1-.3-.3,8.27,8.27,0,0,0-.75-.83c-.21-.23-.42-.45-.62-.69l-.13-.1a5.66,5.66,0,0,1-1.71-4.57,5.86,5.86,0,0,0-.12-1.25,7.09,7.09,0,0,0-1.9-.08,7.41,7.41,0,0,1-5.18-1.21,1.79,1.79,0,0,1-.38-.31l-.32-.32c-.39-.38-.77-.78-1.19-1.15a.55.55,0,0,1-.17-.13,10,10,0,0,0-2.29-1.48,2.77,2.77,0,0,0-2.37,0l-.64.32-.92.41a11.66,11.66,0,0,1,0,1.17,2.07,2.07,0,0,1-1.55,1.82l-.77.12a2.14,2.14,0,0,1-.9-.08l-.51-.16a1.69,1.69,0,0,1-.45-.21c-1.53-1-2.38-.88-3.15-.34a2.27,2.27,0,0,1-.28.26,7.36,7.36,0,0,0-1.19,1.09c-2.92,7.61-9,6.14-13.09,5.18-.53-.13-1.06-.26-1.59-.37a1.92,1.92,0,0,1-1.31-.42,1.38,1.38,0,0,1-.26-.22l-.46-.46a10.44,10.44,0,0,0-1.25-1.14,1.56,1.56,0,0,1-.43-.42.22.22,0,0,0-.11,0l-.1,0a2.41,2.41,0,0,1-.35.37,8.52,8.52,0,0,0-1.53,1.53,2.09,2.09,0,0,1-.64.55,14.19,14.19,0,0,0-1.25,1.34,2.06,2.06,0,0,1-.53.46,10.49,10.49,0,0,0-1.1,1.14l-.08.09-.05.05a0,0,0,0,1,0,0h0a1.36,1.36,0,0,1-.33.3,13.84,13.84,0,0,0-1.25,1.17l0,0a1.77,1.77,0,0,1-.6.76,5,5,0,0,1-6.24,0,1.7,1.7,0,0,1-.54-.56.8.8,0,0,0-.23.13,1.15,1.15,0,0,1-.22.22,8.35,8.35,0,0,0-1.57,1.6,2.24,2.24,0,0,1-.65.58,9.67,9.67,0,0,0-1,1,2,2,0,0,1-.56.64,9.93,9.93,0,0,0-1.27,1.16,1.92,1.92,0,0,1-.65.74c-.42.29-.87.54-1.3.8a9.22,9.22,0,0,0-1.82,1.25c-1.39,1.21-2.74,2.3-4.08,3.28l-.22.2a9,9,0,0,1-2.37,1.75,3.92,3.92,0,0,1-1.68.51h-.16a2.15,2.15,0,0,1-.93-.22,6.22,6.22,0,0,1-1.37-.93c-2.43-.42-3-2.74-3.14-3.55a1.41,1.41,0,0,1-.05-.35c-.19-4.91-.22-10.18-.09-15.63.08-3.21-.42-5.25-1.54-6.4s-2.78-1.5-5.34-1.61c-.4,0-.75,0-1.18,0s-1.09,0-1.63,0c-2.69.05-5.38.13-8.06.21-10.64.33-21.64.67-32.5-1A1.86,1.86,0,0,1,136,62.62Z"/><g class="cls-2"><path class="cls-3" d="M121.2,104.84c0-3.44-1.2-4.37-3.11-4.37s-3.11,1-3.11,3.77v2.45H109.3v-2.07c0-6.11,3.06-9.6,9-9.6s9,3.49,9,9.6v1c0,4.1-1.31,6.61-4.2,7.81v.1c3,1.31,4.2,4.1,4.2,8v3c0,6.11-3.06,9.61-9,9.61s-9-3.5-9-9.61v-3.16H115v3.54c0,2.73,1.2,3.77,3.11,3.77s3.11-.93,3.11-4.31v-3c0-3.55-1.2-4.86-3.93-4.86h-2V111h2.35c2.23,0,3.6-1,3.6-4Z"/><path class="cls-3" d="M148.86,124.16c0,6.43-2.94,9.93-9.16,9.93-5.9,0-8.95-3.5-8.95-9.61v-1h5.67v1.36c0,2.73,1.2,3.77,3.11,3.77,2.13,0,3.33-1,3.33-4.69V117h-.11a5.51,5.51,0,0,1-5.45,3.32c-4.42,0-6.66-3.1-6.66-8.73v-7c0-6.11,3.22-9.6,9.11-9.6s9.11,3.49,9.11,9.6Zm-6-13v-6.87c0-2.73-1.2-3.71-3.11-3.71s-3.11,1-3.11,3.71v6.87c0,2.73,1.2,3.77,3.11,3.77S142.86,113.84,142.86,111.11Z"/></g><g class="cls-2"><g class="cls-2"><path class="cls-3" d="M80.2,155.76h-.06L79,166.38h-4.3l-2.22-19.93h3l1.66,15.71h.05l1.48-15.71h3l1.54,15.83h.06L85,146.45h2.73l-2.22,19.93H81.31Z"/><path class="cls-3" d="M92.38,154.85h4.3v2.84h-4.3v5.84h5.41v2.85H89.25V146.45h8.54v2.84H92.38Z"/><path class="cls-3" d="M103.94,146.22c3,0,4.61,1.82,4.61,5v.63h-3V151c0-1.42-.57-2-1.57-2s-1.56.54-1.56,2,.62,2.53,2.67,4.33c2.62,2.3,3.45,4,3.45,6.23,0,3.19-1.59,5-4.67,5s-4.67-1.82-4.67-5v-1.22h3v1.42c0,1.43.63,1.94,1.63,1.94s1.62-.51,1.62-1.94-.63-2.53-2.68-4.33c-2.62-2.3-3.44-4-3.44-6.23C99.33,148,100.89,146.22,103.94,146.22Z"/><path class="cls-3" d="M109.46,146.45h9.68v2.84h-3.27v17.09h-3.13V149.29h-3.28Z"/></g><g class="cls-2"><path class="cls-3" d="M66.79,188.81h0l2.37-16.26h2.87L69,192.48H64.34l-3.08-19.93h3.16Z"/><path class="cls-3" d="M73.53,172.55h3.14v19.93H73.53Z"/><path class="cls-3" d="M85.49,192.48a6.19,6.19,0,0,1-.28-2.45V186.9c0-1.85-.63-2.54-2-2.54H82.07v8.12H78.94V172.55h4.73c3.24,0,4.64,1.51,4.64,4.58v1.57c0,2.05-.66,3.36-2,4v.06c1.57.65,2.08,2.13,2.08,4.21v3.08a5.92,5.92,0,0,0,.34,2.42Zm-3.42-17.09v6.13H83.3c1.17,0,1.88-.52,1.88-2.11v-2c0-1.42-.49-2.05-1.6-2.05Z"/><path class="cls-3" d="M95.08,181.37h4.39v6.33c0,3.18-1.59,5-4.67,5s-4.67-1.83-4.67-5V177.33c0-3.19,1.6-5,4.67-5s4.67,1.82,4.67,5v1.94h-3v-2.14c0-1.42-.63-2-1.62-2s-1.63.54-1.63,2v10.76c0,1.43.63,1.94,1.63,1.94s1.62-.51,1.62-1.94v-3.67H95.08Z"/><path class="cls-3" d="M101.49,172.55h3.13v19.93h-3.13Z"/><path class="cls-3" d="M109.75,178h-.06v14.44h-2.82V172.55h3.93L114,184.48H114V172.55h2.79v19.93h-3.22Z"/><path class="cls-3" d="M119.06,172.55h3.13v19.93h-3.13Z"/><path class="cls-3" d="M134.6,192.48h-3.16l-.54-3.62h-3.84l-.54,3.62h-2.88l3.19-19.93h4.58Zm-7.14-6.32h3L129,176.08h-.05Z"/></g></g></svg>