<?xml version="1.0" encoding="utf-8"?>
<!-- Generator: Adobe Illustrator 23.0.0, SVG Export Plug-In . SVG Version: 6.00 Build 0)  -->
<svg version="1.1" id="Layer_1" xmlns="http://www.w3.org/2000/svg" xmlns:xlink="http://www.w3.org/1999/xlink" x="0px" y="0px"
	 viewBox="0 0 960 1457.93" style="enable-background:new 0 0 960 1457.93;" xml:space="preserve">
<style type="text/css">
	.st0{fill:#47BDC3;}
	.st1{fill:#272C48;}
	.st2{font-family:'BebasNeue';}
	.st3{font-size:28.1868px;}
	.st4{fill:#FFFFFF;}
	.st5{font-size:54.5685px;}
	.st6{font-size:28.4705px;}
	.st7{fill:#EF3642;}
	.st8{fill:#C9B3D5;}
	.st9{fill:#F57F26;}
	.st10{fill:#F7A3A3;}
	.st11{fill:#DECC59;}
	.st12{fill:#A3BEE3;}
	.st13{fill:#E19A70;}
	.st14{fill:#6A4199;}
	.st15{fill:#9D2481;}
</style>
<path class="st0" d="M702.62,106.48c-0.59,0.02-1.18,0.05-1.76,0.03c-6.59-0.13-13.29-0.06-19.78-0.02
	c-10.09,0.08-20.53,0.16-30.83-0.42c-0.19-0.02-0.37-0.06-0.53-0.14c-0.08-0.05-0.16-0.11-0.24-0.16c-0.5,0-0.98,0-1.47,0
	c-0.7,0-1.28-0.58-1.28-1.28l-0.1-36.61c-0.11-0.29-0.22-0.58-0.38-0.86c-0.02-0.02-0.02-0.05-0.03-0.06
	c-0.26-0.19-0.51-0.27-0.85-0.26c-28.34-0.02-56.6-0.02-84.86,0.03c-0.45,0-0.98-0.03-1.47-0.08c-1.04-0.08-1.95-0.16-2.73,0.18
	l-0.02,0.74v0.14l-0.02,0.88c-0.03,1.81-0.08,3.61-0.08,5.42c-0.03,28.47-0.06,56.95-0.1,85.42l-0.02,13.15l0.03,2.06
	c0.03,1.57,0.06,3.15,0.06,4.72l0.1,85.98c0.11,0,0.22,0,0.34,0.02c0.59,0.03,1.18,0.06,1.79,0.06c11.95,0,23.89,0,35.84,0
	c36.93,0,73.84,0,110.77-0.02c0.77,0,1.54-0.05,2.3-0.1c0.1,0,0.19,0,0.29-0.02c0.05,0,0.1,0,0.16-0.02
	c0.05-0.72,0.08-1.46,0.08-2.18c0.02-50.58,0.02-101.15,0-151.74c0-0.99-0.06-2-0.13-2.99c-0.02-0.3-0.03-0.61-0.05-0.93
	C706.27,106.35,704.57,106.41,702.62,106.48z"/>
<text transform="matrix(1 0 0 1 580.6211 45.7665)" class="st1 st2 st3">Ted Bundy</text>
<g>
	<text transform="matrix(1 0 0 1 607.445 174.8582)" class="st4 st2 st5">99</text>
</g>
<text transform="matrix(1 0 0 1 607.446 209.6775)" class="st4 st2 st6">Utah</text>
<g>
	<path class="st7" d="M287.87,256.51c-0.94,0-1.98-0.32-3.37-1.06c-9.79-5.13-18.25-8.3-26.6-9.96c-0.34-0.06-0.7-0.18-1.07-0.29
		c-0.82-0.26-1.6-0.5-2.32-0.5c-0.62,0-1.06,0.18-1.42,0.59c-1.28,1.47-2.78,1.5-4.38,1.55c-0.62,0.02-1.18,0.06-1.71,0.13
		l-0.21,0.03c-0.11,0.02-0.24,0.03-0.35,0.06c-0.08,0.02-0.16,0.03-0.24,0.03c-0.14,0-0.29-0.03-0.42-0.1
		c-0.37-0.16-0.72-0.43-1.09-0.8c-0.05-0.06-0.1-0.11-0.14-0.19c-0.34-0.58-0.75-1.12-1.22-1.62c-1.87-0.8-1.9-1.97-1.74-3.82
		c0.05-0.51,0.1-1.06,0.06-1.55c-0.18-2.46-0.1-4.97-0.03-7.4c0.11-3.73,0.22-7.58-0.54-11.35c-0.02-0.06-0.02-0.13-0.02-0.18
		c-0.02-0.02-0.14-0.26-0.16-0.27c-0.32-0.3-0.64-0.62-0.94-0.94c-0.05-0.05-0.08-0.1-0.11-0.14c-0.42-0.43-0.93-0.59-1.38-0.72
		c-0.26-0.08-0.51-0.16-0.69-0.24c-0.13-0.06-0.24-0.14-0.32-0.26c-0.42-0.42-0.91-0.56-1.36-0.7c-0.34-0.1-0.59-0.18-0.8-0.3
		c-0.08-0.05-0.14-0.1-0.21-0.18c-0.38-0.35-0.72-0.69-1.06-1.02c-0.05-0.05-0.1-0.11-0.13-0.16c-0.42-0.45-0.93-0.59-1.39-0.74
		c-0.24-0.06-0.5-0.14-0.66-0.22c-0.14-0.06-0.26-0.16-0.37-0.29c-0.38-0.4-0.9-0.54-1.34-0.67c-0.26-0.08-0.53-0.16-0.75-0.27
		c-0.11-0.06-0.21-0.13-0.29-0.22c-1.09-0.66-1.84-1.41-2.37-2.37c-0.14-0.11-0.34-0.37-0.4-0.53c-0.11-0.29-0.13-0.62-0.16-1.09
		c-0.03-0.83-0.11-1.5-0.72-2.03c-0.4-0.37-0.7-0.67-0.99-0.98l0.58-0.91l-0.7,0.77c-0.38-0.35-0.77-0.72-1.1-1.1
		c-0.05-0.05-0.08-0.1-0.11-0.14c-0.69-1.1-0.88-2.3-0.59-3.66c0.02-0.11,0.06-0.21,0.13-0.32c0.56-0.96,1.47-1.55,2.43-2.19
		c1.15-0.75,2.33-1.54,2.91-2.96c0.02-0.1,0.02-0.06,0.06-0.14c0.14-0.26,0.34-0.51,0.51-0.77c0.99-1.38,1.66-2.57,0.54-4.17
		c-0.06-0.05-0.21-0.18-0.27-0.22c-0.29-0.27-0.56-0.56-0.83-0.85c-0.38-0.53-0.67-0.99-0.93-1.47c-0.05-0.1-0.08-0.21-0.1-0.3
		c-1.39-8.57-1.74-16.14-1.07-23.11c0.02-0.11,0.03-0.22,0.08-0.32c0.59-1.31,1.71-2.06,2.91-2.86c0.05-0.06,0.11-0.11,0.18-0.16
		c0.34-0.35,0.67-0.69,1.02-1.02c0.02-0.02,0.18-0.16,0.19-0.18c0.27-0.29,0.61-0.64,0.96-0.99c0.05-0.03,0.08-0.08,0.13-0.11
		l0.11-0.14c0.43-0.9,1.25-1.31,2.11-1.76c0.45-0.24,0.91-0.48,1.34-0.8c0.13-0.1,0.3-0.18,0.46-0.19c0.21-0.03,0.45-0.05,0.7-0.05
		c0.21,0,0.45,0.02,0.67,0.02c0.22,0.02,0.45,0.02,0.69,0.02c0.62,0,1.42-0.06,2.14-0.61c0-0.02,0.21-0.24,0.22-0.26
		c1.23-2.62,3.57-3.53,6.03-4.51c1.62-0.64,3.28-1.3,4.61-2.46c0.03-0.05,0.13-0.16,0.16-0.19c0.26-0.27,0.53-0.53,0.8-0.78
		c0.06-0.05,0.13-0.1,0.19-0.14c0.3-0.27,0.62-0.48,0.94-0.7c0.78-0.53,1.58-1.07,2.03-2c0.03-1.36,0.42-2.45,1.17-3.33
		c0.18-0.46,0.35-0.8,0.59-1.1c0.32-0.37,0.72-0.48,1.14-0.61c0.45-0.13,0.96-0.29,1.34-0.7l0.24-0.26c0.3-0.3,0.62-0.62,0.94-0.93
		c0.03-0.05,0.08-0.1,0.11-0.13c0.35-0.37,0.72-0.72,1.09-1.07c0.4-0.42,0.69-0.72,0.99-1.01l0.86,0.62l-0.72-0.74
		c0.96-0.94,2.25-1.36,3.5-1.76c1.3-0.42,2.62-0.85,3.68-1.86c0.03-0.05,0.13-0.16,0.16-0.19c0.27-0.27,0.54-0.54,0.82-0.82
		c0.05-0.05,0.1-0.08,0.14-0.11c0.46-0.59,0.8-1.15,1.15-1.71c0.4-0.66,0.82-1.34,1.33-1.97c0,0,0.05-0.06,0.08-0.1l0.91-0.91
		l1.01,0.45l-0.85-0.61c0-0.02,0.06-0.14,0.06-0.16c0.83-2.75,0.72-5.57,0.62-8.3c-0.06-1.63-0.13-3.15,0-4.73
		c0-0.29,0-0.61-0.05-0.93c-0.03-0.26-0.08-0.5-0.14-0.74c-0.11-0.5,0.13-0.99,0.59-1.2l0.32-0.13l0.91-1.17
		c0.43-2.41,1.76-4.06,3.63-5.82c0.05-0.05,0.08-0.1,0.1-0.16c0.45-2.21-0.27-3.98-2.17-5.45c-0.13-0.1-0.22-0.22-0.29-0.35
		c-0.99-1.98-0.86-3.77,0.38-5.45c0.32-0.75,0.29-1.47,0.24-2.16c-0.05-0.78-0.08-1.52,0.34-2.14c0.06-0.1,0.13-0.18,0.22-0.24
		c0.37-0.43,0.5-0.88,0.61-1.31c0.08-0.27,0.16-0.53,0.24-0.72c0.08-0.16,0.19-0.3,0.34-0.4c0.38-0.82,0.54-1.58,0.69-2.33
		c0.27-1.38,0.54-2.69,1.71-3.61c0.1-0.13,0.27-0.27,0.42-0.35c0.16-0.08,0.42-0.16,0.66-0.24c0.46-0.13,0.94-0.27,1.31-0.66
		c0.08-0.11,0.1-0.1,0.21-0.18c0.56-0.34,1.17-0.38,1.68-0.38c0.26,0,0.53,0.02,0.85,0.03c0.27,0.02,0.58,0.03,0.86,0.03
		c1.02,0,1.71-0.21,2.32-0.69c0.13-0.16,0.35-0.32,0.54-0.38c0.16-0.05,0.43-0.11,0.59-0.14c0.61-0.13,1.26-0.26,1.68-0.88
		c0.83-1.23,1.14-2.57,1.36-3.85c0.05-0.24,0.16-0.46,0.35-0.61c0.18-0.16,0.38-0.29,0.58-0.42c0.16-0.11,0.42-0.19,0.61-0.19l0,0
		c2.14,0.02,4.29,0.02,6.43,0.02h50.65l14.71,0.02c4.3,0,8.6-0.02,12.91-0.05h0.02c0.5,0,0.85,0.03,1.22,0.06l0.19,0.02
		c0.45,0.03,0.93,0.08,1.44,0.08c0.53,0,0.99-0.05,1.41-0.16c0.08-0.02,0.18-0.03,0.26-0.03c0.21,0,0.4,0.06,0.58,0.18v0.02
		c0.22,0.16,0.42,0.42,0.46,0.67c0.1,0.54,0.21,1.09,0.32,1.63c0.9,4.33,1.81,8.83-1.17,13.03c-4.62,6.53-3.34,13.83-1.7,19.48
		c0.51,1.76,1.06,3.5,1.6,5.25c2.35,7.5,4.54,14.52,4.14,22.29c-0.18,3.26,1.09,5.47,3.73,6.54c1.15,0.46,1.9,1.15,2.19,1.97
		c0.29,0.82,0.11,1.81-0.48,2.86c-1.17,2.05-0.7,3.55-0.08,5.61c1.54,5.04,3.04,9.52,5.92,13.55c1.15,1.62,0.51,2.64-0.67,4.13
		c-0.34,0.42-0.67,0.83-0.93,1.28c-0.18,0.32-0.37,0.53-0.59,0.66c-0.1,0.05-0.19,0.1-0.29,0.11c-0.08,0.02-0.19,0.03-0.27,0.03
		c-0.35,0-0.77-0.13-1.41-0.37c-0.24-0.1-0.46-0.18-0.67-0.24c-2.93-0.93-4.8-2-5.68-4.8c-0.96-2.97-3.34-4.96-5.65-6.88l-0.96-0.8
		c-0.56-0.46-1.23-0.72-1.95-0.72c-0.58,0-1.17,0.14-1.76,0.45c-1.02,0.51-1.46,1.5-1.02,2.35c0.83,1.66,1.42,3.39,2.06,5.21
		c1.65,4.73,3.2,9.2,8.25,11.77c1.63,0.83,2.51,1.7,2.69,2.65c0.14,0.75-0.14,1.58-0.86,2.53c-0.13,0.16-0.3,0.29-0.51,0.35
		c-0.34,0.11-0.61,0.3-0.82,0.61c-0.24,0.45-0.35,0.88-0.46,1.33c-0.13,0.51-0.24,0.98-0.51,1.38c-0.05,0.06-0.1,0.13-0.16,0.18
		c-0.8,0.93-0.82,1.87-0.05,2.83c0.7,0.9,1.34,1.79,1.66,2.85c0.03,0.08,0.03,0.16,0.05,0.24c0.02,0.24,0.02,0.48,0,0.72
		c-0.02,0.3-0.14,0.59-0.38,0.77c-0.1,0.08-0.3,0.21-0.43,0.24c-0.1,0.03-0.21,0.05-0.32,0.05c-0.3,0-0.62-0.13-1.02-0.38
		c-0.08-0.06-0.16-0.13-0.22-0.21c-0.45-0.18-1.12-0.38-1.79-0.38c-0.58,0-0.98,0.14-1.26,0.43c-0.53,0.56-0.48,1.57,0.13,3.17
		c1.01,1.73,0.94,3.5,0.88,5.41c-0.05,1.28-0.1,2.59,0.19,3.85c0.06,0.24,0.03,0.5-0.08,0.7c-0.18,0.35-0.43,0.66-0.78,0.96
		c0,0.02-0.19,0.16-0.19,0.18c-0.4,0.51-0.8,0.83-1.26,1.01c-0.13,0.05-0.26,0.06-0.38,0.06c-0.02,0-0.05,0-0.06,0
		c-0.53,0.3-0.99,0.45-1.49,0.59c-0.54,0.16-1.09,0.32-1.57,0.67c-0.13,0.19-0.38,0.4-0.61,0.46c-0.3,0.1-0.66,0.13-1.2,0.13
		c-0.48,0-1.04,0.02-1.54,0.21c-0.54,0.46-0.75,0.98-0.72,1.58l0.27,0.5c0.61,0.94,1.18,1.84,0.48,2.78
		c-0.06,0.1-0.14,0.18-0.24,0.24c-0.35,0.5-0.74,0.9-1.22,1.25c-0.11,0.14-0.3,0.3-0.46,0.38c-0.35,0.16-0.7,0.19-1.26,0.19
		c0,0-0.61,0-0.75,0c-0.98,0-1.65,0.1-2.27,0.58c-0.14,0.22-0.45,0.46-0.7,0.53c-0.19,0.05-0.48,0.08-0.91,0.1
		c-0.69,0.03-1.41,0.06-2,0.64c-0.14,0.21-0.38,0.37-0.62,0.43c-0.08,0.02-0.22,0.03-0.3,0.03c-0.37,0-0.72-0.14-1.39-0.48
		c-0.06-0.03-0.16-0.06-0.19-0.06l-0.26-0.02c-0.08,0-0.13,0.02-0.18,0.05c-0.9,0.54-1.87,0.62-2.72,0.62c-0.27,0-0.54,0-0.83-0.02
		c-0.27-0.02-0.56-0.02-0.83-0.02c-0.22,0-0.43,0-0.66,0.02h-0.24c-0.83,0-1.7,0-2.48,0.61c-0.11,0.16-0.32,0.34-0.5,0.42
		c-0.38,0.16-0.8,0.19-1.18,0.19l-0.96-0.02c-0.72,0-1.47,0.08-2.11,0.66c-0.08,0.11-0.22,0.24-0.35,0.3
		c-0.22,0.11-0.48,0.19-0.75,0.27c-0.46,0.13-0.91,0.27-1.3,0.61c-0.1,0.13-0.27,0.29-0.43,0.35c-0.16,0.08-0.4,0.16-0.66,0.22
		c-0.46,0.13-0.91,0.26-1.3,0.59c-0.13,0.18-0.35,0.35-0.54,0.43c-0.29,0.1-0.61,0.13-1.06,0.14c-0.69,0.03-1.41,0.06-1.98,0.64
		c-0.1,0.13-0.26,0.26-0.4,0.34c-0.37,0.18-0.77,0.21-1.15,0.21h-0.32c-0.24,0-0.42,0-0.61,0.02c-0.58,0-1.52,0-2.27,0.61
		c-0.11,0.16-0.32,0.34-0.5,0.42c-0.16,0.06-0.37,0.13-0.59,0.19c-0.45,0.13-0.91,0.26-1.3,0.59c-0.11,0.14-0.29,0.3-0.45,0.38
		c-0.16,0.08-0.4,0.14-0.66,0.22c-0.43,0.13-0.88,0.26-1.26,0.59c-0.1,0.14-0.29,0.3-0.45,0.38c-0.29,0.13-0.61,0.16-1.17,0.19
		c-0.69,0.03-1.39,0.06-1.95,0.64c-0.11,0.16-0.29,0.3-0.48,0.37c-0.34,0.13-0.7,0.16-1.15,0.16h-0.45c-0.13,0-0.58,0.02-0.59,0.02
		c-0.69,0-1.42,0.06-2.08,0.59c-0.14,0.22-0.45,0.46-0.7,0.53c-0.19,0.05-0.48,0.06-0.88,0.1c-0.7,0.03-1.41,0.06-2,0.64
		c-0.06,0.06-0.16,0.13-0.24,0.18c-0.72,0.38-1.44,0.43-2,0.43c-0.37,0-0.77-0.03-1.23-0.06c-0.42-0.03-0.83-0.06-1.26-0.06
		c-0.27,0-0.56,0.02-0.85,0.05c-0.05,0-0.21,0.02-0.26,0.02c-0.85,0-1.71,0-2.49,0.61c-0.1,0.1-0.26,0.24-0.38,0.29
		c-0.24,0.11-0.51,0.22-0.8,0.34c-0.8,0.3-1.73,0.67-2.25,1.57c-0.05,0.08-0.1,0.14-0.16,0.21c-0.3,0.37-0.43,0.82-0.56,1.25
		c-0.08,0.27-0.16,0.51-0.22,0.69c-0.08,0.16-0.19,0.3-0.34,0.42c-0.38,0.51-0.8,0.9-1.2,1.25c-0.03,0.06-0.13,0.18-0.18,0.22
		c-0.34,0.34-0.66,0.66-1.01,0.93c-0.05,0.1-0.21,0.29-0.29,0.37c-0.4,0.38-0.78,0.62-1.18,0.75c-0.06,0.02-0.14,0.03-0.21,0.05
		c-0.93,0.1-1.71,0.46-2.41,1.12c-0.18,0.16-0.42,0.27-0.66,0.27c-2.32,0.13-4.29,1.17-6.27,2.32c-1.39,0.82-2.51,1.18-3.53,1.18
		c-1.12,0-2.14-0.46-3.13-1.41c-0.93-0.9-1.95-1.34-3.04-1.34c-0.78,0-1.63,0.24-2.51,0.69c-0.08,0.05-0.13,0.11-0.16,0.19
		c-0.02,0.08,0,0.18,0.05,0.24c1.36,1.94,2.38,4.11,3.36,6.21c0.94,2.05,1.94,4.14,3.23,6.03c0.32,0.46,0.21,1.12-0.26,1.44
		C289.39,256.27,288.67,256.51,287.87,256.51z"/>
	<g>
		<path class="st4" d="M385.86,69.7C385.86,69.7,385.87,69.7,385.86,69.7c0.13,0.56,0.24,1.1,0.34,1.65
			c0.88,4.32,1.73,8.38-0.99,12.22c-4.88,6.89-3.55,14.51-1.86,20.36c0.51,1.79,1.07,3.57,1.63,5.34c2.3,7.34,4.48,14.27,4.08,21.86
			c-0.24,4.67,2.24,6.68,4.37,7.55c0.61,0.24,1.38,0.67,1.6,1.34c0.22,0.67-0.1,1.46-0.4,2.02c-1.39,2.45-0.83,4.3-0.16,6.45
			c1.57,5.12,3.1,9.69,6.06,13.85c0.7,0.99,0.51,1.42-0.64,2.86c-0.35,0.45-0.72,0.91-1.02,1.42c-0.13,0.22-0.21,0.27-0.21,0.27
			c-0.02,0-0.03,0-0.05,0c-0.21,0-0.72-0.19-1.04-0.3c-0.24-0.1-0.48-0.18-0.74-0.26c-2.72-0.86-4.24-1.73-5.01-4.13
			c-1.04-3.28-3.55-5.36-5.98-7.37l-0.94-0.78c-0.75-0.64-1.66-0.96-2.61-0.96c-0.74,0-1.49,0.19-2.24,0.56
			c-1.54,0.77-2.17,2.38-1.49,3.74c0.78,1.6,1.38,3.29,2.02,5.1c1.63,4.72,3.33,9.6,8.76,12.36c1.28,0.66,2.02,1.31,2.14,1.92
			c0.1,0.53-0.27,1.17-0.67,1.7c-0.54,0.18-1.01,0.51-1.34,1.01c-0.37,0.66-0.5,1.2-0.62,1.66c-0.13,0.48-0.21,0.82-0.37,1.04
			c-0.03,0.03-0.08,0.06-0.11,0.11c-1.1,1.3-1.12,2.8-0.05,4.13c0.02,0.02,0.03,0.05,0.05,0.06c0.67,0.86,1.17,1.62,1.42,2.43
			c0.02,0.21,0.02,0.42,0,0.62c-0.06,0.05-0.1,0.06-0.1,0.06s0,0-0.02,0c-0.03,0-0.14-0.02-0.43-0.21
			c-0.16-0.19-0.37-0.34-0.62-0.42c-0.37-0.11-1.15-0.35-1.98-0.35c-0.72,0-1.47,0.18-2.02,0.77c-1.09,1.17-0.56,2.99-0.08,4.25
			c0.03,0.06,0.06,0.14,0.1,0.21c0.83,1.41,0.77,2.97,0.7,4.78c-0.05,1.34-0.11,2.73,0.22,4.13c-0.11,0.22-0.29,0.43-0.53,0.64
			c-0.05,0.03-0.08,0.06-0.13,0.1c-0.08,0.06-0.14,0.14-0.21,0.22c-0.29,0.35-0.54,0.58-0.83,0.69c-0.03,0-0.05,0-0.08,0
			c-0.26,0-0.51,0.08-0.72,0.21c-0.26,0.18-0.62,0.29-1.06,0.42c-0.59,0.18-1.25,0.37-1.87,0.82c-0.13,0.1-0.24,0.19-0.32,0.32
			c-0.18,0.06-0.43,0.06-0.9,0.08c-0.54,0-1.23,0.02-1.9,0.29c-0.14,0.06-0.29,0.14-0.4,0.26c-0.67,0.62-1.01,1.42-0.96,2.35
			c0.02,0.22,0.08,0.45,0.19,0.64l0.22,0.37c0.66,1.04,0.75,1.31,0.53,1.62c-0.13,0.08-0.22,0.19-0.32,0.34
			c-0.22,0.34-0.53,0.64-0.91,0.91c-0.11,0.08-0.21,0.18-0.29,0.27c-0.16,0.08-0.4,0.1-0.83,0.1c-0.05,0-0.1,0-0.14,0
			c-0.22,0-0.43,0-0.64,0.02c-0.03,0-0.06,0-0.1,0c-0.86,0-1.84,0.08-2.77,0.78c-0.13,0.1-0.22,0.21-0.32,0.34
			c-0.16,0.03-0.38,0.05-0.72,0.06c-0.77,0.03-1.81,0.08-2.67,0.93c-0.05,0.05-0.11,0.11-0.14,0.18c-0.02,0-0.03,0-0.05,0
			c-0.14,0-0.37-0.1-0.91-0.37c-0.16-0.08-0.4-0.16-0.58-0.18l-0.27-0.02c-0.03,0-0.06,0-0.1,0c-0.26,0-0.5,0.06-0.72,0.21
			c-0.62,0.38-1.34,0.46-2.16,0.46c-0.26,0-0.53,0-0.8-0.02c-0.29-0.02-0.58-0.02-0.86-0.02c-0.24,0-0.48,0-0.72,0.02h-0.16
			c-0.93,0-2.06,0-3.12,0.82c-0.11,0.08-0.19,0.18-0.27,0.29c-0.19,0.08-0.43,0.1-0.78,0.1c-0.13,0-0.29,0-0.45-0.02
			c-0.16,0-0.34-0.02-0.51-0.02c-0.86,0-1.9,0.11-2.8,0.93c-0.05,0.05-0.1,0.1-0.14,0.14c-0.13,0.06-0.34,0.13-0.56,0.19
			c-0.51,0.14-1.14,0.32-1.7,0.83c-0.06,0.06-0.13,0.13-0.18,0.19c-0.13,0.06-0.32,0.11-0.53,0.18c-0.5,0.14-1.12,0.32-1.68,0.82
			c-0.08,0.06-0.14,0.14-0.21,0.22c-0.14,0.05-0.37,0.06-0.75,0.1c-0.77,0.03-1.81,0.1-2.67,0.96c-0.03,0.03-0.06,0.08-0.11,0.13
			c-0.14,0.06-0.35,0.1-0.7,0.1c-0.08,0-0.18,0-0.27,0c-0.03,0-0.06,0-0.1,0c-0.19,0-0.4,0-0.59,0.02c-0.61,0-1.84,0-2.88,0.85
			c-0.1,0.08-0.18,0.16-0.24,0.26c-0.13,0.05-0.3,0.1-0.48,0.16c-0.51,0.14-1.14,0.32-1.7,0.82c-0.08,0.06-0.14,0.14-0.21,0.21
			c-0.13,0.06-0.32,0.11-0.51,0.16c-0.5,0.14-1.12,0.32-1.66,0.8c-0.08,0.06-0.14,0.14-0.21,0.22c-0.11,0.05-0.34,0.08-0.78,0.1
			c-0.77,0.03-1.81,0.08-2.65,0.96c-0.05,0.05-0.08,0.08-0.11,0.13c-0.18,0.06-0.4,0.08-0.77,0.08c-0.08,0-0.16,0-0.24,0
			c-0.06,0-0.13,0-0.19,0c-0.14,0-0.3,0-0.45,0.02c-0.05,0-0.1,0-0.14,0c-0.83,0-1.81,0.1-2.72,0.8c-0.13,0.1-0.22,0.21-0.3,0.34
			c-0.16,0.03-0.38,0.05-0.7,0.06c-0.77,0.03-1.81,0.08-2.67,0.93c-0.45,0.24-0.93,0.3-1.52,0.3c-0.34,0-0.72-0.03-1.15-0.06
			c-0.43-0.03-0.88-0.06-1.33-0.06c-0.32,0-0.66,0.02-0.99,0.06h-0.13c-0.93,0-2.06,0-3.12,0.82c-0.06,0.05-0.13,0.11-0.19,0.18
			c-0.21,0.1-0.46,0.19-0.72,0.3c-0.88,0.34-2.06,0.8-2.78,2.02c-0.02,0.02-0.03,0.03-0.03,0.05c-0.48,0.56-0.66,1.17-0.78,1.66
			c-0.06,0.21-0.11,0.4-0.18,0.53c-0.11,0.08-0.21,0.18-0.29,0.29c-0.27,0.37-0.64,0.72-0.99,1.02c-0.1,0.08-0.18,0.18-0.24,0.29
			c-0.29,0.29-0.56,0.59-0.9,0.83c-0.16,0.11-0.29,0.27-0.37,0.43c-0.27,0.26-0.53,0.43-0.8,0.53c-1.17,0.13-2.17,0.61-3.02,1.41
			c-2.51,0.14-4.62,1.23-6.73,2.45c-1.2,0.69-2.16,1.04-3.01,1.04c-0.88,0-1.63-0.37-2.4-1.12c-1.12-1.09-2.4-1.63-3.76-1.63
			c-0.96,0-1.97,0.27-2.99,0.82c-0.34,0.18-0.59,0.5-0.69,0.88c-0.1,0.37-0.02,0.77,0.21,1.09c1.31,1.87,2.3,4,3.28,6.06
			c0.96,2.08,1.97,4.22,3.31,6.17c-0.5,0.35-1.01,0.51-1.6,0.51c-0.78,0-1.71-0.32-2.89-0.93c-9.88-5.18-18.42-8.38-26.88-10.06
			c-0.35-0.06-0.72-0.19-1.1-0.3c-0.74-0.22-1.63-0.5-2.49-0.5c-0.8,0-1.58,0.24-2.21,0.94c-0.93,1.07-1.94,1.15-3.61,1.18
			c-0.59,0.02-1.22,0.06-1.82,0.14c-0.22,0.03-0.45,0.05-0.67,0.1c-0.24-0.11-0.48-0.29-0.75-0.58c-0.38-0.64-0.83-1.25-1.34-1.79
			c-0.13-0.14-0.29-0.26-0.46-0.32c-1.07-0.45-1.15-0.94-0.99-2.7c0.05-0.56,0.1-1.14,0.06-1.71c-0.18-2.4-0.1-4.89-0.03-7.29
			c0.11-3.79,0.22-7.69-0.56-11.59c0-0.21-0.05-0.42-0.16-0.59c-0.08-0.16-0.21-0.3-0.34-0.42c-0.3-0.29-0.61-0.59-0.91-0.9
			c-0.05-0.06-0.1-0.14-0.16-0.21c-0.58-0.59-1.28-0.8-1.79-0.94c-0.19-0.06-0.4-0.11-0.53-0.18c-0.02-0.03-0.05-0.05-0.06-0.08
			c-0.58-0.58-1.26-0.78-1.78-0.93c-0.22-0.06-0.45-0.13-0.58-0.21c-0.03-0.03-0.05-0.06-0.08-0.08c-0.34-0.3-0.66-0.62-0.98-0.94
			c-0.05-0.06-0.1-0.13-0.14-0.19c-0.58-0.61-1.3-0.82-1.81-0.98c-0.19-0.05-0.38-0.11-0.51-0.18c-0.02-0.03-0.05-0.05-0.06-0.08
			c-0.58-0.59-1.28-0.78-1.79-0.94c-0.21-0.06-0.43-0.13-0.54-0.19c-0.08-0.08-0.16-0.16-0.27-0.24c-0.03-0.02-0.05-0.03-0.08-0.05
			c-0.83-0.48-1.46-1.1-1.89-1.9c-0.1-0.16-0.21-0.3-0.34-0.4c-0.05-0.14-0.06-0.38-0.1-0.77c-0.03-0.75-0.1-1.9-1.07-2.77
			c-0.02-0.02-0.03-0.03-0.06-0.05c-0.3-0.29-0.59-0.58-0.88-0.88c-0.05-0.06-0.1-0.13-0.16-0.19c-0.37-0.34-0.72-0.67-1.04-1.04
			c-0.54-0.88-0.69-1.81-0.46-2.91c0.43-0.75,1.22-1.26,2.11-1.84c1.22-0.8,2.59-1.71,3.29-3.44c0,0,0-0.02,0.02-0.02
			c0.14-0.26,0.34-0.51,0.51-0.77c0.78-1.1,2.11-2.94,0.5-5.28c-0.11-0.16-0.24-0.27-0.4-0.37c-0.27-0.27-0.54-0.53-0.8-0.82
			c-0.29-0.4-0.54-0.82-0.77-1.25c-1.38-8.48-1.73-15.96-1.06-22.84c0.46-1.04,1.44-1.68,2.56-2.43c0.11-0.06,0.19-0.16,0.27-0.24
			l0,0c0.34-0.35,0.69-0.7,1.06-1.06c0.05-0.03,0.1-0.08,0.14-0.13l0.02-0.02c0.32-0.35,0.67-0.69,1.01-1.02
			c0.13-0.1,0.24-0.21,0.34-0.34c0.05-0.06,0.08-0.13,0.11-0.21c0.27-0.56,0.8-0.85,1.65-1.28c0.46-0.24,0.99-0.51,1.49-0.9
			c0.16-0.03,0.35-0.03,0.54-0.03c0.19,0,0.42,0.02,0.62,0.02c0.22,0.02,0.48,0.02,0.74,0.02c0.86,0,1.86-0.13,2.77-0.82
			c0.06-0.05,0.14-0.1,0.19-0.16c0.14-0.14,0.26-0.32,0.34-0.5c1.06-2.25,3.1-3.05,5.47-3.98c1.7-0.67,3.45-1.36,4.91-2.65
			c0.08-0.08,0.16-0.16,0.22-0.26c0.26-0.26,0.51-0.51,0.77-0.77c0.06-0.03,0.13-0.08,0.18-0.13c0.27-0.24,0.58-0.45,0.88-0.64
			c0.78-0.53,1.74-1.18,2.32-2.35c0.08-0.18,0.13-0.37,0.13-0.58c0-1.01,0.3-1.84,0.9-2.54c0.11-0.14,0.21-0.29,0.26-0.46
			c0.08-0.24,0.19-0.46,0.35-0.64c0.02-0.02,0.02-0.02,0.03-0.03c0.06-0.08,0.35-0.16,0.59-0.22c0.53-0.16,1.25-0.37,1.82-1.01
			c0.02-0.03,0.05-0.05,0.06-0.08l0.13-0.13c0.3-0.3,0.61-0.61,0.93-0.9c0.05-0.05,0.1-0.1,0.14-0.16c0.35-0.35,0.7-0.7,1.06-1.04
			c0.05-0.05,0.1-0.1,0.14-0.14c0.29-0.29,0.56-0.58,0.86-0.85c0.05-0.03,0.11-0.08,0.16-0.13c0.78-0.77,1.9-1.14,3.09-1.52
			c1.34-0.43,2.86-0.91,4.08-2.1c0.08-0.06,0.14-0.14,0.19-0.24c0.26-0.26,0.51-0.53,0.78-0.77c0.13-0.08,0.24-0.19,0.34-0.32
			c0.4-0.56,0.77-1.14,1.12-1.73c0.42-0.67,0.8-1.3,1.25-1.86l0.02-0.02c0.24-0.26,0.5-0.51,0.75-0.75l0.14-0.14
			c0.1-0.08,0.19-0.18,0.27-0.29c0.1-0.14,0.18-0.3,0.22-0.46c0.88-2.91,0.77-5.82,0.66-8.64c-0.06-1.6-0.11-3.1,0-4.61
			c0.02-0.38,0-0.75-0.05-1.12c-0.03-0.29-0.1-0.58-0.16-0.86c0.11-0.05,0.24-0.1,0.35-0.14c0.19-0.1,0.35-0.24,0.48-0.4l0.8-1.07
			c0.13-0.18,0.21-0.37,0.26-0.59c0.34-2,1.54-3.49,3.26-5.1c0.21-0.19,0.34-0.45,0.4-0.72c0.51-2.59-0.35-4.77-2.56-6.48
			c-0.82-1.65-0.74-2.99,0.29-4.37c0.06-0.1,0.11-0.18,0.16-0.29c0.37-0.9,0.34-1.78,0.29-2.56c-0.05-0.8-0.03-1.22,0.16-1.54
			c0.06-0.06,0.14-0.13,0.19-0.19c0.45-0.56,0.62-1.17,0.77-1.65c0.06-0.21,0.11-0.42,0.18-0.56c0.18-0.13,0.32-0.3,0.42-0.53
			c0.35-0.82,0.53-1.65,0.69-2.46c0.29-1.44,0.51-2.35,1.34-3.01c0.08-0.06,0.16-0.14,0.22-0.24c0.13-0.06,0.34-0.13,0.51-0.18
			c0.5-0.14,1.17-0.35,1.73-0.91l0,0c0.3-0.18,0.67-0.22,1.15-0.22c0.24,0,0.5,0.02,0.8,0.03c0.29,0.02,0.61,0.03,0.93,0.03
			c0.94,0,2-0.14,2.96-0.9c0.08-0.06,0.16-0.14,0.22-0.22c0.14-0.05,0.35-0.1,0.5-0.11c0.66-0.13,1.66-0.34,2.32-1.33
			c0.93-1.36,1.26-2.81,1.52-4.25c0.16-0.13,0.34-0.24,0.51-0.37c2.1,0.02,4.21,0.02,6.3,0.02c1.28,0,2.56,0,3.84,0h5.07h13.96
			h27.91h7.28c2.46,0,4.94,0,7.4,0c4.32,0,8.62-0.02,12.94-0.05c0.03,0,0.08,0,0.11,0c0.43,0,0.82,0.05,1.22,0.08
			c0.48,0.05,0.99,0.08,1.54,0.08C384.74,69.89,385.3,69.84,385.86,69.7 M385.86,67.62c-0.18,0-0.35,0.02-0.51,0.06
			c-0.34,0.08-0.7,0.13-1.15,0.13s-0.9-0.05-1.34-0.08l-0.18-0.02c-0.37-0.03-0.77-0.06-1.22-0.06h-0.14
			c-3.76,0.03-7.85,0.05-12.91,0.05c-2.46,0-4.94,0-7.4,0h-7.28h-27.91h-13.96h-5.07h-3.84c-2.1,0-4.19,0-6.29-0.02c0,0,0,0-0.02,0
			c-0.4,0-0.78,0.11-1.12,0.34c-0.27,0.18-0.51,0.34-0.72,0.51c-0.37,0.32-0.62,0.75-0.72,1.23c-0.22,1.22-0.46,2.4-1.18,3.44
			c-0.18,0.26-0.4,0.34-1.01,0.46c-0.22,0.05-0.54,0.11-0.75,0.19c-0.35,0.11-0.66,0.32-0.9,0.59c-0.4,0.29-0.88,0.42-1.63,0.42
			c-0.29,0-0.56-0.02-0.82-0.03c-0.35-0.02-0.64-0.03-0.91-0.03c-0.62,0-1.44,0.06-2.21,0.53c-0.16,0.1-0.3,0.21-0.43,0.34
			c-0.19,0.18-0.5,0.27-0.83,0.37c-0.26,0.08-0.58,0.18-0.86,0.32c-0.26,0.13-0.48,0.3-0.66,0.53c-1.41,1.17-1.73,2.77-2.02,4.17
			c-0.13,0.66-0.26,1.3-0.48,1.87c-0.19,0.18-0.35,0.4-0.46,0.64c-0.14,0.3-0.22,0.61-0.3,0.88c-0.1,0.34-0.18,0.64-0.34,0.85
			c-0.14,0.13-0.27,0.27-0.37,0.43c-0.59,0.91-0.54,1.9-0.5,2.77c0.03,0.61,0.06,1.12-0.11,1.57c-1.42,1.97-1.57,4.14-0.42,6.46
			c0.14,0.27,0.34,0.53,0.59,0.72c1.52,1.17,2.11,2.51,1.84,4.19c-1.65,1.57-3.2,3.39-3.68,5.93l-0.59,0.78l-0.13,0.05
			c-0.93,0.4-1.42,1.41-1.2,2.38c0.05,0.21,0.1,0.4,0.11,0.61c0.03,0.26,0.05,0.51,0.03,0.78c-0.11,1.62-0.06,3.15,0,4.8
			c0.11,2.72,0.21,5.29-0.53,7.84l0,0l-0.14,0.14c-0.26,0.26-0.51,0.51-0.77,0.78c-0.03,0.03-0.08,0.08-0.11,0.13
			c-0.02,0.02-0.02,0.02-0.03,0.03l0,0c-0.54,0.67-0.98,1.38-1.39,2.06c-0.3,0.5-0.62,1.02-0.96,1.49c-0.06,0.05-0.11,0.1-0.16,0.14
			c-0.29,0.27-0.58,0.56-0.85,0.85c-0.06,0.06-0.13,0.14-0.18,0.21c-0.88,0.82-2.08,1.2-3.23,1.57c-1.28,0.42-2.73,0.88-3.87,1.97
			c-0.06,0.05-0.11,0.1-0.16,0.14c-0.32,0.3-0.62,0.61-0.93,0.91c-0.03,0.03-0.08,0.08-0.11,0.11c-0.37,0.35-0.72,0.7-1.07,1.06
			c-0.05,0.05-0.1,0.1-0.13,0.14c-0.3,0.29-0.62,0.61-0.93,0.91l-0.13,0.11c-0.06,0.06-0.11,0.11-0.16,0.18
			c-0.14,0.16-0.42,0.26-0.85,0.38c-0.48,0.14-1.07,0.32-1.52,0.82c-0.05,0.05-0.08,0.08-0.11,0.13c-0.29,0.35-0.51,0.77-0.67,1.2
			c-0.8,1.01-1.23,2.21-1.28,3.57c-0.34,0.59-0.91,0.99-1.54,1.39c-0.37,0.24-0.7,0.48-1.06,0.77c-0.11,0.06-0.21,0.14-0.29,0.24
			c-0.27,0.27-0.54,0.54-0.82,0.82c-0.06,0.06-0.11,0.13-0.18,0.21c-1.17,1.02-2.65,1.6-4.24,2.22c-2.53,0.99-5.13,2.02-6.56,4.96
			c-0.37,0.26-0.8,0.35-1.46,0.35c-0.22,0-0.43-0.02-0.64-0.02c-0.27-0.02-0.5-0.02-0.72-0.02c-0.34,0-0.61,0.02-0.86,0.06
			c-0.34,0.05-0.66,0.19-0.93,0.4c-0.35,0.26-0.77,0.48-1.17,0.69c-0.91,0.46-1.92,0.99-2.51,2.11c-0.03,0.03-0.06,0.06-0.1,0.08
			c-0.35,0.35-0.7,0.7-1.04,1.06c-0.03,0.03-0.06,0.06-0.1,0.1c-0.34,0.32-0.67,0.66-0.99,0.99c-0.05,0.03-0.1,0.08-0.13,0.13
			c-1.25,0.83-2.54,1.71-3.23,3.26c-0.1,0.21-0.14,0.43-0.18,0.66c-0.69,7.07-0.34,14.71,1.07,23.38c0.03,0.22,0.11,0.43,0.21,0.62
			c0.27,0.53,0.58,1.02,0.91,1.49c0.05,0.06,0.11,0.14,0.16,0.21c0.29,0.3,0.58,0.59,0.86,0.88c0.06,0.06,0.14,0.13,0.21,0.19
			c0.58,0.91,0.37,1.5-0.54,2.77l-0.08,0.11c-0.19,0.27-0.4,0.56-0.56,0.85c-0.05,0.1-0.1,0.19-0.14,0.29
			c-0.5,1.14-1.42,1.74-2.49,2.46c-1.02,0.67-2.08,1.38-2.77,2.53c-0.11,0.19-0.19,0.4-0.24,0.62c-0.34,1.62-0.1,3.1,0.74,4.43
			c0.06,0.1,0.14,0.21,0.22,0.29c0.32,0.37,0.7,0.74,1.14,1.14c0.03,0.05,0.08,0.1,0.13,0.14c0.3,0.32,0.62,0.62,0.94,0.93
			c0.05,0.05,0.11,0.1,0.16,0.14c0.24,0.21,0.3,0.54,0.34,1.26c0.03,0.54,0.06,0.98,0.22,1.41c0.11,0.3,0.29,0.56,0.53,0.78
			c0.59,1.04,1.44,1.89,2.53,2.53c0.14,0.14,0.3,0.27,0.48,0.37c0.32,0.18,0.64,0.27,0.94,0.35c0.37,0.11,0.7,0.21,0.91,0.4
			c0.19,0.24,0.38,0.37,0.66,0.5s0.56,0.21,0.82,0.29c0.34,0.1,0.66,0.19,0.86,0.37c0.06,0.1,0.14,0.18,0.22,0.26
			c0.37,0.37,0.7,0.7,1.06,1.02c0.13,0.13,0.26,0.24,0.42,0.32c0.35,0.21,0.72,0.32,1.04,0.42c0.37,0.11,0.69,0.21,0.9,0.4
			c0.18,0.21,0.38,0.35,0.64,0.48c0.29,0.14,0.59,0.22,0.85,0.3c0.34,0.1,0.64,0.19,0.85,0.37c0.05,0.08,0.11,0.14,0.18,0.21
			c0.27,0.29,0.58,0.58,0.86,0.86c0,0.02,0,0.02,0,0.03c0.74,3.66,0.62,7.45,0.53,11.13c-0.06,2.45-0.14,4.99,0.03,7.5
			c0.03,0.42-0.02,0.9-0.05,1.39c-0.13,1.54-0.32,3.65,2.11,4.73c0.37,0.4,0.69,0.85,0.98,1.33c0.08,0.13,0.18,0.26,0.27,0.37
			c0.46,0.48,0.93,0.82,1.42,1.04c0.27,0.11,0.54,0.18,0.83,0.18c0.16,0,0.34-0.02,0.5-0.06c0.08-0.02,0.16-0.03,0.24-0.03
			l0.24-0.03c0.48-0.06,1.01-0.11,1.58-0.13c1.66-0.05,3.55-0.1,5.13-1.9c0.11-0.13,0.24-0.24,0.64-0.24c0.56,0,1.26,0.21,1.89,0.4
			l0.11,0.03c0.38,0.11,0.78,0.24,1.2,0.32c8.25,1.63,16.62,4.77,26.31,9.87c1.54,0.82,2.73,1.17,3.85,1.17
			c0.99,0,1.94-0.3,2.78-0.9c0.94-0.66,1.17-1.95,0.53-2.89c-1.25-1.82-2.21-3.87-3.13-5.85c-0.88-1.9-1.79-3.84-2.96-5.65
			c0.45-0.16,0.86-0.24,1.26-0.24c0.83,0,1.58,0.35,2.32,1.06c1.18,1.15,2.45,1.7,3.85,1.7c1.22,0,2.49-0.42,4.06-1.33
			c1.86-1.07,3.71-2.06,5.81-2.18c0.48-0.03,0.94-0.22,1.3-0.56c0.53-0.5,1.14-0.78,1.82-0.85c0.14-0.02,0.29-0.05,0.43-0.1
			c0.56-0.18,1.06-0.5,1.58-0.99c0.13-0.11,0.22-0.24,0.32-0.38c0.38-0.3,0.7-0.62,0.98-0.91c0.06-0.08,0.14-0.16,0.22-0.26
			c0.38-0.34,0.8-0.74,1.17-1.2c0.24-0.19,0.45-0.45,0.58-0.74c0.13-0.29,0.21-0.58,0.29-0.83c0.1-0.37,0.19-0.67,0.37-0.88l0,0
			c0.1-0.11,0.18-0.22,0.26-0.35c0.32-0.54,0.9-0.8,1.73-1.12c0.3-0.11,0.61-0.24,0.86-0.37c0.22-0.11,0.43-0.26,0.61-0.45
			c0.46-0.34,0.99-0.35,1.81-0.35h0.14c0.08,0,0.18,0,0.26-0.02c0.22-0.03,0.45-0.05,0.72-0.05c0.4,0,0.8,0.03,1.18,0.06
			c0.48,0.03,0.91,0.06,1.3,0.06c0.62,0,1.55-0.06,2.48-0.54c0.18-0.1,0.34-0.21,0.48-0.35c0.27-0.27,0.62-0.3,1.33-0.35
			c0.38-0.02,0.74-0.05,1.07-0.11c0.48-0.11,0.9-0.38,1.18-0.77c0.32-0.22,0.72-0.3,1.38-0.3h0.11c0.02,0,0.02,0,0.03,0
			c0.03,0,0.06,0,0.1,0c0.11,0,0.22,0,0.35,0h0.16h0.27c0.5,0,1.01-0.03,1.54-0.24c0.34-0.13,0.64-0.35,0.86-0.64
			c0.24-0.24,0.58-0.27,1.23-0.3c0.59-0.03,1.07-0.06,1.55-0.29c0.29-0.13,0.54-0.34,0.75-0.59c0.19-0.14,0.48-0.22,0.82-0.32
			c0.22-0.06,0.53-0.14,0.8-0.27c0.29-0.13,0.54-0.34,0.75-0.58c0.21-0.16,0.51-0.26,0.86-0.35c0.26-0.08,0.51-0.14,0.7-0.22
			c0.32-0.13,0.61-0.35,0.83-0.62c0.45-0.34,1.07-0.34,1.49-0.34c0.03,0,0.06,0,0.1,0c0.16,0,0.32,0,0.5,0c0.16,0,0.27,0,0.38,0
			c0.48,0,1.06-0.03,1.62-0.3c0.29-0.14,0.53-0.34,0.74-0.58c0.21-0.21,0.54-0.26,1.25-0.29c0.51-0.03,0.93-0.06,1.34-0.21
			c0.37-0.13,0.7-0.37,0.94-0.67c0.21-0.16,0.5-0.24,0.82-0.34c0.29-0.08,0.56-0.16,0.83-0.29c0.29-0.13,0.53-0.32,0.72-0.56
			c0.19-0.16,0.5-0.24,0.83-0.34c0.3-0.1,0.64-0.19,0.94-0.35c0.22-0.13,0.43-0.29,0.61-0.48c0.3-0.26,0.69-0.35,1.38-0.35
			c0.16,0,0.3,0,0.45,0c0.19,0,0.37,0.02,0.51,0.02c0.48,0,1.04-0.03,1.58-0.27c0.32-0.13,0.59-0.35,0.8-0.61
			c0.45-0.3,0.98-0.32,1.78-0.32h0.14h0.02c0.05,0,0.08,0,0.13,0c0.19-0.02,0.38-0.02,0.59-0.02c0.27,0,0.54,0,0.82,0.02
			c0.29,0.02,0.58,0.02,0.86,0.02c0.91,0,1.97-0.08,3.01-0.62c0.64,0.32,1.12,0.54,1.73,0.54c0.16,0,0.38-0.03,0.54-0.06
			c0.45-0.11,0.85-0.37,1.12-0.72c0.27-0.24,0.64-0.29,1.3-0.32c0.4-0.02,0.75-0.05,1.09-0.13c0.46-0.11,0.88-0.38,1.17-0.77
			c0.38-0.26,0.82-0.3,1.42-0.3h0.02c0.05,0,0.13,0,0.16,0c0.14,0,0.29,0,0.43,0h0.13h0.14c0.58,0,1.12-0.02,1.7-0.27
			c0.27-0.13,0.53-0.3,0.72-0.54c0.51-0.38,0.93-0.82,1.26-1.28c0.13-0.11,0.24-0.22,0.34-0.37c1.1-1.52,0.18-2.99-0.45-3.97
			l-0.1-0.16c0.02-0.16,0.08-0.3,0.19-0.43c0.3-0.08,0.66-0.1,1.02-0.1c0.56,0,1.04-0.02,1.52-0.18c0.38-0.13,0.72-0.35,0.96-0.67
			c0.34-0.21,0.72-0.32,1.17-0.46c0.45-0.13,0.94-0.27,1.41-0.54c0.21-0.02,0.4-0.06,0.61-0.14c0.8-0.32,1.33-0.88,1.66-1.3
			c0.03-0.02,0.03-0.03,0.08-0.06c0.46-0.4,0.8-0.82,1.04-1.3c0.22-0.43,0.27-0.94,0.16-1.42c-0.27-1.12-0.22-2.32-0.18-3.57
			c0.08-1.95,0.16-3.95-0.96-5.87c-0.64-1.66-0.34-2.02-0.32-2.03c0.08-0.08,0.3-0.11,0.5-0.11c0.42,0,0.86,0.11,1.18,0.21
			c0.08,0.08,0.18,0.14,0.27,0.21c0.35,0.24,0.91,0.56,1.6,0.56c0.14,0,0.29-0.02,0.43-0.05c0.05-0.02,0.1-0.02,0.16-0.03
			c0.29-0.08,0.56-0.22,0.82-0.43c0.46-0.38,0.75-0.94,0.77-1.55c0.02-0.27,0-0.54-0.02-0.82c-0.02-0.16-0.03-0.34-0.1-0.5
			c-0.37-1.22-1.07-2.21-1.78-3.1c-0.03-0.05-0.06-0.08-0.11-0.13c-0.4-0.51-0.42-0.9,0.02-1.41c0.1-0.1,0.19-0.21,0.27-0.32
			c0.38-0.56,0.53-1.17,0.67-1.71c0.1-0.38,0.18-0.69,0.37-1.06c0.06-0.06,0.13-0.11,0.22-0.14c0.4-0.13,0.75-0.38,1.02-0.7
			c0.93-1.2,1.28-2.3,1.07-3.37c-0.26-1.3-1.31-2.4-3.25-3.37c-4.69-2.38-6.17-6.65-7.74-11.18c-0.62-1.78-1.26-3.61-2.11-5.34
			c-0.18-0.35,0.14-0.75,0.58-0.98c0.45-0.22,0.88-0.34,1.3-0.34c0.48,0,0.91,0.16,1.26,0.46l0.96,0.8c2.3,1.92,4.48,3.71,5.33,6.41
			c1.14,3.55,3.76,4.65,6.37,5.47c0.19,0.06,0.38,0.13,0.58,0.21c0.83,0.3,1.31,0.45,1.82,0.45c0.16,0,0.35-0.02,0.5-0.05
			c0.21-0.05,0.4-0.13,0.59-0.22c0.38-0.22,0.7-0.58,0.98-1.04c0.22-0.38,0.53-0.77,0.83-1.15c1.01-1.26,2.4-3.01,0.7-5.37
			c-2.78-3.9-4.25-8.3-5.77-13.24c-0.67-2.18-0.93-3.21-0.02-4.81c0.75-1.31,0.94-2.61,0.56-3.73c-0.27-0.78-0.98-1.86-2.78-2.59
			c-2.22-0.9-3.23-2.7-3.09-5.52c0.42-7.96-1.81-15.07-4.16-22.58l-0.05-0.16c-0.53-1.68-1.07-3.42-1.57-5.15
			c-1.57-5.41-2.81-12.41,1.55-18.58c3.23-4.57,2.27-9.28,1.33-13.83c-0.11-0.54-0.22-1.07-0.32-1.62c-0.1-0.53-0.42-1.01-0.86-1.33
			c-0.08-0.05-0.16-0.1-0.26-0.14C386.51,67.7,386.19,67.62,385.86,67.62L385.86,67.62z"/>
	</g>
</g>
<g>
	<text transform="matrix(1 0 0 1 287.2269 155.4637)" class="st4 st2 st5">100</text>
</g>
<text transform="matrix(1 0 0 1 259.264 191.66)" class="st4 st2 st6">WISCONSIN</text>
<text transform="matrix(1 0 0 1 237.7222 46.374)" class="st1 st2 st3">Jeffrey DAHMER</text>
<g>
	<text transform="matrix(1 0 0 1 233.1001 317.8427)" class="st1 st2 st3">DENNIS Rader</text>
</g>
<path class="st8" d="M192.25,458.98c0.02,0.1,0.02,0.19,0.05,0.27h0.24L417,459.28v-0.24l0.02-17.4c0-20.42,0.02-41.55,0.18-62.32
	c0.02-1.79-0.4-2.96-1.47-3.93c-0.37-0.32-0.8-0.62-1.33-0.93c-1.57-0.62-2.08-1.97-2.45-2.96c-0.08-0.22-0.16-0.43-0.24-0.61
	c-1.55-0.77-1.81-2.27-1.98-3.29c-0.1-0.59-0.19-1.1-0.45-1.33l-0.94-1.01c-0.48-0.59-0.82-0.98-1.15-1.28
	c-0.03-0.03-0.05-0.05-0.08-0.08l-0.99-0.99c-0.02-0.02-0.03-0.03-0.03-0.03l-1.01-1.01c-0.13-0.1-0.24-0.22-0.34-0.37
	c-0.05-0.08-0.08-0.16-0.11-0.24c-1.3-3.47-0.46-6.57,2.46-9.23c0.42-0.62,0.98-1.12,1.49-1.55c1.26-1.09,1.52-1.38,0.8-2.46
	c-0.03-0.03-0.05-0.06-0.08-0.11l0,0c-0.82-1.31-1.41-1.46-2.17-1.28c-2.89,0.69-5.09-0.62-6.51-1.74c-0.05-0.03-0.1-0.06-0.13-0.11
	c-0.02-0.02-0.03-0.03-0.06-0.05c-0.35-0.35-0.72-0.72-1.07-1.07c-0.02-0.02-0.03-0.03-0.06-0.06l-0.3-0.3
	c-0.24-0.24-0.5-0.5-0.74-0.74c-0.8-0.5-1.5-1.14-2.08-1.89c-0.26,0.03-0.53,0.05-0.78,0.08s-0.51,0.06-0.78,0.08
	c-2.49,0.26-5.01,0.32-7.37,0.29c-63.25-0.03-126.5-0.03-189.77,0c-0.46,0.03-1.07-0.03-1.62-0.06c-0.9-0.05-1.78-0.1-2.57,0.02
	c-0.32,0.05-0.62,0.11-0.93,0.21c-0.02,0.05-0.02,0.1-0.02,0.14c-0.1,0.5-0.1,1.06-0.1,1.66v0.56c0,37.68,0,75.36,0.02,113.05
	c0,0.29-0.02,0.58-0.03,0.85C192.17,458.16,192.19,458.59,192.25,458.98z"/>
<g>
	<text transform="matrix(1 0 0 1 275.9177 405.9313)" class="st4 st2 st5">76 </text>
</g>
<text transform="matrix(1 0 0 1 265.8503 440.5514)" class="st4 st2 st6">Kansas</text>
<g>
	<text transform="matrix(1 0 0 1 598.0107 317.8417)" class="st1 st2 st3">ED GEIN</text>
</g>
<path class="st9" d="M548.09,460.11c-0.27-0.27-0.54-0.53-0.8-0.82c-0.29-0.4-0.54-0.82-0.77-1.25c-1.38-8.48-1.73-15.96-1.06-22.84
	c0.46-1.04,1.44-1.68,2.56-2.43c0.11-0.06,0.19-0.16,0.27-0.24l0,0c0.34-0.35,0.69-0.7,1.06-1.06c0.05-0.03,0.1-0.08,0.14-0.13
	l0.02-0.02c0.32-0.35,0.67-0.69,1.01-1.02c0.13-0.1,0.24-0.21,0.34-0.34c0.05-0.06,0.08-0.13,0.11-0.21
	c0.27-0.56,0.8-0.85,1.65-1.28c0.46-0.24,0.99-0.51,1.49-0.9c0.34-0.05,0.75-0.03,1.17-0.02c0.98,0.05,2.3,0.1,3.5-0.78
	c0.06-0.05,0.14-0.1,0.19-0.16c0.14-0.14,0.26-0.32,0.34-0.5c1.06-2.25,3.1-3.05,5.47-3.98c1.7-0.67,3.45-1.36,4.91-2.65
	c0.08-0.08,0.16-0.16,0.22-0.26c0.26-0.26,0.51-0.51,0.77-0.77c0.06-0.03,0.13-0.08,0.18-0.13c0.27-0.24,0.58-0.45,0.88-0.64
	c0.78-0.53,1.74-1.18,2.32-2.35c0.08-0.18,0.13-0.37,0.13-0.58c0-1.01,0.3-1.84,0.9-2.54c0.11-0.14,0.21-0.29,0.26-0.46
	c0.08-0.24,0.19-0.46,0.35-0.64c0.02-0.02,0.02-0.02,0.03-0.03c0.06-0.08,0.35-0.16,0.59-0.22c0.53-0.16,1.25-0.37,1.82-1.01
	c0.02-0.03,0.05-0.05,0.06-0.08l0.13-0.13c0.3-0.3,0.61-0.61,0.93-0.9c0.05-0.05,0.1-0.1,0.14-0.16c0.35-0.35,0.7-0.7,1.06-1.04
	c0.05-0.05,0.1-0.1,0.14-0.14c0.29-0.29,0.56-0.58,0.86-0.85c0.05-0.03,0.11-0.08,0.16-0.13c0.78-0.77,1.9-1.14,3.09-1.52
	c1.34-0.43,2.86-0.91,4.08-2.1c0.08-0.06,0.14-0.14,0.19-0.24c0.26-0.26,0.51-0.53,0.78-0.77c0.13-0.08,0.24-0.19,0.34-0.32
	c0.4-0.56,0.77-1.14,1.12-1.73c0.42-0.67,0.8-1.3,1.25-1.86l0.02-0.02c0.24-0.26,0.5-0.51,0.75-0.75l0.14-0.14
	c0.1-0.08,0.19-0.18,0.27-0.29c0.1-0.14,0.18-0.3,0.22-0.46c0.88-2.91,0.77-5.82,0.66-8.64c-0.06-1.6-0.11-3.1,0-4.61
	c0.02-0.38,0-0.75-0.05-1.12c-0.03-0.29-0.1-0.58-0.16-0.86c0.11-0.05,0.24-0.1,0.35-0.14c0.19-0.1,0.35-0.24,0.48-0.4l0.8-1.07
	c0.13-0.18,0.21-0.37,0.26-0.59c0.34-2,1.54-3.49,3.26-5.1c0.21-0.19,0.34-0.45,0.4-0.72c0.51-2.59-0.35-4.77-2.56-6.48
	c-0.82-1.65-0.74-2.99,0.29-4.37c0.06-0.1,0.11-0.18,0.16-0.29c0.37-0.9,0.34-1.78,0.29-2.56c-0.05-0.8-0.03-1.22,0.16-1.54
	c0.06-0.06,0.14-0.13,0.19-0.19c0.45-0.56,0.62-1.17,0.77-1.65c0.06-0.21,0.11-0.42,0.18-0.56c0.18-0.13,0.32-0.3,0.42-0.53
	c0.35-0.82,0.53-1.65,0.69-2.46c0.29-1.44,0.51-2.35,1.34-3.01c0.08-0.06,0.16-0.14,0.22-0.24c0.13-0.06,0.34-0.13,0.51-0.18
	c0.5-0.14,1.17-0.35,1.73-0.91l0,0c0.45-0.27,1.04-0.26,1.95-0.21c1.15,0.06,2.59,0.14,3.89-0.86c0.08-0.06,0.16-0.14,0.22-0.22
	c0.14-0.05,0.35-0.1,0.5-0.11c0.66-0.13,1.66-0.34,2.32-1.33c0.93-1.36,1.26-2.81,1.52-4.25c0.16-0.13,0.34-0.24,0.51-0.37
	c3.37,0.02,6.76,0.02,10.14,0.02h5.07h13.96h27.91h7.28c6.78,0.02,13.56,0.02,20.36-0.05c0.48,0,0.88,0.03,1.33,0.08
	c0.96,0.08,2.08,0.18,3.2-0.1h0.02c0.11,0.54,0.22,1.09,0.34,1.65c0.88,4.32,1.73,8.38-0.99,12.22c-4.88,6.89-3.55,14.51-1.86,20.36
	c0.51,1.79,1.07,3.57,1.63,5.34c2.3,7.34,4.48,14.27,4.08,21.86c-0.24,4.67,2.24,6.68,4.37,7.55c0.61,0.24,1.38,0.67,1.6,1.34
	c0.22,0.67-0.1,1.46-0.4,2.02c-1.39,2.45-0.83,4.3-0.16,6.45c1.57,5.12,3.1,9.69,6.06,13.85c0.7,0.99,0.51,1.42-0.64,2.86
	c-0.35,0.45-0.72,0.91-1.02,1.42c-0.13,0.22-0.21,0.27-0.21,0.27c-0.18,0.03-0.75-0.18-1.09-0.3c-0.24-0.1-0.48-0.18-0.74-0.26
	c-2.72-0.86-4.24-1.73-5.01-4.13c-1.04-3.28-3.55-5.36-5.98-7.37l-0.94-0.78c-1.31-1.12-3.13-1.26-4.85-0.4
	c-1.54,0.77-2.17,2.38-1.49,3.74c0.78,1.6,1.38,3.29,2.02,5.1c1.63,4.72,3.33,9.6,8.76,12.36c1.28,0.66,2.02,1.31,2.14,1.92
	c0.1,0.53-0.27,1.17-0.67,1.7c-0.54,0.18-1.01,0.51-1.34,1.01c-0.37,0.66-0.5,1.2-0.62,1.66c-0.13,0.48-0.21,0.82-0.37,1.04
	c-0.03,0.03-0.08,0.06-0.11,0.11c-1.1,1.3-1.12,2.8-0.05,4.13c0.02,0.02,0.03,0.05,0.05,0.06c0.67,0.86,1.17,1.62,1.42,2.43
	c0.02,0.21,0.02,0.42,0,0.62c-0.06,0.05-0.1,0.06-0.1,0.06s-0.11,0.02-0.45-0.21c-0.16-0.19-0.37-0.34-0.62-0.42
	c-0.7-0.21-2.81-0.86-4,0.42c-1.09,1.17-0.56,2.99-0.08,4.25c0.03,0.06,0.06,0.14,0.1,0.21c0.83,1.41,0.77,2.97,0.7,4.78
	c-0.05,1.34-0.11,2.73,0.22,4.13c-0.11,0.22-0.29,0.43-0.53,0.64c-0.05,0.03-0.08,0.06-0.13,0.1c-0.08,0.06-0.14,0.14-0.21,0.22
	c-0.29,0.35-0.54,0.58-0.83,0.69c-0.29-0.02-0.58,0.06-0.78,0.21c-0.26,0.18-0.62,0.29-1.06,0.42c-0.59,0.18-1.25,0.37-1.87,0.82
	c-0.13,0.1-0.24,0.19-0.32,0.32c-0.18,0.06-0.43,0.06-0.9,0.08c-0.54,0-1.23,0.02-1.9,0.29c-0.14,0.06-0.29,0.14-0.4,0.26
	c-0.67,0.62-1.01,1.42-0.96,2.35c0.02,0.22,0.08,0.45,0.19,0.64l0.22,0.37c0.66,1.04,0.75,1.31,0.53,1.62
	c-0.13,0.08-0.22,0.19-0.32,0.34c-0.22,0.34-0.53,0.64-0.91,0.91c-0.11,0.08-0.21,0.18-0.29,0.27c-0.18,0.08-0.45,0.1-0.99,0.1
	c-0.22,0-0.43,0-0.64,0.02c-0.88,0-1.9,0.06-2.86,0.78c-0.13,0.1-0.22,0.21-0.32,0.34c-0.16,0.03-0.38,0.05-0.72,0.06
	c-0.75,0.03-1.81,0.08-2.67,0.93c-0.05,0.05-0.11,0.11-0.14,0.18c-0.13,0.03-0.35-0.05-0.96-0.37c-0.16-0.08-0.4-0.16-0.58-0.18
	l-0.27-0.02c-0.29-0.02-0.58,0.05-0.82,0.19c-0.83,0.51-1.81,0.48-2.96,0.45c-0.53-0.02-1.06-0.03-1.58,0h-0.16
	c-0.93,0-2.06,0-3.12,0.82c-0.11,0.08-0.19,0.18-0.27,0.29c-0.26,0.11-0.62,0.11-1.23,0.1c-0.94-0.03-2.22-0.06-3.31,0.91
	c-0.05,0.05-0.1,0.1-0.14,0.14c-0.13,0.06-0.34,0.13-0.56,0.19c-0.51,0.14-1.14,0.32-1.7,0.83c-0.06,0.06-0.13,0.13-0.18,0.19
	c-0.13,0.06-0.32,0.11-0.53,0.18c-0.5,0.14-1.12,0.32-1.68,0.82c-0.08,0.06-0.14,0.14-0.21,0.22c-0.14,0.05-0.37,0.06-0.75,0.1
	c-0.77,0.03-1.81,0.1-2.67,0.96c-0.03,0.03-0.06,0.08-0.11,0.13c-0.18,0.08-0.45,0.11-0.99,0.1c-0.24,0-0.46,0-0.69,0.02
	c-0.61,0-1.84,0-2.88,0.85c-0.1,0.08-0.18,0.16-0.24,0.26c-0.13,0.05-0.3,0.1-0.48,0.16c-0.51,0.14-1.14,0.32-1.7,0.82
	c-0.08,0.06-0.14,0.14-0.21,0.21c-0.13,0.06-0.32,0.11-0.51,0.16c-0.5,0.14-1.12,0.32-1.66,0.8c-0.08,0.06-0.14,0.14-0.21,0.22
	c-0.11,0.05-0.34,0.08-0.78,0.1c-0.77,0.03-1.81,0.08-2.65,0.96c-0.05,0.05-0.08,0.08-0.11,0.13c-0.21,0.08-0.5,0.1-1.01,0.08
	c-0.21,0-0.43,0-0.64,0.02c-0.85-0.02-1.9,0.06-2.86,0.8c-0.13,0.1-0.22,0.21-0.3,0.34c-0.16,0.03-0.38,0.05-0.7,0.06
	c-0.77,0.03-1.81,0.08-2.67,0.93c-0.7,0.37-1.5,0.34-2.67,0.26c-0.75-0.05-1.52-0.11-2.32,0h-0.13c-0.93,0-2.06,0-3.12,0.82
	c-0.06,0.05-0.13,0.11-0.19,0.18c-0.21,0.1-0.46,0.19-0.72,0.3c-0.88,0.34-2.06,0.8-2.78,2.02c-0.02,0.02-0.03,0.03-0.03,0.05
	c-0.48,0.56-0.66,1.17-0.78,1.66c-0.06,0.21-0.11,0.4-0.18,0.53c-0.11,0.08-0.21,0.18-0.29,0.29c-0.27,0.37-0.64,0.72-0.99,1.02
	c-0.1,0.08-0.18,0.18-0.24,0.29c-0.29,0.29-0.56,0.59-0.9,0.83c-0.16,0.11-0.29,0.27-0.37,0.43c-0.27,0.26-0.53,0.43-0.8,0.53
	c-1.17,0.13-2.17,0.61-3.02,1.41c-2.51,0.14-4.62,1.23-6.73,2.45c-2.43,1.41-3.9,1.39-5.42-0.08c-1.92-1.86-4.25-2.14-6.75-0.83
	c-0.34,0.18-0.59,0.5-0.69,0.88c-0.1,0.37-0.02,0.77,0.21,1.09c1.31,1.87,2.3,4,3.28,6.06c0.96,2.08,1.97,4.22,3.31,6.17
	c-1.17,0.82-2.43,0.66-4.49-0.42c-9.88-5.18-18.42-8.38-26.88-10.06c-0.35-0.06-0.72-0.19-1.1-0.3c-1.44-0.43-3.39-1.04-4.69,0.45
	c-0.93,1.07-1.94,1.15-3.61,1.18c-0.59,0.02-1.22,0.06-1.82,0.14c-0.22,0.03-0.45,0.05-0.67,0.1c-0.24-0.11-0.48-0.29-0.75-0.58
	c-0.38-0.64-0.83-1.25-1.34-1.79c-0.13-0.14-0.29-0.26-0.46-0.32c-1.07-0.45-1.15-0.94-0.99-2.7c0.05-0.56,0.1-1.14,0.06-1.71
	c-0.18-2.4-0.1-4.89-0.03-7.29c0.11-3.79,0.22-7.69-0.56-11.59c0-0.21-0.05-0.42-0.16-0.59c-0.08-0.16-0.21-0.3-0.34-0.42
	c-0.3-0.29-0.61-0.59-0.91-0.9c-0.05-0.06-0.1-0.14-0.16-0.21c-0.58-0.59-1.28-0.8-1.79-0.94c-0.19-0.06-0.4-0.11-0.53-0.18
	c-0.02-0.03-0.05-0.05-0.06-0.08c-0.58-0.58-1.26-0.78-1.78-0.93c-0.22-0.06-0.45-0.13-0.58-0.21c-0.03-0.03-0.05-0.06-0.08-0.08
	c-0.34-0.3-0.66-0.62-0.98-0.94c-0.05-0.06-0.1-0.13-0.14-0.19c-0.58-0.61-1.3-0.82-1.81-0.98c-0.19-0.05-0.38-0.11-0.51-0.18
	c-0.02-0.03-0.05-0.05-0.06-0.08c-0.58-0.59-1.28-0.78-1.79-0.94c-0.21-0.06-0.43-0.13-0.54-0.19c-0.08-0.08-0.16-0.16-0.27-0.24
	c-0.03-0.02-0.05-0.03-0.08-0.05c-0.83-0.48-1.46-1.1-1.89-1.9c-0.1-0.16-0.21-0.3-0.34-0.4c-0.05-0.14-0.06-0.38-0.1-0.77
	c-0.03-0.75-0.1-1.9-1.07-2.77c-0.02-0.02-0.03-0.03-0.06-0.05c-0.3-0.29-0.59-0.58-0.88-0.88c-0.05-0.06-0.1-0.13-0.16-0.19
	c-0.37-0.34-0.72-0.67-1.04-1.04c-0.54-0.88-0.69-1.81-0.46-2.91c0.43-0.75,1.22-1.26,2.11-1.84c1.22-0.8,2.59-1.71,3.29-3.44
	c0,0,0-0.02,0.02-0.02c0.14-0.26,0.34-0.51,0.51-0.77c0.78-1.1,2.11-2.94,0.5-5.28C548.38,460.33,548.25,460.21,548.09,460.11z"/>
<g>
	<text transform="matrix(1 0 0 1 615.2626 426.4196)" class="st4 st2 st5">54</text>
</g>
<text transform="matrix(1 0 0 1 577.8115 462.6144)" class="st4 st2 st6">WISCONSIN</text>
<path class="st10" d="M224.86,697.86c-0.1,0.06-0.21,0.11-0.32,0.16c-0.26,0.08-0.5,0.14-0.74,0.18c-0.08,0.08-0.16,0.16-0.22,0.24
	c-0.06,1.26-0.37,2.4-0.69,3.31c-0.02,0.05-0.03,0.11-0.05,0.16v0.02c-1.04,2.53-1.01,4.89,0.14,7.26c0.53,0.94,0.48,2.02,0.45,2.88
	c-0.03,0.83-0.03,1.25,0.19,1.57c0.14,0.11,0.26,0.24,0.35,0.42c0.06,0.11,0.11,0.22,0.13,0.34c0.27,0.96,0.43,1.94,0.58,2.88
	c0.19,1.22,0.38,2.37,0.82,3.41c0.37,0.06,0.7,0.27,0.91,0.61l0.82,1.3c0.27,0.42,0.27,0.96,0.03,1.39
	c-0.08,0.14-0.21,0.22-0.32,0.34c0.54,2.19,0.83,2.88,2.85,2.64c0.27-0.03,0.56,0.02,0.8,0.14c3.47,1.84,5.45,4.88,6.78,7.31
	c1.15,2.61,3.01,4.46,5.76,5.76c0.05,0.03,0.11,0.06,0.16,0.1c2.93,1.9,4.05,4.78,5.15,7.56l0.4,1.01c0.06,0.18,0.11,0.37,0.1,0.56
	c-0.1,3.23,0.27,5.87,1.12,8.3c0.7,2,1.04,2.46,1.2,2.56c0.06-0.03,0.59-0.24,2.19-1.55c1.9-1.55,3.95-1.28,5.71-0.8
	c0.46,0.13,0.94,0.3,1.41,0.5c1.23,0.48,1.95,0.72,2.78,0.34c0.34-0.16,0.72-0.18,1.06-0.05c2.35,0.86,3.82,2.27,4.49,4.3
	c0.14,0.45,0.05,0.94-0.26,1.31c-0.19,0.24-0.24,0.35-0.02,0.7c0.26,0.42,0.29,0.93,0.06,1.36l-1.95,3.87
	c-0.14,0.27-0.37,0.5-0.66,0.62c-0.14,0.16-0.13,0.54-0.11,0.78c0.05,0.75,0.11,1.9-0.8,2.8c-0.21,0.27-0.32,0.85-0.46,1.5
	c-0.11,0.5-0.22,1.04-0.45,1.6c-0.03,1.38-0.3,2.88-1.79,3.93c-0.13,0.1-0.29,0.18-0.45,0.21c-0.02,0.06-0.05,0.16-0.06,0.22
	c-0.05,0.14-0.08,0.27-0.13,0.42c0.05,1.49-0.64,2.32-1.3,2.8c-1.02,0.98-1.07,1.73-0.16,2.83c0.62,0.78,1.18,1.6,1.74,2.4
	c1.23,1.78,2.38,3.44,4.01,4.67c0.27,0.21,0.45,0.5,0.51,0.82c0.22,0.1,0.5,0.21,0.77,0.43c0.19,0.14,0.34,0.34,0.42,0.54
	c0.14,0.18,0.3,0.32,0.48,0.46c0.22,0.1,0.42,0.27,0.56,0.48c0.13,0.19,0.21,0.4,0.22,0.62c0.18,0.86,0.59,1.47,1.22,1.89
	c0.21-0.22,0.48-0.38,0.8-0.42c2.38-0.3,3.34,1.07,3.69,1.92c0.18,0.43,0.13,0.91-0.13,1.3c-0.08,0.13-0.21,0.21-0.34,0.3
	c0.03,0.03,0.05,0.06,0.08,0.1c0.58,0.27,1.26,0.45,2.13,0.66c1.39,0.34,2.97,0.7,4.19,1.86c0.06,0.05,0.11,0.11,0.18,0.16
	c0.05,0.05,0.08,0.11,0.13,0.16c0.38,0.58,0.7,1.18,1.04,1.79c0.85,1.55,1.57,2.89,3.12,3.68c2.8,1.41,2.73,3.97,2.67,5.82
	c-0.03,1.07-0.06,2.06,0.37,2.72c0.48,0.54,0.62,1.33,0.74,1.92c0.06,0.35,0.11,0.56,0.18,0.69c0.16,0.11,0.32,0.27,0.42,0.45
	c0.03,0.05,0.05,0.1,0.06,0.14c0.96,2.19,0.93,4.32-0.1,6.3c-0.05,0.1-0.11,0.19-0.19,0.27l-0.91,1.04
	c-0.75,0.98-0.62,1.15,0.64,2.29c0.72,0.64,1.52,1.36,1.86,2.41c0.03,0.1,0.05,0.21,0.06,0.3c0.43,1.79,1.26,3.05,2.53,3.85
	c0.99,0.42,2.14,0.51,3.47,0.32c0.21-0.26,0.46-0.45,0.78-0.51c0.02,0,0.03,0,0.03-0.02c0-0.02,0.03-0.06,0.05-0.19
	c0.13-0.53,0.56-0.94,1.09-1.04c0.03-0.14,0.21-0.37,0.27-0.5c2.35-4.51,6.52-4.67,9.88-4.33c0.34,0.03,0.64,0.19,0.86,0.43
	c0.32,0.35,0.69,0.64,1.07,0.93c2.27,0.96,4.4,2.14,6.48,3.31c1.78,1.01,2.61,1.07,3.49,0.29c0.91-0.82,1.09-1.87,0.62-3.68
	c-0.11-0.46-0.3-0.93-0.48-1.38c-0.35-0.91-0.72-1.94-0.77-3.07c-0.22-0.8-0.42-1.62-0.53-2.48c-0.05-0.37,0.05-0.74,0.27-1.02
	c0.22-0.29,0.56-0.48,0.93-0.51c0.22-0.02,0.45-0.03,0.67-0.05c0.4-0.03,0.69-0.06,0.91-0.11c0.29-0.21,0.58-0.38,0.86-0.54
	c0-0.02,0.02-0.02,0.02-0.03c0.21-0.4,0.59-0.67,1.04-0.72c0.13-0.56,0.59-1.04,1.15-1.14c0.02,0.02,0.06-0.03,0.1-0.18
	c0.14-0.62,0.69-1.06,1.31-1.07l4.57-0.06c0.38-0.11,0.75-0.24,1.07-0.45c0.67-0.56,0.91-1.22,0.05-2.97
	c-0.7-1.41-0.91-2.64-0.82-3.73c0.05-1.47,0.59-2.88,1.23-4.16c0.18-0.35,0.5-0.62,0.9-0.72c0.13-0.03,0.18-0.06,0.18-0.06
	c0.06-0.43,0.35-0.82,0.74-1.02c0.02-0.24,0.02-0.5,0-0.77c-0.58-0.54-0.98-1.15-1.14-1.82c-0.24-0.96-0.05-1.97,0.58-2.97
	c0.51-0.99,0.67-2.17,0.85-3.42c0.22-1.65,0.46-3.49,1.62-5.13c0.02-0.02,0.02-0.03,0.03-0.05l0.02-0.02c0,0,0-0.02,0.02-0.02l0,0
	c0.06-0.08,0.14-0.16,0.22-0.22c0.64-0.56,0.61-1.18,0.37-2.62c-0.21-1.26-0.48-2.83,0.5-4.27c0.06-0.13,0.16-0.26,0.27-0.35
	c0.08-0.08,0.18-0.14,0.29-0.21c1.81-1.02,3.21-2.41,4.25-4.21c0.05-0.1,0.1-0.18,0.14-0.26c0.03-0.05,0.06-0.08,0.1-0.11
	c1.57-1.71,2.62-3.79,3.74-5.98c1.17-2.3,2.41-4.64,4.27-6.64c0.34-0.94,0.62-1.9,0.85-2.88c-0.54-1.89-0.53-3.79-0.46-5.65
	c0.05-1.41,0.08-2.73-0.14-4.01c-0.19-0.21-0.4-0.42-0.62-0.61c-0.18-0.11-0.32-0.26-0.45-0.43c-0.11-0.18-0.18-0.35-0.21-0.54
	c-0.11-0.5-0.37-1.01-0.64-1.57c-0.64-1.33-1.52-3.15-0.51-5.28c0-0.02,0.02-0.03,0.02-0.03c0.42-0.9,0.4-2.06,0.38-3.29
	c-0.03-2.13-0.08-4.73,2.35-6.6c0.3-17.24,0.27-34.77,0.24-51.72c-0.02-13.18-0.05-26.8,0.1-40.21c0-0.34-0.1-0.8-0.21-1.3
	c-0.24-1.14-0.66-3.12,0.54-4.56c-0.21-1.09-0.46-2.13-0.8-3.12c-0.96-1.94-1.46-4.03-1.95-6.05c-0.64-2.67-1.25-5.2-2.83-7.15
	c-3.42-4.22-4.62-8.89-3.89-15.16c0.11-0.96,0.03-1.97-0.05-3.04c-0.02-0.19-0.03-0.4-0.05-0.59c0-0.1-0.02-0.19-0.02-0.29
	c-0.74-0.37-1.6-0.32-2.83-0.21c-0.54,0.05-1.09,0.1-1.62,0.1c-6.92-0.06-13.83-0.05-20.76-0.05h-7.44h-28.51h-14.27h-5.18
	c-3.36,0-6.7,0-10.06,0.02c0.16,0.16,0.3,0.32,0.46,0.46c0.06,0.05,0.13,0.1,0.19,0.16l0,0c0.02,0.02,0.05,0.05,0.06,0.08
	c0.29,0.34,0.61,0.67,0.94,0.98c0.03,0.03,0.08,0.06,0.11,0.1c0.61,0.53,1.33,0.96,2.08,1.42c0.42,0.26,0.85,0.51,1.26,0.78
	c0.16,0.08,0.3,0.18,0.43,0.3l0.02,0.02c1.01,1.1,0.96,2.41,0.94,3.39c-0.02,0.74-0.02,1.12,0.16,1.38l0.02,0.02
	c1.98,1.76,4.25,3.07,6.65,4.46l0.24,0.14c0.18,0.08,0.35,0.19,0.5,0.35c0.02,0.02,0.03,0.03,0.05,0.06
	c0.91,1.12,0.91,2.37,0.91,3.28c0,0.35,0,0.67,0.03,0.94c0.51,1.41,0.5,2.89-0.03,4.49c-0.05,0.38-0.03,0.85-0.02,1.33
	c0.05,1.09,0.1,2.41-0.72,3.68c-0.03,0.06-0.06,0.11-0.11,0.18c-0.02,0.02-0.02,0.03-0.03,0.03l-0.02,0.02l0,0
	c-0.05,0.06-0.11,0.13-0.18,0.18c-0.35,0.3-0.69,0.62-0.98,0.96c-0.03,0.03-0.05,0.06-0.08,0.1c-0.03,0.05-0.08,0.08-0.13,0.11
	c-0.35,0.3-0.69,0.64-0.99,0.98c-0.03,0.03-0.05,0.06-0.08,0.11l-0.3,0.34c-0.14,0.16-0.35,0.38-0.4,0.48
	c-0.88,6.35-4.73,10.49-12.09,12.99c-0.05,0.02-0.1,0.03-0.14,0.05c-0.4,0.16-0.8,0.35-1.2,0.54c-1.41,0.67-3.02,1.44-4.81,1.14
	c-4.67-0.8-7.28,0.86-8.67,5.57c-0.02,0.19-0.08,0.4-0.19,0.58c-0.03,0.03-0.05,0.08-0.08,0.11c-0.51,0.69-0.46,0.94,0.48,2.17
	c0.26,0.34,0.5,0.66,0.72,0.99c4.77,4.62,5.01,6.86,1.42,13.51c-0.03,0.1-0.08,0.19-0.14,0.27c-0.08,0.11-0.16,0.21-0.27,0.29
	c-0.32,0.27-0.61,0.56-0.88,0.86c-0.19,0.58-0.38,1.15-0.56,1.74c-1.28,4.08-2.73,8.7-8.62,9.84c-0.46,0.3-0.94,0.45-1.33,0.56
	c-0.19,0.06-0.42,0.11-0.54,0.18c-0.27,0.59-0.06,1.36,0.3,2.51C227.1,693.18,227.92,695.86,224.86,697.86z"/>
<g>
	<text transform="matrix(1 0 0 1 273.82 710.0679)" class="st4 st2 st5">50</text>
</g>
<text transform="matrix(1 0 0 1 263.8551 745.7466)" class="st4 st2 st6">Illinois</text>
<g>
	<text transform="matrix(1 0 0 1 221.0718 583.5916)" class="st1 st2 st3">jOHN WAYNE GACY</text>
</g>
<g>
	<text transform="matrix(1 0 0 1 548.0449 583.5935)" class="st1 st2 st3">The ZODIAC KILLER</text>
</g>
<path class="st11" d="M621.04,652.17l-0.02-4.62l-0.16-34.26c0,0,0,0.02-0.02,0.02c-0.16,0.26-0.4,0.51-0.61,0.77
	c-0.18,0.22-0.3,0.45-0.53,0.66c-0.13,1.02-0.5,2.53-1.71,3.73c-0.02,0.8-0.13,1.55-0.27,2.29c-0.27,1.3-0.72,2.49-1.23,3.61
	c-0.14,0.3-0.29,0.62-0.43,0.93c-0.02,0.42-0.02,0.83-0.02,1.25c0,0.11,0,0.24,0,0.37c0,1.6-0.08,3.55-1.25,5.28
	c-0.19,0.29-0.42,0.56-0.67,0.83c-0.08,1.18-0.42,2.77-1.78,3.9c-0.14,1.15-0.54,2.64-1.86,3.73c-0.14,1.09-0.53,2.51-1.73,3.58
	c0.02,0.96,0.14,1.94,0.27,2.97c0.16,1.31,0.32,2.67,0.29,4.05c0,0.02,0,0.02,0,0.03l-0.02,1.07c-0.03,2.83-0.08,7.12-4.49,9.45
	c-1.28,0.67-2.41,1.52-3.53,2.41c-1.9,1.55-3.66,3.36-5.45,5.26c-0.74,0.78-1.47,1.55-2.22,2.32c-1.07,1.92-2.85,2.46-4.11,2.61
	c-1.14,1.36-2.67,1.78-3.81,1.89c-0.27,0.34-0.56,0.59-0.86,0.83c-0.64,0.5-1.34,0.78-2.11,0.75c-0.64,0-1.25-0.21-1.82-0.59
	c-0.38-0.26-0.77-0.58-1.12-1.01l-3.25-0.03c-0.75,0.93-1.71,1.38-2.61,1.6c-0.03,0.61-0.13,1.14-0.27,1.65
	c-0.24,0.88-0.62,1.63-1.18,2.25c-1.04,1.15-2.45,1.6-3.93,1.81c-0.85,0.11-1.7,0.16-2.56,0.14c-0.26,0.86-0.45,1.79-0.66,2.73
	c-0.05,0.19-0.1,0.4-0.13,0.59c-0.3,1.36-0.64,2.73-1.18,4.08c-0.3,0.78-0.66,1.55-1.12,2.29c-0.03,0.34-0.06,0.66-0.1,0.99
	c-0.06,0.51-0.11,1.06-0.1,1.49c0,0.21,0.03,0.4,0.08,0.54c1.07,2.75,1.15,5.17,0.24,7.21c-1.28,2.88-4.19,4.38-6.68,5.36
	c-2,1.52-4.29,1.38-6.17-0.4c-0.35-0.34-0.58-0.77-0.62-1.25c-0.1-0.75-0.06-1.52,0.11-2.25l-0.11-2.22l-0.1-2.08l-0.37-0.35
	c-0.4,0.48-0.99,0.91-1.86,1.2l-1.01,1.07c-0.18,0.61-0.32,1.22-0.46,1.82c-0.13,0.51-0.26,1.04-0.4,1.58
	c-0.24,0.9-0.56,1.81-0.96,2.7c-0.48,1.09-1.09,2.14-1.98,3.1c-0.3,0.85-0.83,1.52-1.52,2.02l-0.05,1.66c0.74,0.98,1.26,2,1.62,3.01
	c0.45,1.25,0.64,2.49,0.48,3.66c-0.24,1.79-1.23,3.33-2.83,4.41c-1.3,0.88-1.9,2.14-2.61,3.6c-0.4,0.83-0.9,1.71-1.5,2.57
	c-0.22,0.34-0.43,0.67-0.7,0.98c-0.03,0.16-0.08,0.26-0.13,0.4c-0.86,3.49-3.34,4.27-5.45,4.38c-0.66,0.03-1.3,0.02-1.82,0
	c-0.3-0.02-0.61-0.03-0.91-0.03c-0.91,1.04-2.05,1.44-3.09,1.63c-0.29,0.05-0.56,0.1-0.83,0.11c0.86,3.04,1.52,6.68-0.75,9.9
	c-0.56,0.78-1.23,1.55-2.17,2.25c-0.93,1.81-0.16,3.2,1.33,5.57c0.18,0.29,0.35,0.58,0.53,0.86c0.58,0.54,1.14,1.1,1.66,1.68
	c0.62,0.56,1.22,1.14,1.74,1.73c1.55,1.33,1.63,3.1,1.7,4.29c0.03,0.61,0.06,1.02,0.18,1.25c0.66,0.61,1.3,1.23,1.89,1.89
	c1.74,1.7,2.49,3.77,3.15,5.63c0.27,0.75,0.54,1.5,0.88,2.22c0.64,0.94,1.25,1.92,1.84,2.89c1.74,2.83,3.39,5.52,6.14,7.1
	c0.3,0.11,0.58,0.27,0.8,0.51c0.21,0.21,0.37,0.46,0.46,0.74c0.32,0.69,0.98,0.96,2.45,1.42c0.83,0.27,1.78,0.59,2.65,1.12
	c0.72,0.43,1.41,1.01,1.94,1.86c0.37,0.34,0.75,0.62,1.18,0.88c0.1,0.05,0.18,0.11,0.27,0.18c0.69,0.56,1.07,1.18,1.33,1.82
	c0.35,0.88,0.45,1.78,0.48,2.46c0.02,0.45,0.05,0.94,0.16,1.17c1.02,1.12,1.3,2.43,1.54,3.49c0.13,0.58,0.22,1.07,0.42,1.41
	c0.61,0.51,1.12,1.04,1.58,1.57c1.79,0.86,3.39,2.11,4.94,3.31c4.05,3.15,6.57,4.85,10.76,2.35c1.07-1.12,2.43-1.36,3.34-1.52
	c0.3-0.05,0.62-0.11,0.83-0.18c0.8-0.85,1.62-1.36,2.4-1.66c1.39-0.54,2.72-0.37,3.9,0.06c0.96,0.34,1.81,0.83,2.51,1.25
	c0.4,0.24,0.78,0.46,1.18,0.67c1.01,0.22,2.11,0.06,3.37-0.13c0.38-0.06,0.77-0.11,1.15-0.16c3.44-2.35,7.21-3.26,11.27-2.7
	c0.4-0.4,0.8-0.78,1.22-1.15c0.11-0.22,0.14-0.66,0.16-1.25c0.06-1.22,0.14-3.05,1.81-4.4c0.05-0.03,0.08-0.06,0.13-0.1
	c1.9-1.58,4.16-1.54,6.05,0.16c1.23,0.67,2.38,0.59,3.77-0.24c0.3-0.18,0.64-0.27,0.99-0.29l0.56-0.02c0.66-0.02,1.15-0.03,1.55-0.1
	c-0.13-1.71,1.76-2.22,2.81-2.51c1.84-0.51,3.44,0.16,4.59,0.66c1.06,0.45,1.5,0.61,1.94,0.43c2.13-0.94,2.75-2.72,3.61-5.57
	c0.21-0.69,0.42-1.38,0.66-2.05c0.05-0.34,0.19-0.66,0.43-0.94c0.4-0.5,0.86-0.85,1.26-1.15c0.13-0.1,0.27-0.21,0.4-0.32
	c-2.08-3.47-0.51-6.33,0.64-8.43c0.38-0.69,0.74-1.34,0.96-1.97c0.03-0.21,0.1-0.42,0.19-0.61c0.05-0.1,0.1-0.18,0.16-0.27
	c0.43-0.64,0.83-1.3,1.23-1.95c0.74-1.23,1.5-2.49,2.51-3.68c0.42-0.61,0.8-1.25,1.2-1.89c0.69-1.15,1.41-2.32,2.33-3.44
	c0.96-1.71,2.27-3.07,3.9-4.06c0.46-0.85,0.82-1.79,1.2-2.77c0.29-0.77,0.59-1.52,0.93-2.27c1.2-3.52,3.36-6.64,5.45-9.66
	c1.86-2.69,3.61-5.23,4.75-8.09c0.06-0.22,0.16-0.45,0.3-0.66c0.06-0.1,0.14-0.19,0.24-0.29c1.42-1.5,1.76-3.49,2.14-5.79
	c0.27-1.62,0.54-3.28,1.25-4.91c0.7-1.52,1.57-2.56,2.59-3.17c0.08-0.05,0.16-0.08,0.24-0.11c0.3-0.16,0.62-0.3,0.96-0.38
	c1.44-0.35,2.93,0.06,4.48,1.18c0.06,0.03,0.11,0.08,0.18,0.13c0.03,0.03,0.06,0.05,0.1,0.08l0,0l0,0c0.67,0.56,1.33,1.2,1.94,1.9
	c0.99,0.9,1.31,2.02,1.55,2.85c0.1,0.3,0.19,0.64,0.29,0.83c2.33,1.78,4.96,2.45,8.01,2.06c2.22-2.51,3.82-5.65,4.97-9.8
	c0.02-0.43,0.16-0.88,0.48-1.23c0.64-0.74,1.31-1.42,2.02-2.03c0.54-0.64,1.17-1.26,1.87-1.87c0.11-0.21,0.14-0.64,0.18-1.25
	c0.05-1.17,0.13-2.91,1.63-4.24c0.1-0.19,0.18-0.51,0.27-0.78c0.26-0.88,0.59-2.08,1.73-3.01c0.02-0.02,0.05-0.03,0.06-0.05
	c1.95-1.71,4.3-1.65,6.25,0.19l0.02,0.02c0.19-0.21,0.4-0.38,0.59-0.58c0.4-0.42,0.82-0.82,1.23-1.2c1.76-1.55,3.69-2.83,5.57-4.09
	c2.96-1.97,5.76-3.84,7.74-6.54c1.82-3.21,4.38-5.82,7.56-7.77c0.43-0.9,0.4-1.95,0.32-3.49c-0.05-0.96-0.11-1.95,0.02-2.99
	c0.21-2.16,1.06-4.01,1.89-5.79c0.59-1.28,1.14-2.49,1.39-3.73c0-0.03,0.02-0.05,0.03-0.08c0.06-0.29,0.18-0.56,0.35-0.8
	c1.1-1.54,2.29-2.38,3.65-2.57c0.66-0.1,1.23,0,1.79,0.18c1.1,0.32,2.02,1.01,2.8,1.63c0.32,0.26,0.62,0.5,0.91,0.67
	c0.22,0.08,0.45,0.21,0.64,0.37c0.67,0.58,1.33,1.22,1.92,1.89c1.65,1.01,3.1,2.19,4.51,3.34c0.75,0.61,1.5,1.23,2.27,1.81
	c0.14,0.06,0.27,0.16,0.4,0.26c0.7,0.58,1.39,1.25,2.03,1.98c0.54,0.37,1.12,0.7,1.68,1.06c1.07,0.66,2.17,1.31,3.21,2.14
	c1.18-0.02,1.55-0.66,2.35-2.73c0.34-0.86,0.7-1.82,1.26-2.69c0.06-0.37,0.08-0.74,0.13-1.12c0.06-0.62,0.1-1.25,0.08-1.87
	c-0.03-1.73-0.35-3.42-0.99-5.12c-0.61-0.77-0.86-1.6-1.06-2.25c-0.08-0.26-0.18-0.61-0.27-0.77c-0.11-0.1-0.21-0.19-0.3-0.3
	c-0.22-0.29-0.48-0.56-0.75-0.83c-0.21-0.22-0.42-0.45-0.62-0.69c-0.05-0.03-0.08-0.06-0.13-0.1c-1.65-1.42-1.68-3.33-1.71-4.57
	c-0.02-0.56-0.03-0.98-0.11-1.25c-0.51-0.13-1.17-0.11-1.9-0.08c-1.47,0.06-3.42,0.13-5.18-1.22c-0.13-0.08-0.26-0.18-0.38-0.3
	l-0.32-0.32c-0.38-0.38-0.77-0.78-1.18-1.15c-0.06-0.03-0.13-0.08-0.18-0.13c-0.9-0.72-1.62-1.2-2.29-1.49
	c-0.8-0.35-1.54-0.4-2.37-0.05l-0.64,0.32c-0.3,0.14-0.62,0.27-0.93,0.42c0.02,0.37,0.02,0.75-0.02,1.17
	c-0.08,0.88-0.7,1.6-1.55,1.82c-0.02,0-0.77,0.11-0.77,0.11c-0.3,0.05-0.59,0.02-0.9-0.08l-0.51-0.16
	c-0.16-0.05-0.32-0.11-0.45-0.21c-1.54-0.94-2.38-0.88-3.15-0.34c-0.08,0.1-0.19,0.18-0.29,0.26c-0.4,0.29-0.78,0.64-1.18,1.09
	c-2.93,7.61-9.04,6.14-13.1,5.18c-0.53-0.13-1.06-0.26-1.58-0.37c-0.45,0.03-0.91-0.11-1.31-0.42c-0.1-0.06-0.18-0.14-0.26-0.22
	l-0.46-0.46c-0.4-0.4-0.78-0.8-1.25-1.14c-0.18-0.11-0.32-0.26-0.43-0.42c-0.06-0.05-0.11-0.05-0.11-0.05s-0.03,0-0.1,0.03
	c-0.1,0.13-0.22,0.26-0.35,0.37c-0.59,0.46-1.1,0.98-1.54,1.54c-0.18,0.22-0.4,0.42-0.64,0.54c-0.45,0.45-0.88,0.88-1.25,1.34
	c-0.16,0.19-0.34,0.35-0.53,0.46c-0.43,0.38-0.8,0.77-1.1,1.14c-0.03,0.03-0.05,0.06-0.08,0.1c-0.02,0.02-0.03,0.03-0.05,0.05
	c0,0,0,0.02-0.02,0.02l0,0c-0.1,0.11-0.21,0.22-0.34,0.3c-0.45,0.35-0.85,0.77-1.25,1.17l-0.02,0.02c-0.13,0.3-0.34,0.56-0.61,0.77
	c-1.98,1.46-4.21,1.47-6.24,0.05c-0.22-0.14-0.4-0.34-0.54-0.56c-0.02,0-0.08,0.03-0.22,0.13c-0.06,0.08-0.14,0.16-0.22,0.22
	c-0.69,0.56-1.18,1.07-1.57,1.6c-0.18,0.24-0.4,0.43-0.66,0.58c-0.34,0.3-0.66,0.61-0.96,0.96c-0.13,0.24-0.32,0.46-0.56,0.64
	c-0.45,0.34-0.88,0.75-1.26,1.17c-0.14,0.29-0.37,0.54-0.66,0.74c-0.42,0.29-0.86,0.54-1.3,0.8c-0.69,0.4-1.34,0.78-1.82,1.25
	c-1.39,1.22-2.73,2.3-4.08,3.28l-0.22,0.21c-0.64,0.59-1.36,1.28-2.37,1.74c-0.38,0.26-1.02,0.45-1.68,0.51c-0.06,0-0.11,0-0.16,0
	c-0.32,0-0.64-0.08-0.93-0.22c-0.53-0.26-0.98-0.58-1.38-0.93c-2.43-0.42-2.96-2.73-3.13-3.55c-0.03-0.11-0.05-0.24-0.05-0.35
	c-0.19-4.91-0.22-10.17-0.1-15.62c0.08-3.21-0.42-5.25-1.54-6.4c-0.99-1.01-2.78-1.5-5.34-1.62c-0.4-0.02-0.75-0.05-1.18-0.05
	c-0.54,0-1.09,0.03-1.63,0.05c-2.69,0.05-5.37,0.13-8.06,0.21c-10.64,0.34-21.64,0.67-32.5-1.01
	C621.79,654.04,621.06,653.19,621.04,652.17z"/>
<g>
	<text transform="matrix(1 0 0 1 592.4773 723.2134)" class="st4 st2 st5">41</text>
</g>
<text transform="matrix(1 0 0 1 557.1101 755.9419)" class="st4 st2 st6">WEST </text>
<text transform="matrix(1 0 0 1 545.9802 782.0415)" class="st4 st2 st6">VIRGINIA</text>
<g>
	<text transform="matrix(1 0 0 1 228.5288 898.5967)" class="st1 st2 st3">Gary Ridgway</text>
</g>
<path class="st12" d="M147.56,1006.5c0.02,1.89,0.08,3.2,0.99,4.27c3.13,3.73,4.16,8.19,5.13,12.52l0.08,0.32
	c0.06,0.32,0.13,0.66,0.19,1.01c0.11,0.62,0.35,1.95,0.66,2.02c2.02,0.48,3.6,1.55,5.13,2.57c1.81,1.22,3.5,2.37,5.79,2.43
	c0.69,0.02,1.28,0.48,1.47,1.14c0.19,0.66-0.06,1.36-0.62,1.74c-1.18,0.82-2.48,1.25-3.61,1.63c-2.27,0.77-3.02,1.15-3.18,2.62
	c-0.29,2.67,0.83,3.07,3.61,3.81c1.76,0.46,3.76,0.99,5.01,2.65c0.3,0.4,0.4,0.93,0.24,1.42c-0.14,0.48-0.53,0.86-1.01,1.02
	c-0.96,0.32-2.16,0.7-2.38,0.91c-0.03,0.11-0.05,0.74-0.08,1.3l-0.02,0.34c-0.19,4.59-0.58,9-3.21,12.38
	c-1.04,1.33-0.99,1.76-0.99,1.81c0.02,0.13,0.24,0.48,1.47,1.3c2.22,1.49,4.09,1.98,6.08,1.63c2.88-0.56,5.79-0.67,8.7-0.4
	c1.36,0.13,2.7,0.3,4.05,0.59c0.38-0.02,0.75,0.08,1.07,0.34c0,0,0.02,0,0.02,0.02c0.56,0.45,1.1,0.98,1.66,1.62
	c0.46,0.4,0.86,0.82,1.25,1.2c0.32,0.19,0.64,0.4,0.96,0.62c0.77,0.54,1.07,0.7,1.39,0.64c1.17-0.98,2.59-0.94,3.21-0.93
	c0.26,0.02,0.48,0.02,0.69,0.02c0.94-0.02,2.38-0.03,3.55,1.1c0.03,0.02,0.05,0.05,0.06,0.06l0,0c0.02,0.02,0.02,0.02,0.03,0.03
	c0.13,0.11,0.48,0.14,1.01,0.18c0.91,0.05,2.29,0.11,3.31,1.34c0.46,0.4,0.9,0.85,1.34,1.33c0.02,0.02,0.03,0.05,0.06,0.06
	c0.38,0.34,0.74,0.7,1.09,1.07c0.05,0.03,0.1,0.08,0.14,0.13c0.86,0.86,1.12,1.9,1.34,2.72c0.11,0.42,0.21,0.82,0.37,1.09l0.77,1.76
	c0.93,0.64,1.25,1.58,1.49,2.25c0.08,0.21,0.14,0.43,0.22,0.58c0.06,0.06,0.13,0.14,0.18,0.21c1.28,1.84,1.15,3.81,1.04,5.39
	c-0.05,0.78-0.11,1.52,0,2.17c0.42,1.58,1.07,3.23,1.76,4.97l0.06,0.18c0.03,0.05,0.06,0.11,0.08,0.16c0.24,0.56,0.7,0.8,1.78,1.22
	c0.61,0.24,1.31,0.51,1.95,0.96c0.08,0.06,0.16,0.13,0.22,0.19c0.5,0.21,1.12,0.19,1.98,0.16c0.58-0.03,1.15-0.05,1.71,0.02
	c0.26,0.02,0.53,0.02,0.8,0c1.02-0.03,2.41-0.06,3.63,0.99c2.14,0.7,4.3,0.7,6.56,0c0.98-0.91,2.17-0.98,2.99-1.01
	c0.4-0.02,0.69-0.03,0.86-0.1c0.7-0.8,1.58-1.06,2.24-1.25c0.22-0.06,0.45-0.13,0.61-0.21c0.02-0.02,0.02-0.02,0.03-0.03
	c0.45-0.43,0.93-0.7,1.33-0.93c0.21-0.11,0.42-0.22,0.61-0.38c0.42-0.42,0.98-0.75,1.47-1.04c0.3-0.18,0.62-0.35,0.9-0.59
	c0.02-0.02,0.03-0.03,0.06-0.05c0.3-0.32,0.64-0.67,1.02-1.01c0.06-0.08,0.13-0.16,0.21-0.24c1.55-1.42,3.41-1.46,4.97-0.06
	c0.66,0.4,1.28,0.43,2.03,0.08c0.1-0.1,0.21-0.16,0.32-0.22c2.72-1.42,5.57-1.46,8.49-0.08c0.21,0.1,0.4,0.24,0.54,0.42
	c0.32,0.1,0.74,0.11,1.31,0.11h0.26c0.43,0.02,0.82,0,1.2,0c1.62-0.03,3.6-0.08,5.29,1.41c1.02,0.35,1.73,1.15,2.3,1.81
	c0.3,0.34,0.51,0.54,0.67,0.7c0.42,0.37,0.59,0.26,1.15-0.16c0.08-0.06,0.18-0.11,0.27-0.16c0.03-0.02,0.05-0.03,0.08-0.05
	l3.01-1.23c1.57-0.99,3.2-0.94,4.64-0.91c1.02,0.03,1.92,0.05,2.64-0.29c0.99-1.04,2.25-1.1,3.12-1.14
	c0.43-0.02,0.74-0.05,0.91-0.11c0.72-0.8,1.62-1.06,2.27-1.23c0.24-0.06,0.5-0.14,0.66-0.22l0,0c2.14-2,4.24-0.88,5.36-0.29
	c0.46,0.24,0.98,0.53,1.25,0.5c1.31-0.14,2.57-0.06,3.79,0c1.82,0.1,3.57,0.19,5.15-0.45c0.64-0.54,1.38-0.75,1.94-0.91
	c0.24-0.06,0.48-0.14,0.64-0.22c0.67-0.75,1.52-0.99,2.14-1.18c0.19-0.05,0.4-0.11,0.54-0.18l0,0c0.69-0.75,1.55-1.01,2.19-1.2
	c0.21-0.06,0.42-0.13,0.56-0.19c0.08-0.1,0.16-0.18,0.26-0.26c1.68-1.23,3.47-1.12,4.91-1.02c0.62,0.05,1.22,0.08,1.74,0.02
	c0.5-0.03,0.9-0.03,1.3-0.02c0.7,0.02,1.18,0.02,1.57-0.11c0.02-0.02,0.02-0.03,0.03-0.05c1.04-1.14,2.38-1.2,3.28-1.25
	c0.42-0.02,0.72-0.05,0.91-0.11c0.05-0.06,0.11-0.11,0.16-0.16c1.63-1.34,3.39-1.22,4.81-1.12c0.59,0.05,1.15,0.08,1.62,0.02
	c0.83-0.13,1.44-0.02,1.81-0.16c1.02-1.17,2.37-1.23,3.26-1.26c0.42-0.02,0.72-0.05,0.9-0.11c1.02-1.18,2.4-1.25,3.29-1.3
	c0.37-0.02,0.66-0.03,0.83-0.08c0.06-0.08,0.13-0.14,0.21-0.21c1.49-1.25,3.17-1.15,4.38-1.09c0.43,0.02,0.86,0.05,1.28,0
	l51.03-0.02h12.28c5.52,0,11.03,0,16.57,0c0.94,0,1.15-0.06,1.25-0.21c0.03-0.18,0.02-0.37,0-0.56c-0.02,0-0.02-0.02-0.03-0.03
	c-0.35-0.26-0.61-0.66-0.64-1.12c-0.56-0.18-0.98-0.66-1.09-1.23c-0.1-0.5-0.13-1.01-0.08-1.52c0.03-0.35,0.18-0.69,0.42-0.94
	l1.09-1.17c0.1-0.45,0.14-0.86,0.19-1.3c-0.14-2.35-1.12-4.48-2.29-6.67c-0.45-0.5-0.94-0.98-1.54-1.42
	c-0.38-0.3-0.61-0.75-0.61-1.23l-0.02-2.57c0-0.53,0.26-1.01,0.69-1.31c0.06-0.03,0.08-0.06,0.13-0.1c0-0.08,0.02-0.16,0.02-0.26
	c-0.06-0.05-0.1-0.1-0.19-0.16c-0.38-0.3-0.61-0.75-0.61-1.25l0.05-120.42c-0.14-0.8-0.35-1.58-0.72-2.32
	c-0.27-0.32-0.58-0.46-1.01-0.46c-50.23-0.05-100.48-0.03-150.75-0.02l-56.69,0.02c-0.43-0.02-1.02-0.03-1.54-0.06
	c-1.22-0.06-2.3-0.13-3.25,0.22c-1.23,4.86-0.74,5.53,4,7.04c1.36,0.43,3.07,0.98,3.93,3.29c1.7,4.49,2.57,10.73-0.1,14.76
	c-1.28,1.92-1.25,1.95,0.32,3.01l0.22,0.16c3.61,2.48,4.67,6.06,2.81,9.56c-0.34,0.62-0.46,0.98-0.53,1.17
	c0.34,0.18,1.04,0.4,1.62,0.59c3.09,1.02,5.18,3.05,5.74,5.58c0.53,2.33-0.37,4.81-2.45,6.78c-1.66,1.58-1.74,3.57-1.82,5.84
	c-0.06,1.81-0.13,3.81-1.1,5.65c0.14,0.13,0.27,0.27,0.38,0.37l0.35,0.32c0.77,0.69,2.57,2.27,1.23,3.92
	c-1.33,1.62-0.99,3.02-0.26,5.34c0.32,1.04,0.66,2.11,0.75,3.26c0.18,2.05-0.8,3.71-2.64,4.59c-1.06,1.46-2.65,1.94-3.97,2.33
	c-1.41,0.43-2.06,0.69-2.32,1.36c-2.13,5.39-6.65,6.25-10.64,7c-0.59,0.11-1.18,0.22-1.78,0.35c-0.27,0.06-0.56,0.14-0.85,0.22
	c-1.44,0.42-3.85,1.1-5.29-1.1c-1.92-2.94,0.64-4.88,1.73-5.71c0.27-0.21,0.54-0.4,0.75-0.61c1.76-1.73,3.85-2.96,5.87-4.16
	c2.75-1.63,5.34-3.17,6.97-5.79l0.08-0.46c0.11-0.56,0.27-1.47,0.24-1.89c-0.21-0.02-0.66-0.03-1.54,0.21
	c-0.46,0.13-0.94,0.02-1.33-0.27c-1.71-1.28-1.84-3.13-1.95-4.48c-0.08-1.09-0.14-1.73-0.61-2.13c-0.56-0.48-0.7-1.26-0.4-1.9
	c-0.22,0.03-0.53,0.13-1.01,0.29c-0.91,0.3-2.16,0.74-3.47,0.21c-0.66-0.27-1.07-0.94-0.98-1.65c0.34-2.86,2.32-4.33,3.92-5.5
	c1.46-1.09,2.37-1.81,2.49-3.09c0.02-0.19,0.08-0.38,0.16-0.56c1.09-2.11,0.13-3.49-1.66-5.74l-0.5-0.62
	c-0.19-0.26-0.34-0.38-0.42-0.45c-0.19,0.14-0.51,0.46-0.7,0.67c-0.29,0.3-0.59,0.61-0.9,0.86c-1.01,0.83-2.65,0.32-2.67,0.32
	c-0.51-0.18-0.99-0.66-1.12-1.2c-0.16-0.69-0.43-0.86-1.95-1.2c-1.25-0.29-2.96-0.67-3.89-2.4c-0.99-1.84-2.48-2.4-5.66-2.13
	c-4.64,0.38-9.26-0.03-13.74-0.45c-3.95-0.37-8.03-0.74-11.99-0.53c-2.3,0.11-4.17-0.82-5.82-1.63l-0.85-0.42
	c-2.72-1.3-5.55-2.49-8.3-3.65c-3.97-1.68-8.06-3.39-12.04-5.52c-0.05,0.24-0.13,0.46-0.22,0.7c-1.68,3.97-1.09,7.98-0.45,12.25
	c0.26,1.73,0.53,3.5,0.64,5.28c0.05,0.88,0.37,2.48,1.94,3.39C144.27,990.22,147.5,996.67,147.56,1006.5z"/>
<g>
	<text transform="matrix(1 0 0 1 281.8011 1002.6654)" class="st4 st2 st5">40</text>
</g>
<text transform="matrix(1 0 0 1 249.8158 1040.9164)" class="st4 st2 st6">WASHINGTON</text>
<path class="st13" d="M629.01,957.62l-0.02-4.62l-0.16-34.26c0,0,0,0.02-0.02,0.02c-0.16,0.26-0.4,0.51-0.61,0.77
	c-0.18,0.22-0.3,0.45-0.51,0.66c-0.13,1.02-0.5,2.53-1.71,3.73c-0.02,0.8-0.13,1.55-0.27,2.29c-0.27,1.3-0.72,2.49-1.23,3.61
	c-0.14,0.3-0.29,0.62-0.43,0.93c-0.02,0.42-0.02,0.83-0.02,1.25c0,0.11,0,0.24,0,0.37c0,1.6-0.08,3.55-1.25,5.28
	c-0.19,0.29-0.42,0.56-0.66,0.83c-0.08,1.18-0.42,2.77-1.78,3.9c-0.14,1.15-0.54,2.64-1.86,3.73c-0.14,1.09-0.53,2.51-1.73,3.58
	c0.02,0.96,0.14,1.94,0.27,2.97c0.16,1.31,0.32,2.67,0.29,4.05c0,0.02,0,0.02,0,0.03l-0.02,1.07c-0.03,2.83-0.08,7.12-4.49,9.45
	c-1.28,0.67-2.41,1.52-3.53,2.41c-1.9,1.55-3.66,3.36-5.45,5.26c-0.74,0.78-1.47,1.55-2.22,2.32c-1.07,1.92-2.85,2.46-4.11,2.61
	c-1.14,1.36-2.67,1.78-3.81,1.89c-0.27,0.34-0.56,0.59-0.86,0.83c-0.64,0.5-1.34,0.78-2.11,0.75c-0.64,0-1.25-0.21-1.82-0.59
	c-0.38-0.26-0.77-0.58-1.12-1.01l-3.25-0.03c-0.75,0.93-1.71,1.38-2.61,1.6c-0.03,0.61-0.13,1.14-0.27,1.65
	c-0.24,0.88-0.62,1.63-1.18,2.25c-1.04,1.15-2.45,1.6-3.93,1.81c-0.85,0.11-1.7,0.16-2.56,0.14c-0.26,0.86-0.45,1.79-0.66,2.73
	c-0.05,0.19-0.1,0.4-0.13,0.59c-0.3,1.36-0.64,2.73-1.18,4.08c-0.3,0.78-0.66,1.55-1.12,2.29c-0.03,0.34-0.06,0.66-0.1,0.99
	c-0.06,0.51-0.11,1.06-0.1,1.49c0,0.21,0.03,0.4,0.08,0.54c1.07,2.75,1.15,5.17,0.24,7.21c-1.28,2.88-4.19,4.38-6.68,5.36
	c-2,1.52-4.29,1.38-6.17-0.4c-0.35-0.34-0.58-0.77-0.62-1.25c-0.1-0.75-0.06-1.52,0.11-2.25l-0.11-2.22l-0.1-2.08l-0.37-0.35
	c-0.4,0.48-0.99,0.91-1.86,1.2l-1.01,1.07c-0.18,0.61-0.32,1.22-0.46,1.82c-0.13,0.51-0.26,1.04-0.4,1.58
	c-0.24,0.9-0.56,1.81-0.96,2.7c-0.48,1.09-1.09,2.14-1.98,3.1c-0.3,0.85-0.83,1.52-1.52,2.02l-0.05,1.66c0.74,0.98,1.26,2,1.62,3.01
	c0.45,1.25,0.64,2.49,0.48,3.66c-0.24,1.79-1.23,3.33-2.83,4.41c-1.3,0.88-1.9,2.14-2.61,3.6c-0.4,0.83-0.9,1.71-1.5,2.57
	c-0.22,0.34-0.43,0.67-0.7,0.98c-0.03,0.16-0.08,0.26-0.13,0.4c-0.86,3.49-3.34,4.27-5.45,4.38c-0.66,0.03-1.3,0.02-1.82,0
	c-0.3-0.02-0.61-0.03-0.91-0.03c-0.91,1.04-2.05,1.44-3.09,1.63c-0.29,0.05-0.56,0.1-0.83,0.11c0.86,3.04,1.52,6.68-0.75,9.9
	c-0.56,0.78-1.23,1.55-2.17,2.25c-0.93,1.81-0.16,3.2,1.33,5.57c0.18,0.29,0.35,0.58,0.53,0.86c0.58,0.54,1.14,1.1,1.66,1.68
	c0.62,0.56,1.22,1.14,1.74,1.73c1.55,1.33,1.63,3.1,1.7,4.29c0.03,0.61,0.06,1.02,0.18,1.25c0.66,0.61,1.3,1.23,1.89,1.89
	c1.74,1.7,2.49,3.77,3.15,5.63c0.27,0.75,0.54,1.5,0.88,2.22c0.64,0.94,1.25,1.92,1.84,2.89c1.74,2.83,3.39,5.52,6.14,7.1
	c0.3,0.11,0.58,0.27,0.8,0.51c0.21,0.21,0.37,0.46,0.46,0.74c0.32,0.69,0.98,0.96,2.45,1.42c0.83,0.27,1.78,0.59,2.65,1.12
	c0.72,0.43,1.41,1.01,1.94,1.86c0.37,0.34,0.75,0.62,1.18,0.88c0.1,0.05,0.18,0.11,0.27,0.18c0.69,0.56,1.07,1.18,1.33,1.82
	c0.35,0.88,0.45,1.78,0.48,2.46c0.02,0.45,0.05,0.94,0.16,1.17c1.02,1.12,1.3,2.43,1.54,3.49c0.13,0.58,0.22,1.07,0.42,1.41
	c0.61,0.51,1.12,1.04,1.58,1.57c1.79,0.86,3.39,2.11,4.94,3.31c4.05,3.15,6.57,4.85,10.76,2.35c1.07-1.12,2.43-1.36,3.34-1.52
	c0.3-0.05,0.62-0.11,0.83-0.18c0.8-0.85,1.62-1.36,2.4-1.66c1.39-0.54,2.72-0.37,3.9,0.06c0.96,0.34,1.81,0.83,2.51,1.25
	c0.4,0.24,0.78,0.46,1.18,0.67c1.01,0.22,2.11,0.06,3.37-0.13c0.38-0.06,0.77-0.11,1.15-0.16c3.44-2.35,7.21-3.26,11.27-2.7
	c0.4-0.4,0.8-0.78,1.22-1.15c0.11-0.22,0.14-0.66,0.16-1.25c0.06-1.22,0.14-3.05,1.81-4.4c0.05-0.03,0.08-0.06,0.13-0.1
	c1.9-1.58,4.16-1.54,6.05,0.16c1.23,0.67,2.38,0.59,3.77-0.24c0.3-0.18,0.64-0.27,0.99-0.29l0.56-0.02c0.66-0.02,1.15-0.03,1.55-0.1
	c-0.13-1.71,1.76-2.22,2.81-2.51c1.84-0.51,3.44,0.16,4.59,0.66c1.06,0.45,1.5,0.61,1.94,0.43c2.13-0.94,2.75-2.72,3.61-5.57
	c0.21-0.69,0.42-1.38,0.66-2.05c0.05-0.34,0.19-0.66,0.43-0.94c0.4-0.5,0.86-0.85,1.26-1.15c0.13-0.1,0.27-0.21,0.4-0.32
	c-2.08-3.47-0.51-6.33,0.64-8.43c0.38-0.69,0.74-1.34,0.96-1.97c0.03-0.21,0.1-0.42,0.19-0.61c0.05-0.1,0.1-0.18,0.16-0.27
	c0.43-0.64,0.83-1.3,1.23-1.95c0.74-1.23,1.5-2.49,2.51-3.68c0.42-0.61,0.8-1.25,1.2-1.89c0.69-1.15,1.41-2.32,2.33-3.44
	c0.96-1.71,2.27-3.07,3.9-4.06c0.46-0.85,0.82-1.79,1.2-2.77c0.29-0.77,0.59-1.52,0.93-2.27c1.2-3.52,3.36-6.64,5.45-9.66
	c1.86-2.69,3.61-5.23,4.75-8.09c0.06-0.22,0.16-0.45,0.3-0.66c0.06-0.1,0.14-0.19,0.24-0.29c1.42-1.5,1.76-3.49,2.14-5.79
	c0.27-1.62,0.54-3.28,1.25-4.91c0.7-1.52,1.57-2.56,2.59-3.17c0.08-0.05,0.16-0.08,0.24-0.13c0.3-0.16,0.62-0.3,0.96-0.38
	c1.44-0.35,2.93,0.06,4.48,1.18c0.06,0.03,0.11,0.08,0.18,0.13c0.03,0.03,0.06,0.05,0.1,0.08l0,0l0,0c0.67,0.56,1.33,1.2,1.94,1.9
	c0.99,0.9,1.31,2.02,1.55,2.85c0.1,0.3,0.19,0.64,0.29,0.83c2.33,1.78,4.96,2.45,8.01,2.06c2.22-2.51,3.82-5.65,4.97-9.8
	c0.02-0.43,0.16-0.88,0.48-1.23c0.64-0.74,1.31-1.42,2.02-2.03c0.54-0.64,1.17-1.26,1.87-1.87c0.11-0.21,0.14-0.64,0.18-1.25
	c0.05-1.17,0.13-2.91,1.63-4.24c0.1-0.19,0.18-0.51,0.27-0.78c0.26-0.88,0.59-2.08,1.73-3.01c0.02-0.02,0.05-0.03,0.06-0.05
	c1.95-1.71,4.3-1.65,6.25,0.19l0.02,0.02c0.19-0.21,0.4-0.38,0.59-0.58c0.4-0.42,0.82-0.82,1.23-1.18c1.76-1.55,3.69-2.83,5.57-4.09
	c2.96-1.97,5.76-3.84,7.74-6.54c1.82-3.21,4.38-5.82,7.56-7.77c0.43-0.9,0.4-1.95,0.32-3.49c-0.05-0.96-0.11-1.95,0.02-2.99
	c0.21-2.16,1.06-4.01,1.89-5.79c0.59-1.28,1.14-2.49,1.39-3.73c0-0.03,0.02-0.05,0.03-0.08c0.06-0.29,0.18-0.56,0.35-0.8
	c1.1-1.54,2.29-2.38,3.65-2.57c0.66-0.1,1.23,0,1.79,0.18c1.1,0.32,2.02,1.01,2.8,1.63c0.32,0.26,0.62,0.5,0.91,0.67
	c0.22,0.08,0.45,0.21,0.64,0.37c0.67,0.58,1.33,1.22,1.92,1.89c1.65,1.01,3.1,2.19,4.51,3.34c0.75,0.61,1.5,1.23,2.27,1.81
	c0.14,0.06,0.27,0.16,0.4,0.26c0.7,0.58,1.39,1.25,2.03,1.98c0.54,0.37,1.12,0.7,1.68,1.06c1.07,0.66,2.17,1.31,3.21,2.14
	c1.18-0.02,1.55-0.66,2.35-2.73c0.34-0.86,0.7-1.82,1.26-2.69c0.06-0.37,0.08-0.74,0.13-1.12c0.06-0.62,0.1-1.25,0.08-1.87
	c-0.03-1.73-0.35-3.42-0.99-5.12c-0.61-0.77-0.86-1.6-1.06-2.25c-0.08-0.26-0.18-0.61-0.27-0.77c-0.11-0.1-0.21-0.19-0.3-0.3
	c-0.22-0.29-0.48-0.56-0.75-0.83c-0.21-0.22-0.42-0.45-0.62-0.69c-0.05-0.03-0.08-0.06-0.13-0.1c-1.65-1.42-1.68-3.33-1.71-4.57
	c-0.02-0.56-0.03-0.98-0.11-1.25c-0.51-0.13-1.17-0.11-1.9-0.08c-1.47,0.06-3.42,0.13-5.18-1.22c-0.13-0.08-0.26-0.18-0.38-0.3
	l-0.32-0.32c-0.38-0.38-0.77-0.78-1.18-1.15c-0.06-0.03-0.13-0.08-0.18-0.13c-0.9-0.72-1.62-1.2-2.29-1.49
	c-0.8-0.35-1.54-0.4-2.37-0.05l-0.64,0.32c-0.3,0.14-0.62,0.27-0.93,0.42c0.02,0.37,0.02,0.75-0.02,1.17
	c-0.08,0.88-0.7,1.6-1.55,1.82c-0.02,0-0.77,0.11-0.77,0.11c-0.3,0.05-0.59,0.02-0.9-0.08l-0.51-0.16
	c-0.16-0.05-0.32-0.11-0.45-0.21c-1.54-0.94-2.38-0.88-3.15-0.34c-0.08,0.1-0.19,0.18-0.29,0.26c-0.4,0.29-0.78,0.64-1.18,1.09
	c-2.93,7.61-9.04,6.14-13.1,5.18c-0.53-0.13-1.06-0.26-1.58-0.37c-0.45,0.03-0.91-0.11-1.31-0.42c-0.1-0.06-0.18-0.14-0.26-0.22
	l-0.46-0.46c-0.4-0.4-0.78-0.8-1.25-1.14c-0.18-0.11-0.32-0.26-0.43-0.42c-0.06-0.05-0.11-0.05-0.11-0.05s-0.03,0-0.1,0.03
	c-0.1,0.13-0.22,0.26-0.35,0.37c-0.59,0.46-1.1,0.98-1.54,1.54c-0.18,0.22-0.4,0.42-0.64,0.54c-0.45,0.45-0.88,0.88-1.25,1.34
	c-0.16,0.19-0.34,0.35-0.53,0.46c-0.43,0.38-0.8,0.77-1.1,1.14c-0.03,0.03-0.05,0.06-0.08,0.1c-0.02,0.02-0.03,0.03-0.05,0.05
	c0,0,0,0.02-0.02,0.02l0,0c-0.1,0.11-0.21,0.22-0.34,0.3c-0.45,0.35-0.85,0.77-1.25,1.17l-0.02,0.02c-0.13,0.3-0.34,0.56-0.61,0.77
	c-1.98,1.46-4.21,1.47-6.24,0.05c-0.22-0.14-0.4-0.34-0.54-0.56c-0.02,0-0.08,0.03-0.22,0.13c-0.06,0.08-0.14,0.16-0.22,0.22
	c-0.69,0.56-1.18,1.07-1.57,1.6c-0.18,0.24-0.4,0.43-0.66,0.58c-0.34,0.3-0.66,0.61-0.96,0.96c-0.13,0.24-0.32,0.46-0.56,0.64
	c-0.45,0.34-0.88,0.75-1.26,1.17c-0.14,0.29-0.37,0.54-0.66,0.74c-0.42,0.29-0.86,0.54-1.3,0.8c-0.69,0.4-1.34,0.78-1.82,1.25
	c-1.39,1.22-2.73,2.3-4.08,3.28l-0.22,0.21c-0.64,0.59-1.36,1.28-2.37,1.74c-0.38,0.26-1.02,0.45-1.68,0.51c-0.06,0-0.11,0-0.16,0
	c-0.32,0-0.64-0.08-0.93-0.22c-0.53-0.26-0.98-0.58-1.38-0.93c-2.43-0.42-2.96-2.73-3.13-3.55c-0.03-0.11-0.05-0.24-0.05-0.35
	c-0.19-4.91-0.22-10.17-0.1-15.62c0.08-3.21-0.42-5.25-1.54-6.4c-0.99-1.01-2.78-1.5-5.34-1.62c-0.4-0.02-0.75-0.05-1.18-0.05
	c-0.54,0-1.09,0.03-1.63,0.05c-2.69,0.05-5.37,0.13-8.06,0.21c-10.64,0.34-21.64,0.67-32.5-1.01
	C629.76,959.49,629.02,958.62,629.01,957.62z"/>
<g>
	<text transform="matrix(1 0 0 1 600.447 1028.6498)" class="st4 st2 st5">39</text>
</g>
<text transform="matrix(1 0 0 1 565.0798 1061.3773)" class="st4 st2 st6">WEST </text>
<text transform="matrix(1 0 0 1 553.949 1087.4789)" class="st4 st2 st6">VIRGINIA</text>
<g>
	<text transform="matrix(1 0 0 1 558.208 898.5967)" class="st1 st2 st3">JACK THE RIPPER</text>
</g>
<g>
	<text transform="matrix(1 0 0 1 228.5288 1175.9716)" class="st1 st2 st3">dAVID BERKOWITZ</text>
</g>
<g>
	<text transform="matrix(1 0 0 1 558.208 1175.9734)" class="st1 st2 st3">AILEEN WUORNOS</text>
</g>
<path class="st14" d="M426.98,1396.99c-0.08-0.11-0.14-0.22-0.19-0.35c-0.13-0.34-0.22-0.51-0.3-0.62c-0.54,0.72-1.18,1.12-1.94,1.2
	c-0.58,0.06-1.14-0.06-1.68-0.4c-0.34,0.32-0.67,0.64-1.01,0.99c-1.9,1.92-4.08,4.09-7.9,3.85c-7.92-0.48-16.12-0.13-25.08,1.1
	c-3.93,0.53-8,1.09-11.18,3.69c-1.31,1.07-2.94,2.18-5.17,2.21c-0.24,0-0.46-0.05-0.67-0.14c-0.69-0.32-1.15-0.8-1.34-1.39
	c-0.3-0.9,0.11-1.66,0.34-2.08l0.1-0.19c1.76-3.1,3.82-6.29,6.99-8.28c-0.8-0.54-1.47-1.39-1.86-2.8c-0.56-2.41,1.09-3.5,1.98-4.09
	c0.06-0.05,0.13-0.1,0.21-0.13c0.67-0.72,1.5-0.98,2.11-1.15c0.24-0.06,0.5-0.14,0.64-0.22c0.03-0.03,0.08-0.06,0.11-0.1
	c1.71-1.31,1.63-1.41,1.1-2.13c-0.03-0.05-0.06-0.1-0.1-0.14c-2.03-2.46-1.71-5.17-1.01-7.74c0.14-2.08,0.13-4.21,0.11-6.27
	c-0.02-1.74-0.03-3.47,0.05-5.21c0-0.16,0.03-0.3,0.08-0.45c0.4-1.1,0.46-2.33,0.54-3.65c0.02-0.24,0.03-0.46,0.05-0.7l-0.08-2.59
	c-0.02-0.54,0.26-0.99,0.67-1.28c0.13-1.34,0.1-2.7,0.05-4.14c-0.08-2.41-0.16-4.91,0.61-7.42c-0.14-0.21-0.26-0.43-0.29-0.67
	l-0.1-0.59c-0.27-1.76-0.62-3.92,0.67-5.98l6.59-22.5c0.1-0.3,0.27-0.56,0.51-0.77c0.16-0.13,0.19-0.54,0.21-1.17
	c0.03-0.69,0.06-1.66,0.58-2.54c-0.05-0.11-0.1-0.22-0.11-0.34c-0.67-3.93-0.54-7.87-0.43-11.69c0.05-1.55,0.1-3.1,0.08-4.67
	c0-0.14,0.02-0.3,0.06-0.45c2.21-7.45,1.41-15.16,0.46-21.83l-0.59-1.63c-0.11,0.02-0.27,0.06-0.56,0.21
	c-0.1,0.21-0.24,0.4-0.42,0.54c-0.22,0.43-0.66,1.09-1.52,1.2c-0.69,0.1-1.31-0.19-1.89-0.85c-1.02-1.17-1.9-3.12-0.18-5.84
	c0-0.02,0.02-0.02,0.02-0.03c0.58-1.47,0.66-2.86,0.27-4.21c-0.02,0.02-0.03,0.03-0.03,0.05c-0.85,1.63-1.36,3.52-1.79,5.31
	c-0.03,0.13-0.08,0.24-0.13,0.35c-0.32,0.61-0.7,1.12-1.07,1.6c-0.14,0.18-0.27,0.35-0.4,0.54c-0.27,0.38-0.46,0.7-0.61,1.04
	c-0.34,0.7-0.66,1.36-1.01,2.02c-0.22,0.38-0.38,0.7-0.53,1.07l-0.62,1.25c-0.29,0.5-0.54,0.85-0.88,1.22
	c-0.14,0.16-0.32,0.29-0.51,0.38c-0.37,0.18-0.94,0.14-1.36,0c-0.11-0.02-0.22-0.05-0.34-0.1c-0.3-0.13-1.26-0.62-0.85-2.1
	c-0.11,0.46,0.18,1.28,0.94,1.6c-0.74-0.3-1.12-1.12-0.88-1.89c0.24-0.77,0.64-1.47,0.98-2.1l0.61-0.94
	c0.34-0.51,0.69-1.02,0.99-1.57c0.21-0.45,0.51-0.94,0.85-1.42l0.61-0.72c0.35-0.4,0.67-0.78,0.98-1.18
	c0.14-0.24,0.3-0.62,0.38-0.99c0.67-2.35,1.41-4.97,3.29-7.13c0.05-0.06,0.06-0.13,0.11-0.19c-0.08-0.85-0.05-1.68,0-2.45
	c0.08-1.28,0.14-2.4-0.4-3.28c-0.1-0.14-0.16-0.32-0.19-0.5c-0.66-3.04-0.27-6.11,1.14-9.39c1.79-4.17,3.26-8.3,1.42-12.86
	c-0.51-1.28-0.43-2.61-0.35-3.79c0.08-1.14,0.14-2.13-0.26-2.94c-1.7-1.55-1.44-3.49-1.28-4.78c0.05-0.42,0.11-0.83,0.1-1.23
	c-0.02-0.46,0.16-0.9,0.5-1.22c0.51-0.46,0.59-1.12,0.67-2.26c0.08-0.99,0.18-2.22,0.88-3.33c0.58-1.95,1.06-3.79,1.04-5.63
	c-0.19-0.06-0.35-0.1-0.48-0.1c-18.86-0.06-37.73-0.11-56.58-0.14c-1.34,0.06-2.3,0.19-3.07,0.69c-1.5,0.96-3.05,1.86-4.59,2.73
	c-3.25,1.87-6.32,3.63-8.91,5.97c-1.25,1.12-2.54,2.19-3.87,3.26c-4.61,3.77-8.97,7.32-10.7,13.13c-0.42,1.42-1.46,2.49-2.85,2.93
	c-2.24,0.69-4.05,2.29-5.93,3.98c-2.54,2.26-5.17,4.59-9.16,5.13c-0.21,0.03-0.45,0.22-0.66,0.53c-0.59,0.83-0.82,2.22-0.58,3.39
	c0.06,0.3,0.13,0.38,0.13,0.38c0.06-0.02,0.54-0.08,0.85-0.13c0.48-0.06,1.01-0.14,1.58-0.1c1.86,0.19,3.39,0.96,4.56,2.29
	c0.88,1.01,1.79,2.18,1.36,3.37c-0.22,0.64-0.78,1.09-1.5,1.22c-0.82,0.13-0.98,0.4-1.28,2.02c-0.26,1.34-0.64,3.39-2.89,4.01
	c-0.69,0.19-0.85,0.37-0.86,0.38c0.03,0.11,0.34,0.77,0.51,1.15l0.24,0.5c0.26,0.58,0.59,1.14,0.91,1.68
	c0.48,0.83,0.98,1.68,1.33,2.64c0.96,2.67,0.88,5.02-0.24,6.81c-0.74,1.18-2.3,2.69-5.55,3.05c-3.52,0.4-6.4,1.94-9.6,5.18
	c-6.14,6.21-13.16,8.64-21.49,7.42c-5.2-0.75-9.53-0.34-13.26,1.28c-2.62,1.14-5.07,0.77-7.29-1.12c-6.68-5.69-15-5.5-23.05-5.31
	c-1.2,0.03-2.38,0.06-3.57,0.06c-4.45,0.03-8.84,1.23-13.51,2.51c-2.43,0.67-4.96,1.34-7.47,1.86c-1.9,0.38-2.37,1.02-2.25,3.17
	c0.11,2.16,0.45,3.37,2.14,4.48c2.29,1.49,3.93,5.69,4.53,9.18c0.32,1.86,0.64,5.23-0.82,7.13c-0.58,0.77-1.15,1.55-1.71,2.35
	c-2.83,3.98-5.77,8.08-11.21,9.61c-1.3,0.37-2.32,1.07-3.61,2.03c-3.85,2.83-7.72,5.63-11.61,8.44l-4.13,2.99
	c-0.29,0.5-0.54,0.99-0.75,1.47c0.8,1.76,0.59,3.66,0.42,5.21c-0.16,1.3-0.29,2.45,0.05,3.36c1.3,0.46,2.75,0.38,4.25,0.29
	c0.66-0.05,1.33-0.08,1.98-0.08h0.02c20.77,0.02,41.55,0.02,62.31,0.03c29.25,0,58.52,0.02,87.77,0.06l0,0
	c0.54,0,1.12-0.06,1.7-0.11c2.25-0.21,5.29-0.51,7.37,2.43c1.5,0.8,2.03,2.19,2.43,3.25c0.13,0.35,0.26,0.7,0.42,0.98
	c0.19,0.19,0.46,0.22,1.26,0.24c0.83,0.02,1.95,0.03,2.96,0.77c0.11,0.08,0.21,0.18,0.29,0.27c0.27,0.34,0.62,0.64,0.96,0.94
	c1.2,1.09,3.44,3.09,1.55,6.33c1.26,2.16,1.23,3.95-0.1,5.34c0.51,0.38,0.96,0.83,1.34,1.33c0.19,0.26,0.3,0.56,0.32,0.86
	c1.07,2.54,3.39,3.42,6.06,4.43c0.75,0.29,1.52,0.58,2.24,0.91c0.21,0.05,0.42,0.14,0.61,0.29c0.67,0.54,1.23,1.14,1.66,1.6
	c0.13,0.14,0.22,0.3,0.3,0.48c0.24,0.38,0.35,0.75,0.38,1.12c0.48,0.16,0.93,0.4,1.38,0.72c0.1,0.03,0.18,0.08,0.27,0.14
	c0.43,0.29,0.86,0.56,1.31,0.82c1.07,0.66,2.19,1.33,3.18,2.32c0.1,0.1,0.19,0.22,0.26,0.35c0.13,0.22,0.24,0.32,0.59,0.32
	c0.11,0,0.21,0.02,0.32,0.03c1.31,0.29,2.22,1.09,2.93,1.84c0.02,0.02,0.02,0.02,0.03,0.03c0.14,0.06,0.34,0.11,0.5,0.16
	c0.61,0.18,1.41,0.42,2.05,1.14c0.38,0.27,0.7,0.59,0.99,0.86c0.06,0.06,0.13,0.13,0.19,0.18c0.16,0.1,0.3,0.21,0.42,0.37
	c0.05,0.06,0.42,0.18,0.61,0.24c0.58,0.18,1.36,0.42,1.98,1.1c0.4,0.26,0.8,0.5,1.2,0.75c0.93,0.56,1.87,1.15,2.78,1.84
	c0.08,0.06,0.14,0.13,0.21,0.19c0.14,0.06,0.34,0.11,0.51,0.16c0.56,0.16,1.39,0.42,2.05,1.12c0.37,0.27,0.69,0.58,0.96,0.83
	c0.08,0.08,0.14,0.14,0.22,0.22c0.14,0.1,0.29,0.21,0.4,0.37c0.05,0.06,0.42,0.18,0.62,0.24c0.58,0.18,1.34,0.42,1.98,1.09
	c1.41,0.96,2.22,2.09,2.46,3.37c0.24,1.26-0.13,2.59-1.09,3.93l-3.77,10.19c-0.05,0.11-0.13,0.21-0.19,0.32
	c1.41,1.1,2.8,0.85,5.05,0.27c1.33-0.34,2.69-0.69,4.19-0.56c4.38,0.35,8.86-0.53,14.52-2.83c4.7-1.92,9.82-3.25,16.1-4.19
	c7.82-1.17,17.94-3.25,26.9-8.96c0.13-0.08,0.26-0.16,0.38-0.22c-0.14,0.06-0.32,0.13-0.53,0.21
	C430.95,1398.41,428.68,1399.37,426.98,1396.99z"/>
<g>
	<text transform="matrix(1 0 0 1 306.9758 1291.646)" class="st4 st2 st5">20</text>
</g>
<text transform="matrix(1 0 0 1 271.134 1327.9204)" class="st4 st2 st6">NEW YORK</text>
<path class="st15" d="M612.76,1394.24c-0.02-0.48-0.03-0.82-0.14-1.06c-0.22-0.18-0.37-0.42-0.4-0.7c-0.22-1.6,0.03-2.73,0.77-3.45
	c1.04-1.02,2.59-0.77,3.73-0.58c0.35,0.06,0.69,0.13,0.98,0.13l0,0c19.67-0.06,39.36-0.06,59.03-0.08c10.62,0,21.22,0,31.84-0.02
	c0,0,0,0,0.02,0c0.48,0,0.98,0.03,1.46,0.06c0.13,0.02,0.26,0.02,0.38,0.02c0.99,0.06,1.89,0.08,2.7-0.24
	c0.16-0.8,0.18-1.62,0.16-2.48c0-0.3-0.02-0.61-0.03-0.91c-0.02-0.5-0.03-0.98-0.03-1.47c0.02-16.31,0.02-32.63,0.02-48.94v-12.55
	c-0.21-4.01,0.02-8.11,0.22-12.07c0.16-2.93,0.32-5.95,0.3-8.91c0.05-8.8,0.02-17.72,0-26.36c-0.05-14.23-0.08-28.96,0.21-43.45
	c0-0.1,0.02-0.19,0.05-0.29c0.3-1.12,0.29-2.29,0.26-3.55c-0.02-0.96-0.03-1.97,0.1-2.99c0.02-0.11,0.05-0.21,0.08-0.3
	c0.02-0.03,0.02-0.06,0.03-0.1c0.21-0.48,0.38-0.96,0.51-1.42c0.02-0.66,0.05-1.31,0.06-1.97c-0.67-3.79-0.48-7.53-0.02-11
	c-0.1-0.93-0.24-1.86-0.45-2.78c-0.21-0.34-0.46-0.58-0.82-0.75c-0.05-0.02-0.1-0.03-0.14-0.05l-75.39,0.05
	c-28.45-0.03-56.89-0.06-85.34-0.11c-1.54,0-3.09-0.03-4.62-0.08h-0.24c-0.48,0.18-0.93,0.42-1.38,0.77
	c-0.03,0.05-0.05,0.1-0.08,0.14c0.21,0.99,0.18,1.97,0.11,2.88c-0.02,0.38-0.05,0.78-0.05,1.17c0.02,66.34,0.03,132.68,0,199.01
	c0,0.38,0.03,0.77,0.06,1.15c0.06,0.86,0.13,1.79-0.06,2.72c0.02,0.02,0.02,0.03,0.03,0.03c1.65,0.02,3.31,0.02,4.96,0.03
	c4.46,0.02,9.08,0.03,13.61,0.14c0.74,0.02,1.25-0.08,1.46-0.29c0.22-0.21,0.35-0.74,0.35-1.54c0.06-3.31,0.24-6.65,0.4-9.88
	c0.06-1.34,0.14-2.69,0.21-4.03c0.02-0.5,0.37-0.93,0.85-1.07c1.44-0.4,2.85-0.37,4.21-0.32c0.4,0.02,0.8,0,1.22,0.03
	c3.63,0,7.26,0,10.91,0c8.38,0,17.03,0,25.54-0.1c0.42-0.02,0.9,0.1,1.38,0.21c0.37,0.1,1.06,0.26,1.28,0.18
	c-0.02-0.02,0.03-0.13,0.05-0.45c0-0.13,0-0.27-0.02-0.45C612.8,1395.5,612.77,1394.81,612.76,1394.24z"/>
<g>
	<text transform="matrix(1 0 0 1 602.8638 1296.5981)" class="st4 st2 st5">14</text>
</g>
<text transform="matrix(1 0 0 1 574.1528 1332.6401)" class="st4 st2 st6">NEW MEXICO</text>
</svg>
