<?xml version="1.0" encoding="utf-8"?>
<!-- Generator: Adobe Illustrator 23.0.0, SVG Export Plug-In . SVG Version: 6.00 Build 0)  -->
<svg version="1.1" id="Layer_1" xmlns="http://www.w3.org/2000/svg" xmlns:xlink="http://www.w3.org/1999/xlink" x="0px" y="0px"
	 viewBox="0 0 960 1010.64" style="enable-background:new 0 0 960 1010.64;" xml:space="preserve">
<style type="text/css">
	.st0{fill:#47BDC3;}
	.st1{fill:#87171A;}
	.st2{font-family:'BebasNeue';}
	.st3{font-size:28.1868px;}
	.st4{fill:#FFFFFF;}
	.st5{font-size:34.1209px;}
	.st6{font-size:17.8022px;}
	.st7{fill:#EF3642;}
	.st8{fill:#C9B3D5;}
	.st9{fill:#F57F26;}
	.st10{fill:#F7A3A3;}
	.st11{fill:#DECC59;}
	.st12{fill:#A3BEE3;}
	.st13{fill:#E19A70;}
	.st14{fill:#6A4199;}
	.st15{fill:#9D2481;}
</style>
<path class="st0" d="M645.25,82.25c-0.37,0.01-0.74,0.03-1.1,0.02c-4.12-0.08-8.31-0.04-12.37-0.01c-6.31,0.05-12.84,0.1-19.28-0.26
	c-0.12-0.01-0.23-0.04-0.33-0.09c-0.05-0.03-0.1-0.07-0.15-0.1c-0.31,0-0.61,0-0.92,0c-0.44,0-0.8-0.36-0.8-0.8l-0.06-22.89
	c-0.07-0.18-0.14-0.36-0.24-0.54c-0.01-0.01-0.01-0.03-0.02-0.04c-0.16-0.12-0.32-0.17-0.53-0.16c-17.72-0.01-35.39-0.01-53.06,0.02
	c-0.28,0-0.61-0.02-0.92-0.05c-0.65-0.05-1.22-0.1-1.71,0.11l-0.01,0.46l0,0.09l-0.01,0.55c-0.02,1.13-0.05,2.26-0.05,3.39
	c-0.02,17.8-0.04,35.61-0.06,53.41l-0.01,8.22l0.02,1.29c0.02,0.98,0.04,1.97,0.04,2.95l0.06,53.76c0.07,0,0.14,0,0.21,0.01
	c0.37,0.02,0.74,0.04,1.12,0.04c7.47,0,14.94,0,22.41,0c23.09,0,46.17,0,69.26-0.01c0.48,0,0.96-0.03,1.44-0.06
	c0.06,0,0.12,0,0.18-0.01c0.03,0,0.06,0,0.1-0.01c0.03-0.45,0.05-0.91,0.05-1.36c0.01-31.63,0.01-63.25,0-94.88
	c0-0.62-0.04-1.25-0.08-1.87c-0.01-0.19-0.02-0.38-0.03-0.58C647.53,82.17,646.47,82.21,645.25,82.25z"/>
<text transform="matrix(1 0 0 1 549.6211 45.7665)" class="st1 st2 st3">Ted Bundy</text>
<g>
	<text transform="matrix(1 0 0 1 585.7373 125.0078)" class="st4 st2 st5">99</text>
</g>
<text transform="matrix(1 0 0 1 585.7383 146.7802)" class="st4 st2 st6">Utah</text>
<g>
	<path class="st7" d="M325.53,180.44c-0.59,0-1.24-0.2-2.11-0.66c-6.12-3.21-11.41-5.19-16.63-6.23c-0.21-0.04-0.44-0.11-0.67-0.18
		c-0.51-0.16-1-0.31-1.45-0.31c-0.39,0-0.66,0.11-0.89,0.37c-0.8,0.92-1.74,0.94-2.74,0.97c-0.39,0.01-0.74,0.04-1.07,0.08
		l-0.13,0.02c-0.07,0.01-0.15,0.02-0.22,0.04c-0.05,0.01-0.1,0.02-0.15,0.02c-0.09,0-0.18-0.02-0.26-0.06
		c-0.23-0.1-0.45-0.27-0.68-0.5c-0.03-0.04-0.06-0.07-0.09-0.12c-0.21-0.36-0.47-0.7-0.76-1.01c-1.17-0.5-1.19-1.23-1.09-2.39
		c0.03-0.32,0.06-0.66,0.04-0.97c-0.11-1.54-0.06-3.11-0.02-4.63c0.07-2.33,0.14-4.74-0.34-7.1c-0.01-0.04-0.01-0.08-0.01-0.11
		c-0.01-0.01-0.09-0.16-0.1-0.17c-0.2-0.19-0.4-0.39-0.59-0.59c-0.03-0.03-0.05-0.06-0.07-0.09c-0.26-0.27-0.58-0.37-0.86-0.45
		c-0.16-0.05-0.32-0.1-0.43-0.15c-0.08-0.04-0.15-0.09-0.2-0.16c-0.26-0.26-0.57-0.35-0.85-0.44c-0.21-0.06-0.37-0.11-0.5-0.19
		c-0.05-0.03-0.09-0.06-0.13-0.11c-0.24-0.22-0.45-0.43-0.66-0.64c-0.03-0.03-0.06-0.07-0.08-0.1c-0.26-0.28-0.58-0.37-0.87-0.46
		c-0.15-0.04-0.31-0.09-0.41-0.14c-0.09-0.04-0.16-0.1-0.23-0.18c-0.24-0.25-0.56-0.34-0.84-0.42c-0.16-0.05-0.33-0.1-0.47-0.17
		c-0.07-0.04-0.13-0.08-0.18-0.14c-0.68-0.41-1.15-0.88-1.48-1.48c-0.09-0.07-0.21-0.23-0.25-0.33c-0.07-0.18-0.08-0.39-0.1-0.68
		c-0.02-0.52-0.07-0.94-0.45-1.27c-0.25-0.23-0.44-0.42-0.62-0.61l0.36-0.57l-0.44,0.48c-0.24-0.22-0.48-0.45-0.69-0.69
		c-0.03-0.03-0.05-0.06-0.07-0.09c-0.43-0.69-0.55-1.44-0.37-2.29c0.01-0.07,0.04-0.13,0.08-0.2c0.35-0.6,0.92-0.97,1.52-1.37
		c0.72-0.47,1.46-0.96,1.82-1.85c0.01-0.06,0.01-0.04,0.04-0.09c0.09-0.16,0.21-0.32,0.32-0.48c0.62-0.86,1.04-1.61,0.34-2.61
		c-0.04-0.03-0.13-0.11-0.17-0.14c-0.18-0.17-0.35-0.35-0.52-0.53c-0.24-0.33-0.42-0.62-0.58-0.92c-0.03-0.06-0.05-0.13-0.06-0.19
		c-0.87-5.36-1.09-10.09-0.67-14.45c0.01-0.07,0.02-0.14,0.05-0.2c0.37-0.82,1.07-1.29,1.82-1.79c0.03-0.04,0.07-0.07,0.11-0.1
		c0.21-0.22,0.42-0.43,0.64-0.64c0.01-0.01,0.11-0.1,0.12-0.11c0.17-0.18,0.38-0.4,0.6-0.62c0.03-0.02,0.05-0.05,0.08-0.07
		c0,0,0.07-0.09,0.07-0.09c0.27-0.56,0.78-0.82,1.32-1.1c0.28-0.15,0.57-0.3,0.84-0.5c0.08-0.06,0.19-0.11,0.29-0.12
		c0.13-0.02,0.28-0.03,0.44-0.03c0.13,0,0.28,0.01,0.42,0.01c0.14,0.01,0.28,0.01,0.43,0.01c0.39,0,0.89-0.04,1.34-0.38
		c0-0.01,0.13-0.15,0.14-0.16c0.77-1.64,2.23-2.21,3.77-2.82c1.01-0.4,2.05-0.81,2.88-1.54c0.02-0.03,0.08-0.1,0.1-0.12
		c0.16-0.17,0.33-0.33,0.5-0.49c0.04-0.03,0.08-0.06,0.12-0.09c0.19-0.17,0.39-0.3,0.59-0.44c0.49-0.33,0.99-0.67,1.27-1.25
		c0.02-0.85,0.26-1.53,0.73-2.08c0.11-0.29,0.22-0.5,0.37-0.69c0.2-0.23,0.45-0.3,0.71-0.38c0.28-0.08,0.6-0.18,0.84-0.44l0.15-0.16
		c0.19-0.19,0.39-0.39,0.59-0.58c0.02-0.03,0.05-0.06,0.07-0.08c0.22-0.23,0.45-0.45,0.68-0.67c0.25-0.26,0.43-0.45,0.62-0.63
		l0.54,0.39l-0.45-0.46c0.6-0.59,1.41-0.85,2.19-1.1c0.81-0.26,1.64-0.53,2.3-1.16c0.02-0.03,0.08-0.1,0.1-0.12
		c0.17-0.17,0.34-0.34,0.51-0.51c0.03-0.03,0.06-0.05,0.09-0.07c0.29-0.37,0.5-0.72,0.72-1.07c0.25-0.41,0.51-0.84,0.83-1.23
		c0,0,0.03-0.04,0.05-0.06l0.57-0.57l0.63,0.28l-0.53-0.38c0-0.01,0.04-0.09,0.04-0.1c0.52-1.72,0.45-3.48,0.39-5.19
		c-0.04-1.02-0.08-1.97,0-2.96c0-0.18,0-0.38-0.03-0.58c-0.02-0.16-0.05-0.31-0.09-0.46c-0.07-0.31,0.08-0.62,0.37-0.75
		c0,0,0.2-0.08,0.2-0.08l0.57-0.73c0.27-1.51,1.1-2.54,2.27-3.64c0.03-0.03,0.05-0.06,0.06-0.1c0.28-1.38-0.17-2.49-1.36-3.41
		c-0.08-0.06-0.14-0.14-0.18-0.22c-0.62-1.24-0.54-2.36,0.24-3.41c0.2-0.47,0.18-0.92,0.15-1.35c-0.03-0.49-0.05-0.95,0.21-1.34
		c0.04-0.06,0.08-0.11,0.14-0.15c0.23-0.27,0.31-0.55,0.38-0.82c0.05-0.17,0.1-0.33,0.15-0.45c0.05-0.1,0.12-0.19,0.21-0.25
		c0.24-0.51,0.34-0.99,0.43-1.46c0.17-0.86,0.34-1.68,1.07-2.26c0.06-0.08,0.17-0.17,0.26-0.22c0.1-0.05,0.26-0.1,0.41-0.15
		c0.29-0.08,0.59-0.17,0.82-0.41c0.05-0.07,0.06-0.06,0.13-0.11c0.35-0.21,0.73-0.24,1.05-0.24c0.16,0,0.33,0.01,0.53,0.02
		c0.17,0.01,0.36,0.02,0.54,0.02c0.64,0,1.07-0.13,1.45-0.43c0.08-0.1,0.22-0.2,0.34-0.24c0.1-0.03,0.27-0.07,0.37-0.09
		c0.38-0.08,0.79-0.16,1.05-0.55c0.52-0.77,0.71-1.61,0.85-2.41c0.03-0.15,0.1-0.29,0.22-0.38c0.11-0.1,0.24-0.18,0.36-0.26
		c0.1-0.07,0.26-0.12,0.38-0.12c0,0,0,0,0,0c1.34,0.01,2.68,0.01,4.02,0.01l31.67,0l9.2,0.01c2.69,0,5.38-0.01,8.07-0.03
		c0,0,0.01,0,0.01,0c0.31,0,0.53,0.02,0.76,0.04l0.12,0.01c0.28,0.02,0.58,0.05,0.9,0.05c0.33,0,0.62-0.03,0.88-0.1
		c0.05-0.01,0.11-0.02,0.16-0.02c0.13,0,0.25,0.04,0.36,0.11l0,0.01c0.14,0.1,0.26,0.26,0.29,0.42c0.06,0.34,0.13,0.68,0.2,1.02
		c0.56,2.71,1.13,5.52-0.73,8.15c-2.89,4.08-2.09,8.65-1.06,12.18c0.32,1.1,0.66,2.19,1,3.28c1.47,4.69,2.84,9.08,2.59,13.94
		c-0.11,2.04,0.68,3.42,2.33,4.09c0.72,0.29,1.19,0.72,1.37,1.23c0.18,0.51,0.07,1.13-0.3,1.79c-0.73,1.28-0.44,2.22-0.05,3.51
		c0.96,3.15,1.9,5.95,3.7,8.47c0.72,1.01,0.32,1.65-0.42,2.58c-0.21,0.26-0.42,0.52-0.58,0.8c-0.11,0.2-0.23,0.33-0.37,0.41
		c-0.06,0.03-0.12,0.06-0.18,0.07c-0.05,0.01-0.12,0.02-0.17,0.02c-0.22,0-0.48-0.08-0.88-0.23c-0.15-0.06-0.29-0.11-0.42-0.15
		c-1.83-0.58-3-1.25-3.55-3c-0.6-1.86-2.09-3.1-3.53-4.3l-0.6-0.5c-0.35-0.29-0.77-0.45-1.22-0.45c-0.36,0-0.73,0.09-1.1,0.28
		c-0.64,0.32-0.91,0.94-0.64,1.47c0.52,1.04,0.89,2.12,1.29,3.26c1.03,2.96,2,5.75,5.16,7.36c1.02,0.52,1.57,1.06,1.68,1.66
		c0.09,0.47-0.09,0.99-0.54,1.58c-0.08,0.1-0.19,0.18-0.32,0.22c-0.21,0.07-0.38,0.19-0.51,0.38c-0.15,0.28-0.22,0.55-0.29,0.83
		c-0.08,0.32-0.15,0.61-0.32,0.86c-0.03,0.04-0.06,0.08-0.1,0.11c-0.5,0.58-0.51,1.17-0.03,1.77c0.44,0.56,0.84,1.12,1.04,1.78
		c0.02,0.05,0.02,0.1,0.03,0.15c0.01,0.15,0.01,0.3,0,0.45c-0.01,0.19-0.09,0.37-0.24,0.48c-0.06,0.05-0.19,0.13-0.27,0.15
		c-0.06,0.02-0.13,0.03-0.2,0.03c-0.19,0-0.39-0.08-0.64-0.24c-0.05-0.04-0.1-0.08-0.14-0.13c-0.28-0.11-0.7-0.24-1.12-0.24
		c-0.36,0-0.61,0.09-0.79,0.27c-0.33,0.35-0.3,0.98,0.08,1.98c0.63,1.08,0.59,2.19,0.55,3.38c-0.03,0.8-0.06,1.62,0.12,2.41
		c0.04,0.15,0.02,0.31-0.05,0.44c-0.11,0.22-0.27,0.41-0.49,0.6c0,0.01-0.12,0.1-0.12,0.11c-0.25,0.32-0.5,0.52-0.79,0.63
		c-0.08,0.03-0.16,0.04-0.24,0.04c-0.01,0-0.03,0-0.04,0c-0.33,0.19-0.62,0.28-0.93,0.37c-0.34,0.1-0.68,0.2-0.98,0.42
		c-0.08,0.12-0.24,0.25-0.38,0.29c-0.19,0.06-0.41,0.08-0.75,0.08c-0.3,0-0.65,0.01-0.96,0.13c-0.34,0.29-0.47,0.61-0.45,0.99
		l0.17,0.31c0.38,0.59,0.74,1.15,0.3,1.74c-0.04,0.06-0.09,0.11-0.15,0.15c-0.22,0.31-0.46,0.56-0.76,0.78
		c-0.07,0.09-0.19,0.19-0.29,0.24c-0.22,0.1-0.44,0.12-0.79,0.12c0,0-0.38,0-0.47,0c-0.61,0-1.03,0.06-1.42,0.36
		c-0.09,0.14-0.28,0.29-0.44,0.33c-0.12,0.03-0.3,0.05-0.57,0.06c-0.43,0.02-0.88,0.04-1.25,0.4c-0.09,0.13-0.24,0.23-0.39,0.27
		c-0.05,0.01-0.14,0.02-0.19,0.02c-0.23,0-0.45-0.09-0.87-0.3c-0.04-0.02-0.1-0.04-0.12-0.04c0,0-0.16-0.01-0.16-0.01
		c-0.05,0-0.08,0.01-0.11,0.03c-0.56,0.34-1.17,0.39-1.7,0.39c-0.17,0-0.34,0-0.52-0.01c-0.17-0.01-0.35-0.01-0.52-0.01
		c-0.14,0-0.27,0-0.41,0.01l-0.15,0c-0.52,0-1.06,0-1.55,0.38c-0.07,0.1-0.2,0.21-0.31,0.26c-0.24,0.1-0.5,0.12-0.74,0.12l-0.6-0.01
		c-0.45,0-0.92,0.05-1.32,0.41c-0.05,0.07-0.14,0.15-0.22,0.19c-0.14,0.07-0.3,0.12-0.47,0.17c-0.29,0.08-0.57,0.17-0.81,0.38
		c-0.06,0.08-0.17,0.18-0.27,0.22c-0.1,0.05-0.25,0.1-0.41,0.14c-0.29,0.08-0.57,0.16-0.81,0.37c-0.08,0.11-0.22,0.22-0.34,0.27
		c-0.18,0.06-0.38,0.08-0.66,0.09c-0.43,0.02-0.88,0.04-1.24,0.4c-0.06,0.08-0.16,0.16-0.25,0.21c-0.23,0.11-0.48,0.13-0.72,0.13
		l-0.2,0c-0.15,0-0.26,0-0.38,0.01c-0.36,0-0.95,0-1.42,0.38c-0.07,0.1-0.2,0.21-0.31,0.26c-0.1,0.04-0.23,0.08-0.37,0.12
		c-0.28,0.08-0.57,0.16-0.81,0.37c-0.07,0.09-0.18,0.19-0.28,0.24c-0.1,0.05-0.25,0.09-0.41,0.14c-0.27,0.08-0.55,0.16-0.79,0.37
		c-0.06,0.09-0.18,0.19-0.28,0.24c-0.18,0.08-0.38,0.1-0.73,0.12c-0.43,0.02-0.87,0.04-1.22,0.4c-0.07,0.1-0.18,0.19-0.3,0.23
		c-0.21,0.08-0.44,0.1-0.72,0.1l-0.28,0c-0.08,0-0.36,0.01-0.37,0.01c-0.43,0-0.89,0.04-1.3,0.37c-0.09,0.14-0.28,0.29-0.44,0.33
		c-0.12,0.03-0.3,0.04-0.55,0.06c-0.44,0.02-0.88,0.04-1.25,0.4c-0.04,0.04-0.1,0.08-0.15,0.11c-0.45,0.24-0.9,0.27-1.25,0.27
		c-0.23,0-0.48-0.02-0.77-0.04c-0.26-0.02-0.52-0.04-0.79-0.04c-0.17,0-0.35,0.01-0.53,0.03c-0.03,0-0.13,0.01-0.16,0.01
		c-0.53,0-1.07,0-1.56,0.38c-0.06,0.06-0.16,0.15-0.24,0.18c-0.15,0.07-0.32,0.14-0.5,0.21c-0.5,0.19-1.08,0.42-1.41,0.98
		c-0.03,0.05-0.06,0.09-0.1,0.13c-0.19,0.23-0.27,0.51-0.35,0.78c-0.05,0.17-0.1,0.32-0.14,0.43c-0.05,0.1-0.12,0.19-0.21,0.26
		c-0.24,0.32-0.5,0.56-0.75,0.78c-0.02,0.04-0.08,0.11-0.11,0.14c-0.21,0.21-0.41,0.41-0.63,0.58c-0.03,0.06-0.13,0.18-0.18,0.23
		c-0.25,0.24-0.49,0.39-0.74,0.47c-0.04,0.01-0.09,0.02-0.13,0.03c-0.58,0.06-1.07,0.29-1.51,0.7c-0.11,0.1-0.26,0.17-0.41,0.17
		c-1.45,0.08-2.68,0.73-3.92,1.45c-0.87,0.51-1.57,0.74-2.21,0.74c-0.7,0-1.34-0.29-1.96-0.88c-0.58-0.56-1.22-0.84-1.9-0.84
		c-0.49,0-1.02,0.15-1.57,0.43c-0.05,0.03-0.08,0.07-0.1,0.12c-0.01,0.05,0,0.11,0.03,0.15c0.85,1.21,1.49,2.57,2.1,3.88
		c0.59,1.28,1.21,2.59,2.02,3.77c0.2,0.29,0.13,0.7-0.16,0.9C326.48,180.29,326.03,180.44,325.53,180.44z"/>
	<g>
		<path class="st4" d="M386.8,63.63C386.8,63.63,386.81,63.63,386.8,63.63c0.08,0.35,0.15,0.69,0.21,1.03
			c0.55,2.7,1.08,5.24-0.62,7.64c-3.05,4.31-2.22,9.07-1.16,12.73c0.32,1.12,0.67,2.23,1.02,3.34c1.44,4.59,2.8,8.92,2.55,13.67
			c-0.15,2.92,1.4,4.18,2.73,4.72c0.38,0.15,0.86,0.42,1,0.84c0.14,0.42-0.06,0.91-0.25,1.26c-0.87,1.53-0.52,2.69-0.1,4.03
			c0.98,3.2,1.94,6.06,3.79,8.66c0.44,0.62,0.32,0.89-0.4,1.79c-0.22,0.28-0.45,0.57-0.64,0.89c-0.08,0.14-0.13,0.17-0.13,0.17
			c-0.01,0-0.02,0-0.03,0c-0.13,0-0.45-0.12-0.65-0.19c-0.15-0.06-0.3-0.11-0.46-0.16c-1.7-0.54-2.65-1.08-3.13-2.58
			c-0.65-2.05-2.22-3.35-3.74-4.61l-0.59-0.49c-0.47-0.4-1.04-0.6-1.63-0.6c-0.46,0-0.93,0.12-1.4,0.35
			c-0.96,0.48-1.36,1.49-0.93,2.34c0.49,1,0.86,2.06,1.26,3.19c1.02,2.95,2.08,6,5.48,7.73c0.8,0.41,1.26,0.82,1.34,1.2
			c0.06,0.33-0.17,0.73-0.42,1.06c-0.34,0.11-0.63,0.32-0.84,0.63c-0.23,0.41-0.31,0.75-0.39,1.04c-0.08,0.3-0.13,0.51-0.23,0.65
			c-0.02,0.02-0.05,0.04-0.07,0.07c-0.69,0.81-0.7,1.75-0.03,2.58c0.01,0.01,0.02,0.03,0.03,0.04c0.42,0.54,0.73,1.01,0.89,1.52
			c0.01,0.13,0.01,0.26,0,0.39c-0.04,0.03-0.06,0.04-0.06,0.04s0,0-0.01,0c-0.02,0-0.09-0.01-0.27-0.13
			c-0.1-0.12-0.23-0.21-0.39-0.26c-0.23-0.07-0.72-0.22-1.24-0.22c-0.45,0-0.92,0.11-1.26,0.48c-0.68,0.73-0.35,1.87-0.05,2.66
			c0.02,0.04,0.04,0.09,0.06,0.13c0.52,0.88,0.48,1.86,0.44,2.99c-0.03,0.84-0.07,1.71,0.14,2.58c-0.07,0.14-0.18,0.27-0.33,0.4
			c-0.03,0.02-0.05,0.04-0.08,0.06c-0.05,0.04-0.09,0.09-0.13,0.14c-0.18,0.22-0.34,0.36-0.52,0.43c-0.02,0-0.03,0-0.05,0
			c-0.16,0-0.32,0.05-0.45,0.13c-0.16,0.11-0.39,0.18-0.66,0.26c-0.37,0.11-0.78,0.23-1.17,0.51c-0.08,0.06-0.15,0.12-0.2,0.2
			c-0.11,0.04-0.27,0.04-0.56,0.05c-0.34,0-0.77,0.01-1.19,0.18c-0.09,0.04-0.18,0.09-0.25,0.16c-0.42,0.39-0.63,0.89-0.6,1.47
			c0.01,0.14,0.05,0.28,0.12,0.4l0.14,0.23c0.41,0.65,0.47,0.82,0.33,1.01c-0.08,0.05-0.14,0.12-0.2,0.21
			c-0.14,0.21-0.33,0.4-0.57,0.57c-0.07,0.05-0.13,0.11-0.18,0.17c-0.1,0.05-0.25,0.06-0.52,0.06c-0.03,0-0.06,0-0.09,0
			c-0.14,0-0.27,0-0.4,0.01c-0.02,0-0.04,0-0.06,0c-0.54,0-1.15,0.05-1.73,0.49c-0.08,0.06-0.14,0.13-0.2,0.21
			c-0.1,0.02-0.24,0.03-0.45,0.04c-0.48,0.02-1.13,0.05-1.67,0.58c-0.03,0.03-0.07,0.07-0.09,0.11c-0.01,0-0.02,0-0.03,0
			c-0.09,0-0.23-0.06-0.57-0.23c-0.1-0.05-0.25-0.1-0.36-0.11l-0.17-0.01c-0.02,0-0.04,0-0.06,0c-0.16,0-0.31,0.04-0.45,0.13
			c-0.39,0.24-0.84,0.29-1.35,0.29c-0.16,0-0.33,0-0.5-0.01c-0.18-0.01-0.36-0.01-0.54-0.01c-0.15,0-0.3,0-0.45,0.01l-0.1,0
			c-0.58,0-1.29,0-1.95,0.51c-0.07,0.05-0.12,0.11-0.17,0.18c-0.12,0.05-0.27,0.06-0.49,0.06c-0.08,0-0.18,0-0.28-0.01
			c-0.1,0-0.21-0.01-0.32-0.01c-0.54,0-1.19,0.07-1.75,0.58c-0.03,0.03-0.06,0.06-0.09,0.09c-0.08,0.04-0.21,0.08-0.35,0.12
			c-0.32,0.09-0.71,0.2-1.06,0.52c-0.04,0.04-0.08,0.08-0.11,0.12c-0.08,0.04-0.2,0.07-0.33,0.11c-0.31,0.09-0.7,0.2-1.05,0.51
			c-0.05,0.04-0.09,0.09-0.13,0.14c-0.09,0.03-0.23,0.04-0.47,0.06c-0.48,0.02-1.13,0.06-1.67,0.6c-0.02,0.02-0.04,0.05-0.07,0.08
			c-0.09,0.04-0.22,0.06-0.44,0.06c-0.05,0-0.11,0-0.17,0c-0.02,0-0.04,0-0.06,0c-0.12,0-0.25,0-0.37,0.01c-0.38,0-1.15,0-1.8,0.53
			c-0.06,0.05-0.11,0.1-0.15,0.16c-0.08,0.03-0.19,0.06-0.3,0.1c-0.32,0.09-0.71,0.2-1.06,0.51c-0.05,0.04-0.09,0.09-0.13,0.13
			c-0.08,0.04-0.2,0.07-0.32,0.1c-0.31,0.09-0.7,0.2-1.04,0.5c-0.05,0.04-0.09,0.09-0.13,0.14c-0.07,0.03-0.21,0.05-0.49,0.06
			c-0.48,0.02-1.13,0.05-1.66,0.6c-0.03,0.03-0.05,0.05-0.07,0.08c-0.11,0.04-0.25,0.05-0.48,0.05c-0.05,0-0.1,0-0.15,0
			c-0.04,0-0.08,0-0.12,0c-0.09,0-0.19,0-0.28,0.01c-0.03,0-0.06,0-0.09,0c-0.52,0-1.13,0.06-1.7,0.5
			c-0.08,0.06-0.14,0.13-0.19,0.21c-0.1,0.02-0.24,0.03-0.44,0.04c-0.48,0.02-1.13,0.05-1.67,0.58c-0.28,0.15-0.58,0.19-0.95,0.19
			c-0.21,0-0.45-0.02-0.72-0.04c-0.27-0.02-0.55-0.04-0.83-0.04c-0.2,0-0.41,0.01-0.62,0.04l-0.08,0c-0.58,0-1.29,0-1.95,0.51
			c-0.04,0.03-0.08,0.07-0.12,0.11c-0.13,0.06-0.29,0.12-0.45,0.19c-0.55,0.21-1.29,0.5-1.74,1.26c-0.01,0.01-0.02,0.02-0.02,0.03
			c-0.3,0.35-0.41,0.73-0.49,1.04c-0.04,0.13-0.07,0.25-0.11,0.33c-0.07,0.05-0.13,0.11-0.18,0.18c-0.17,0.23-0.4,0.45-0.62,0.64
			c-0.06,0.05-0.11,0.11-0.15,0.18c-0.18,0.18-0.35,0.37-0.56,0.52c-0.1,0.07-0.18,0.17-0.23,0.27c-0.17,0.16-0.33,0.27-0.5,0.33
			c-0.73,0.08-1.36,0.38-1.89,0.88c-1.57,0.09-2.89,0.77-4.21,1.53c-0.75,0.43-1.35,0.65-1.88,0.65c-0.55,0-1.02-0.23-1.5-0.7
			c-0.7-0.68-1.5-1.02-2.35-1.02c-0.6,0-1.23,0.17-1.87,0.51c-0.21,0.11-0.37,0.31-0.43,0.55c-0.06,0.23-0.01,0.48,0.13,0.68
			c0.82,1.17,1.44,2.5,2.05,3.79c0.6,1.3,1.23,2.64,2.07,3.86c-0.31,0.22-0.63,0.32-1,0.32c-0.49,0-1.07-0.2-1.81-0.58
			c-6.18-3.24-11.52-5.24-16.81-6.29c-0.22-0.04-0.45-0.12-0.69-0.19c-0.46-0.14-1.02-0.31-1.56-0.31c-0.5,0-0.99,0.15-1.38,0.59
			c-0.58,0.67-1.21,0.72-2.26,0.74c-0.37,0.01-0.76,0.04-1.14,0.09c-0.14,0.02-0.28,0.03-0.42,0.06c-0.15-0.07-0.3-0.18-0.47-0.36
			c-0.24-0.4-0.52-0.78-0.84-1.12c-0.08-0.09-0.18-0.16-0.29-0.2c-0.67-0.28-0.72-0.59-0.62-1.69c0.03-0.35,0.06-0.71,0.04-1.07
			c-0.11-1.5-0.06-3.06-0.02-4.56c0.07-2.37,0.14-4.81-0.35-7.25c0-0.13-0.03-0.26-0.1-0.37c-0.05-0.1-0.13-0.19-0.21-0.26
			c-0.19-0.18-0.38-0.37-0.57-0.56c-0.03-0.04-0.06-0.09-0.1-0.13c-0.36-0.37-0.8-0.5-1.12-0.59c-0.12-0.04-0.25-0.07-0.33-0.11
			c-0.01-0.02-0.03-0.03-0.04-0.05c-0.36-0.36-0.79-0.49-1.11-0.58c-0.14-0.04-0.28-0.08-0.36-0.13c-0.02-0.02-0.03-0.04-0.05-0.05
			c-0.21-0.19-0.41-0.39-0.61-0.59c-0.03-0.04-0.06-0.08-0.09-0.12c-0.36-0.38-0.81-0.51-1.13-0.61c-0.12-0.03-0.24-0.07-0.32-0.11
			c-0.01-0.02-0.03-0.03-0.04-0.05c-0.36-0.37-0.8-0.49-1.12-0.59c-0.13-0.04-0.27-0.08-0.34-0.12c-0.05-0.05-0.1-0.1-0.17-0.15
			c-0.02-0.01-0.03-0.02-0.05-0.03c-0.52-0.3-0.91-0.69-1.18-1.19c-0.06-0.1-0.13-0.19-0.21-0.25c-0.03-0.09-0.04-0.24-0.06-0.48
			c-0.02-0.47-0.06-1.19-0.67-1.73c-0.01-0.01-0.02-0.02-0.04-0.03c-0.19-0.18-0.37-0.36-0.55-0.55c-0.03-0.04-0.06-0.08-0.1-0.12
			c-0.23-0.21-0.45-0.42-0.65-0.65c-0.34-0.55-0.43-1.13-0.29-1.82c0.27-0.47,0.76-0.79,1.32-1.15c0.76-0.5,1.62-1.07,2.06-2.15
			c0,0,0-0.01,0.01-0.01c0.09-0.16,0.21-0.32,0.32-0.48c0.49-0.69,1.32-1.84,0.31-3.3c-0.07-0.1-0.15-0.17-0.25-0.23
			c-0.17-0.17-0.34-0.33-0.5-0.51c-0.18-0.25-0.34-0.51-0.48-0.78c-0.86-5.3-1.08-9.98-0.66-14.28c0.29-0.65,0.9-1.05,1.6-1.52
			c0.07-0.04,0.12-0.1,0.17-0.15l0,0c0.21-0.22,0.43-0.44,0.66-0.66c0.03-0.02,0.06-0.05,0.09-0.08c0,0,0.01-0.01,0.01-0.01
			c0.2-0.22,0.42-0.43,0.63-0.64c0.08-0.06,0.15-0.13,0.21-0.21c0.03-0.04,0.05-0.08,0.07-0.13c0.17-0.35,0.5-0.53,1.03-0.8
			c0.29-0.15,0.62-0.32,0.93-0.56c0.1-0.02,0.22-0.02,0.34-0.02c0.12,0,0.26,0.01,0.39,0.01c0.14,0.01,0.3,0.01,0.46,0.01
			c0.54,0,1.16-0.08,1.73-0.51c0.04-0.03,0.09-0.06,0.12-0.1c0.09-0.09,0.16-0.2,0.21-0.31c0.66-1.41,1.94-1.91,3.42-2.49
			c1.06-0.42,2.16-0.85,3.07-1.66c0.05-0.05,0.1-0.1,0.14-0.16c0.16-0.16,0.32-0.32,0.48-0.48c0.04-0.02,0.08-0.05,0.11-0.08
			c0.17-0.15,0.36-0.28,0.55-0.4c0.49-0.33,1.09-0.74,1.45-1.47c0.05-0.11,0.08-0.23,0.08-0.36c0-0.63,0.19-1.15,0.56-1.59
			c0.07-0.09,0.13-0.18,0.16-0.29c0.05-0.15,0.12-0.29,0.22-0.4c0.01-0.01,0.01-0.01,0.02-0.02c0.04-0.05,0.22-0.1,0.37-0.14
			c0.33-0.1,0.78-0.23,1.14-0.63c0.01-0.02,0.03-0.03,0.04-0.05l0.08-0.08c0.19-0.19,0.38-0.38,0.58-0.56
			c0.03-0.03,0.06-0.06,0.09-0.1c0.22-0.22,0.44-0.44,0.66-0.65c0.03-0.03,0.06-0.06,0.09-0.09c0.18-0.18,0.35-0.36,0.54-0.53
			c0.03-0.02,0.07-0.05,0.1-0.08c0.49-0.48,1.19-0.71,1.93-0.95c0.84-0.27,1.79-0.57,2.55-1.31c0.05-0.04,0.09-0.09,0.12-0.15
			c0.16-0.16,0.32-0.33,0.49-0.48c0.08-0.05,0.15-0.12,0.21-0.2c0.25-0.35,0.48-0.71,0.7-1.08c0.26-0.42,0.5-0.81,0.78-1.16
			c0,0,0.01-0.01,0.01-0.01c0.15-0.16,0.31-0.32,0.47-0.47l0.09-0.09c0.06-0.05,0.12-0.11,0.17-0.18c0.06-0.09,0.11-0.19,0.14-0.29
			c0.55-1.82,0.48-3.64,0.41-5.4c-0.04-1-0.07-1.94,0-2.88c0.01-0.24,0-0.47-0.03-0.7c-0.02-0.18-0.06-0.36-0.1-0.54
			c0.07-0.03,0.15-0.06,0.22-0.09c0.12-0.06,0.22-0.15,0.3-0.25l0.5-0.67c0.08-0.11,0.13-0.23,0.16-0.37
			c0.21-1.25,0.96-2.18,2.04-3.19c0.13-0.12,0.21-0.28,0.25-0.45c0.32-1.62-0.22-2.98-1.6-4.05c-0.51-1.03-0.46-1.87,0.18-2.73
			c0.04-0.06,0.07-0.11,0.1-0.18c0.23-0.56,0.21-1.11,0.18-1.6c-0.03-0.5-0.02-0.76,0.1-0.96c0.04-0.04,0.09-0.08,0.12-0.12
			c0.28-0.35,0.39-0.73,0.48-1.03c0.04-0.13,0.07-0.26,0.11-0.35c0.11-0.08,0.2-0.19,0.26-0.33c0.22-0.51,0.33-1.03,0.43-1.54
			c0.18-0.9,0.32-1.47,0.84-1.88c0.05-0.04,0.1-0.09,0.14-0.15c0.08-0.04,0.21-0.08,0.32-0.11c0.31-0.09,0.73-0.22,1.08-0.57
			c0,0,0,0,0,0c0.19-0.11,0.42-0.14,0.72-0.14c0.15,0,0.31,0.01,0.5,0.02c0.18,0.01,0.38,0.02,0.58,0.02c0.59,0,1.25-0.09,1.85-0.56
			c0.05-0.04,0.1-0.09,0.14-0.14c0.09-0.03,0.22-0.06,0.31-0.07c0.41-0.08,1.04-0.21,1.45-0.83c0.58-0.85,0.79-1.76,0.95-2.66
			c0.1-0.08,0.21-0.15,0.32-0.23c1.31,0.01,2.63,0.01,3.94,0.01c0.8,0,1.6,0,2.4,0l3.17,0l8.73,0l17.45,0l4.55,0
			c1.54,0,3.09,0,4.63,0c2.7,0,5.39-0.01,8.09-0.03c0.02,0,0.05,0,0.07,0c0.27,0,0.51,0.03,0.76,0.05c0.3,0.03,0.62,0.05,0.96,0.05
			C386.1,63.75,386.45,63.72,386.8,63.63 M386.8,62.33c-0.11,0-0.22,0.01-0.32,0.04c-0.21,0.05-0.44,0.08-0.72,0.08
			c-0.28,0-0.56-0.03-0.84-0.05l-0.11-0.01c-0.23-0.02-0.48-0.04-0.76-0.04l-0.09,0c-2.35,0.02-4.91,0.03-8.07,0.03
			c-1.54,0-3.09,0-4.63,0l-4.55,0l-17.45,0l-8.73,0l-3.17,0l-2.4,0c-1.31,0-2.62,0-3.93-0.01c0,0,0,0-0.01,0
			c-0.25,0-0.49,0.07-0.7,0.21c-0.17,0.11-0.32,0.21-0.45,0.32c-0.23,0.2-0.39,0.47-0.45,0.77c-0.14,0.76-0.29,1.5-0.74,2.15
			c-0.11,0.16-0.25,0.21-0.63,0.29c-0.14,0.03-0.34,0.07-0.47,0.12c-0.22,0.07-0.41,0.2-0.56,0.37c-0.25,0.18-0.55,0.26-1.02,0.26
			c-0.18,0-0.35-0.01-0.51-0.02c-0.22-0.01-0.4-0.02-0.57-0.02c-0.39,0-0.9,0.04-1.38,0.33c-0.1,0.06-0.19,0.13-0.27,0.21
			c-0.12,0.11-0.31,0.17-0.52,0.23c-0.16,0.05-0.36,0.11-0.54,0.2c-0.16,0.08-0.3,0.19-0.41,0.33c-0.88,0.73-1.08,1.73-1.26,2.61
			c-0.08,0.41-0.16,0.81-0.3,1.17c-0.12,0.11-0.22,0.25-0.29,0.4c-0.09,0.19-0.14,0.38-0.19,0.55c-0.06,0.21-0.11,0.4-0.21,0.53
			c-0.09,0.08-0.17,0.17-0.23,0.27c-0.37,0.57-0.34,1.19-0.31,1.73c0.02,0.38,0.04,0.7-0.07,0.98c-0.89,1.23-0.98,2.59-0.26,4.04
			c0.09,0.17,0.21,0.33,0.37,0.45c0.95,0.73,1.32,1.57,1.15,2.62c-1.03,0.98-2,2.12-2.3,3.71l-0.37,0.49l-0.08,0.03
			c-0.58,0.25-0.89,0.88-0.75,1.49c0.03,0.13,0.06,0.25,0.07,0.38c0.02,0.16,0.03,0.32,0.02,0.49c-0.07,1.01-0.04,1.97,0,3
			c0.07,1.7,0.13,3.31-0.33,4.9c0,0,0,0,0,0l-0.09,0.09c-0.16,0.16-0.32,0.32-0.48,0.49c-0.02,0.02-0.05,0.05-0.07,0.08
			c-0.01,0.01-0.01,0.01-0.02,0.02l0,0c-0.34,0.42-0.61,0.86-0.87,1.29c-0.19,0.31-0.39,0.64-0.6,0.93
			c-0.04,0.03-0.07,0.06-0.1,0.09c-0.18,0.17-0.36,0.35-0.53,0.53c-0.04,0.04-0.08,0.09-0.11,0.13c-0.55,0.51-1.3,0.75-2.02,0.98
			c-0.8,0.26-1.71,0.55-2.42,1.23c-0.04,0.03-0.07,0.06-0.1,0.09c-0.2,0.19-0.39,0.38-0.58,0.57c-0.02,0.02-0.05,0.05-0.07,0.07
			c-0.23,0.22-0.45,0.44-0.67,0.66c-0.03,0.03-0.06,0.06-0.08,0.09c-0.19,0.18-0.39,0.38-0.58,0.57l-0.08,0.07
			c-0.04,0.04-0.07,0.07-0.1,0.11c-0.09,0.1-0.26,0.16-0.53,0.24c-0.3,0.09-0.67,0.2-0.95,0.51c-0.03,0.03-0.05,0.05-0.07,0.08
			c-0.18,0.22-0.32,0.48-0.42,0.75c-0.5,0.63-0.77,1.38-0.8,2.23c-0.21,0.37-0.57,0.62-0.96,0.87c-0.23,0.15-0.44,0.3-0.66,0.48
			c-0.07,0.04-0.13,0.09-0.18,0.15c-0.17,0.17-0.34,0.34-0.51,0.51c-0.04,0.04-0.07,0.08-0.11,0.13c-0.73,0.64-1.66,1-2.65,1.39
			c-1.58,0.62-3.21,1.26-4.1,3.1c-0.23,0.16-0.5,0.22-0.91,0.22c-0.14,0-0.27-0.01-0.4-0.01c-0.17-0.01-0.31-0.01-0.45-0.01
			c-0.21,0-0.38,0.01-0.54,0.04c-0.21,0.03-0.41,0.12-0.58,0.25c-0.22,0.16-0.48,0.3-0.73,0.43c-0.57,0.29-1.2,0.62-1.57,1.32
			c-0.02,0.02-0.04,0.04-0.06,0.05c-0.22,0.22-0.44,0.44-0.65,0.66c-0.02,0.02-0.04,0.04-0.06,0.06c-0.21,0.2-0.42,0.41-0.62,0.62
			c-0.03,0.02-0.06,0.05-0.08,0.08c-0.78,0.52-1.59,1.07-2.02,2.04c-0.06,0.13-0.09,0.27-0.11,0.41c-0.43,4.42-0.21,9.2,0.67,14.62
			c0.02,0.14,0.07,0.27,0.13,0.39c0.17,0.33,0.36,0.64,0.57,0.93c0.03,0.04,0.07,0.09,0.1,0.13c0.18,0.19,0.36,0.37,0.54,0.55
			c0.04,0.04,0.09,0.08,0.13,0.12c0.36,0.57,0.23,0.94-0.34,1.73l-0.05,0.07c-0.12,0.17-0.25,0.35-0.35,0.53
			c-0.03,0.06-0.06,0.12-0.09,0.18c-0.31,0.71-0.89,1.09-1.56,1.54c-0.64,0.42-1.3,0.86-1.73,1.58c-0.07,0.12-0.12,0.25-0.15,0.39
			c-0.21,1.01-0.06,1.94,0.46,2.77c0.04,0.06,0.09,0.13,0.14,0.18c0.2,0.23,0.44,0.46,0.71,0.71c0.02,0.03,0.05,0.06,0.08,0.09
			c0.19,0.2,0.39,0.39,0.59,0.58c0.03,0.03,0.07,0.06,0.1,0.09c0.15,0.13,0.19,0.34,0.21,0.79c0.02,0.34,0.04,0.61,0.14,0.88
			c0.07,0.19,0.18,0.35,0.33,0.49c0.37,0.65,0.9,1.18,1.58,1.58c0.09,0.09,0.19,0.17,0.3,0.23c0.2,0.11,0.4,0.17,0.59,0.22
			c0.23,0.07,0.44,0.13,0.57,0.25c0.12,0.15,0.24,0.23,0.41,0.31c0.17,0.08,0.35,0.13,0.51,0.18c0.21,0.06,0.41,0.12,0.54,0.23
			c0.04,0.06,0.09,0.11,0.14,0.16c0.23,0.23,0.44,0.44,0.66,0.64c0.08,0.08,0.16,0.15,0.26,0.2c0.22,0.13,0.45,0.2,0.65,0.26
			c0.23,0.07,0.43,0.13,0.56,0.25c0.11,0.13,0.24,0.22,0.4,0.3c0.18,0.09,0.37,0.14,0.53,0.19c0.21,0.06,0.4,0.12,0.53,0.23
			c0.03,0.05,0.07,0.09,0.11,0.13c0.17,0.18,0.36,0.36,0.54,0.54c0,0.01,0,0.01,0,0.02c0.46,2.29,0.39,4.66,0.33,6.96
			c-0.04,1.53-0.09,3.12,0.02,4.69c0.02,0.26-0.01,0.56-0.03,0.87c-0.08,0.96-0.2,2.28,1.32,2.96c0.23,0.25,0.43,0.53,0.61,0.83
			c0.05,0.08,0.11,0.16,0.17,0.23c0.29,0.3,0.58,0.51,0.89,0.65c0.17,0.07,0.34,0.11,0.52,0.11c0.1,0,0.21-0.01,0.31-0.04
			c0.05-0.01,0.1-0.02,0.15-0.02l0.15-0.02c0.3-0.04,0.63-0.07,0.99-0.08c1.04-0.03,2.22-0.06,3.21-1.19
			c0.07-0.08,0.15-0.15,0.4-0.15c0.35,0,0.79,0.13,1.18,0.25l0.07,0.02c0.24,0.07,0.49,0.15,0.75,0.2
			c5.16,1.02,10.39,2.98,16.45,6.17c0.96,0.51,1.71,0.73,2.41,0.73c0.62,0,1.21-0.19,1.74-0.56c0.59-0.41,0.73-1.22,0.33-1.81
			c-0.78-1.14-1.38-2.42-1.96-3.66c-0.55-1.19-1.12-2.4-1.85-3.53c0.28-0.1,0.54-0.15,0.79-0.15c0.52,0,0.99,0.22,1.45,0.66
			c0.74,0.72,1.53,1.06,2.41,1.06c0.76,0,1.56-0.26,2.54-0.83c1.16-0.67,2.32-1.29,3.63-1.36c0.3-0.02,0.59-0.14,0.81-0.35
			c0.33-0.31,0.71-0.49,1.14-0.53c0.09-0.01,0.18-0.03,0.27-0.06c0.35-0.11,0.66-0.31,0.99-0.62c0.08-0.07,0.14-0.15,0.2-0.24
			c0.24-0.19,0.44-0.39,0.61-0.57c0.04-0.05,0.09-0.1,0.14-0.16c0.24-0.21,0.5-0.46,0.73-0.75c0.15-0.12,0.28-0.28,0.36-0.46
			c0.08-0.18,0.13-0.36,0.18-0.52c0.06-0.23,0.12-0.42,0.23-0.55c0,0,0,0,0,0c0.06-0.07,0.11-0.14,0.16-0.22
			c0.2-0.34,0.56-0.5,1.08-0.7c0.19-0.07,0.38-0.15,0.54-0.23c0.14-0.07,0.27-0.16,0.38-0.28c0.29-0.21,0.62-0.22,1.13-0.22l0.09,0
			c0.05,0,0.11,0,0.16-0.01c0.14-0.02,0.28-0.03,0.45-0.03c0.25,0,0.5,0.02,0.74,0.04c0.3,0.02,0.57,0.04,0.81,0.04
			c0.39,0,0.97-0.04,1.55-0.34c0.11-0.06,0.21-0.13,0.3-0.22c0.17-0.17,0.39-0.19,0.83-0.22c0.24-0.01,0.46-0.03,0.67-0.07
			c0.3-0.07,0.56-0.24,0.74-0.48c0.2-0.14,0.45-0.19,0.86-0.19l0.07,0c0.01,0,0.01,0,0.02,0c0.02,0,0.04,0,0.06,0
			c0.07,0,0.14,0,0.22,0l0.1,0l0.17,0c0.31,0,0.63-0.02,0.96-0.15c0.21-0.08,0.4-0.22,0.54-0.4c0.15-0.15,0.36-0.17,0.77-0.19
			c0.37-0.02,0.67-0.04,0.97-0.18c0.18-0.08,0.34-0.21,0.47-0.37c0.12-0.09,0.3-0.14,0.51-0.2c0.14-0.04,0.33-0.09,0.5-0.17
			c0.18-0.08,0.34-0.21,0.47-0.36c0.13-0.1,0.32-0.16,0.54-0.22c0.16-0.05,0.32-0.09,0.44-0.14c0.2-0.08,0.38-0.22,0.52-0.39
			c0.28-0.21,0.67-0.21,0.93-0.21c0.02,0,0.04,0,0.06,0c0.1,0,0.2,0,0.31,0c0.1,0,0.17,0,0.24,0c0.3,0,0.66-0.02,1.01-0.19
			c0.18-0.09,0.33-0.21,0.46-0.36c0.13-0.13,0.34-0.16,0.78-0.18c0.32-0.02,0.58-0.04,0.84-0.13c0.23-0.08,0.44-0.23,0.59-0.42
			c0.13-0.1,0.31-0.15,0.51-0.21c0.18-0.05,0.35-0.1,0.52-0.18c0.18-0.08,0.33-0.2,0.45-0.35c0.12-0.1,0.31-0.15,0.52-0.21
			c0.19-0.06,0.4-0.12,0.59-0.22c0.14-0.08,0.27-0.18,0.38-0.3c0.19-0.16,0.43-0.22,0.86-0.22c0.1,0,0.19,0,0.28,0
			c0.12,0,0.23,0.01,0.32,0.01c0.3,0,0.65-0.02,0.99-0.17c0.2-0.08,0.37-0.22,0.5-0.38c0.28-0.19,0.61-0.2,1.11-0.2l0.09,0
			c0,0,0.01,0,0.01,0c0.03,0,0.05,0,0.08,0c0.12-0.01,0.24-0.01,0.37-0.01c0.17,0,0.34,0,0.51,0.01c0.18,0.01,0.36,0.01,0.54,0.01
			c0.57,0,1.23-0.05,1.88-0.39c0.4,0.2,0.7,0.34,1.08,0.34c0.1,0,0.24-0.02,0.34-0.04c0.28-0.07,0.53-0.23,0.7-0.45
			c0.17-0.15,0.4-0.18,0.81-0.2c0.25-0.01,0.47-0.03,0.68-0.08c0.29-0.07,0.55-0.24,0.73-0.48c0.24-0.16,0.51-0.19,0.89-0.19
			c0,0,0.01,0,0.01,0c0.03,0,0.08,0,0.1,0c0.09,0,0.18,0,0.27,0l0.08,0l0.09,0c0.36,0,0.7-0.01,1.06-0.17
			c0.17-0.08,0.33-0.19,0.45-0.34c0.32-0.24,0.58-0.51,0.79-0.8c0.08-0.07,0.15-0.14,0.21-0.23c0.69-0.95,0.11-1.87-0.28-2.48
			l-0.06-0.1c0.01-0.1,0.05-0.19,0.12-0.27c0.19-0.05,0.41-0.06,0.64-0.06c0.35,0,0.65-0.01,0.95-0.11c0.24-0.08,0.45-0.22,0.6-0.42
			c0.21-0.13,0.45-0.2,0.73-0.29c0.28-0.08,0.59-0.17,0.88-0.34c0.13-0.01,0.25-0.04,0.38-0.09c0.5-0.2,0.83-0.55,1.04-0.81
			c0.02-0.01,0.02-0.02,0.05-0.04c0.29-0.25,0.5-0.51,0.65-0.81c0.14-0.27,0.17-0.59,0.1-0.89c-0.17-0.7-0.14-1.45-0.11-2.23
			c0.05-1.22,0.1-2.47-0.6-3.67c-0.4-1.04-0.21-1.26-0.2-1.27c0.05-0.05,0.19-0.07,0.31-0.07c0.26,0,0.54,0.07,0.74,0.13
			c0.05,0.05,0.11,0.09,0.17,0.13c0.22,0.15,0.57,0.35,1,0.35c0.09,0,0.18-0.01,0.27-0.03c0.03-0.01,0.06-0.01,0.1-0.02
			c0.18-0.05,0.35-0.14,0.51-0.27c0.29-0.24,0.47-0.59,0.48-0.97c0.01-0.17,0-0.34-0.01-0.51c-0.01-0.1-0.02-0.21-0.06-0.31
			c-0.23-0.76-0.67-1.38-1.11-1.94c-0.02-0.03-0.04-0.05-0.07-0.08c-0.25-0.32-0.26-0.56,0.01-0.88c0.06-0.06,0.12-0.13,0.17-0.2
			c0.24-0.35,0.33-0.73,0.42-1.07c0.06-0.24,0.11-0.43,0.23-0.66c0.04-0.04,0.08-0.07,0.14-0.09c0.25-0.08,0.47-0.24,0.64-0.44
			c0.58-0.75,0.8-1.44,0.67-2.11c-0.16-0.81-0.82-1.5-2.03-2.11c-2.93-1.49-3.86-4.16-4.84-6.99c-0.39-1.11-0.79-2.26-1.32-3.34
			c-0.11-0.22,0.09-0.47,0.36-0.61c0.28-0.14,0.55-0.21,0.81-0.21c0.3,0,0.57,0.1,0.79,0.29l0.6,0.5c1.44,1.2,2.8,2.32,3.33,4.01
			c0.71,2.22,2.35,2.91,3.98,3.42c0.12,0.04,0.24,0.08,0.36,0.13c0.52,0.19,0.82,0.28,1.14,0.28c0.1,0,0.22-0.01,0.31-0.03
			c0.13-0.03,0.25-0.08,0.37-0.14c0.24-0.14,0.44-0.36,0.61-0.65c0.14-0.24,0.33-0.48,0.52-0.72c0.63-0.79,1.5-1.88,0.44-3.36
			c-1.74-2.44-2.66-5.19-3.61-8.28c-0.42-1.36-0.58-2.01-0.01-3.01c0.47-0.82,0.59-1.63,0.35-2.33c-0.17-0.49-0.61-1.16-1.74-1.62
			c-1.39-0.56-2.02-1.69-1.93-3.45c0.26-4.98-1.13-9.42-2.6-14.12l-0.03-0.1c-0.33-1.05-0.67-2.14-0.98-3.22
			c-0.98-3.38-1.76-7.76,0.97-11.62c2.02-2.86,1.42-5.8,0.83-8.65c-0.07-0.34-0.14-0.67-0.2-1.01c-0.06-0.33-0.26-0.63-0.54-0.83
			c-0.05-0.03-0.1-0.06-0.16-0.09C387.21,62.38,387.01,62.33,386.8,62.33L386.8,62.33z"/>
	</g>
</g>
<g>
	<text transform="matrix(1 0 0 1 325.1274 117.2573)" class="st4 st2 st5">100</text>
</g>
<text transform="matrix(1 0 0 1 307.6431 139.8906)" class="st4 st2 st6">WISCONSIN</text>
<text transform="matrix(1 0 0 1 280.7222 46.374)" class="st1 st2 st3">Jeffrey DAHMER</text>
<g>
	<text transform="matrix(1 0 0 1 276.1001 238.8427)" class="st1 st2 st3">DENNIS Rader</text>
</g>
<path class="st8" d="M271.57,326.96c0.01,0.06,0.01,0.12,0.03,0.17h0.15l140.35,0.02l0-0.15l0.01-10.88
	c0-12.77,0.01-25.98,0.11-38.97c0.01-1.12-0.25-1.85-0.92-2.46c-0.23-0.2-0.5-0.39-0.83-0.58c-0.98-0.39-1.3-1.23-1.53-1.85
	c-0.05-0.14-0.1-0.27-0.15-0.38c-0.97-0.48-1.13-1.42-1.24-2.06c-0.06-0.37-0.12-0.69-0.28-0.83l-0.59-0.63
	c-0.3-0.37-0.51-0.61-0.72-0.8c-0.02-0.02-0.03-0.03-0.05-0.05l-0.62-0.62c-0.01-0.01-0.02-0.02-0.02-0.02l-0.63-0.63
	c-0.08-0.06-0.15-0.14-0.21-0.23c-0.03-0.05-0.05-0.1-0.07-0.15c-0.81-2.17-0.29-4.11,1.54-5.77c0.26-0.39,0.61-0.7,0.93-0.97
	c0.79-0.68,0.95-0.86,0.5-1.54c-0.02-0.02-0.03-0.04-0.05-0.07c0,0,0,0,0,0c-0.51-0.82-0.88-0.91-1.36-0.8
	c-1.81,0.43-3.18-0.39-4.07-1.09c-0.03-0.02-0.06-0.04-0.08-0.07c-0.01-0.01-0.02-0.02-0.04-0.03c-0.22-0.22-0.45-0.45-0.67-0.67
	c-0.01-0.01-0.02-0.02-0.04-0.04l-0.19-0.19c-0.15-0.15-0.31-0.31-0.46-0.46c-0.5-0.31-0.94-0.71-1.3-1.18
	c-0.16,0.02-0.33,0.03-0.49,0.05c-0.16,0.02-0.32,0.04-0.49,0.05c-1.56,0.16-3.13,0.2-4.61,0.18c-39.55-0.02-79.1-0.02-118.66,0
	c-0.29,0.02-0.67-0.02-1.01-0.04c-0.56-0.03-1.11-0.06-1.61,0.01c-0.2,0.03-0.39,0.07-0.58,0.13c-0.01,0.03-0.01,0.06-0.01,0.09
	c-0.06,0.31-0.06,0.66-0.06,1.04l0,0.35c0,23.56,0,47.12,0.01,70.69c0,0.18-0.01,0.36-0.02,0.53
	C271.52,326.45,271.53,326.72,271.57,326.96z"/>
<g>
	<text transform="matrix(1 0 0 1 323.8833 293.7929)" class="st4 st2 st5">76 </text>
</g>
<text transform="matrix(1 0 0 1 317.5894 315.4394)" class="st4 st2 st6">Kansas</text>
<g>
	<text transform="matrix(1 0 0 1 567.0107 238.8417)" class="st1 st2 st3">ED GEIN</text>
</g>
<path class="st9" d="M531.04,327.67c-0.17-0.17-0.34-0.33-0.5-0.51c-0.18-0.25-0.34-0.51-0.48-0.78c-0.86-5.3-1.08-9.98-0.66-14.28
	c0.29-0.65,0.9-1.05,1.6-1.52c0.07-0.04,0.12-0.1,0.17-0.15l0,0c0.21-0.22,0.43-0.44,0.66-0.66c0.03-0.02,0.06-0.05,0.09-0.08
	c0,0,0.01-0.01,0.01-0.01c0.2-0.22,0.42-0.43,0.63-0.64c0.08-0.06,0.15-0.13,0.21-0.21c0.03-0.04,0.05-0.08,0.07-0.13
	c0.17-0.35,0.5-0.53,1.03-0.8c0.29-0.15,0.62-0.32,0.93-0.56c0.21-0.03,0.47-0.02,0.73-0.01c0.61,0.03,1.44,0.06,2.19-0.49
	c0.04-0.03,0.09-0.06,0.12-0.1c0.09-0.09,0.16-0.2,0.21-0.31c0.66-1.41,1.94-1.91,3.42-2.49c1.06-0.42,2.16-0.85,3.07-1.66
	c0.05-0.05,0.1-0.1,0.14-0.16c0.16-0.16,0.32-0.32,0.48-0.48c0.04-0.02,0.08-0.05,0.11-0.08c0.17-0.15,0.36-0.28,0.55-0.4
	c0.49-0.33,1.09-0.74,1.45-1.47c0.05-0.11,0.08-0.23,0.08-0.36c0-0.63,0.19-1.15,0.56-1.59c0.07-0.09,0.13-0.18,0.16-0.29
	c0.05-0.15,0.12-0.29,0.22-0.4c0.01-0.01,0.01-0.01,0.02-0.02c0.04-0.05,0.22-0.1,0.37-0.14c0.33-0.1,0.78-0.23,1.14-0.63
	c0.01-0.02,0.03-0.03,0.04-0.05l0.08-0.08c0.19-0.19,0.38-0.38,0.58-0.56c0.03-0.03,0.06-0.06,0.09-0.1
	c0.22-0.22,0.44-0.44,0.66-0.65c0.03-0.03,0.06-0.06,0.09-0.09c0.18-0.18,0.35-0.36,0.54-0.53c0.03-0.02,0.07-0.05,0.1-0.08
	c0.49-0.48,1.19-0.71,1.93-0.95c0.84-0.27,1.79-0.57,2.55-1.31c0.05-0.04,0.09-0.09,0.12-0.15c0.16-0.16,0.32-0.33,0.49-0.48
	c0.08-0.05,0.15-0.12,0.21-0.2c0.25-0.35,0.48-0.71,0.7-1.08c0.26-0.42,0.5-0.81,0.78-1.16c0,0,0.01-0.01,0.01-0.01
	c0.15-0.16,0.31-0.32,0.47-0.47l0.09-0.09c0.06-0.05,0.12-0.11,0.17-0.18c0.06-0.09,0.11-0.19,0.14-0.29
	c0.55-1.82,0.48-3.64,0.41-5.4c-0.04-1-0.07-1.94,0-2.88c0.01-0.24,0-0.47-0.03-0.7c-0.02-0.18-0.06-0.36-0.1-0.54
	c0.07-0.03,0.15-0.06,0.22-0.09c0.12-0.06,0.22-0.15,0.3-0.25l0.5-0.67c0.08-0.11,0.13-0.23,0.16-0.37
	c0.21-1.25,0.96-2.18,2.04-3.19c0.13-0.12,0.21-0.28,0.25-0.45c0.32-1.62-0.22-2.98-1.6-4.05c-0.51-1.03-0.46-1.87,0.18-2.73
	c0.04-0.06,0.07-0.11,0.1-0.18c0.23-0.56,0.21-1.11,0.18-1.6c-0.03-0.5-0.02-0.76,0.1-0.96c0.04-0.04,0.09-0.08,0.12-0.12
	c0.28-0.35,0.39-0.73,0.48-1.03c0.04-0.13,0.07-0.26,0.11-0.35c0.11-0.08,0.2-0.19,0.26-0.33c0.22-0.51,0.33-1.03,0.43-1.54
	c0.18-0.9,0.32-1.47,0.84-1.88c0.05-0.04,0.1-0.09,0.14-0.15c0.08-0.04,0.21-0.08,0.32-0.11c0.31-0.09,0.73-0.22,1.08-0.57
	c0,0,0,0,0,0c0.28-0.17,0.65-0.16,1.22-0.13c0.72,0.04,1.62,0.09,2.43-0.54c0.05-0.04,0.1-0.09,0.14-0.14
	c0.09-0.03,0.22-0.06,0.31-0.07c0.41-0.08,1.04-0.21,1.45-0.83c0.58-0.85,0.79-1.76,0.95-2.66c0.1-0.08,0.21-0.15,0.32-0.23
	c2.11,0.01,4.23,0.01,6.34,0.01l3.17,0l8.73,0l17.45,0l4.55,0c4.24,0.01,8.48,0.01,12.73-0.03c0.3,0,0.55,0.02,0.83,0.05
	c0.6,0.05,1.3,0.11,2-0.06c0,0,0.01,0,0.01,0c0.07,0.34,0.14,0.68,0.21,1.03c0.55,2.7,1.08,5.24-0.62,7.64
	c-3.05,4.31-2.22,9.07-1.16,12.73c0.32,1.12,0.67,2.23,1.02,3.34c1.44,4.59,2.8,8.92,2.55,13.67c-0.15,2.92,1.4,4.18,2.73,4.72
	c0.38,0.15,0.86,0.42,1,0.84c0.14,0.42-0.06,0.91-0.25,1.26c-0.87,1.53-0.52,2.69-0.1,4.03c0.98,3.2,1.94,6.06,3.79,8.66
	c0.44,0.62,0.32,0.89-0.4,1.79c-0.22,0.28-0.45,0.57-0.64,0.89c-0.08,0.14-0.13,0.17-0.13,0.17c-0.11,0.02-0.47-0.11-0.68-0.19
	c-0.15-0.06-0.3-0.11-0.46-0.16c-1.7-0.54-2.65-1.08-3.13-2.58c-0.65-2.05-2.22-3.35-3.74-4.61l-0.59-0.49
	c-0.82-0.7-1.96-0.79-3.03-0.25c-0.96,0.48-1.36,1.49-0.93,2.34c0.49,1,0.86,2.06,1.26,3.19c1.02,2.95,2.08,6,5.48,7.73
	c0.8,0.41,1.26,0.82,1.34,1.2c0.06,0.33-0.17,0.73-0.42,1.06c-0.34,0.11-0.63,0.32-0.84,0.63c-0.23,0.41-0.31,0.75-0.39,1.04
	c-0.08,0.3-0.13,0.51-0.23,0.65c-0.02,0.02-0.05,0.04-0.07,0.07c-0.69,0.81-0.7,1.75-0.03,2.58c0.01,0.01,0.02,0.03,0.03,0.04
	c0.42,0.54,0.73,1.01,0.89,1.52c0.01,0.13,0.01,0.26,0,0.39c-0.04,0.03-0.06,0.04-0.06,0.04s-0.07,0.01-0.28-0.13
	c-0.1-0.12-0.23-0.21-0.39-0.26c-0.44-0.13-1.76-0.54-2.5,0.26c-0.68,0.73-0.35,1.87-0.05,2.66c0.02,0.04,0.04,0.09,0.06,0.13
	c0.52,0.88,0.48,1.86,0.44,2.99c-0.03,0.84-0.07,1.71,0.14,2.58c-0.07,0.14-0.18,0.27-0.33,0.4c-0.03,0.02-0.05,0.04-0.08,0.06
	c-0.05,0.04-0.09,0.09-0.13,0.14c-0.18,0.22-0.34,0.36-0.52,0.43c-0.18-0.01-0.36,0.04-0.49,0.13c-0.16,0.11-0.39,0.18-0.66,0.26
	c-0.37,0.11-0.78,0.23-1.17,0.51c-0.08,0.06-0.15,0.12-0.2,0.2c-0.11,0.04-0.27,0.04-0.56,0.05c-0.34,0-0.77,0.01-1.19,0.18
	c-0.09,0.04-0.18,0.09-0.25,0.16c-0.42,0.39-0.63,0.89-0.6,1.47c0.01,0.14,0.05,0.28,0.12,0.4l0.14,0.23
	c0.41,0.65,0.47,0.82,0.33,1.01c-0.08,0.05-0.14,0.12-0.2,0.21c-0.14,0.21-0.33,0.4-0.57,0.57c-0.07,0.05-0.13,0.11-0.18,0.17
	c-0.11,0.05-0.28,0.06-0.62,0.06c-0.14,0-0.27,0-0.4,0.01c-0.55,0-1.19,0.04-1.79,0.49c-0.08,0.06-0.14,0.13-0.2,0.21
	c-0.1,0.02-0.24,0.03-0.45,0.04c-0.47,0.02-1.13,0.05-1.67,0.58c-0.03,0.03-0.07,0.07-0.09,0.11c-0.08,0.02-0.22-0.03-0.6-0.23
	c-0.1-0.05-0.25-0.1-0.36-0.11l-0.17-0.01c-0.18-0.01-0.36,0.03-0.51,0.12c-0.52,0.32-1.13,0.3-1.85,0.28
	c-0.33-0.01-0.66-0.02-0.99,0l-0.1,0c-0.58,0-1.29,0-1.95,0.51c-0.07,0.05-0.12,0.11-0.17,0.18c-0.16,0.07-0.39,0.07-0.77,0.06
	c-0.59-0.02-1.39-0.04-2.07,0.57c-0.03,0.03-0.06,0.06-0.09,0.09c-0.08,0.04-0.21,0.08-0.35,0.12c-0.32,0.09-0.71,0.2-1.06,0.52
	c-0.04,0.04-0.08,0.08-0.11,0.12c-0.08,0.04-0.2,0.07-0.33,0.11c-0.31,0.09-0.7,0.2-1.05,0.51c-0.05,0.04-0.09,0.09-0.13,0.14
	c-0.09,0.03-0.23,0.04-0.47,0.06c-0.48,0.02-1.13,0.06-1.67,0.6c-0.02,0.02-0.04,0.05-0.07,0.08c-0.11,0.05-0.28,0.07-0.62,0.06
	c-0.15,0-0.29,0-0.43,0.01c-0.38,0-1.15,0-1.8,0.53c-0.06,0.05-0.11,0.1-0.15,0.16c-0.08,0.03-0.19,0.06-0.3,0.1
	c-0.32,0.09-0.71,0.2-1.06,0.51c-0.05,0.04-0.09,0.09-0.13,0.13c-0.08,0.04-0.2,0.07-0.32,0.1c-0.31,0.09-0.7,0.2-1.04,0.5
	c-0.05,0.04-0.09,0.09-0.13,0.14c-0.07,0.03-0.21,0.05-0.49,0.06c-0.48,0.02-1.13,0.05-1.66,0.6c-0.03,0.03-0.05,0.05-0.07,0.08
	c-0.13,0.05-0.31,0.06-0.63,0.05c-0.13,0-0.27,0-0.4,0.01c-0.53-0.01-1.19,0.04-1.79,0.5c-0.08,0.06-0.14,0.13-0.19,0.21
	c-0.1,0.02-0.24,0.03-0.44,0.04c-0.48,0.02-1.13,0.05-1.67,0.58c-0.44,0.23-0.94,0.21-1.67,0.16c-0.47-0.03-0.95-0.07-1.45,0
	l-0.08,0c-0.58,0-1.29,0-1.95,0.51c-0.04,0.03-0.08,0.07-0.12,0.11c-0.13,0.06-0.29,0.12-0.45,0.19c-0.55,0.21-1.29,0.5-1.74,1.26
	c-0.01,0.01-0.02,0.02-0.02,0.03c-0.3,0.35-0.41,0.73-0.49,1.04c-0.04,0.13-0.07,0.25-0.11,0.33c-0.07,0.05-0.13,0.11-0.18,0.18
	c-0.17,0.23-0.4,0.45-0.62,0.64c-0.06,0.05-0.11,0.11-0.15,0.18c-0.18,0.18-0.35,0.37-0.56,0.52c-0.1,0.07-0.18,0.17-0.23,0.27
	c-0.17,0.16-0.33,0.27-0.5,0.33c-0.73,0.08-1.36,0.38-1.89,0.88c-1.57,0.09-2.89,0.77-4.21,1.53c-1.52,0.88-2.44,0.87-3.39-0.05
	c-1.2-1.16-2.66-1.34-4.22-0.52c-0.21,0.11-0.37,0.31-0.43,0.55c-0.06,0.23-0.01,0.48,0.13,0.68c0.82,1.17,1.44,2.5,2.05,3.79
	c0.6,1.3,1.23,2.64,2.07,3.86c-0.73,0.51-1.52,0.41-2.81-0.26c-6.18-3.24-11.52-5.24-16.81-6.29c-0.22-0.04-0.45-0.12-0.69-0.19
	c-0.9-0.27-2.12-0.65-2.93,0.28c-0.58,0.67-1.21,0.72-2.26,0.74c-0.37,0.01-0.76,0.04-1.14,0.09c-0.14,0.02-0.28,0.03-0.42,0.06
	c-0.15-0.07-0.3-0.18-0.47-0.36c-0.24-0.4-0.52-0.78-0.84-1.12c-0.08-0.09-0.18-0.16-0.29-0.2c-0.67-0.28-0.72-0.59-0.62-1.69
	c0.03-0.35,0.06-0.71,0.04-1.07c-0.11-1.5-0.06-3.06-0.02-4.56c0.07-2.37,0.14-4.81-0.35-7.25c0-0.13-0.03-0.26-0.1-0.37
	c-0.05-0.1-0.13-0.19-0.21-0.26c-0.19-0.18-0.38-0.37-0.57-0.56c-0.03-0.04-0.06-0.09-0.1-0.13c-0.36-0.37-0.8-0.5-1.12-0.59
	c-0.12-0.04-0.25-0.07-0.33-0.11c-0.01-0.02-0.03-0.03-0.04-0.05c-0.36-0.36-0.79-0.49-1.11-0.58c-0.14-0.04-0.28-0.08-0.36-0.13
	c-0.02-0.02-0.03-0.04-0.05-0.05c-0.21-0.19-0.41-0.39-0.61-0.59c-0.03-0.04-0.06-0.08-0.09-0.12c-0.36-0.38-0.81-0.51-1.13-0.61
	c-0.12-0.03-0.24-0.07-0.32-0.11c-0.01-0.02-0.03-0.03-0.04-0.05c-0.36-0.37-0.8-0.49-1.12-0.59c-0.13-0.04-0.27-0.08-0.34-0.12
	c-0.05-0.05-0.1-0.1-0.17-0.15c-0.02-0.01-0.03-0.02-0.05-0.03c-0.52-0.3-0.91-0.69-1.18-1.19c-0.06-0.1-0.13-0.19-0.21-0.25
	c-0.03-0.09-0.04-0.24-0.06-0.48c-0.02-0.47-0.06-1.19-0.67-1.73c-0.01-0.01-0.02-0.02-0.04-0.03c-0.19-0.18-0.37-0.36-0.55-0.55
	c-0.03-0.04-0.06-0.08-0.1-0.12c-0.23-0.21-0.45-0.42-0.65-0.65c-0.34-0.55-0.43-1.13-0.29-1.82c0.27-0.47,0.76-0.79,1.32-1.15
	c0.76-0.5,1.62-1.07,2.06-2.15c0,0,0-0.01,0.01-0.01c0.09-0.16,0.21-0.32,0.32-0.48c0.49-0.69,1.32-1.84,0.31-3.3
	C531.22,327.81,531.14,327.73,531.04,327.67z"/>
<g>
	<text transform="matrix(1 0 0 1 573.0391 306.6025)" class="st4 st2 st5">54</text>
</g>
<text transform="matrix(1 0 0 1 549.6211 329.2353)" class="st4 st2 st6">WISCONSIN</text>
<path class="st10" d="M298.02,492.35c-0.06,0.04-0.13,0.07-0.2,0.1c-0.16,0.05-0.31,0.09-0.46,0.11c-0.05,0.05-0.1,0.1-0.14,0.15
	c-0.04,0.79-0.23,1.5-0.43,2.07c-0.01,0.03-0.02,0.07-0.03,0.1c0,0,0,0.01,0,0.01c-0.65,1.58-0.63,3.06,0.09,4.54
	c0.33,0.59,0.3,1.26,0.28,1.8c-0.02,0.52-0.02,0.78,0.12,0.98c0.09,0.07,0.16,0.15,0.22,0.26c0.04,0.07,0.07,0.14,0.08,0.21
	c0.17,0.6,0.27,1.21,0.36,1.8c0.12,0.76,0.24,1.48,0.51,2.13c0.23,0.04,0.44,0.17,0.57,0.38l0.51,0.81c0.17,0.26,0.17,0.6,0.02,0.87
	c-0.05,0.09-0.13,0.14-0.2,0.21c0.34,1.37,0.52,1.8,1.78,1.65c0.17-0.02,0.35,0.01,0.5,0.09c2.17,1.15,3.41,3.05,4.24,4.57
	c0.72,1.63,1.88,2.79,3.6,3.6c0.03,0.02,0.07,0.04,0.1,0.06c1.83,1.19,2.53,2.99,3.22,4.73l0.25,0.63c0.04,0.11,0.07,0.23,0.06,0.35
	c-0.06,2.02,0.17,3.67,0.7,5.19c0.44,1.25,0.65,1.54,0.75,1.6c0.04-0.02,0.37-0.15,1.37-0.97c1.19-0.97,2.47-0.8,3.57-0.5
	c0.29,0.08,0.59,0.19,0.88,0.31c0.77,0.3,1.22,0.45,1.74,0.21c0.21-0.1,0.45-0.11,0.66-0.03c1.47,0.54,2.39,1.42,2.81,2.69
	c0.09,0.28,0.03,0.59-0.16,0.82c-0.12,0.15-0.15,0.22-0.01,0.44c0.16,0.26,0.18,0.58,0.04,0.85l-1.22,2.42
	c-0.09,0.17-0.23,0.31-0.41,0.39c-0.09,0.1-0.08,0.34-0.07,0.49c0.03,0.47,0.07,1.19-0.5,1.75c-0.13,0.17-0.2,0.53-0.29,0.94
	c-0.07,0.31-0.14,0.65-0.28,1c-0.02,0.86-0.19,1.8-1.12,2.46c-0.08,0.06-0.18,0.11-0.28,0.13c-0.01,0.04-0.03,0.1-0.04,0.14
	c-0.03,0.09-0.05,0.17-0.08,0.26c0.03,0.93-0.4,1.45-0.81,1.75c-0.64,0.61-0.67,1.08-0.1,1.77c0.39,0.49,0.74,1,1.09,1.5
	c0.77,1.11,1.49,2.15,2.51,2.92c0.17,0.13,0.28,0.31,0.32,0.51c0.14,0.06,0.31,0.13,0.48,0.27c0.12,0.09,0.21,0.21,0.26,0.34
	c0.09,0.11,0.19,0.2,0.3,0.29c0.14,0.06,0.26,0.17,0.35,0.3c0.08,0.12,0.13,0.25,0.14,0.39c0.11,0.54,0.37,0.92,0.76,1.18
	c0.13-0.14,0.3-0.24,0.5-0.26c1.49-0.19,2.09,0.67,2.31,1.2c0.11,0.27,0.08,0.57-0.08,0.81c-0.05,0.08-0.13,0.13-0.21,0.19
	c0.02,0.02,0.03,0.04,0.05,0.06c0.36,0.17,0.79,0.28,1.33,0.41c0.87,0.21,1.86,0.44,2.62,1.16c0.04,0.03,0.07,0.07,0.11,0.1
	c0.03,0.03,0.05,0.07,0.08,0.1c0.24,0.36,0.44,0.74,0.65,1.12c0.53,0.97,0.98,1.81,1.95,2.3c1.75,0.88,1.71,2.48,1.67,3.64
	c-0.02,0.67-0.04,1.29,0.23,1.7c0.3,0.34,0.39,0.83,0.46,1.2c0.04,0.22,0.07,0.35,0.11,0.43c0.1,0.07,0.2,0.17,0.26,0.28
	c0.02,0.03,0.03,0.06,0.04,0.09c0.6,1.37,0.58,2.7-0.06,3.94c-0.03,0.06-0.07,0.12-0.12,0.17l-0.57,0.65
	c-0.47,0.61-0.39,0.72,0.4,1.43c0.45,0.4,0.95,0.85,1.16,1.51c0.02,0.06,0.03,0.13,0.04,0.19c0.27,1.12,0.79,1.91,1.58,2.41
	c0.62,0.26,1.34,0.32,2.17,0.2c0.13-0.16,0.29-0.28,0.49-0.32c0.01,0,0.02,0,0.02-0.01c0-0.01,0.02-0.04,0.03-0.12
	c0.08-0.33,0.35-0.59,0.68-0.65c0.02-0.09,0.13-0.23,0.17-0.31c1.47-2.82,4.08-2.92,6.18-2.71c0.21,0.02,0.4,0.12,0.54,0.27
	c0.2,0.22,0.43,0.4,0.67,0.58c1.42,0.6,2.75,1.34,4.05,2.07c1.11,0.63,1.63,0.67,2.18,0.18c0.57-0.51,0.68-1.17,0.39-2.3
	c-0.07-0.29-0.19-0.58-0.3-0.86c-0.22-0.57-0.45-1.21-0.48-1.92c-0.14-0.5-0.26-1.01-0.33-1.55c-0.03-0.23,0.03-0.46,0.17-0.64
	c0.14-0.18,0.35-0.3,0.58-0.32c0.14-0.01,0.28-0.02,0.42-0.03c0.25-0.02,0.43-0.04,0.57-0.07c0.18-0.13,0.36-0.24,0.54-0.34
	c0-0.01,0.01-0.01,0.01-0.02c0.13-0.25,0.37-0.42,0.65-0.45c0.08-0.35,0.37-0.65,0.72-0.71c0.01,0.01,0.04-0.02,0.06-0.11
	c0.09-0.39,0.43-0.66,0.82-0.67l2.86-0.04c0.24-0.07,0.47-0.15,0.67-0.28c0.42-0.35,0.57-0.76,0.03-1.86
	c-0.44-0.88-0.57-1.65-0.51-2.33c0.03-0.92,0.37-1.8,0.77-2.6c0.11-0.22,0.31-0.39,0.56-0.45c0.08-0.02,0.11-0.04,0.11-0.04
	c0.04-0.27,0.22-0.51,0.46-0.64c0.01-0.15,0.01-0.31,0-0.48c-0.36-0.34-0.61-0.72-0.71-1.14c-0.15-0.6-0.03-1.23,0.36-1.86
	c0.32-0.62,0.42-1.36,0.53-2.14c0.14-1.03,0.29-2.18,1.01-3.21c0.01-0.01,0.01-0.02,0.02-0.03c0,0,0.01-0.01,0.01-0.01
	c0,0,0-0.01,0.01-0.01v0c0.04-0.05,0.09-0.1,0.14-0.14c0.4-0.35,0.38-0.74,0.23-1.64c-0.13-0.79-0.3-1.77,0.31-2.67
	c0.04-0.08,0.1-0.16,0.17-0.22c0.05-0.05,0.11-0.09,0.18-0.13c1.13-0.64,2.01-1.51,2.66-2.63c0.03-0.06,0.06-0.11,0.09-0.16
	c0.02-0.03,0.04-0.05,0.06-0.07c0.98-1.07,1.64-2.37,2.34-3.74c0.73-1.44,1.51-2.9,2.67-4.15c0.21-0.59,0.39-1.19,0.53-1.8
	c-0.34-1.18-0.33-2.37-0.29-3.53c0.03-0.88,0.05-1.71-0.09-2.51c-0.12-0.13-0.25-0.26-0.39-0.38c-0.11-0.07-0.2-0.16-0.28-0.27
	c-0.07-0.11-0.11-0.22-0.13-0.34c-0.07-0.31-0.23-0.63-0.4-0.98c-0.4-0.83-0.95-1.97-0.32-3.3c0-0.01,0.01-0.02,0.01-0.02
	c0.26-0.56,0.25-1.29,0.24-2.06c-0.02-1.33-0.05-2.96,1.47-4.13c0.19-10.78,0.17-21.74,0.15-32.34c-0.01-8.24-0.03-16.76,0.06-25.14
	c0-0.21-0.06-0.5-0.13-0.81c-0.15-0.71-0.41-1.95,0.34-2.85c-0.13-0.68-0.29-1.33-0.5-1.95c-0.6-1.21-0.91-2.52-1.22-3.78
	c-0.4-1.67-0.78-3.25-1.77-4.47c-2.14-2.64-2.89-5.56-2.43-9.48c0.07-0.6,0.02-1.23-0.03-1.9c-0.01-0.12-0.02-0.25-0.03-0.37
	c0-0.06-0.01-0.12-0.01-0.18c-0.46-0.23-1-0.2-1.77-0.13c-0.34,0.03-0.68,0.06-1.01,0.06c-4.33-0.04-8.65-0.03-12.98-0.03l-4.65,0
	l-17.83,0l-8.92,0l-3.24,0c-2.1,0-4.19,0-6.29,0.01c0.1,0.1,0.19,0.2,0.29,0.29c0.04,0.03,0.08,0.06,0.12,0.1c0,0,0,0,0,0
	c0.01,0.01,0.03,0.03,0.04,0.05c0.18,0.21,0.38,0.42,0.59,0.61c0.02,0.02,0.05,0.04,0.07,0.06c0.38,0.33,0.83,0.6,1.3,0.89
	c0.26,0.16,0.53,0.32,0.79,0.49c0.1,0.05,0.19,0.11,0.27,0.19c0,0,0.01,0.01,0.01,0.01c0.63,0.69,0.6,1.51,0.59,2.12
	c-0.01,0.46-0.01,0.7,0.1,0.86c0,0,0.01,0.01,0.01,0.01c1.24,1.1,2.66,1.92,4.16,2.79l0.15,0.09c0.11,0.05,0.22,0.12,0.31,0.22
	c0.01,0.01,0.02,0.02,0.03,0.04c0.57,0.7,0.57,1.48,0.57,2.05c0,0.22,0,0.42,0.02,0.59c0.32,0.88,0.31,1.81-0.02,2.81
	c-0.03,0.24-0.02,0.53-0.01,0.83c0.03,0.68,0.06,1.51-0.45,2.3c-0.02,0.04-0.04,0.07-0.07,0.11c-0.01,0.01-0.01,0.02-0.02,0.02
	c0,0-0.01,0.01-0.01,0.01v0c-0.03,0.04-0.07,0.08-0.11,0.11c-0.22,0.19-0.43,0.39-0.61,0.6c-0.02,0.02-0.03,0.04-0.05,0.06
	c-0.02,0.03-0.05,0.05-0.08,0.07c-0.22,0.19-0.43,0.4-0.62,0.61c-0.02,0.02-0.03,0.04-0.05,0.07l-0.19,0.21
	c-0.09,0.1-0.22,0.24-0.25,0.3c-0.55,3.97-2.96,6.56-7.56,8.12c-0.03,0.01-0.06,0.02-0.09,0.03c-0.25,0.1-0.5,0.22-0.75,0.34
	c-0.88,0.42-1.89,0.9-3.01,0.71c-2.92-0.5-4.55,0.54-5.42,3.48c-0.01,0.12-0.05,0.25-0.12,0.36c-0.02,0.02-0.03,0.05-0.05,0.07
	c-0.32,0.43-0.29,0.59,0.3,1.36c0.16,0.21,0.31,0.41,0.45,0.62c2.98,2.89,3.13,4.29,0.89,8.45c-0.02,0.06-0.05,0.12-0.09,0.17
	c-0.05,0.07-0.1,0.13-0.17,0.18c-0.2,0.17-0.38,0.35-0.55,0.54c-0.12,0.36-0.24,0.72-0.35,1.09c-0.8,2.55-1.71,5.44-5.39,6.15
	c-0.29,0.19-0.59,0.28-0.83,0.35c-0.12,0.04-0.26,0.07-0.34,0.11c-0.17,0.37-0.04,0.85,0.19,1.57
	C299.42,489.42,299.93,491.1,298.02,492.35z"/>
<g>
	<text transform="matrix(1 0 0 1 328.6323 499.9828)" class="st4 st2 st5">50</text>
</g>
<text transform="matrix(1 0 0 1 322.4009 522.2914)" class="st4 st2 st6">Illinois</text>
<g>
	<text transform="matrix(1 0 0 1 264.0718 422.8408)" class="st1 st2 st3">jOHN WAYNE GACY</text>
</g>
<g>
	<text transform="matrix(1 0 0 1 517.0449 422.8427)" class="st1 st2 st3">The ZODIAC KILLER</text>
</g>
<path class="st11" d="M584.87,463.78l-0.01-2.89l-0.1-21.42c0,0,0,0.01-0.01,0.01c-0.1,0.16-0.25,0.32-0.38,0.48
	c-0.11,0.14-0.19,0.28-0.33,0.41c-0.08,0.64-0.31,1.58-1.07,2.33c-0.01,0.5-0.08,0.97-0.17,1.43c-0.17,0.81-0.45,1.56-0.77,2.26
	c-0.09,0.19-0.18,0.39-0.27,0.58c-0.01,0.26-0.01,0.52-0.01,0.78c0,0.07,0,0.15,0,0.23c0,1-0.05,2.22-0.78,3.3
	c-0.12,0.18-0.26,0.35-0.42,0.52c-0.05,0.74-0.26,1.73-1.11,2.44c-0.09,0.72-0.34,1.65-1.16,2.33c-0.09,0.68-0.33,1.57-1.08,2.24
	c0.01,0.6,0.09,1.21,0.17,1.86c0.1,0.82,0.2,1.67,0.18,2.53c0,0.01,0,0.01,0,0.02l-0.01,0.67c-0.02,1.77-0.05,4.45-2.81,5.91
	c-0.8,0.42-1.51,0.95-2.21,1.51c-1.19,0.97-2.29,2.1-3.41,3.29c-0.46,0.49-0.92,0.97-1.39,1.45c-0.67,1.2-1.78,1.54-2.57,1.63
	c-0.71,0.85-1.67,1.11-2.38,1.18c-0.17,0.21-0.35,0.37-0.54,0.52c-0.4,0.31-0.84,0.49-1.32,0.47c-0.4,0-0.78-0.13-1.14-0.37
	c-0.24-0.16-0.48-0.36-0.7-0.63l-2.03-0.02c-0.47,0.58-1.07,0.86-1.63,1c-0.02,0.38-0.08,0.71-0.17,1.03
	c-0.15,0.55-0.39,1.02-0.74,1.41c-0.65,0.72-1.53,1-2.46,1.13c-0.53,0.07-1.06,0.1-1.6,0.09c-0.16,0.54-0.28,1.12-0.41,1.71
	c-0.03,0.12-0.06,0.25-0.08,0.37c-0.19,0.85-0.4,1.71-0.74,2.55c-0.19,0.49-0.41,0.97-0.7,1.43c-0.02,0.21-0.04,0.41-0.06,0.62
	c-0.04,0.32-0.07,0.66-0.06,0.93c0,0.13,0.02,0.25,0.05,0.34c0.67,1.72,0.72,3.23,0.15,4.51c-0.8,1.8-2.62,2.74-4.18,3.35
	c-1.25,0.95-2.68,0.86-3.86-0.25c-0.22-0.21-0.36-0.48-0.39-0.78c-0.06-0.47-0.04-0.95,0.07-1.41l-0.07-1.39l-0.06-1.3l-0.23-0.22
	c-0.25,0.3-0.62,0.57-1.16,0.75l-0.63,0.67c-0.11,0.38-0.2,0.76-0.29,1.14c-0.08,0.32-0.16,0.65-0.25,0.99
	c-0.15,0.56-0.35,1.13-0.6,1.69c-0.3,0.68-0.68,1.34-1.24,1.94c-0.19,0.53-0.52,0.95-0.95,1.26l-0.03,1.04
	c0.46,0.61,0.79,1.25,1.01,1.88c0.28,0.78,0.4,1.56,0.3,2.29c-0.15,1.12-0.77,2.08-1.77,2.76c-0.81,0.55-1.19,1.34-1.63,2.25
	c-0.25,0.52-0.56,1.07-0.94,1.61c-0.14,0.21-0.27,0.42-0.44,0.61c-0.02,0.1-0.05,0.16-0.08,0.25c-0.54,2.18-2.09,2.67-3.41,2.74
	c-0.41,0.02-0.81,0.01-1.14,0c-0.19-0.01-0.38-0.02-0.57-0.02c-0.57,0.65-1.28,0.9-1.93,1.02c-0.18,0.03-0.35,0.06-0.52,0.07
	c0.54,1.9,0.95,4.18-0.47,6.19c-0.35,0.49-0.77,0.97-1.36,1.41c-0.58,1.13-0.1,2,0.83,3.48c0.11,0.18,0.22,0.36,0.33,0.54
	c0.36,0.34,0.71,0.69,1.04,1.05c0.39,0.35,0.76,0.71,1.09,1.08c0.97,0.83,1.02,1.94,1.06,2.68c0.02,0.38,0.04,0.64,0.11,0.78
	c0.41,0.38,0.81,0.77,1.18,1.18c1.09,1.06,1.56,2.36,1.97,3.52c0.17,0.47,0.34,0.94,0.55,1.39c0.4,0.59,0.78,1.2,1.15,1.81
	c1.09,1.77,2.12,3.45,3.84,4.44c0.19,0.07,0.36,0.17,0.5,0.32c0.13,0.13,0.23,0.29,0.29,0.46c0.2,0.43,0.61,0.6,1.53,0.89
	c0.52,0.17,1.11,0.37,1.66,0.7c0.45,0.27,0.88,0.63,1.21,1.16c0.23,0.21,0.47,0.39,0.74,0.55c0.06,0.03,0.11,0.07,0.17,0.11
	c0.43,0.35,0.67,0.74,0.83,1.14c0.22,0.55,0.28,1.11,0.3,1.54c0.01,0.28,0.03,0.59,0.1,0.73c0.64,0.7,0.81,1.52,0.96,2.18
	c0.08,0.36,0.14,0.67,0.26,0.88c0.38,0.32,0.7,0.65,0.99,0.98c1.12,0.54,2.12,1.32,3.09,2.07c2.53,1.97,4.11,3.03,6.73,1.47
	c0.67-0.7,1.52-0.85,2.09-0.95c0.19-0.03,0.39-0.07,0.52-0.11c0.5-0.53,1.01-0.85,1.5-1.04c0.87-0.34,1.7-0.23,2.44,0.04
	c0.6,0.21,1.13,0.52,1.57,0.78c0.25,0.15,0.49,0.29,0.74,0.42c0.63,0.14,1.32,0.04,2.11-0.08c0.24-0.04,0.48-0.07,0.72-0.1
	c2.15-1.47,4.51-2.04,7.05-1.69c0.25-0.25,0.5-0.49,0.76-0.72c0.07-0.14,0.09-0.41,0.1-0.78c0.04-0.76,0.09-1.91,1.13-2.75
	c0.03-0.02,0.05-0.04,0.08-0.06c1.19-0.99,2.6-0.96,3.78,0.1c0.77,0.42,1.49,0.37,2.36-0.15c0.19-0.11,0.4-0.17,0.62-0.18l0.35-0.01
	c0.41-0.01,0.72-0.02,0.97-0.06c-0.08-1.07,1.1-1.39,1.76-1.57c1.15-0.32,2.15,0.1,2.87,0.41c0.66,0.28,0.94,0.38,1.21,0.27
	c1.33-0.59,1.72-1.7,2.26-3.48c0.13-0.43,0.26-0.86,0.41-1.28c0.03-0.21,0.12-0.41,0.27-0.59c0.25-0.31,0.54-0.53,0.79-0.72
	c0.08-0.06,0.17-0.13,0.25-0.2c-1.3-2.17-0.32-3.96,0.4-5.27c0.24-0.43,0.46-0.84,0.6-1.23c0.02-0.13,0.06-0.26,0.12-0.38
	c0.03-0.06,0.06-0.11,0.1-0.17c0.27-0.4,0.52-0.81,0.77-1.22c0.46-0.77,0.94-1.56,1.57-2.3c0.26-0.38,0.5-0.78,0.75-1.18
	c0.43-0.72,0.88-1.45,1.46-2.15c0.6-1.07,1.42-1.92,2.44-2.54c0.29-0.53,0.51-1.12,0.75-1.73c0.18-0.48,0.37-0.95,0.58-1.42
	c0.75-2.2,2.1-4.15,3.41-6.04c1.16-1.68,2.26-3.27,2.97-5.06c0.04-0.14,0.1-0.28,0.19-0.41c0.04-0.06,0.09-0.12,0.15-0.18
	c0.89-0.94,1.1-2.18,1.34-3.62c0.17-1.01,0.34-2.05,0.78-3.07c0.44-0.95,0.98-1.6,1.62-1.98c0.05-0.03,0.1-0.05,0.15-0.07
	c0.19-0.1,0.39-0.19,0.6-0.24c0.9-0.22,1.83,0.04,2.8,0.74c0.04,0.02,0.07,0.05,0.11,0.08c0.02,0.02,0.04,0.03,0.06,0.05
	c0,0,0,0,0,0v0c0.42,0.35,0.83,0.75,1.21,1.19c0.62,0.56,0.82,1.26,0.97,1.78c0.06,0.19,0.12,0.4,0.18,0.52
	c1.46,1.11,3.1,1.53,5.01,1.29c1.39-1.57,2.39-3.53,3.11-6.13c0.01-0.27,0.1-0.55,0.3-0.77c0.4-0.46,0.82-0.89,1.26-1.27
	c0.34-0.4,0.73-0.79,1.17-1.17c0.07-0.13,0.09-0.4,0.11-0.78c0.03-0.73,0.08-1.82,1.02-2.65c0.06-0.12,0.11-0.32,0.17-0.49
	c0.16-0.55,0.37-1.3,1.08-1.88c0.01-0.01,0.03-0.02,0.04-0.03c1.22-1.07,2.69-1.03,3.91,0.12c0,0,0.01,0.01,0.01,0.01
	c0.12-0.13,0.25-0.24,0.37-0.36c0.25-0.26,0.51-0.51,0.77-0.75c1.1-0.97,2.31-1.77,3.48-2.56c1.85-1.23,3.6-2.4,4.84-4.09
	c1.14-2.01,2.74-3.64,4.73-4.86c0.27-0.56,0.25-1.22,0.2-2.18c-0.03-0.6-0.07-1.22,0.01-1.87c0.13-1.35,0.66-2.51,1.18-3.62
	c0.37-0.8,0.71-1.56,0.87-2.33c0-0.02,0.01-0.03,0.02-0.05c0.04-0.18,0.11-0.35,0.22-0.5c0.69-0.96,1.43-1.49,2.28-1.61
	c0.41-0.06,0.77,0,1.12,0.11c0.69,0.2,1.26,0.63,1.75,1.02c0.2,0.16,0.39,0.31,0.57,0.42c0.14,0.05,0.28,0.13,0.4,0.23
	c0.42,0.36,0.83,0.76,1.2,1.18c1.03,0.63,1.94,1.37,2.82,2.09c0.47,0.38,0.94,0.77,1.42,1.13c0.09,0.04,0.17,0.1,0.25,0.16
	c0.44,0.36,0.87,0.78,1.27,1.24c0.34,0.23,0.7,0.44,1.05,0.66c0.67,0.41,1.36,0.82,2.01,1.34c0.74-0.01,0.97-0.41,1.47-1.71
	c0.21-0.54,0.44-1.14,0.79-1.68c0.04-0.23,0.05-0.46,0.08-0.7c0.04-0.39,0.06-0.78,0.05-1.17c-0.02-1.08-0.22-2.14-0.62-3.2
	c-0.38-0.48-0.54-1-0.66-1.41c-0.05-0.16-0.11-0.38-0.17-0.48c-0.07-0.06-0.13-0.12-0.19-0.19c-0.14-0.18-0.3-0.35-0.47-0.52
	c-0.13-0.14-0.26-0.28-0.39-0.43c-0.03-0.02-0.05-0.04-0.08-0.06c-1.03-0.89-1.05-2.08-1.07-2.86c-0.01-0.35-0.02-0.61-0.07-0.78
	c-0.32-0.08-0.73-0.07-1.19-0.05c-0.92,0.04-2.14,0.08-3.24-0.76c-0.08-0.05-0.16-0.11-0.24-0.19l-0.2-0.2
	c-0.24-0.24-0.48-0.49-0.74-0.72c-0.04-0.02-0.08-0.05-0.11-0.08c-0.56-0.45-1.01-0.75-1.43-0.93c-0.5-0.22-0.96-0.25-1.48-0.03
	l-0.4,0.2c-0.19,0.09-0.39,0.17-0.58,0.26c0.01,0.23,0.01,0.47-0.01,0.73c-0.05,0.55-0.44,1-0.97,1.14c-0.01,0-0.48,0.07-0.48,0.07
	c-0.19,0.03-0.37,0.01-0.56-0.05l-0.32-0.1c-0.1-0.03-0.2-0.07-0.28-0.13c-0.96-0.59-1.49-0.55-1.97-0.21
	c-0.05,0.06-0.12,0.11-0.18,0.16c-0.25,0.18-0.49,0.4-0.74,0.68c-1.83,4.76-5.65,3.84-8.19,3.24c-0.33-0.08-0.66-0.16-0.99-0.23
	c-0.28,0.02-0.57-0.07-0.82-0.26c-0.06-0.04-0.11-0.09-0.16-0.14l-0.29-0.29c-0.25-0.25-0.49-0.5-0.78-0.71
	c-0.11-0.07-0.2-0.16-0.27-0.26c-0.04-0.03-0.07-0.03-0.07-0.03c0,0-0.02,0-0.06,0.02c-0.06,0.08-0.14,0.16-0.22,0.23
	c-0.37,0.29-0.69,0.61-0.96,0.96c-0.11,0.14-0.25,0.26-0.4,0.34c-0.28,0.28-0.55,0.55-0.78,0.84c-0.1,0.12-0.21,0.22-0.33,0.29
	c-0.27,0.24-0.5,0.48-0.69,0.71c-0.02,0.02-0.03,0.04-0.05,0.06c-0.01,0.01-0.02,0.02-0.03,0.03c0,0,0,0.01-0.01,0.01h0
	c-0.06,0.07-0.13,0.14-0.21,0.19c-0.28,0.22-0.53,0.48-0.78,0.73l-0.01,0.01c-0.08,0.19-0.21,0.35-0.38,0.48
	c-1.24,0.91-2.63,0.92-3.9,0.03c-0.14-0.09-0.25-0.21-0.34-0.35c-0.01,0-0.05,0.02-0.14,0.08c-0.04,0.05-0.09,0.1-0.14,0.14
	c-0.43,0.35-0.74,0.67-0.98,1c-0.11,0.15-0.25,0.27-0.41,0.36c-0.21,0.19-0.41,0.38-0.6,0.6c-0.08,0.15-0.2,0.29-0.35,0.4
	c-0.28,0.21-0.55,0.47-0.79,0.73c-0.09,0.18-0.23,0.34-0.41,0.46c-0.26,0.18-0.54,0.34-0.81,0.5c-0.43,0.25-0.84,0.49-1.14,0.78
	c-0.87,0.76-1.71,1.44-2.55,2.05l-0.14,0.13c-0.4,0.37-0.85,0.8-1.48,1.09c-0.24,0.16-0.64,0.28-1.05,0.32c-0.04,0-0.07,0-0.1,0
	c-0.2,0-0.4-0.05-0.58-0.14c-0.33-0.16-0.61-0.36-0.86-0.58c-1.52-0.26-1.85-1.71-1.96-2.22c-0.02-0.07-0.03-0.15-0.03-0.22
	c-0.12-3.07-0.14-6.36-0.06-9.77c0.05-2.01-0.26-3.28-0.96-4c-0.62-0.63-1.74-0.94-3.34-1.01c-0.25-0.01-0.47-0.03-0.74-0.03
	c-0.34,0-0.68,0.02-1.02,0.03c-1.68,0.03-3.36,0.08-5.04,0.13c-6.65,0.21-13.53,0.42-20.32-0.63
	C585.34,464.95,584.88,464.42,584.87,463.78z"/>
<g>
	<text transform="matrix(1 0 0 1 567.0107 508.2016)" class="st4 st2 st5">41</text>
</g>
<text transform="matrix(1 0 0 1 544.8955 528.6664)"><tspan x="0" y="0" class="st4 st2 st6">WEST </tspan><tspan x="-6.96" y="16.32" class="st4 st2 st6">VIRGINIA</tspan></text>
<g>
	<text transform="matrix(1 0 0 1 271.5288 625.5375)" class="st1 st2 st3">Gary Ridgway</text>
</g>
<path class="st12" d="M253.65,690.72c0.01,1.18,0.05,2,0.62,2.67c1.96,2.33,2.6,5.12,3.21,7.83l0.05,0.2
	c0.04,0.2,0.08,0.41,0.12,0.63c0.07,0.39,0.22,1.22,0.41,1.26c1.26,0.3,2.25,0.97,3.21,1.61c1.13,0.76,2.19,1.48,3.62,1.52
	c0.43,0.01,0.8,0.3,0.92,0.71c0.12,0.41-0.04,0.85-0.39,1.09c-0.74,0.51-1.55,0.78-2.26,1.02c-1.42,0.48-1.89,0.72-1.99,1.64
	c-0.18,1.67,0.52,1.92,2.26,2.38c1.1,0.29,2.35,0.62,3.13,1.66c0.19,0.25,0.25,0.58,0.15,0.89c-0.09,0.3-0.33,0.54-0.63,0.64
	c-0.6,0.2-1.35,0.44-1.49,0.57c-0.02,0.07-0.03,0.46-0.05,0.81l-0.01,0.21c-0.12,2.87-0.36,5.63-2.01,7.74
	c-0.65,0.83-0.62,1.1-0.62,1.13c0.01,0.08,0.15,0.3,0.92,0.81c1.39,0.93,2.56,1.24,3.8,1.02c1.8-0.35,3.62-0.42,5.44-0.25
	c0.85,0.08,1.69,0.19,2.53,0.37c0.24-0.01,0.47,0.05,0.67,0.21c0,0,0.01,0,0.01,0.01c0.35,0.28,0.69,0.61,1.04,1.01
	c0.29,0.25,0.54,0.51,0.78,0.75c0.2,0.12,0.4,0.25,0.6,0.39c0.48,0.34,0.67,0.44,0.87,0.4c0.73-0.61,1.62-0.59,2.01-0.58
	c0.16,0.01,0.3,0.01,0.43,0.01c0.59-0.01,1.49-0.02,2.22,0.69c0.02,0.01,0.03,0.03,0.04,0.04v0c0.01,0.01,0.01,0.01,0.02,0.02
	c0.08,0.07,0.3,0.09,0.63,0.11c0.57,0.03,1.43,0.07,2.07,0.84c0.29,0.25,0.56,0.53,0.84,0.83c0.01,0.01,0.02,0.03,0.04,0.04
	c0.24,0.21,0.46,0.44,0.68,0.67c0.03,0.02,0.06,0.05,0.09,0.08c0.54,0.54,0.7,1.19,0.84,1.7c0.07,0.26,0.13,0.51,0.23,0.68l0.48,1.1
	c0.58,0.4,0.78,0.99,0.93,1.41c0.05,0.13,0.09,0.27,0.14,0.36c0.04,0.04,0.08,0.09,0.11,0.13c0.8,1.15,0.72,2.38,0.65,3.37
	c-0.03,0.49-0.07,0.95,0,1.36c0.26,0.99,0.67,2.02,1.1,3.11l0.04,0.11c0.02,0.03,0.04,0.07,0.05,0.1c0.15,0.35,0.44,0.5,1.11,0.76
	c0.38,0.15,0.82,0.32,1.22,0.6c0.05,0.04,0.1,0.08,0.14,0.12c0.31,0.13,0.7,0.12,1.24,0.1c0.36-0.02,0.72-0.03,1.07,0.01
	c0.16,0.01,0.33,0.01,0.5,0c0.64-0.02,1.51-0.04,2.27,0.62c1.34,0.44,2.69,0.44,4.1,0c0.61-0.57,1.36-0.61,1.87-0.63
	c0.25-0.01,0.43-0.02,0.54-0.06c0.44-0.5,0.99-0.66,1.4-0.78c0.14-0.04,0.28-0.08,0.38-0.13c0.01-0.01,0.01-0.01,0.02-0.02
	c0.28-0.27,0.58-0.44,0.83-0.58c0.13-0.07,0.26-0.14,0.38-0.24c0.26-0.26,0.61-0.47,0.92-0.65c0.19-0.11,0.39-0.22,0.56-0.37
	c0.01-0.01,0.02-0.02,0.04-0.03c0.19-0.2,0.4-0.42,0.64-0.63c0.04-0.05,0.08-0.1,0.13-0.15c0.97-0.89,2.13-0.91,3.11-0.04
	c0.41,0.25,0.8,0.27,1.27,0.05c0.06-0.06,0.13-0.1,0.2-0.14c1.7-0.89,3.48-0.91,5.31-0.05c0.13,0.06,0.25,0.15,0.34,0.26
	c0.2,0.06,0.46,0.07,0.82,0.07l0.16,0c0.27,0.01,0.51,0,0.75,0c1.01-0.02,2.25-0.05,3.31,0.88c0.64,0.22,1.08,0.72,1.44,1.13
	c0.19,0.21,0.32,0.34,0.42,0.44c0.26,0.23,0.37,0.16,0.72-0.1c0.05-0.04,0.11-0.07,0.17-0.1c0.02-0.01,0.03-0.02,0.05-0.03
	l1.88-0.77c0.98-0.62,2-0.59,2.9-0.57c0.64,0.02,1.2,0.03,1.65-0.18c0.62-0.65,1.41-0.69,1.95-0.71c0.27-0.01,0.46-0.03,0.57-0.07
	c0.45-0.5,1.01-0.66,1.42-0.77c0.15-0.04,0.31-0.09,0.41-0.14l0,0c1.34-1.25,2.65-0.55,3.35-0.18c0.29,0.15,0.61,0.33,0.78,0.31
	c0.82-0.09,1.61-0.04,2.37,0c1.14,0.06,2.23,0.12,3.22-0.28c0.4-0.34,0.86-0.47,1.21-0.57c0.15-0.04,0.3-0.09,0.4-0.14
	c0.42-0.47,0.95-0.62,1.34-0.74c0.12-0.03,0.25-0.07,0.34-0.11c0,0,0,0,0,0c0.43-0.47,0.97-0.63,1.37-0.75
	c0.13-0.04,0.26-0.08,0.35-0.12c0.05-0.06,0.1-0.11,0.16-0.16c1.05-0.77,2.17-0.7,3.07-0.64c0.39,0.03,0.76,0.05,1.09,0.01
	c0.31-0.02,0.56-0.02,0.81-0.01c0.44,0.01,0.74,0.01,0.98-0.07c0.01-0.01,0.01-0.02,0.02-0.03c0.65-0.71,1.49-0.75,2.05-0.78
	c0.26-0.01,0.45-0.03,0.57-0.07c0.03-0.04,0.07-0.07,0.1-0.1c1.02-0.84,2.12-0.76,3.01-0.7c0.37,0.03,0.72,0.05,1.01,0.01
	c0.52-0.08,0.9-0.01,1.13-0.1c0.64-0.73,1.48-0.77,2.04-0.79c0.26-0.01,0.45-0.03,0.56-0.07c0.64-0.74,1.5-0.78,2.06-0.81
	c0.23-0.01,0.41-0.02,0.52-0.05c0.04-0.05,0.08-0.09,0.13-0.13c0.93-0.78,1.98-0.72,2.74-0.68c0.27,0.01,0.54,0.03,0.8,0l31.91-0.01
	l7.68,0c3.45,0,6.9,0,10.36,0c0.59,0,0.72-0.04,0.78-0.13c0.02-0.11,0.01-0.23,0-0.35c-0.01,0-0.01-0.01-0.02-0.02
	c-0.22-0.16-0.38-0.41-0.4-0.7c-0.35-0.11-0.61-0.41-0.68-0.77c-0.06-0.31-0.08-0.63-0.05-0.95c0.02-0.22,0.11-0.43,0.26-0.59
	l0.68-0.73c0.06-0.28,0.09-0.54,0.12-0.81c-0.09-1.47-0.7-2.8-1.43-4.17c-0.28-0.31-0.59-0.61-0.96-0.89
	c-0.24-0.19-0.38-0.47-0.38-0.77l-0.01-1.61c0-0.33,0.16-0.63,0.43-0.82c0.04-0.02,0.05-0.04,0.08-0.06c0-0.05,0.01-0.1,0.01-0.16
	c-0.04-0.03-0.06-0.06-0.12-0.1c-0.24-0.19-0.38-0.47-0.38-0.78l0.03-75.3c-0.09-0.5-0.22-0.99-0.45-1.45
	c-0.17-0.2-0.36-0.29-0.63-0.29c-31.41-0.03-62.83-0.02-94.26-0.01l-35.45,0.01c-0.27-0.01-0.64-0.02-0.96-0.04
	c-0.76-0.04-1.44-0.08-2.03,0.14c-0.77,3.04-0.46,3.46,2.5,4.4c0.85,0.27,1.92,0.61,2.46,2.06c1.06,2.81,1.61,6.71-0.06,9.23
	c-0.8,1.2-0.78,1.22,0.2,1.88l0.14,0.1c2.26,1.55,2.92,3.79,1.76,5.98c-0.21,0.39-0.29,0.61-0.33,0.73
	c0.21,0.11,0.65,0.25,1.01,0.37c1.93,0.64,3.24,1.91,3.59,3.49c0.33,1.46-0.23,3.01-1.53,4.24c-1.04,0.99-1.09,2.23-1.14,3.65
	c-0.04,1.13-0.08,2.38-0.69,3.53c0.09,0.08,0.17,0.17,0.24,0.23l0.22,0.2c0.48,0.43,1.61,1.42,0.77,2.45
	c-0.83,1.01-0.62,1.89-0.16,3.34c0.2,0.65,0.41,1.32,0.47,2.04c0.11,1.28-0.5,2.32-1.65,2.87c-0.66,0.91-1.66,1.21-2.48,1.46
	c-0.88,0.27-1.29,0.43-1.45,0.85c-1.33,3.37-4.16,3.91-6.65,4.38c-0.37,0.07-0.74,0.14-1.11,0.22c-0.17,0.04-0.35,0.09-0.53,0.14
	c-0.9,0.26-2.41,0.69-3.31-0.69c-1.2-1.84,0.4-3.05,1.08-3.57c0.17-0.13,0.34-0.25,0.47-0.38c1.1-1.08,2.41-1.85,3.67-2.6
	c1.72-1.02,3.34-1.98,4.36-3.62l0.05-0.29c0.07-0.35,0.17-0.92,0.15-1.18c-0.13-0.01-0.41-0.02-0.96,0.13
	c-0.29,0.08-0.59,0.01-0.83-0.17c-1.07-0.8-1.15-1.96-1.22-2.8c-0.05-0.68-0.09-1.08-0.38-1.33c-0.35-0.3-0.44-0.79-0.25-1.19
	c-0.14,0.02-0.33,0.08-0.63,0.18c-0.57,0.19-1.35,0.46-2.17,0.13c-0.41-0.17-0.67-0.59-0.61-1.03c0.21-1.79,1.45-2.71,2.45-3.44
	c0.91-0.68,1.48-1.13,1.56-1.93c0.01-0.12,0.05-0.24,0.1-0.35c0.68-1.32,0.08-2.18-1.04-3.59l-0.31-0.39
	c-0.12-0.16-0.21-0.24-0.26-0.28c-0.12,0.09-0.32,0.29-0.44,0.42c-0.18,0.19-0.37,0.38-0.56,0.54c-0.63,0.52-1.66,0.2-1.67,0.2
	c-0.32-0.11-0.62-0.41-0.7-0.75c-0.1-0.43-0.27-0.54-1.22-0.75c-0.78-0.18-1.85-0.42-2.43-1.5c-0.62-1.15-1.55-1.5-3.54-1.33
	c-2.9,0.24-5.79-0.02-8.59-0.28c-2.47-0.23-5.02-0.46-7.5-0.33c-1.44,0.07-2.61-0.51-3.64-1.02l-0.53-0.26
	c-1.7-0.81-3.47-1.56-5.19-2.28c-2.48-1.05-5.04-2.12-7.53-3.45c-0.03,0.15-0.08,0.29-0.14,0.44c-1.05,2.48-0.68,4.99-0.28,7.66
	c0.16,1.08,0.33,2.19,0.4,3.3c0.03,0.55,0.23,1.55,1.21,2.12C251.59,680.54,253.61,684.57,253.65,690.72z"/>
<g>
	<text transform="matrix(1 0 0 1 337.5884 688.3188)" class="st4 st2 st5">40</text>
</g>
<text transform="matrix(1 0 0 1 317.5884 712.2368)" class="st4 st2 st6">WASHINGTON</text>
<path class="st13" d="M589.39,660.15l-0.01-2.89l-0.1-21.42c0,0,0,0.01-0.01,0.01c-0.1,0.16-0.25,0.32-0.38,0.48
	c-0.11,0.14-0.19,0.28-0.32,0.41c-0.08,0.64-0.31,1.58-1.07,2.33c-0.01,0.5-0.08,0.97-0.17,1.43c-0.17,0.81-0.45,1.56-0.77,2.26
	c-0.09,0.19-0.18,0.39-0.27,0.58c-0.01,0.26-0.01,0.52-0.01,0.78c0,0.07,0,0.15,0,0.23c0,1-0.05,2.22-0.78,3.3
	c-0.12,0.18-0.26,0.35-0.41,0.52c-0.05,0.74-0.26,1.73-1.11,2.44c-0.09,0.72-0.34,1.65-1.16,2.33c-0.09,0.68-0.33,1.57-1.08,2.24
	c0.01,0.6,0.09,1.21,0.17,1.86c0.1,0.82,0.2,1.67,0.18,2.53c0,0.01,0,0.01,0,0.02l-0.01,0.67c-0.02,1.77-0.05,4.45-2.81,5.91
	c-0.8,0.42-1.51,0.95-2.21,1.51c-1.19,0.97-2.29,2.1-3.41,3.29c-0.46,0.49-0.92,0.97-1.39,1.45c-0.67,1.2-1.78,1.54-2.57,1.63
	c-0.71,0.85-1.67,1.11-2.38,1.18c-0.17,0.21-0.35,0.37-0.54,0.52c-0.4,0.31-0.84,0.49-1.32,0.47c-0.4,0-0.78-0.13-1.14-0.37
	c-0.24-0.16-0.48-0.36-0.7-0.63l-2.03-0.02c-0.47,0.58-1.07,0.86-1.63,1c-0.02,0.38-0.08,0.71-0.17,1.03
	c-0.15,0.55-0.39,1.02-0.74,1.41c-0.65,0.72-1.53,1-2.46,1.13c-0.53,0.07-1.06,0.1-1.6,0.09c-0.16,0.54-0.28,1.12-0.41,1.71
	c-0.03,0.12-0.06,0.25-0.08,0.37c-0.19,0.85-0.4,1.71-0.74,2.55c-0.19,0.49-0.41,0.97-0.7,1.43c-0.02,0.21-0.04,0.41-0.06,0.62
	c-0.04,0.32-0.07,0.66-0.06,0.93c0,0.13,0.02,0.25,0.05,0.34c0.67,1.72,0.72,3.23,0.15,4.51c-0.8,1.8-2.62,2.74-4.18,3.35
	c-1.25,0.95-2.68,0.86-3.86-0.25c-0.22-0.21-0.36-0.48-0.39-0.78c-0.06-0.47-0.04-0.95,0.07-1.41l-0.07-1.39l-0.06-1.3l-0.23-0.22
	c-0.25,0.3-0.62,0.57-1.16,0.75l-0.63,0.67c-0.11,0.38-0.2,0.76-0.29,1.14c-0.08,0.32-0.16,0.65-0.25,0.99
	c-0.15,0.56-0.35,1.13-0.6,1.69c-0.3,0.68-0.68,1.34-1.24,1.94c-0.19,0.53-0.52,0.95-0.95,1.26l-0.03,1.04
	c0.46,0.61,0.79,1.25,1.01,1.88c0.28,0.78,0.4,1.56,0.3,2.29c-0.15,1.12-0.77,2.08-1.77,2.76c-0.81,0.55-1.19,1.34-1.63,2.25
	c-0.25,0.52-0.56,1.07-0.94,1.61c-0.14,0.21-0.27,0.42-0.44,0.61c-0.02,0.1-0.05,0.16-0.08,0.25c-0.54,2.18-2.09,2.67-3.41,2.74
	c-0.41,0.02-0.81,0.01-1.14,0c-0.19-0.01-0.38-0.02-0.57-0.02c-0.57,0.65-1.28,0.9-1.93,1.02c-0.18,0.03-0.35,0.06-0.52,0.07
	c0.54,1.9,0.95,4.18-0.47,6.19c-0.35,0.49-0.77,0.97-1.36,1.41c-0.58,1.13-0.1,2,0.83,3.48c0.11,0.18,0.22,0.36,0.33,0.54
	c0.36,0.34,0.71,0.69,1.04,1.05c0.39,0.35,0.76,0.71,1.09,1.08c0.97,0.83,1.02,1.94,1.06,2.68c0.02,0.38,0.04,0.64,0.11,0.78
	c0.41,0.38,0.81,0.77,1.18,1.18c1.09,1.06,1.56,2.36,1.97,3.52c0.17,0.47,0.34,0.94,0.55,1.39c0.4,0.59,0.78,1.2,1.15,1.81
	c1.09,1.77,2.12,3.45,3.84,4.44c0.19,0.07,0.36,0.17,0.5,0.32c0.13,0.13,0.23,0.29,0.29,0.46c0.2,0.43,0.61,0.6,1.53,0.89
	c0.52,0.17,1.11,0.37,1.66,0.7c0.45,0.27,0.88,0.63,1.21,1.16c0.23,0.21,0.47,0.39,0.74,0.55c0.06,0.03,0.11,0.07,0.17,0.11
	c0.43,0.35,0.67,0.74,0.83,1.14c0.22,0.55,0.28,1.11,0.3,1.54c0.01,0.28,0.03,0.59,0.1,0.73c0.64,0.7,0.81,1.52,0.96,2.18
	c0.08,0.36,0.14,0.67,0.26,0.88c0.38,0.32,0.7,0.65,0.99,0.98c1.12,0.54,2.12,1.32,3.09,2.07c2.53,1.97,4.11,3.03,6.73,1.47
	c0.67-0.7,1.52-0.85,2.09-0.95c0.19-0.03,0.39-0.07,0.52-0.11c0.5-0.53,1.01-0.85,1.5-1.04c0.87-0.34,1.7-0.23,2.44,0.04
	c0.6,0.21,1.13,0.52,1.57,0.78c0.25,0.15,0.49,0.29,0.74,0.42c0.63,0.14,1.32,0.04,2.11-0.08c0.24-0.04,0.48-0.07,0.72-0.1
	c2.15-1.47,4.51-2.04,7.05-1.69c0.25-0.25,0.5-0.49,0.76-0.72c0.07-0.14,0.09-0.41,0.1-0.78c0.04-0.76,0.09-1.91,1.13-2.75
	c0.03-0.02,0.05-0.04,0.08-0.06c1.19-0.99,2.6-0.96,3.78,0.1c0.77,0.42,1.49,0.37,2.36-0.15c0.19-0.11,0.4-0.17,0.62-0.18l0.35-0.01
	c0.41-0.01,0.72-0.02,0.97-0.06c-0.08-1.07,1.1-1.39,1.76-1.57c1.15-0.32,2.15,0.1,2.87,0.41c0.66,0.28,0.94,0.38,1.21,0.27
	c1.33-0.59,1.72-1.7,2.26-3.48c0.13-0.43,0.26-0.86,0.41-1.28c0.03-0.21,0.12-0.41,0.27-0.59c0.25-0.31,0.54-0.53,0.79-0.72
	c0.08-0.06,0.17-0.13,0.25-0.2c-1.3-2.17-0.32-3.96,0.4-5.27c0.24-0.43,0.46-0.84,0.6-1.23c0.02-0.13,0.06-0.26,0.12-0.38
	c0.03-0.06,0.06-0.11,0.1-0.17c0.27-0.4,0.52-0.81,0.77-1.22c0.46-0.77,0.94-1.56,1.57-2.3c0.26-0.38,0.5-0.78,0.75-1.18
	c0.43-0.72,0.88-1.45,1.46-2.15c0.6-1.07,1.42-1.92,2.44-2.54c0.29-0.53,0.51-1.12,0.75-1.73c0.18-0.48,0.37-0.95,0.58-1.42
	c0.75-2.2,2.1-4.15,3.41-6.04c1.16-1.68,2.26-3.27,2.97-5.06c0.04-0.14,0.1-0.28,0.19-0.41c0.04-0.06,0.09-0.12,0.15-0.18
	c0.89-0.94,1.1-2.18,1.34-3.62c0.17-1.01,0.34-2.05,0.78-3.07c0.44-0.95,0.98-1.6,1.62-1.98c0.05-0.03,0.1-0.05,0.15-0.08
	c0.19-0.1,0.39-0.19,0.6-0.24c0.9-0.22,1.83,0.04,2.8,0.74c0.04,0.02,0.07,0.05,0.11,0.08c0.02,0.02,0.04,0.03,0.06,0.05
	c0,0,0,0,0,0v0c0.42,0.35,0.83,0.75,1.21,1.19c0.62,0.56,0.82,1.26,0.97,1.78c0.06,0.19,0.12,0.4,0.18,0.52
	c1.46,1.11,3.1,1.53,5.01,1.29c1.39-1.57,2.39-3.53,3.11-6.13c0.01-0.27,0.1-0.55,0.3-0.77c0.4-0.46,0.82-0.89,1.26-1.27
	c0.34-0.4,0.73-0.79,1.17-1.17c0.07-0.13,0.09-0.4,0.11-0.78c0.03-0.73,0.08-1.82,1.02-2.65c0.06-0.12,0.11-0.32,0.17-0.49
	c0.16-0.55,0.37-1.3,1.08-1.88c0.01-0.01,0.03-0.02,0.04-0.03c1.22-1.07,2.69-1.03,3.91,0.12c0,0,0.01,0.01,0.01,0.01
	c0.12-0.13,0.25-0.24,0.37-0.36c0.25-0.26,0.51-0.51,0.77-0.74c1.1-0.97,2.31-1.77,3.48-2.56c1.85-1.23,3.6-2.4,4.84-4.09
	c1.14-2.01,2.74-3.64,4.73-4.86c0.27-0.56,0.25-1.22,0.2-2.18c-0.03-0.6-0.07-1.22,0.01-1.87c0.13-1.35,0.66-2.51,1.18-3.62
	c0.37-0.8,0.71-1.56,0.87-2.33c0-0.02,0.01-0.03,0.02-0.05c0.04-0.18,0.11-0.35,0.22-0.5c0.69-0.96,1.43-1.49,2.28-1.61
	c0.41-0.06,0.77,0,1.12,0.11c0.69,0.2,1.26,0.63,1.75,1.02c0.2,0.16,0.39,0.31,0.57,0.42c0.14,0.05,0.28,0.13,0.4,0.23
	c0.42,0.36,0.83,0.76,1.2,1.18c1.03,0.63,1.94,1.37,2.82,2.09c0.47,0.38,0.94,0.77,1.42,1.13c0.09,0.04,0.17,0.1,0.25,0.16
	c0.44,0.36,0.87,0.78,1.27,1.24c0.34,0.23,0.7,0.44,1.05,0.66c0.67,0.41,1.36,0.82,2.01,1.34c0.74-0.01,0.97-0.41,1.47-1.71
	c0.21-0.54,0.44-1.14,0.79-1.68c0.04-0.23,0.05-0.46,0.08-0.7c0.04-0.39,0.06-0.78,0.05-1.17c-0.02-1.08-0.22-2.14-0.62-3.2
	c-0.38-0.48-0.54-1-0.66-1.41c-0.05-0.16-0.11-0.38-0.17-0.48c-0.07-0.06-0.13-0.12-0.19-0.19c-0.14-0.18-0.3-0.35-0.47-0.52
	c-0.13-0.14-0.26-0.28-0.39-0.43c-0.03-0.02-0.05-0.04-0.08-0.06c-1.03-0.89-1.05-2.08-1.07-2.86c-0.01-0.35-0.02-0.61-0.07-0.78
	c-0.32-0.08-0.73-0.07-1.19-0.05c-0.92,0.04-2.14,0.08-3.24-0.76c-0.08-0.05-0.16-0.11-0.24-0.19l-0.2-0.2
	c-0.24-0.24-0.48-0.49-0.74-0.72c-0.04-0.02-0.08-0.05-0.11-0.08c-0.56-0.45-1.01-0.75-1.43-0.93c-0.5-0.22-0.96-0.25-1.48-0.03
	l-0.4,0.2c-0.19,0.09-0.39,0.17-0.58,0.26c0.01,0.23,0.01,0.47-0.01,0.73c-0.05,0.55-0.44,1-0.97,1.14c-0.01,0-0.48,0.07-0.48,0.07
	c-0.19,0.03-0.37,0.01-0.56-0.05l-0.32-0.1c-0.1-0.03-0.2-0.07-0.28-0.13c-0.96-0.59-1.49-0.55-1.97-0.21
	c-0.05,0.06-0.12,0.11-0.18,0.16c-0.25,0.18-0.49,0.4-0.74,0.68c-1.83,4.76-5.65,3.84-8.19,3.24c-0.33-0.08-0.66-0.16-0.99-0.23
	c-0.28,0.02-0.57-0.07-0.82-0.26c-0.06-0.04-0.11-0.09-0.16-0.14l-0.29-0.29c-0.25-0.25-0.49-0.5-0.78-0.71
	c-0.11-0.07-0.2-0.16-0.27-0.26c-0.04-0.03-0.07-0.03-0.07-0.03c0,0-0.02,0-0.06,0.02c-0.06,0.08-0.14,0.16-0.22,0.23
	c-0.37,0.29-0.69,0.61-0.96,0.96c-0.11,0.14-0.25,0.26-0.4,0.34c-0.28,0.28-0.55,0.55-0.78,0.84c-0.1,0.12-0.21,0.22-0.33,0.29
	c-0.27,0.24-0.5,0.48-0.69,0.71c-0.02,0.02-0.03,0.04-0.05,0.06c-0.01,0.01-0.02,0.02-0.03,0.03c0,0,0,0.01-0.01,0.01h0
	c-0.06,0.07-0.13,0.14-0.21,0.19c-0.28,0.22-0.53,0.48-0.78,0.73l-0.01,0.01c-0.08,0.19-0.21,0.35-0.38,0.48
	c-1.24,0.91-2.63,0.92-3.9,0.03c-0.14-0.09-0.25-0.21-0.34-0.35c-0.01,0-0.05,0.02-0.14,0.08c-0.04,0.05-0.09,0.1-0.14,0.14
	c-0.43,0.35-0.74,0.67-0.98,1c-0.11,0.15-0.25,0.27-0.41,0.36c-0.21,0.19-0.41,0.38-0.6,0.6c-0.08,0.15-0.2,0.29-0.35,0.4
	c-0.28,0.21-0.55,0.47-0.79,0.73c-0.09,0.18-0.23,0.34-0.41,0.46c-0.26,0.18-0.54,0.34-0.81,0.5c-0.43,0.25-0.84,0.49-1.14,0.78
	c-0.87,0.76-1.71,1.44-2.55,2.05l-0.14,0.13c-0.4,0.37-0.85,0.8-1.48,1.09c-0.24,0.16-0.64,0.28-1.05,0.32c-0.04,0-0.07,0-0.1,0
	c-0.2,0-0.4-0.05-0.58-0.14c-0.33-0.16-0.61-0.36-0.86-0.58c-1.52-0.26-1.85-1.71-1.96-2.22c-0.02-0.07-0.03-0.15-0.03-0.22
	c-0.12-3.07-0.14-6.36-0.06-9.77c0.05-2.01-0.26-3.28-0.96-4c-0.62-0.63-1.74-0.94-3.34-1.01c-0.25-0.01-0.47-0.03-0.74-0.03
	c-0.34,0-0.68,0.02-1.02,0.03c-1.68,0.03-3.36,0.08-5.04,0.13c-6.65,0.21-13.53,0.42-20.32-0.63
	C589.86,661.32,589.4,660.78,589.39,660.15z"/>
<g>
	<text transform="matrix(1 0 0 1 571.5312 704.5668)" class="st4 st2 st5">39</text>
</g>
<text transform="matrix(1 0 0 1 549.416 725.0317)"><tspan x="0" y="0" class="st4 st2 st6">WEST </tspan><tspan x="-6.96" y="16.32" class="st4 st2 st6">VIRGINIA</tspan></text>
<g>
	<text transform="matrix(1 0 0 1 527.208 625.5375)" class="st1 st2 st3">JACK THE RIPPER</text>
</g>
<g>
	<text transform="matrix(1 0 0 1 271.5288 828.6274)" class="st1 st2 st3">dAVID BERKOWITZ</text>
</g>
<g>
	<text transform="matrix(1 0 0 1 527.208 828.6293)" class="st1 st2 st3">AILEEN WUORNOS</text>
</g>
<path class="st14" d="M434.47,972.79c-0.05-0.07-0.09-0.14-0.12-0.22c-0.08-0.21-0.14-0.32-0.19-0.39c-0.34,0.45-0.74,0.7-1.21,0.75
	c-0.36,0.04-0.71-0.04-1.05-0.25c-0.21,0.2-0.42,0.4-0.63,0.62c-1.19,1.2-2.55,2.56-4.94,2.41c-4.95-0.3-10.08-0.08-15.68,0.69
	c-2.46,0.33-5,0.68-6.99,2.31c-0.82,0.67-1.84,1.36-3.23,1.38c-0.15,0-0.29-0.03-0.42-0.09c-0.43-0.2-0.72-0.5-0.84-0.87
	c-0.19-0.56,0.07-1.04,0.21-1.3l0.06-0.12c1.1-1.94,2.39-3.93,4.37-5.18c-0.5-0.34-0.92-0.87-1.16-1.75
	c-0.35-1.51,0.68-2.19,1.24-2.56c0.04-0.03,0.08-0.06,0.13-0.08c0.42-0.45,0.94-0.61,1.32-0.72c0.15-0.04,0.31-0.09,0.4-0.14
	c0.02-0.02,0.05-0.04,0.07-0.06c1.07-0.82,1.02-0.88,0.69-1.33c-0.02-0.03-0.04-0.06-0.06-0.09c-1.27-1.54-1.07-3.23-0.63-4.84
	c0.09-1.3,0.08-2.63,0.07-3.92c-0.01-1.09-0.02-2.17,0.03-3.26c0-0.1,0.02-0.19,0.05-0.28c0.25-0.69,0.29-1.46,0.34-2.28
	c0.01-0.15,0.02-0.29,0.03-0.44l-0.05-1.62c-0.01-0.34,0.16-0.62,0.42-0.8c0.08-0.84,0.06-1.69,0.03-2.59
	c-0.05-1.51-0.1-3.07,0.38-4.64c-0.09-0.13-0.16-0.27-0.18-0.42l-0.06-0.37c-0.17-1.1-0.39-2.45,0.42-3.74l4.12-14.07
	c0.06-0.19,0.17-0.35,0.32-0.48c0.1-0.08,0.12-0.34,0.13-0.73c0.02-0.43,0.04-1.04,0.36-1.59c-0.03-0.07-0.06-0.14-0.07-0.21
	c-0.42-2.46-0.34-4.92-0.27-7.31c0.03-0.97,0.06-1.94,0.05-2.92c0-0.09,0.01-0.19,0.04-0.28c1.38-4.66,0.88-9.48,0.29-13.65
	l-0.37-1.02c-0.07,0.01-0.17,0.04-0.35,0.13c-0.06,0.13-0.15,0.25-0.26,0.34c-0.14,0.27-0.41,0.68-0.95,0.75
	c-0.43,0.06-0.82-0.12-1.18-0.53c-0.64-0.73-1.19-1.95-0.11-3.65c0-0.01,0.01-0.01,0.01-0.02c0.36-0.92,0.41-1.79,0.17-2.63
	c-0.01,0.01-0.02,0.02-0.02,0.03c-0.53,1.02-0.85,2.2-1.12,3.32c-0.02,0.08-0.05,0.15-0.08,0.22c-0.2,0.38-0.44,0.7-0.67,1
	c-0.09,0.11-0.17,0.22-0.25,0.34c-0.17,0.24-0.29,0.44-0.38,0.65c-0.21,0.44-0.41,0.85-0.63,1.26c-0.14,0.24-0.24,0.44-0.33,0.67
	l-0.39,0.78c-0.18,0.31-0.34,0.53-0.55,0.76c-0.09,0.1-0.2,0.18-0.32,0.24c-0.23,0.11-0.59,0.09-0.85,0
	c-0.07-0.01-0.14-0.03-0.21-0.06c-0.19-0.08-0.79-0.39-0.53-1.31c-0.07,0.29,0.11,0.8,0.59,1c-0.46-0.19-0.7-0.7-0.55-1.18
	c0.15-0.48,0.4-0.92,0.61-1.31l0.38-0.59c0.21-0.32,0.43-0.64,0.62-0.98c0.13-0.28,0.32-0.59,0.53-0.89l0.38-0.45
	c0.22-0.25,0.42-0.49,0.61-0.74c0.09-0.15,0.19-0.39,0.24-0.62c0.42-1.47,0.88-3.11,2.06-4.46c0.03-0.04,0.04-0.08,0.07-0.12
	c-0.05-0.53-0.03-1.05,0-1.53c0.05-0.8,0.09-1.5-0.25-2.05c-0.06-0.09-0.1-0.2-0.12-0.31c-0.41-1.9-0.17-3.82,0.71-5.87
	c1.12-2.61,2.04-5.19,0.89-8.04c-0.32-0.8-0.27-1.63-0.22-2.37c0.05-0.71,0.09-1.33-0.16-1.84c-1.06-0.97-0.9-2.18-0.8-2.99
	c0.03-0.26,0.07-0.52,0.06-0.77c-0.01-0.29,0.1-0.56,0.31-0.76c0.32-0.29,0.37-0.7,0.42-1.41c0.05-0.62,0.11-1.39,0.55-2.08
	c0.36-1.22,0.66-2.37,0.65-3.52c-0.12-0.04-0.22-0.06-0.3-0.06c-11.79-0.04-23.59-0.07-35.38-0.09c-0.84,0.04-1.44,0.12-1.92,0.43
	c-0.94,0.6-1.91,1.16-2.87,1.71c-2.03,1.17-3.95,2.27-5.57,3.73c-0.78,0.7-1.59,1.37-2.42,2.04c-2.88,2.36-5.61,4.58-6.69,8.21
	c-0.26,0.89-0.91,1.56-1.78,1.83c-1.4,0.43-2.53,1.43-3.71,2.49c-1.59,1.41-3.23,2.87-5.73,3.21c-0.13,0.02-0.28,0.14-0.41,0.33
	c-0.37,0.52-0.51,1.39-0.36,2.12c0.04,0.19,0.08,0.24,0.08,0.24c0.04-0.01,0.34-0.05,0.53-0.08c0.3-0.04,0.63-0.09,0.99-0.06
	c1.16,0.12,2.12,0.6,2.85,1.43c0.55,0.63,1.12,1.36,0.85,2.11c-0.14,0.4-0.49,0.68-0.94,0.76c-0.51,0.08-0.61,0.25-0.8,1.26
	c-0.16,0.84-0.4,2.12-1.81,2.51c-0.43,0.12-0.53,0.23-0.54,0.24c0.02,0.07,0.21,0.48,0.32,0.72l0.15,0.31
	c0.16,0.36,0.37,0.71,0.57,1.05c0.3,0.52,0.61,1.05,0.83,1.65c0.6,1.67,0.55,3.14-0.15,4.26c-0.46,0.74-1.44,1.68-3.47,1.91
	c-2.2,0.25-4,1.21-6,3.24c-3.84,3.88-8.23,5.4-13.44,4.64c-3.25-0.47-5.96-0.21-8.29,0.8c-1.64,0.71-3.17,0.48-4.56-0.7
	c-4.18-3.56-9.38-3.44-14.41-3.32c-0.75,0.02-1.49,0.04-2.23,0.04c-2.78,0.02-5.53,0.77-8.45,1.57c-1.52,0.42-3.1,0.84-4.67,1.16
	c-1.19,0.24-1.48,0.64-1.41,1.98c0.07,1.35,0.28,2.11,1.34,2.8c1.43,0.93,2.46,3.56,2.83,5.74c0.2,1.16,0.4,3.27-0.51,4.46
	c-0.36,0.48-0.72,0.97-1.07,1.47c-1.77,2.49-3.61,5.05-7.01,6.01c-0.81,0.23-1.45,0.67-2.26,1.27c-2.41,1.77-4.83,3.52-7.26,5.28
	l-2.58,1.87c-0.18,0.31-0.34,0.62-0.47,0.92c0.5,1.1,0.37,2.29,0.26,3.26c-0.1,0.81-0.18,1.53,0.03,2.1
	c0.81,0.29,1.72,0.24,2.66,0.18c0.41-0.03,0.83-0.05,1.24-0.05c0,0,0.01,0,0.01,0c12.99,0.01,25.98,0.01,38.96,0.02
	c18.29,0,36.59,0.01,54.88,0.04c0,0,0,0,0,0c0.34,0,0.7-0.04,1.06-0.07c1.41-0.13,3.31-0.32,4.61,1.52c0.94,0.5,1.27,1.37,1.52,2.03
	c0.08,0.22,0.16,0.44,0.26,0.61c0.12,0.12,0.29,0.14,0.79,0.15c0.52,0.01,1.22,0.02,1.85,0.48c0.07,0.05,0.13,0.11,0.18,0.17
	c0.17,0.21,0.39,0.4,0.6,0.59c0.75,0.68,2.15,1.93,0.97,3.96c0.79,1.35,0.77,2.47-0.06,3.34c0.32,0.24,0.6,0.52,0.84,0.83
	c0.12,0.16,0.19,0.35,0.2,0.54c0.67,1.59,2.12,2.14,3.79,2.77c0.47,0.18,0.95,0.36,1.4,0.57c0.13,0.03,0.26,0.09,0.38,0.18
	c0.42,0.34,0.77,0.71,1.04,1c0.08,0.09,0.14,0.19,0.19,0.3c0.15,0.24,0.22,0.47,0.24,0.7c0.3,0.1,0.58,0.25,0.86,0.45
	c0.06,0.02,0.11,0.05,0.17,0.09c0.27,0.18,0.54,0.35,0.82,0.51c0.67,0.41,1.37,0.83,1.99,1.45c0.06,0.06,0.12,0.14,0.16,0.22
	c0.08,0.14,0.15,0.2,0.37,0.2c0.07,0,0.13,0.01,0.2,0.02c0.82,0.18,1.39,0.68,1.83,1.15c0.01,0.01,0.01,0.01,0.02,0.02
	c0.09,0.04,0.21,0.07,0.31,0.1c0.38,0.11,0.88,0.26,1.28,0.71c0.24,0.17,0.44,0.37,0.62,0.54c0.04,0.04,0.08,0.08,0.12,0.11
	c0.1,0.06,0.19,0.13,0.26,0.23c0.03,0.04,0.26,0.11,0.38,0.15c0.36,0.11,0.85,0.26,1.24,0.69c0.25,0.16,0.5,0.31,0.75,0.47
	c0.58,0.35,1.17,0.72,1.74,1.15c0.05,0.04,0.09,0.08,0.13,0.12c0.09,0.04,0.21,0.07,0.32,0.1c0.35,0.1,0.87,0.26,1.28,0.7
	c0.23,0.17,0.43,0.36,0.6,0.52c0.05,0.05,0.09,0.09,0.14,0.14c0.09,0.06,0.18,0.13,0.25,0.23c0.03,0.04,0.26,0.11,0.39,0.15
	c0.36,0.11,0.84,0.26,1.24,0.68c0.88,0.6,1.39,1.31,1.54,2.11c0.15,0.79-0.08,1.62-0.68,2.46l-2.36,6.37
	c-0.03,0.07-0.08,0.13-0.12,0.2c0.88,0.69,1.75,0.53,3.16,0.17c0.83-0.21,1.68-0.43,2.62-0.35c2.74,0.22,5.54-0.33,9.08-1.77
	c2.94-1.2,6.14-2.03,10.07-2.62c4.89-0.73,11.22-2.03,16.82-5.6c0.08-0.05,0.16-0.1,0.24-0.14c-0.09,0.04-0.2,0.08-0.33,0.13
	C436.95,973.68,435.53,974.28,434.47,972.79z"/>
<g>
	<text transform="matrix(1 0 0 1 359.4321 906.9223)" class="st4 st2 st5">20</text>
</g>
<text transform="matrix(1 0 0 1 337.021 929.6039)" class="st4 st2 st6">NEW YORK</text>
<path class="st15" d="M589.76,971.07c-0.01-0.3-0.02-0.51-0.09-0.66c-0.14-0.11-0.23-0.26-0.25-0.44c-0.14-1,0.02-1.71,0.48-2.16
	c0.65-0.64,1.62-0.48,2.33-0.36c0.22,0.04,0.43,0.08,0.61,0.08c0,0,0,0,0,0c12.3-0.04,24.61-0.04,36.91-0.05
	c6.64,0,13.27,0,19.91-0.01c0,0,0,0,0.01,0c0.3,0,0.61,0.02,0.91,0.04c0.08,0.01,0.16,0.01,0.24,0.01c0.62,0.04,1.18,0.05,1.69-0.15
	c0.1-0.5,0.11-1.01,0.1-1.55c0-0.19-0.01-0.38-0.02-0.57c-0.01-0.31-0.02-0.61-0.02-0.92c0.01-10.2,0.01-20.4,0.01-30.6l0-7.85
	c-0.13-2.51,0.01-5.07,0.14-7.55c0.1-1.83,0.2-3.72,0.19-5.57c0.03-5.5,0.01-11.08,0-16.48c-0.03-8.9-0.05-18.11,0.13-27.17
	c0-0.06,0.01-0.12,0.03-0.18c0.19-0.7,0.18-1.43,0.16-2.22c-0.01-0.6-0.02-1.23,0.06-1.87c0.01-0.07,0.03-0.13,0.05-0.19
	c0.01-0.02,0.01-0.04,0.02-0.06c0.13-0.3,0.24-0.6,0.32-0.89c0.01-0.41,0.03-0.82,0.04-1.23c-0.42-2.37-0.3-4.71-0.01-6.88
	c-0.06-0.58-0.15-1.16-0.28-1.74c-0.13-0.21-0.29-0.36-0.51-0.47c-0.03-0.01-0.06-0.02-0.09-0.03l-47.14,0.03
	c-17.79-0.02-35.57-0.04-53.36-0.07c-0.96,0-1.93-0.02-2.89-0.05l-0.15,0c-0.3,0.11-0.58,0.26-0.86,0.48
	c-0.02,0.03-0.03,0.06-0.05,0.09c0.13,0.62,0.11,1.23,0.07,1.8c-0.01,0.24-0.03,0.49-0.03,0.73c0.01,41.48,0.02,82.96,0,124.44
	c0,0.24,0.02,0.48,0.04,0.72c0.04,0.54,0.08,1.12-0.04,1.7c0.01,0.01,0.01,0.02,0.02,0.02c1.03,0.01,2.07,0.01,3.1,0.02
	c2.79,0.01,5.68,0.02,8.51,0.09c0.46,0.01,0.78-0.05,0.91-0.18c0.14-0.13,0.22-0.46,0.22-0.96c0.04-2.07,0.15-4.16,0.25-6.18
	c0.04-0.84,0.09-1.68,0.13-2.52c0.01-0.31,0.23-0.58,0.53-0.67c0.9-0.25,1.78-0.23,2.63-0.2c0.25,0.01,0.5,0,0.76,0.02
	c2.27,0,4.54,0,6.82,0c5.24,0,10.65,0,15.97-0.06c0.26-0.01,0.56,0.06,0.86,0.13c0.23,0.06,0.66,0.16,0.8,0.11
	c-0.01-0.01,0.02-0.08,0.03-0.28c0-0.08,0-0.17-0.01-0.28C589.79,971.86,589.77,971.43,589.76,971.07z"/>
<g>
	<text transform="matrix(1 0 0 1 583.5752 910.018)" class="st4 st2 st5">14</text>
</g>
<text transform="matrix(1 0 0 1 565.6221 932.5551)" class="st4 st2 st6">NEW MEXICO</text>
</svg>
