<svg xmlns="http://www.w3.org/2000/svg" xmlns:xlink="http://www.w3.org/1999/xlink" viewBox="0 0 1026.71 602.42"><defs><style>.cls-1,.cls-11,.cls-12,.cls-2,.cls-5{fill:none;}.cls-2{stroke:#e0e1e1;opacity:0.91;}.cls-3,.cls-4,.cls-8{isolation:isolate;}.cls-3{font-size:12px;}.cls-3,.cls-4{fill:gray;font-family:Helvetica;}.cls-4{font-size:11px;}.cls-5{stroke:#f23341;stroke-linecap:round;stroke-linejoin:round;stroke-width:2px;}.cls-6{fill:#fff;}.cls-13,.cls-7,.cls-9{fill:#f23341;}.cls-9{font-size:13px;font-family:ArialMT, Arial;}.cls-10{letter-spacing:-0.02em;}.cls-11,.cls-12{stroke:#f02c39;stroke-miterlimit:10;}.cls-12{stroke-dasharray:11.95 11.95;}.cls-13{font-size:15px;font-family:Arial-BoldMT, Arial;font-weight:700;}.cls-14{letter-spacing:-0.06em;}</style><clipPath id="clip-path"><polygon class="cls-1" points="891.03 176.44 891.03 176.44 891.03 176.44 891.03 176.44 891.03 176.44"/></clipPath></defs><title>Artboard 1</title><g id="Numbers"><g id="index"><path class="cls-2" d="M877.26,559.11H54.9V66.93H877.26"/></g><text class="cls-3" transform="translate(47.13 45.08)">&apos;04</text><text class="cls-3" transform="translate(165.01 45.08)">&apos;06</text><text class="cls-3" transform="translate(282.89 45.08)">&apos;08</text><text class="cls-3" transform="translate(399.77 45.08)">&apos;10</text><text class="cls-3" transform="translate(517.65 45.08)">&apos;12</text><text class="cls-3" transform="translate(635.53 45.08)">&apos;14</text><text class="cls-3" transform="translate(751.41 45.08)">&apos;16</text><text class="cls-3" transform="translate(869.29 45.08)">&apos;18</text><text class="cls-4" transform="translate(36.13 542.78)">10</text><text class="cls-4" transform="translate(36.13 490.95)">20</text><text class="cls-4" transform="translate(36.13 438.12)">30</text><text class="cls-4" transform="translate(36.13 386.29)">40</text><text class="cls-4" transform="translate(36.13 333.46)">50</text><text class="cls-4" transform="translate(36.13 281.63)">60</text><text class="cls-4" transform="translate(36.13 228.8)">70</text><text class="cls-4" transform="translate(36.13 175.97)">80</text><text class="cls-4" transform="translate(36.13 124.14)">90</text><text class="cls-4" transform="translate(30.02 72.31)">100</text></g><g id="Trend_Lines" data-name="Trend Lines"><g id="Slopes"><path class="cls-5" d="M54.53,412.06C74.11,419.48,93.7,426.9,113.29,433s39.18,15.7,58.77,15.7,39.18-47.12,58.77-47.12S270,429.51,289.59,433a334.46,334.46,0,0,0,58.77,5.23,174.11,174.11,0,0,0,58.77-10.47c19.59-7,39.18-62.83,58.76-62.83s39.18,20.94,58.77,20.94h58.77c19.59,0,39.18-104.72,58.77-104.72S681.37,359.7,701,380.64s39.18,31.42,58.77,31.42,39.18-226.89,58.77-230.39,39.17-4.36,58.76-5.23"/></g><g id="Circles"><g id="Dahmer"><circle class="cls-6" cx="891.03" cy="176.44" r="13.33"/><circle class="cls-7" cx="891.03" cy="176.44" r="13.33"/><g class="cls-8"><path class="cls-6" d="M886,174.34v-1.25h4.58v1a7,7,0,0,0-1.15,1.6,9.75,9.75,0,0,0-.9,2.22,8.61,8.61,0,0,0-.3,2.1H887a8.87,8.87,0,0,1,.6-3,9.66,9.66,0,0,1,1.5-2.69Z"/><path class="cls-6" d="M891.47,178.37l1.3-.14a.9.9,0,0,0,.25.59.72.72,0,0,0,.53.19.87.87,0,0,0,.7-.38,3.2,3.2,0,0,0,.37-1.59,1.6,1.6,0,0,1-1.26.59,1.85,1.85,0,0,1-1.42-.64,2.3,2.3,0,0,1-.6-1.66,2.36,2.36,0,0,1,.63-1.71,2.13,2.13,0,0,1,1.61-.65,2.17,2.17,0,0,1,1.75.82,4.29,4.29,0,0,1,.68,2.71,4.34,4.34,0,0,1-.71,2.77,2.33,2.33,0,0,1-1.86.85,2,2,0,0,1-1.32-.44A2.13,2.13,0,0,1,891.47,178.37Zm3-2.93a1.51,1.51,0,0,0-.3-1,.88.88,0,0,0-.69-.36.78.78,0,0,0-.62.29,1.53,1.53,0,0,0-.25,1,1.51,1.51,0,0,0,.27,1,.85.85,0,0,0,.67.32.81.81,0,0,0,.65-.31A1.31,1.31,0,0,0,894.51,175.44Z"/></g></g><text class="cls-9" transform="translate(909.53 180.51)">Je<tspan class="cls-10" x="13.73" y="0">f</tspan><tspan x="17.11" y="0">frey Dahmer</tspan></text></g><g id="Peak_lines" data-name="Peak lines"><line class="cls-11" x1="230.71" y1="67.16" x2="230.71" y2="73.34"/><line class="cls-12" x1="230.71" y1="85.63" x2="230.71" y2="546.8"/><line class="cls-11" x1="230.71" y1="552.94" x2="230.71" y2="559.11"/></g><g id="Peak_lines-2" data-name="Peak lines"><line class="cls-11" x1="462.46" y1="67.04" x2="462.46" y2="73.22"/><line class="cls-12" x1="462.46" y1="85.52" x2="462.46" y2="546.68"/><line class="cls-11" x1="462.46" y1="552.82" x2="462.46" y2="559"/></g><g id="Peak_lines-3" data-name="Peak lines"><line class="cls-11" x1="641.14" y1="67.04" x2="641.14" y2="73.22"/><line class="cls-12" x1="641.14" y1="85.52" x2="641.14" y2="546.68"/><line class="cls-11" x1="641.14" y1="552.82" x2="641.14" y2="559"/></g><g id="Peak_lines-4" data-name="Peak lines"><line class="cls-11" x1="815.32" y1="67.04" x2="815.32" y2="73.22"/><line class="cls-12" x1="815.32" y1="85.52" x2="815.32" y2="546.68"/><line class="cls-11" x1="815.32" y1="552.82" x2="815.32" y2="559"/></g><text class="cls-13" transform="translate(214.82 576.51)">2007</text><text class="cls-13" transform="translate(447.42 576.51)">20<tspan class="cls-14" x="16.68" y="0">1</tspan><tspan x="24.2" y="0">1</tspan></text><text class="cls-13" transform="translate(625.33 576.51)">2014</text><text class="cls-13" transform="translate(798.84 576.51)">2017</text></g></svg>