<svg id="Layer_1" data-name="Layer 1" xmlns="http://www.w3.org/2000/svg" viewBox="0 0 307 231"><defs><style>.cls-1{fill:#9d2481;}.cls-2{isolation:isolate;}.cls-3{fill:#fff;}</style></defs><title>wuornos_state</title><path class="cls-1" d="M139.76,200.24a3.06,3.06,0,0,0-.15-1.06,1,1,0,0,1-.4-.7c-.22-1.6,0-2.74.77-3.46,1-1,2.59-.77,3.73-.57a6.1,6.1,0,0,0,1,.12h0q29.5-.09,59-.08h31.86c.48,0,1,0,1.45.06a2.55,2.55,0,0,0,.39,0,6.29,6.29,0,0,0,2.7-.24,11.25,11.25,0,0,0,.16-2.48c0-.3,0-.61,0-.91,0-.5,0-1,0-1.47q0-24.48,0-48.94V128a115.55,115.55,0,0,1,.23-12.07c.16-2.93.32-6,.3-8.91.05-8.79,0-17.72,0-26.35-.05-14.24-.08-29,.21-43.46a.9.9,0,0,1,0-.28,12.15,12.15,0,0,0,.26-3.55,20.19,20.19,0,0,1,.1-3,1,1,0,0,1,.08-.31.32.32,0,0,1,0-.09,10.68,10.68,0,0,0,.51-1.43c0-.65.05-1.31.06-2a35.59,35.59,0,0,1,0-11,24.37,24.37,0,0,0-.45-2.78,1.86,1.86,0,0,0-.82-.75l-.14,0-75.39,0-85.34-.11c-1.53,0-3.08,0-4.62-.08H75a4.66,4.66,0,0,0-1.37.76l-.08.15a10.41,10.41,0,0,1,.11,2.88c0,.38,0,.78,0,1.16q0,99.51,0,199a11.26,11.26,0,0,0,.07,1.15,10,10,0,0,1-.07,2.72l0,0c1.65,0,3.31,0,5,0,4.46,0,9.08,0,13.61.14a2.26,2.26,0,0,0,1.46-.28,2.33,2.33,0,0,0,.35-1.54c.06-3.31.24-6.65.4-9.88.06-1.35.14-2.69.21-4a1.15,1.15,0,0,1,.84-1.07,13.5,13.5,0,0,1,4.21-.32c.4,0,.8,0,1.21,0h10.91c8.38,0,17,0,25.54-.1a5.94,5.94,0,0,1,1.38.21,3.51,3.51,0,0,0,1.28.18s0-.13,0-.45c0-.13,0-.27,0-.45A5.52,5.52,0,0,1,139.76,200.24Z"/><g class="cls-2"><path class="cls-3" d="M135.76,69.21c4.64,0,5.67-2.24,6.6-4.81h4v38.2h-6V73.46h-4.64Z"/><path class="cls-3" d="M152.24,90.21,163.15,64.4h6.55V90.21h2.84v5.46H169.7v6.93h-6V95.67H152.24Zm11.46,0V76.08h-.11l-5.84,14.13Z"/></g><g class="cls-2"><path class="cls-3" d="M105.14,124.21h-.06v14.43h-2.82V118.71h3.93l3.16,11.93h.06V118.71h2.79v19.93H109Z"/><path class="cls-3" d="M117.58,127.11h4.3V130h-4.3v5.83H123v2.85h-8.54V118.71H123v2.85h-5.41Z"/><path class="cls-3" d="M131.9,128h-.06l-1.11,10.62h-4.29l-2.23-19.93h3.05l1.65,15.72H129l1.48-15.72h3L135,134.54h.05l1.6-15.83h2.73l-2.22,19.93H133Z"/><path class="cls-3" d="M152,132.86H152l2.11-14.15h4.35v19.93h-3V124.35h-.05l-2.11,14.29h-3l-2.28-14.09h-.06v14.09h-2.73V118.71h4.36Z"/><path class="cls-3" d="M163.9,127.11h4.3V130h-4.3v5.83h5.41v2.85h-8.54V118.71h8.54v2.85H163.9Z"/><path class="cls-3" d="M181.7,118.71l-3.28,9.68,3.5,10.25h-3.3l-2.53-7.89H176l-2.56,7.89h-2.94L174,128.39l-3.28-9.68H174l2.33,7.35h.06l2.39-7.35Z"/><path class="cls-3" d="M183.49,118.71h3.13v19.93h-3.13Z"/><path class="cls-3" d="M198,131.21v2.65c0,3.19-1.59,5-4.67,5s-4.67-1.82-4.67-5V123.49c0-3.19,1.6-5,4.67-5s4.67,1.82,4.67,5v1.94h-3v-2.14c0-1.42-.63-2-1.62-2s-1.63.54-1.63,2v10.77c0,1.42.63,1.93,1.63,1.93s1.62-.51,1.62-1.93v-2.85Z"/><path class="cls-3" d="M199.63,123.49c0-3.19,1.68-5,4.76-5s4.75,1.82,4.75,5v10.37c0,3.19-1.68,5-4.75,5s-4.76-1.82-4.76-5Zm3.13,10.57c0,1.42.63,2,1.63,2s1.62-.54,1.62-2V123.29c0-1.42-.63-2-1.62-2s-1.63.54-1.63,2Z"/></g></svg>