<svg id="Layer_1" data-name="Layer 1" xmlns="http://www.w3.org/2000/svg" viewBox="0 0 307 252"><defs><style>.cls-1{fill:#decc59;}.cls-2{isolation:isolate;}.cls-3{fill:#fff;}</style></defs><title>zodiac_state</title><path class="cls-1" d="M141,65.17l0-4.62-.16-34.26s0,0,0,0a9.75,9.75,0,0,1-.61.77,4.45,4.45,0,0,1-.53.65A6.14,6.14,0,0,1,138,31.46a12.82,12.82,0,0,1-.27,2.28,17.14,17.14,0,0,1-1.23,3.62c-.15.3-.29.62-.43.93s0,.83,0,1.24v.37a9,9,0,0,1-1.25,5.28,5.67,5.67,0,0,1-.67.83,5.34,5.34,0,0,1-1.77,3.9,5.6,5.6,0,0,1-1.86,3.73,5.62,5.62,0,0,1-1.73,3.58,29.27,29.27,0,0,0,.28,3,26.88,26.88,0,0,1,.28,4v1.11c0,2.83-.08,7.11-4.5,9.45a22.45,22.45,0,0,0-3.53,2.41,58.31,58.31,0,0,0-5.45,5.26c-.74.79-1.48,1.56-2.23,2.32a5.15,5.15,0,0,1-4.11,2.61,5.53,5.53,0,0,1-3.8,1.89,5.63,5.63,0,0,1-.87.83,3.23,3.23,0,0,1-3.93.16,5.2,5.2,0,0,1-1.12-1l-3.25,0a4.75,4.75,0,0,1-2.6,1.6,7.58,7.58,0,0,1-.28,1.65,5.4,5.4,0,0,1-1.18,2.25,6.21,6.21,0,0,1-3.93,1.81,16.83,16.83,0,0,1-2.56.14c-.26.87-.45,1.79-.66,2.74,0,.19-.09.4-.13.59A25.81,25.81,0,0,1,84,104.1a13,13,0,0,1-1.12,2.28l-.09,1a8.69,8.69,0,0,0-.1,1.48,1.77,1.77,0,0,0,.08.55c1.07,2.75,1.15,5.16.24,7.21-1.28,2.88-4.19,4.38-6.69,5.36a4.49,4.49,0,0,1-6.17-.4,2,2,0,0,1-.62-1.25,6.14,6.14,0,0,1,.11-2.26l-.11-2.22-.1-2.08-.37-.35a4,4,0,0,1-1.85,1.2l-1,1.07c-.18.61-.32,1.22-.46,1.82l-.4,1.59a18.59,18.59,0,0,1-1,2.7,10.75,10.75,0,0,1-2,3.1,4.22,4.22,0,0,1-1.51,2l0,1.66a11.17,11.17,0,0,1,1.61,3,7.74,7.74,0,0,1,.48,3.66,6.27,6.27,0,0,1-2.83,4.41,8.34,8.34,0,0,0-2.61,3.6,18.4,18.4,0,0,1-1.5,2.58,8.22,8.22,0,0,1-.7,1,2.34,2.34,0,0,1-.13.4,5.35,5.35,0,0,1-5.45,4.38c-.66,0-1.3,0-1.83,0-.3,0-.6,0-.91,0a5.15,5.15,0,0,1-3.08,1.63c-.29.05-.56.1-.84.12.87,3,1.52,6.68-.75,9.9a9.94,9.94,0,0,1-2.17,2.25c-.93,1.81-.16,3.2,1.32,5.57.18.28.36.57.53.86.58.54,1.14,1.1,1.67,1.68a21.87,21.87,0,0,1,1.74,1.73,5.48,5.48,0,0,1,1.69,4.28,4.07,4.07,0,0,0,.18,1.25c.66.61,1.29,1.23,1.89,1.89a13.69,13.69,0,0,1,3.15,5.63c.27.75.54,1.5.88,2.22.64.94,1.24,1.92,1.84,2.89,1.74,2.83,3.39,5.52,6.14,7.1a2.21,2.21,0,0,1,.8.52,2.06,2.06,0,0,1,.46.73c.32.69,1,1,2.45,1.43a13,13,0,0,1,2.65,1.11,5.7,5.7,0,0,1,1.94,1.86,7.24,7.24,0,0,0,1.18.88,1.59,1.59,0,0,1,.27.18,4.35,4.35,0,0,1,1.33,1.82,7.55,7.55,0,0,1,.48,2.46,3.81,3.81,0,0,0,.16,1.17,7.13,7.13,0,0,1,1.54,3.49,5.23,5.23,0,0,0,.41,1.4,13.8,13.8,0,0,1,1.58,1.57,28.49,28.49,0,0,1,5,3.31c4,3.15,6.57,4.85,10.76,2.35a5.65,5.65,0,0,1,3.34-1.52,7.45,7.45,0,0,0,.83-.17,6.64,6.64,0,0,1,2.4-1.67,5.38,5.38,0,0,1,3.9.07,14.43,14.43,0,0,1,2.52,1.24c.39.24.78.47,1.18.68a9.52,9.52,0,0,0,3.37-.13c.39-.07.77-.11,1.15-.16a15.63,15.63,0,0,1,11.28-2.7c.4-.4.8-.79,1.21-1.16a3.21,3.21,0,0,0,.16-1.24,5.5,5.5,0,0,1,1.81-4.4l.13-.1a4.35,4.35,0,0,1,6,.16,3.47,3.47,0,0,0,3.77-.24,2.27,2.27,0,0,1,1-.29h.56a11.9,11.9,0,0,0,1.55-.1c-.13-1.71,1.76-2.22,2.82-2.51a6.69,6.69,0,0,1,4.59.66c1.05.45,1.5.61,1.93.43,2.13-.94,2.75-2.72,3.62-5.57.2-.68.41-1.37.65-2a1.91,1.91,0,0,1,.43-.95,7.34,7.34,0,0,1,1.27-1.15l.4-.32c-2.08-3.47-.52-6.33.64-8.43a14.65,14.65,0,0,0,1-2,1.88,1.88,0,0,1,.19-.61,1.48,1.48,0,0,1,.16-.27c.43-.64.83-1.3,1.23-1.95a25,25,0,0,1,2.51-3.68c.42-.61.8-1.25,1.2-1.89a27.79,27.79,0,0,1,2.33-3.44,11,11,0,0,1,3.91-4.06,26.22,26.22,0,0,0,1.2-2.77c.28-.76.59-1.52.92-2.27,1.2-3.52,3.36-6.63,5.46-9.66a41.83,41.83,0,0,0,4.75-8.09,2.29,2.29,0,0,1,.3-.66,1.49,1.49,0,0,1,.24-.28c1.42-1.51,1.76-3.49,2.14-5.79a21.22,21.22,0,0,1,1.25-4.91,6.88,6.88,0,0,1,2.59-3.17,1.28,1.28,0,0,1,.24-.11,4.36,4.36,0,0,1,1-.38,5.33,5.33,0,0,1,4.48,1.18,1.58,1.58,0,0,1,.18.13.65.65,0,0,1,.09.08h0a17.33,17.33,0,0,1,1.94,1.9,5.68,5.68,0,0,1,1.55,2.85,5.6,5.6,0,0,0,.29.83,10.45,10.45,0,0,0,8,2.06,23.88,23.88,0,0,0,5-9.8,1.94,1.94,0,0,1,.48-1.23,18.45,18.45,0,0,1,2-2,16.56,16.56,0,0,1,1.87-1.88,3.73,3.73,0,0,0,.17-1.24,5.49,5.49,0,0,1,1.63-4.24c.1-.19.18-.51.28-.78a5.5,5.5,0,0,1,1.72-3l.07,0a4.34,4.34,0,0,1,6.25.19l0,0c.19-.21.4-.39.59-.58q.6-.61,1.23-1.2a52.28,52.28,0,0,1,5.57-4.09c2.95-2,5.75-3.84,7.74-6.54a21.41,21.41,0,0,1,7.56-7.77,7.24,7.24,0,0,0,.32-3.49,16.63,16.63,0,0,1,0-3,17.29,17.29,0,0,1,1.88-5.79,17.05,17.05,0,0,0,1.39-3.73s0,0,0-.08a2,2,0,0,1,.35-.8,5.52,5.52,0,0,1,3.65-2.57,3.94,3.94,0,0,1,1.79.17,8.35,8.35,0,0,1,2.8,1.64,9.56,9.56,0,0,0,.91.67,2.31,2.31,0,0,1,.64.37,20,20,0,0,1,1.92,1.88,42.14,42.14,0,0,1,4.51,3.34c.75.61,1.5,1.24,2.27,1.81a2.48,2.48,0,0,1,.4.26,17.16,17.16,0,0,1,2,2c.54.37,1.12.7,1.68,1.06a29.84,29.84,0,0,1,3.21,2.14c1.18,0,1.55-.66,2.35-2.74a14.78,14.78,0,0,1,1.27-2.68c.06-.37.08-.74.12-1.12a13.07,13.07,0,0,0,.08-1.87,15.06,15.06,0,0,0-1-5.12,6.21,6.21,0,0,1-1.05-2.26,4.37,4.37,0,0,0-.28-.76,2.94,2.94,0,0,1-.3-.31,9.53,9.53,0,0,0-.75-.83c-.21-.22-.42-.45-.62-.69l-.13-.09a5.69,5.69,0,0,1-1.71-4.58,5.75,5.75,0,0,0-.12-1.24,6.7,6.7,0,0,0-1.9-.08,7.48,7.48,0,0,1-5.18-1.22,1.73,1.73,0,0,1-.38-.3l-.32-.32c-.39-.39-.77-.79-1.19-1.15a.76.76,0,0,1-.17-.13A10.49,10.49,0,0,0,262.17,69a2.81,2.81,0,0,0-2.37,0l-.64.32c-.3.15-.62.27-.92.42a11.66,11.66,0,0,1,0,1.17,2.07,2.07,0,0,1-1.55,1.82l-.77.11a1.86,1.86,0,0,1-.9-.08l-.51-.16a1.43,1.43,0,0,1-.45-.21c-1.53-.94-2.38-.88-3.15-.33a3.33,3.33,0,0,1-.28.25,7.36,7.36,0,0,0-1.19,1.09c-2.92,7.61-9,6.14-13.09,5.18l-1.59-.37a1.91,1.91,0,0,1-1.31-.41,1.94,1.94,0,0,1-.26-.23l-.46-.46a9.59,9.59,0,0,0-1.25-1.13,1.72,1.72,0,0,1-.43-.42.19.19,0,0,0-.11,0l-.1,0a2,2,0,0,1-.35.37,8.91,8.91,0,0,0-1.53,1.54,2.19,2.19,0,0,1-.64.54,17.14,17.14,0,0,0-1.25,1.34,1.93,1.93,0,0,1-.53.47,10.46,10.46,0,0,0-1.1,1.13l-.08.1-.05,0s0,0,0,0h0a1.22,1.22,0,0,1-.33.31,13.73,13.73,0,0,0-1.25,1.16l0,0a1.86,1.86,0,0,1-.6.77,5.06,5.06,0,0,1-6.24,0,1.92,1.92,0,0,1-.54-.56.91.91,0,0,0-.23.12,1.58,1.58,0,0,1-.22.23,8.35,8.35,0,0,0-1.57,1.6,2.08,2.08,0,0,1-.65.57,10.87,10.87,0,0,0-1,1,1.89,1.89,0,0,1-.56.64A10,10,0,0,0,210.83,88a2,2,0,0,1-.65.74c-.42.28-.87.54-1.3.8a9.64,9.64,0,0,0-1.82,1.24c-1.39,1.22-2.74,2.31-4.08,3.28l-.22.21a8.93,8.93,0,0,1-2.37,1.74,3.79,3.79,0,0,1-1.68.51h-.16a2.15,2.15,0,0,1-.93-.22,6.22,6.22,0,0,1-1.37-.93c-2.43-.41-3-2.73-3.14-3.55a1.41,1.41,0,0,1-.05-.35c-.19-4.91-.22-10.17-.09-15.62.08-3.22-.42-5.25-1.54-6.4s-2.78-1.5-5.34-1.62c-.4,0-.75,0-1.18,0s-1.09,0-1.63,0c-2.69,0-5.38.13-8.06.21-10.64.34-21.64.67-32.5-1A1.85,1.85,0,0,1,141,65.17Z"/><g class="cls-2"><path class="cls-3" d="M113.24,123.83,124.15,98h6.55v25.81h2.84v5.45H130.7v6.93h-6v-6.93H113.24Zm11.46,0V109.7h-.11l-5.84,14.13Z"/><path class="cls-3" d="M140,102.82c4.64,0,5.68-2.24,6.6-4.8h4v38.19h-6V107.08H140Z"/></g><g class="cls-2"><g class="cls-2"><path class="cls-3" d="M85.23,158.32h-.06l-1.11,10.62h-4.3L77.54,149h3l1.66,15.72h.05L83.77,149h3l1.54,15.83h.06L90,149h2.73l-2.22,19.93H86.34Z"/><path class="cls-3" d="M97.41,157.41h4.3v2.85h-4.3v5.83h5.41v2.85H94.28V149h8.54v2.85H97.41Z"/><path class="cls-3" d="M109,148.78c3,0,4.61,1.83,4.61,5v.63h-3v-.82c0-1.43-.57-2-1.57-2s-1.56.54-1.56,2,.63,2.53,2.68,4.32c2.61,2.31,3.44,4,3.44,6.24,0,3.19-1.59,5-4.67,5s-4.67-1.82-4.67-5v-1.23h3v1.43c0,1.42.63,1.93,1.63,1.93s1.62-.51,1.62-1.93-.63-2.54-2.68-4.33c-2.62-2.31-3.44-4-3.44-6.24C104.36,150.61,105.92,148.78,109,148.78Z"/><path class="cls-3" d="M114.49,149h9.68v2.85H120.9v17.08h-3.13V151.86h-3.28Z"/></g><g class="cls-2"><path class="cls-3" d="M71.82,191.37h.05l2.37-16.26h2.87L74,195H69.37l-3.08-19.93h3.16Z"/><path class="cls-3" d="M78.56,175.11H81.7V195H78.56Z"/><path class="cls-3" d="M90.52,195a6.16,6.16,0,0,1-.28-2.45v-3.13c0-1.85-.63-2.53-2-2.53H87.1V195H84V175.11H88.7c3.25,0,4.64,1.51,4.64,4.59v1.56c0,2.05-.65,3.36-2,4v.05c1.57.66,2.08,2.14,2.08,4.22v3.07a5.92,5.92,0,0,0,.34,2.42ZM87.1,178v6.12h1.23c1.17,0,1.88-.51,1.88-2.11v-2c0-1.43-.49-2-1.6-2Z"/><path class="cls-3" d="M100.12,183.94h4.38v6.32c0,3.19-1.59,5-4.67,5s-4.67-1.82-4.67-5V179.89c0-3.18,1.6-5,4.67-5s4.67,1.83,4.67,5v1.94h-3V179.7c0-1.43-.63-2-1.62-2s-1.63.54-1.63,2v10.76c0,1.42.63,1.93,1.63,1.93s1.62-.51,1.62-1.93v-3.67h-1.42Z"/><path class="cls-3" d="M106.52,175.11h3.13V195h-3.13Z"/><path class="cls-3" d="M114.78,180.61h-.06V195H111.9V175.11h3.93L119,187h.06V175.11h2.79V195h-3.22Z"/><path class="cls-3" d="M124.09,175.11h3.13V195h-3.13Z"/><path class="cls-3" d="M139.63,195h-3.16l-.54-3.61h-3.84l-.54,3.61h-2.88l3.19-19.93h4.58Zm-7.14-6.32h3L134,178.64H134Z"/></g></g></svg>